<svg><defs><font id="GothamProNarrow-Medium" horiz-adv-x="1101" vert-adv-y="1101"><font-face font-family="Gotham Pro Narrow Medium" font-weight="400" ascent="722" descent="-151"/><glyph glyph-name="uni21" unicode="!" d="m206 665-37-448h-61L72 665v35h134v-35M202 0H75v132h127V0Z" horiz-adv-x="277" vert-adv-y="1000"/><glyph glyph-name="uni22" unicode="&quot;" d="m395 694-87-292h-54l15 298h126v-6m-197 0-87-292H56l17 298h125v-6Z" horiz-adv-x="435" vert-adv-y="1000"/><glyph glyph-name="uni23" unicode="#" d="M571 442h-94l-25-180h89v-98H437L414 0h-94l23 164H206L182 0H88l24 164H33v98h93l26 180H64v98h103l23 160h94l-23-160h138l22 160h94l-23-160h79v-98m-187 0H246l-25-180h137l26 180Z" horiz-adv-x="605" vert-adv-y="1000"/><glyph glyph-name="uni24" unicode="$" d="M322-100h-80V0Q134 10 45 78l45 94q84-64 161-73v205q-100 39-145 85.5T61 514v1q0 76 50 126t131 60v61h80v-61q84-9 160-62l-40-96q-69 47-129 57V405q110-46 152-93t42-123v-1q0-76-51.5-126.5T322 0v-100m79 284q0 33-19 55t-69 43V98q88 12 88 85v1M168 522q0-33 17.5-53.5T251 428v173q-41-5-62-26t-21-53Z" horiz-adv-x="554" vert-adv-y="1000"/><glyph glyph-name="uni25" unicode="%" d="M339 525q0-76-41.5-126T190 349q-65 0-106.5 49.5T42 523v8q0 76 41.5 126T191 707q65 0 106.5-50T339 532v-7m312 175L197 0h-88l454 700h88m67-531q0-76-42-126T568-7q-65 0-106 49.5T421 168v7q0 76 41.5 126T570 351q65 0 106.5-49.5T718 177v-8M256 524v6q0 46-18.5 74.5T190 633q-30 0-47.5-27.5T125 532v-7q0-46 18.5-74t47.5-28q30 0 47.5 27.5T256 524m379-356v7q0 46-18.5 74T568 277q-29 0-46.5-27.5T504 176v-6q0-46 18.5-74.5T570 67q30 0 47.5 27.5T635 168Z" horiz-adv-x="760" vert-adv-y="1000"/><glyph glyph-name="uni26" unicode="&amp;" d="m593 46-85-59-77 89q-84-86-190-86-90 0-149.5 54T32 185v3q0 127 138 201-59 84-59 152v3q0 69 50 118t132 49q75 0 122-46t47-115v-3q0-118-139-185l108-129q30 52 59 128l88-38q-35-96-81-167l96-110M360 541v4q0 33-19.5 53.5T290 619q-33 0-53.5-22T216 542v-4q0-45 50-110 94 45 94 113m9-395L230 315q-82-46-82-122v-3q0-45 29.5-74T253 87q60 0 116 59Z" horiz-adv-x="616" vert-adv-y="1000"/><glyph glyph-name="uni27" unicode="'" d="m199 694-87-292H56l17 298h126v-6Z" horiz-adv-x="238" vert-adv-y="1000"/><glyph glyph-name="uni28" unicode="(" d="m352-63-37-77Q57-10 57 288q0 296 258 427l37-78Q169 516 169 288q0-117 45-202.5T352-63Z" horiz-adv-x="393" vert-adv-y="1000"/><glyph glyph-name="uni29" unicode=")" d="M336 288q0-299-258-428L41-63Q135 0 179.5 85T224 288q0 229-183 349l37 78q258-131 258-427Z" horiz-adv-x="393" vert-adv-y="1000"/><glyph glyph-name="uni2a" unicode="*" d="m343 498-35-60-93 71 15-119h-70l15 119-93-71-35 60 107 47-107 47 35 61 93-71-15 119h70l-15-119 93 71 35-61-107-47 107-47Z" horiz-adv-x="390" vert-adv-y="1000"/><glyph glyph-name="uni2b" unicode="+" d="M519 300H342V118H234v182H57v104h177v182h108V404h177V300Z" horiz-adv-x="577" vert-adv-y="1000"/><glyph glyph-name="uni2c" unicode="," d="M188 21q0-78-36.5-118T42-145L31-96q88 17 81 96H60v132h128V21Z" horiz-adv-x="249" vert-adv-y="1000"/><glyph glyph-name="uni2d" unicode="-" d="M329 250H51v112h278V250Z" horiz-adv-x="381" vert-adv-y="1000"/><glyph glyph-name="uni2e" unicode="." d="M188 0H60v132h128V0Z" horiz-adv-x="249" vert-adv-y="1000"/><glyph glyph-name="uni2f" unicode="/" d="M459 789 78-119h-97l381 908h97Z" horiz-adv-x="454" vert-adv-y="1000"/><glyph glyph-name="uni30" unicode="0" d="M574 345q0-160-71.5-258T311-11q-119 0-190 97T50 344v11q0 161 71.5 258.5T312 711q120 0 191-97.5T574 356v-11m-118-1v10q0 117-39.5 185T311 607q-66 0-104.5-66.5T168 356v-10q0-118 39-185.5T312 93q66 0 105 67t39 184Z" horiz-adv-x="624" vert-adv-y="1000"/><glyph glyph-name="uni31" unicode="1" d="M267 0H152v584L42 551 24 651l161 53h82V0Z" horiz-adv-x="350" vert-adv-y="1000"/><glyph glyph-name="uni32" unicode="2" d="M479 0H42v92l208 231q60 63 83 101.5t23 79.5q0 45-28 72t-72 27q-41 0-73.5-20T114 520l-61 78q45 56 94 83t120 27q94 0 150.5-52.5T474 516v-3q0-66-31.5-117T330 266L195 105h284V0Z" horiz-adv-x="527" vert-adv-y="1000"/><glyph glyph-name="uni33" unicode="3" d="M479 210q0-97-63-158.5T253-10Q120-10 36 81l60 84q68-70 155-70 49 0 81.5 30.5T365 205v4q0 54-40 82t-112 30h-39l-15 73 169 202H65v104h406v-90L297 407q81-13 131.5-59.5T479 215v-5Z" horiz-adv-x="530" vert-adv-y="1000"/><glyph glyph-name="uni34" unicode="4" d="M549 151h-87V0H352v151H46l-15 85 329 468h102V247h87v-96m-197 96v285L157 247h195Z" horiz-adv-x="590" vert-adv-y="1000"/><glyph glyph-name="uni35" unicode="5" d="M487 225q0-107-65-171T250-10Q131-10 44 70l53 91q74-64 150-64 57 0 91.5 34t34.5 91v4q0 56-34 86.5T248 343q-54 0-106-26l-67 45 19 338h364V595H190l-10-166q43 16 93 16 94 0 154-54.5T487 229v-4Z" horiz-adv-x="536" vert-adv-y="1000"/><glyph glyph-name="uni36" unicode="6" d="M522 227q0-105-65-171.5T293-11q-100 0-161 61-41 41-61 104.5T51 324v6q0 179 69.5 279.5T318 710q95 0 173-59l-47-96q-63 50-127 50-68 0-107.5-60T168 383q59 64 145 64 90 0 149.5-56.5T522 231v-4m-113-5v4q0 57-32.5 90.5T291 350q-55 0-87-34-33-33-33-90v-5q0-60 33-95.5T292 90q54 0 85.5 36t31.5 96Z" horiz-adv-x="570" vert-adv-y="1000"/><glyph glyph-name="uni37" unicode="7" d="M477 614 216 0H91l260 595H54v105h423v-86Z" horiz-adv-x="521" vert-adv-y="1000"/><glyph glyph-name="uni38" unicode="8" d="M508 192q0-92-65.5-147T274-10q-101 0-167 55T41 190v4q0 119 113 171-93 53-93 155v4q0 81 61 133.5T274 710q92 0 153-52.5T488 524v-4q0-103-93-155 113-54 113-169v-4M378 510v3q0 45-28.5 73.5T274 615q-46 0-74.5-28T171 514v-3q0-47 29-77.5t74-30.5q46 0 75 29.5t29 77.5m17-313v4q0 51-34 80.5T274 311q-52 0-86-29.5T154 201v-4q0-50 32-80.5T274 86q56 0 88.5 30.5T395 197Z" horiz-adv-x="550" vert-adv-y="1000"/><glyph glyph-name="uni39" unicode="9" d="M521 370q0-180-71-280T253-10q-98 0-183 63l47 96q68-54 136-54t107.5 59Q400 213 402 312q-56-66-143-66-92 0-151 57.5T49 465v5q0 106 64.5 173.5T278 711q100 0 161-61 82-82 82-274v-6M400 471v5q0 61-33 97.5T279 610q-54 0-85-37t-31-98v-4q0-59 32.5-93.5T280 343q50 0 85 33 35 35 35 95Z" horiz-adv-x="570" vert-adv-y="1000"/><glyph glyph-name="uni3a" unicode=":" d="M193 397H65v133h128V397m0-397H65v132h128V0Z" horiz-adv-x="259" vert-adv-y="1000"/><glyph glyph-name="uni3b" unicode=";" d="M193 397H65v133h128V397m0-376q0-78-36.5-118T47-145L36-96q88 17 81 96H65v132h128V21Z" horiz-adv-x="259" vert-adv-y="1000"/><glyph glyph-name="uni3c" unicode="&lt;" d="M479 83 58 298v108l421 215V506L168 353l311-154V83Z" horiz-adv-x="556" vert-adv-y="1000"/><glyph glyph-name="uni3d" unicode="=" d="M514 419H76v107h438V419m0-241H76v107h438V178Z" horiz-adv-x="590" vert-adv-y="1000"/><glyph glyph-name="uni3e" unicode="&gt;" d="M497 298 77 83v115l311 153L77 505v116l420-215V298Z" horiz-adv-x="556" vert-adv-y="1000"/><glyph glyph-name="uni3f" unicode="?" d="M438 509q0-154-177-196l-10-96h-76l-16 166 4 5q161 15 161 118v2q0 42-29 68t-78 26q-76 0-141-62l-52 82q84 86 200 86 96 0 155-53.5T438 513v-4M277 0H149v132h128V0Z" horiz-adv-x="474" vert-adv-y="1000"/><glyph glyph-name="uni40" unicode="@" d="M830 342q0-123-52.5-198.5T646 68q-100 0-131 76-59-75-140-75-65 0-108.5 46T223 237q0 109 62 189t142 80q82 0 121-74l12 62 92-16-45-252q-5-23-5-51 0-29 17-46t47-17q52 0 88 64.5T790 343q0 133-97 232t-242 99q-156 0-260.5-124.5T86 255Q85 93 185-12t255-105q116 0 216 59l19-30q-110-66-236-66-169 0-280.5 116T47 256q0 121 52 225t145.5 167Q338 711 452 711q160 0 269-109.5T830 342m-303-14q0 43-23.5 69T442 423q-38 0-70-31.5T328 309q-9-41-9-66 0-44 23.5-69t61.5-25q38 0 71 34t45 86q7 29 7 59Z" horiz-adv-x="878" vert-adv-y="1000"/><glyph glyph-name="uni41" unicode="A" d="m25 0 256 704h112L649 0H529l-59 165H200L141 0H25m210 268h199l-99 281-100-281Z" horiz-adv-x="674" vert-adv-y="1000"/><glyph glyph-name="uni42" unicode="B" d="M77 0v700h249q102 0 163.5-48T551 519q0-109-103-157 133-47 133-167 0-93-67.5-144T332 0H77m113 103h146q61 0 95.5 26t34.5 74q0 48-35 74.5T330 304H190V103m0 299h121q58 0 91.5 25.5T436 501q0 46-31 71t-87 25H190V402Z" horiz-adv-x="623" vert-adv-y="1000"/><glyph glyph-name="uni43" unicode="C" d="M356-10q-132 0-219 99T50 345v9q0 157 88 256.5T362 710q125 0 214-81l-55-94q-77 67-157 67-85 0-139-67.5T171 355v-9q0-113 54-180.5T365 98q47 0 83.5 17t77.5 53l55-85q-95-93-225-93Z" horiz-adv-x="617" vert-adv-y="1000"/><glyph glyph-name="uni44" unicode="D" d="M77 0v700h213q148 0 240-95.5T622 355v-9q0-154-92-250T290 0H77m115 105h101q94 0 151.5 64T502 345v9q0 111-57.5 176T293 595H192V105Z" horiz-adv-x="672" vert-adv-y="1000"/><glyph glyph-name="uni45" unicode="E" d="M77 0v700h440V595H192V405h288V300H192V105h329V0H77Z" horiz-adv-x="568" vert-adv-y="1000"/><glyph glyph-name="uni46" unicode="F" d="M77 0v700h437V593H192V396h286V290H192V0H77Z" horiz-adv-x="553" vert-adv-y="1000"/><glyph glyph-name="uni47" unicode="G" d="M370-10q-142 0-231 97.5T50 345v9q0 154 90.5 255T370 710q125 0 216-72l-54-97q-75 61-164 61-85 0-141-69.5T171 356v-10q0-116 56-183t147-67q70 0 125 37v154H351v102h257V75Q502-10 370-10Z" horiz-adv-x="670" vert-adv-y="1000"/><glyph glyph-name="uni48" unicode="H" d="M77 0v700h115V406h275v294h115V0H467v298H192V0H77Z" horiz-adv-x="659" vert-adv-y="1000"/><glyph glyph-name="uni49" unicode="I" d="M82 0v700h116V0H82Z" horiz-adv-x="281" vert-adv-y="1000"/><glyph glyph-name="uni4a" unicode="J" d="M198-9Q89-9 21 72l56 89q50-61 115-61 45 0 71 30t26 88v482h119V214q0-109-57-166T198-9Z" horiz-adv-x="475" vert-adv-y="1000"/><glyph glyph-name="uni4b" unicode="K" d="M77 0v700h115V357l270 343h140L359 399 613 0H475L279 306l-87-104V0H77Z" horiz-adv-x="627" vert-adv-y="1000"/><glyph glyph-name="uni4c" unicode="L" d="M77 0v700h115V107h300V0H77Z" horiz-adv-x="522" vert-adv-y="1000"/><glyph glyph-name="uni4d" unicode="M" d="M77 0v700h121l178-321 179 321h122V0H563v495L377 171h-3L189 493V0H77Z" horiz-adv-x="753" vert-adv-y="1000"/><glyph glyph-name="uni4e" unicode="N" d="M77 0v700h107l307-466v466h114V0h-99L190 481V0H77Z" horiz-adv-x="681" vert-adv-y="1000"/><glyph glyph-name="uni4f" unicode="O" d="m582 89.5-43.5-50.25Q495-11 359-11T136.5 88.5Q50 188 50 344v10q0 156 87 256.5T361 711q136 0 222-99.5T669 356v-10q0-156-87-256.5m-358 75 26.5-34.25Q277 96 361 96t136.5 68Q550 232 550 344v10q0 113-53.5 181.5T359 604q-83 0-135.5-68T171 356v-10q0-113 53-181.5Z" horiz-adv-x="720" vert-adv-y="1000"/><glyph glyph-name="uni50" unicode="P" d="M77 0v700h223q115 0 183-62.5T551 466q0-113-72.5-176T292 227H192V0H77m115 332h103q64 0 102 35.5t38 95.5q0 65-37 98.5T296 595H192V332Z" horiz-adv-x="582" vert-adv-y="1000"/><glyph glyph-name="uni51" unicode="Q" d="m611-20-73 69q-75-60-179-60-136 0-222.5 99.5T50 344v10q0 156 87 256.5T361 711q136 0 222-99.5T669 356v-10q0-130-61-222l74-66-71-78M363 95q53 0 95 28l-104 92 71 78 95-89q30 58 30 140v10q0 113-53.5 181.5T359 604q-83 0-135.5-68T171 356v-10q0-115 53-183t139-68Z" horiz-adv-x="721" vert-adv-y="1000"/><glyph glyph-name="uni52" unicode="R" d="M77 0v700h251q114 0 180-58.5T574 477q0-78-39-130t-106-76L593 0H459L311 247H192V0H77m115 350h131q62 0 98 32.5t36 92.5q0 59-36 89.5T321 595H192V350Z" horiz-adv-x="625" vert-adv-y="1000"/><glyph glyph-name="uni53" unicode="S" d="M280-9Q144-9 38 79l52 92q94-75 189-75 49 0 78.5 22.5T387 181q0 36-26.5 61T254 301q-108 46-153 90T56 516q0 85 61 139t155 54q118 0 209-68l-46-97q-86 60-163 60-46 0-73-22.5T172 524q0-38 27-62t111-59q105-45 149-91t44-123q0-91-62.5-144.5T280-9Z" horiz-adv-x="547" vert-adv-y="1000"/><glyph glyph-name="uni54" unicode="T" d="M217 0v592H33v108h483V592H333V0H217Z" horiz-adv-x="549" vert-adv-y="1000"/><glyph glyph-name="uni55" unicode="U" d="m517 61.5-35-35.75Q447-10 327-10T137.5 61Q68 132 68 267v433h115V267q0-83 38.5-127T328 96q68 0 106 43t38 125v436h115V270q0-137-70-208.5Z" horiz-adv-x="655" vert-adv-y="1000"/><glyph glyph-name="uni56" unicode="V" d="M266-4 25 700h125l172-529 172 529h122L373-4H266Z" horiz-adv-x="640" vert-adv-y="1000"/><glyph glyph-name="uni57" unicode="W" d="M233-4 30 700h123l136-508 143 509h100l143-509 136 508h120L727-4H623L480 490 337-4H233Z" horiz-adv-x="961" vert-adv-y="1000"/><glyph glyph-name="uni58" unicode="X" d="m30 0 214 358L39 700h132l143-243 143 243h129L382 359 595 0H463L311 260 159 0H30Z" horiz-adv-x="625" vert-adv-y="1000"/><glyph glyph-name="uni59" unicode="Y" d="M249 0v279L14 700h132l162-302 163 302h128L365 280V0H249Z" horiz-adv-x="614" vert-adv-y="1000"/><glyph glyph-name="uni5a" unicode="Z" d="M53 0v86l344 511H65v103h477v-86L198 103h344V0H53Z" horiz-adv-x="594" vert-adv-y="1000"/><glyph glyph-name="uni5b" unicode="[" d="M351-130H82v830h269v-86H189V-44h162v-86Z" horiz-adv-x="402" vert-adv-y="1000"/><glyph glyph-name="uni5c" unicode="\" d="M472-119h-97L-6 789h98l380-908Z" horiz-adv-x="454" vert-adv-y="1000"/><glyph glyph-name="uni5d" unicode="]" d="M320-130H51v86h162v658H51v86h269v-830Z" horiz-adv-x="402" vert-adv-y="1000"/><glyph glyph-name="uni5e" unicode="^" d="M411 499h-85l-85 129-86-129H72l128 199h83l128-199Z" horiz-adv-x="483" vert-adv-y="1000"/><glyph glyph-name="uni5f" unicode="_" d="M558-158H-1v88h559v-88Z" horiz-adv-x="557" vert-adv-y="1000"/><glyph glyph-name="uni60" unicode="`" d="M336 593h-83L136 710l100 46 100-163Z" horiz-adv-x="502" vert-adv-y="1000"/><glyph glyph-name="uni61" unicode="a" d="M198-10q-69 0-116.5 43.5T34 151v6q0 83 51.5 126.5T224 327q65 0 122-21v21q0 109-116 109-61 0-133-30l-22 93q80 37 172 37 103 0 156.5-53T457 329V0H346v65q-55-75-148-75m34 85q50 0 82.5 28.5T347 177v54q-43 19-99 19-49 0-76-23t-27-64v-6q0-39 24-60.5T232 75Z" horiz-adv-x="516" vert-adv-y="1000"/><glyph glyph-name="uni62" unicode="b" d="M333-10q-90 0-155 90V0H65v722h113V445q61 95 155 95 87 0 147.5-70.5T541 272v-14q0-127-60.5-197.5T333-10M213.5 136.5l18.25-23.25Q250 90 303 90t89 46q36 46 36 123v11q0 77-36 123.5T303 440q-53 0-89.5-47T177 270v-11q0-76 36.5-122.5Z" horiz-adv-x="584" vert-adv-y="1000"/><glyph glyph-name="uni63" unicode="c" d="M281-11q-104 0-172 76T41 259v9q0 118 69 194.5T283 539q100 0 168-68l-52-86q-55 53-114 53-56 0-93-46.5T155 270v-10q0-77 37.5-123T290 91q59 0 114 52l50-79q-73-75-173-75Z" horiz-adv-x="486" vert-adv-y="1000"/><glyph glyph-name="uni64" unicode="d" d="M251-10q-86 0-147 70.5T43 258v13q0 127 60.5 198T251 540q92 0 155-90v272h113V0H406v85q-61-95-155-95m31 100q52 0 89 46.5T408 259v11q0 76-37 123t-89 47q-54 0-89.5-46T157 270v-10q0-77 36-123.5T282 90Z" horiz-adv-x="584" vert-adv-y="1000"/><glyph glyph-name="uni65" unicode="e" d="M284-11q-105 0-174.5 74T40 259v8q0 119 64.5 195.5T268 539q105 0 163-77.5T489 261q0-27-1-40H154q8-66 44.5-101T288 85q70 0 128 55l53-71q-75-80-185-80M153 300h225q-4 65-33 105t-77 40q-47 0-78-38.5T153 300Z" horiz-adv-x="529" vert-adv-y="1000"/><glyph glyph-name="uni66" unicode="f" d="M89 0v433H31v94h58v41q0 79 39 119t111 40q48 0 81-11v-95q-27 9-55 9-64 0-64-73v-30h118v-94H202V0H89Z" horiz-adv-x="332" vert-adv-y="1000"/><glyph glyph-name="uni67" unicode="g" d="M267-153q-106 0-199 49l31 91q84-46 164-46 144 0 144 140v51q-67-94-160-94-85 0-144.5 66T43 287v4q0 117 59.5 183T247 540q93 0 159-89v79h113V87q0-240-252-240m141 441q0 69-37 111t-91 42q-53 0-88-41.5T157 288q0-68 35.5-109.5T280 137q54 0 91 41.5T408 288Z" horiz-adv-x="584" vert-adv-y="1000"/><glyph glyph-name="uni68" unicode="h" d="M65 0v722h113V452q58 88 145 88 78 0 121.5-50.5T488 354V0H374v323q0 55-24.5 85T280 438q-46 0-74-32t-28-86V0H65Z" horiz-adv-x="548" vert-adv-y="1000"/><glyph glyph-name="uni69" unicode="i" d="M70 0v530h114V0H70m-2 607v111h120V607H68Z" horiz-adv-x="255" vert-adv-y="1000"/><glyph glyph-name="uni6a" unicode="j" d="M42-154q-24 0-52 5v91q14-3 27-3 55 0 55 63v528h113V-7q0-147-143-147m26 761v111h121V607H68Z" horiz-adv-x="257" vert-adv-y="1000"/><glyph glyph-name="uni6b" unicode="k" d="M65 0v722h113V296l183 234h134L319 314 500 0H370L240 227l-62-75V0H65Z" horiz-adv-x="513" vert-adv-y="1000"/><glyph glyph-name="uni6c" unicode="l" d="M70 0v722h114V0H70Z" horiz-adv-x="255" vert-adv-y="1000"/><glyph glyph-name="uni6d" unicode="m" d="M65 0v530h113v-77q57 87 143 87 96 0 138-86 63 86 155 86 75 0 119.5-49T778 355V0H664v323q0 55-23.5 85T575 438q-44 0-70.5-31T478 321V0H365v323q0 55-23.5 85T274 438q-43 0-69.5-32T178 320V0H65Z" horiz-adv-x="840" vert-adv-y="1000"/><glyph glyph-name="uni6e" unicode="n" d="M65 0v530h113v-78q58 88 145 88 78 0 121.5-50.5T488 354V0H374v323q0 55-24.5 85T280 438q-46 0-74-32t-28-86V0H65Z" horiz-adv-x="548" vert-adv-y="1000"/><glyph glyph-name="uni6f" unicode="o" d="M285-11q-105 0-174.5 76.5T41 259v9q0 117 70 194t176 77q105 0 174.5-76.5T531 269v-9q0-117-70-194T285-11m2 99q59 0 95 48t36 122v10q0 75-37.5 123.5T285 440q-59 0-95-47.5T154 270v-10q0-74 37.5-123T287 88Z" horiz-adv-x="573" vert-adv-y="1000"/><glyph glyph-name="uni70" unicode="p" d="M65-151v681h113v-85q61 95 155 95 87 0 147.5-70.5T541 272v-14q0-127-60.5-197.5T333-10q-90 0-155 90v-231H65m148.5 287.5 18.25-23.25Q250 90 303 90t89 46q36 46 36 123v11q0 77-36 123.5T303 440q-53 0-89.5-47T177 270v-11q0-76 36.5-122.5Z" horiz-adv-x="584" vert-adv-y="1000"/><glyph glyph-name="uni71" unicode="q" d="M406-151V85q-61-95-155-95-86 0-147 70.5T43 258v13q0 127 60.5 198T251 540q92 0 155-90v80h113v-681H406M282 90q52 0 89 46.5T408 259v11q0 76-37 123t-89 47q-54 0-89.5-46T157 270v-10q0-77 36-123.5T282 90Z" horiz-adv-x="584" vert-adv-y="1000"/><glyph glyph-name="uni72" unicode="r" d="M339 415h-6q-71 0-113-46.5T178 233V0H65v530h113V426q49 116 161 112V415Z" horiz-adv-x="364" vert-adv-y="1000"/><glyph glyph-name="uni73" unicode="s" d="M218-10Q116-10 30 53l38 86q79-56 151-56 34 0 54 15.5t20 42.5q0 6-1.5 11.5t-5 10.5q-3.5 5-6.5 9t-10.5 9l-12 8q-4.5 3-14.5 8t-15.5 8q-5.5 3-18.5 9t-19 9q-34 16-54.5 27.5t-43.5 31q-23 19.5-34 45T47 384q0 71 49 112.5T221 538q87 0 162-47l-34-88q-71 42-129 42-31 0-49-14.5T153 392q0-6 1.5-11t5-10q3.5-5 6.5-8.5t10-8.5q7-5 11.5-8t15-8.5q10.5-5.5 16-8.5t18.5-9.5l19-9.5q36-18 55.5-30t42.5-31.5q23-19.5 33.5-44T398 148q0-74-50.5-116T218-10Z" horiz-adv-x="436" vert-adv-y="1000"/><glyph glyph-name="uni74" unicode="t" d="M225-8Q87-8 87 129v304H30v97h57v143h114V530h120v-97H201V151q0-58 57-58 32 0 61 15V15Q281-8 225-8Z" horiz-adv-x="360" vert-adv-y="1000"/><glyph glyph-name="uni75" unicode="u" d="M224-10q-77 0-120.5 50T60 176v354h114V207q0-55 25-85t69-30q45 0 73 31.5t28 85.5v321h114V0H369v77q-57-87-145-87Z" horiz-adv-x="548" vert-adv-y="1000"/><glyph glyph-name="uni76" unicode="v" d="M210-3 24 530h119l120-385 121 385h117L315-3H210Z" horiz-adv-x="525" vert-adv-y="1000"/><glyph glyph-name="uni77" unicode="w" d="M177-3 28 530h116l90-358 99 359h97l98-359 92 358h114L584-3H480l-99 353L280-3H177Z" horiz-adv-x="762" vert-adv-y="1000"/><glyph glyph-name="uni78" unicode="x" d="m26 0 166 270L32 530h122l103-175 104 175h118L319 272 486 0H364L254 186 145 0H26Z" horiz-adv-x="512" vert-adv-y="1000"/><glyph glyph-name="uni79" unicode="y" d="M157-154q-59 0-111 27l34 87q33-18 65-18 44 0 68 57L23 530h119l124-393 119 393h117L317-11q-26-77-63-110t-97-33Z" horiz-adv-x="526" vert-adv-y="1000"/><glyph glyph-name="uni7a" unicode="z" d="M43 0v78l259 358H51v94h389v-78L180 94h260V0H43Z" horiz-adv-x="480" vert-adv-y="1000"/><glyph glyph-name="uni7b" unicode="{" d="m387-65-15-75q-116 16-163 61.5T162 44q0 14 5.5 48t5.5 50q0 52-25 76.5T67 243H44v88h23q55 0 80.5 25t25.5 77q0 16-5.5 50t-5.5 48q0 76 47 121.5T372 715l15-75q-72-18-96.5-43.5T266 520q0-17 5.5-50.5T277 420q0-105-106-133 106-28 106-133l-11-99q0-52 24.5-77.5T387-65Z" horiz-adv-x="430" vert-adv-y="1000"/><glyph glyph-name="uni7c" unicode="|" d="M198-119h-91v908h91v-908Z" horiz-adv-x="304" vert-adv-y="1000"/><glyph glyph-name="uni7d" unicode="}" d="M387 243h-23q-55 0-80-24.5T259 142q0-16 5-50t5-48q0-77-47-122.5T59-140L44-65q72 17 97 42.5T166 55l-12 100q0 105 106 132-106 30-106 133 0 16 6 49.5t6 50.5q0 51-25 76.5T44 640l15 75q116-17 163-62t47-123q0-14-5-47.5t-5-49.5q0-52 25-77t80-25h23v-88Z" horiz-adv-x="431" vert-adv-y="1000"/><glyph glyph-name="uni7e" unicode="~" d="M397 360q-26-117-101-117-29 0-75 22-40 19-57 19t-27-11q-10-11-20-37l-63 18q27 117 101 117 31 0 75-22 42-20 56-20 18 0 28 11.5t20 37.5l63-18Z" horiz-adv-x="451" vert-adv-y="1000"/><glyph glyph-name="unia1" unicode="¡" d="M201 567H74v133h127V567m3-567H70v35l37 448h61l36-448V0Z" horiz-adv-x="275" vert-adv-y="1000"/><glyph glyph-name="unia2" unicode="¢" d="m367 705-11-85q53-14 99-60l-51-84q-33 32-71 43l-47-339h4q62 0 117 52l49-76q-76-78-175-78L270-6h-81l13 98q-71 27-114 96T45 349v8q0 116 65 192t166 80l10 76h81M155 350q0-115 71-154l45 330q-52-5-84-51.5T155 359v-9Z" horiz-adv-x="496" vert-adv-y="1000"/><glyph glyph-name="unia3" unicode="£" d="M512 0H52v74l70 22v187H52v98h70v104q0 110 58 168 56 56 151 56 107 0 176-81l-66-82q-48 54-105 54-42 0-67-26-30-28-30-90V381h205v-98H239V102h273V0Z" horiz-adv-x="553" vert-adv-y="1000"/><glyph glyph-name="unia4" unicode="¤" d="M577 93Q495-11 382-11q-98 0-166 63.5T123 228H41v81h71q-1 12-1 37v7q0 29 1 43H41v81h84q26 109 94 171.5T382 711q117 0 193-97l-65-79q-29 37-58.5 54T382 606q-48 0-83.5-33.5T245 477h185v-81H230q-2-13-2-42v-7q0-25 1-38h201v-81H243Q280 94 388 94q66 0 127 74l62-75Z" horiz-adv-x="616" vert-adv-y="1000"/><glyph glyph-name="unia5" unicode="¥" d="M353 261v-72h162v-85H353V0H242v104H81v85h161v72H81v85h132L17 700h130l152-297 154 297h126L381 346h134v-85H353Z" horiz-adv-x="595" vert-adv-y="1000"/><glyph glyph-name="unia6" unicode="¦" d="M0 0v700h500V0H0m81 49h339L250 304 81 49M49 96l171 254L49 604V96m401 0v508L279 350 450 96M250 395l170 255H81l169-255Z" horiz-adv-x="500" vert-adv-y="1000"/><glyph glyph-name="unia7" unicode="§" d="M515 346q0-86-101-117 49-36 49-94v-1q0-65-49-104T283-9Q167-9 88 64l48 76q73-58 145-58 35 0 54 13t19 35v1q0 24-25.5 39.5T230 209q-101 31-142 62t-41 82v1q0 87 102 118-50 37-50 94v1q0 65 48.5 103.5T280 709q112 0 188-71l-47-76q-67 57-139 57-37 0-55.5-13.5T208 571v-1q0-22 26.5-39.5T332 491q101-31 142-62t41-82v-1m-104-15v2q0 23-24.5 40.5T297 412q-43 14-76 16-31-2-50.5-19T151 369v-2q0-23 24-40.5t89-38.5q45-14 77-16 31 2 50.5 19t19.5 40Z" horiz-adv-x="562" vert-adv-y="1000"/><glyph glyph-name="unia8" unicode="¨" d="M399 598H287v111h112V598m-184 0H103v111h112V598Z" horiz-adv-x="502" vert-adv-y="1000"/><glyph glyph-name="unia9" unicode="©" d="M693 355v-10q0-150-93.5-253T368-11Q231-11 138 91.5T45 344v10q0 150 93.5 253.5T370 711q137 0 230-103t93-253m-37-10v10q0 136-81 228.5T370 676q-125 0-206.5-93T82 354v-11q0-136 81-227.5T368 24q124 0 206 92.5T656 345M497 207q-53-51-123-51-71 0-118.5 54.5T208 351v4q0 86 48 140.5T378 550q67 0 116-44l-33-56q-42 35-82 35-44 0-71.5-35T280 356v-6q0-58 28-93.5t71-35.5q41 0 85 37l33-51Z" horiz-adv-x="738" vert-adv-y="1000"/><glyph glyph-name="uniaa" unicode="ª" d="M285 408h-65v35q-29-40-78-40-39 0-65 23.5T51 492v3q0 46 28.5 70t76.5 24q32 0 65-12v11q0 58-62 58-28 0-73-18l-13 54q49 22 96 22 57 0 86.5-30t29.5-86V408m6-118H49v53h242v-53m-70 217v28q-25 9-52 9-53 0-53-46v-1q0-44 45-44 26 0 43 15t17 39Z" horiz-adv-x="350" vert-adv-y="1000"/><glyph glyph-name="uniab" unicode="«" d="m509 87-88-46-154 219v8l154 220 88-45-125-178L509 87m-229 0-88-46L38 260v8l154 220 87-45-124-178L280 87Z" horiz-adv-x="554" vert-adv-y="1000"/><glyph glyph-name="uniac" unicode="¬" d="M404 417H72v107h442V244H404v173Z" horiz-adv-x="590" vert-adv-y="1000"/><glyph glyph-name="uniad" unicode="­" d="M329 250H51v112h278V250Z" horiz-adv-x="381" vert-adv-y="1000"/><glyph glyph-name="uniae" unicode="®" d="M693 355v-10q0-150-93.5-253T368-11Q231-11 138 91.5T45 344v10q0 150 93.5 253.5T370 711q137 0 230-103t93-253m-37-10v10q0 136-81 228.5T370 676q-125 0-206.5-93T82 354v-11q0-136 81-227.5T368 24q124 0 206 92.5T656 345m-139 84v-2q0-41-21-69.5T440 316l88-148h-78l-80 133h-61V168h-68v381h139q62 0 99.5-31.5T517 429m-69-4v1q0 31-19 46.5T377 488h-68V361h69q32 0 51 17t19 47Z" horiz-adv-x="738" vert-adv-y="1000"/><glyph glyph-name="uniaf" unicode="¯" d="M408 602H94v84h314v-84Z" horiz-adv-x="502" vert-adv-y="1000"/><glyph glyph-name="unib0" unicode="°" d="M354 541q0-67-44.5-114.5T205 379q-60 0-104.5 47.5T56 541v3q0 67 44.5 114.5T205 706q60 0 104.5-47.5T354 544v-3m-69 0v3q0 42-23.5 69.5T205 641q-34 0-56.5-27.5T126 544v-3q0-42 22.5-69.5T205 444q33 0 56.5 27.5T285 541Z" horiz-adv-x="410" vert-adv-y="1000"/><glyph glyph-name="unib1" unicode="±" d="M68 25v101h454V25H68m172 170v144H64v106h176v144h111V445h173V339H351V195H240Z" horiz-adv-x="590" vert-adv-y="1000"/><glyph glyph-name="unib2" unicode="²" d="M0 0v700h500V0H0m81 49h339L250 304 81 49M49 96l171 254L49 604V96m401 0v508L279 350 450 96M250 395l170 255H81l169-255Z" horiz-adv-x="500" vert-adv-y="1000"/><glyph glyph-name="unib3" unicode="³" d="M0 0v700h500V0H0m81 49h339L250 304 81 49M49 96l171 254L49 604V96m401 0v508L279 350 450 96M250 395l170 255H81l169-255Z" horiz-adv-x="500" vert-adv-y="1000"/><glyph glyph-name="unib4" unicode="´" d="M363 710 246 593h-83l100 163 100-46Z" horiz-adv-x="502" vert-adv-y="1000"/><glyph glyph-name="unib5" unicode="µ" d="M490 0H377v78q-20-36-55-58.5T242-3q-43 0-63 24v-172H65v681h114V224q0-59 25.5-97T274 89q53 0 78 42t25 115v284h113V0Z" horiz-adv-x="555" vert-adv-y="1000"/><glyph glyph-name="unib6" unicode="¶" d="M290 700h131V0H304v241h-13q-114 2-186 61.5T33 470v1q0 108 71 168.5T290 700Z" horiz-adv-x="496" vert-adv-y="1000"/><glyph glyph-name="unib7" unicode="·" d="M191 240H63v132h128V240Z" horiz-adv-x="254" vert-adv-y="1000"/><glyph glyph-name="unib8" unicode="¸" d="m307 12-71-168-99 40 89 128h81Z" horiz-adv-x="502" vert-adv-y="1000"/><glyph glyph-name="unib9" unicode="¹" d="M0 0v700h500V0H0m81 49h339L250 304 81 49M49 96l171 254L49 604V96m401 0v508L279 350 450 96M250 395l170 255H81l169-255Z" horiz-adv-x="500" vert-adv-y="1000"/><glyph glyph-name="uniba" unicode="º" d="M307 552q0-65-37.5-107.5T174 402q-57 0-94 42T43 551v5q0 64 37.5 106.5T175 705q57 0 94.5-42.5T307 556v-4m-6-262H48v53h253v-53m-60 261v5q0 39-18.5 65T174 647q-30 0-48-25.5T108 557v-6q0-39 18.5-65t48.5-26q30 0 48 25.5t18 65.5Z" horiz-adv-x="350" vert-adv-y="1000"/><glyph glyph-name="unibb" unicode="»" d="M516 260 362 41l-88 45 126 178-126 177 88 47 154-220v-8m-229 0L132 41 44 86l127 178L45 441l87 47 155-220v-8Z" horiz-adv-x="554" vert-adv-y="1000"/><glyph glyph-name="unibc" unicode="¼" d="M0 0v700h500V0H0m81 49h339L250 304 81 49M49 96l171 254L49 604V96m401 0v508L279 350 450 96M250 395l170 255H81l169-255Z" horiz-adv-x="500" vert-adv-y="1000"/><glyph glyph-name="unibd" unicode="½" d="M0 0v700h500V0H0m81 49h339L250 304 81 49M49 96l171 254L49 604V96m401 0v508L279 350 450 96M250 395l170 255H81l169-255Z" horiz-adv-x="500" vert-adv-y="1000"/><glyph glyph-name="unibe" unicode="¾" d="M0 0v700h500V0H0m81 49h339L250 304 81 49M49 96l171 254L49 604V96m401 0v508L279 350 450 96M250 395l170 255H81l169-255Z" horiz-adv-x="500" vert-adv-y="1000"/><glyph glyph-name="unibf" unicode="¿" d="M198 700h128V568H198v132M36 191q0 156 178 196l10 96h75l17-166-4-5q-162-15-162-118v-2q0-42 29.5-68T258 98q76 0 141 63l52-83Q368-8 251-8 154-8 95 45.5T36 187v4Z" horiz-adv-x="475" vert-adv-y="1000"/><glyph glyph-name="unic0" unicode="À" d="m25 0 256 704h112L649 0H529l-59 165H200L141 0H25m210 268h199l-99 281-100-281m150 484h-83L185 869l100 46 100-163Z" horiz-adv-x="674" vert-adv-y="1000"/><glyph glyph-name="unic1" unicode="Á" d="m25 0 256 704h112L649 0H529l-59 165H200L141 0H25m210 268h199l-99 281-100-281m252 601L370 752h-83l100 163 100-46Z" horiz-adv-x="674" vert-adv-y="1000"/><glyph glyph-name="unic2" unicode="Â" d="m25 0 256 704h112L649 0H529l-59 165H200L141 0H25m210 268h199l-99 281-100-281m256 484h-86l-69 76-69-76h-84l103 146h102l103-146Z" horiz-adv-x="674" vert-adv-y="1000"/><glyph glyph-name="unic3" unicode="Ã" d="M649 0H529l-59 165H200L141 0H25l256 704h112L649 0M434 268l-99 281-100-281h199m73 599q-26-116-101-116-29 0-81 24-34 18-50 18-18 0-27.5-11T227 744l-63 19q27 116 101 116 35 0 79-23 33-18 53-18 17 0 27.5 11t19.5 38l63-20Z" horiz-adv-x="674" vert-adv-y="1000"/><glyph glyph-name="unic4" unicode="Ä" d="m25 0 256 704h112L649 0H529l-59 165H200L141 0H25m210 268h199l-99 281-100-281m250 489H373v111h112V757m-184 0H189v111h112V757Z" horiz-adv-x="674" vert-adv-y="1000"/><glyph glyph-name="unic5" unicode="Å" d="M649 0H529l-59 165H199L141 0H24l249 682q-46 31-46 87v2q0 45 33 77.5t77 32.5q44 0 77-32.5t33-77.5v-2q0-55-46-87L649 0M394 769v2q0 24-16.5 42T337 831q-24 0-40.5-18T280 771v-2q0-24 16.5-42t40.5-18q24 0 40.5 18t16.5 42m40-501-99 281-100-281h199Z" horiz-adv-x="674" vert-adv-y="1000"/><glyph glyph-name="unic6" unicode="Æ" d="M847 0H417v165H204L127 0H10l329 700h503V595H532V405h274V300H532V105h315V0M417 268v326h-17L251 268h166Z" horiz-adv-x="894" vert-adv-y="1000"/><glyph glyph-name="unic7" unicode="Ç" d="M294-3Q185 19 117.5 113T50 345v9q0 157 88 256.5T362 710q125 0 214-81l-55-94q-77 67-157 67-85 0-139-67.5T171 355v-9q0-113 54-180.5T365 98q47 0 83.5 17t77.5 53l55-85Q492-4 377-9l-62-147-99 40L294-3Z" horiz-adv-x="617" vert-adv-y="1000"/><glyph glyph-name="unic8" unicode="È" d="M521 0H77v700h440V595H192V405h288V300H192V105h329V0M360 752h-83L160 869l100 46 100-163Z" horiz-adv-x="568" vert-adv-y="1000"/><glyph glyph-name="unic9" unicode="É" d="M77 0v700h440V595H192V405h288V300H192V105h329V0H77m354 869L314 752h-83l100 163 100-46Z" horiz-adv-x="568" vert-adv-y="1000"/><glyph glyph-name="unica" unicode="Ê" d="M521 0H77v700h440V595H192V405h288V300H192V105h329V0m-74 753h-86l-69 76-69-76h-84l103 146h102l103-146Z" horiz-adv-x="568" vert-adv-y="1000"/><glyph glyph-name="unicb" unicode="Ë" d="M77 0v700h440V595H192V405h288V300H192V105h329V0H77m366 757H331v111h112V757m-184 0H147v111h112V757Z" horiz-adv-x="568" vert-adv-y="1000"/><glyph glyph-name="unicc" unicode="Ì" d="M198 0H82v700h116V0m-12 752h-83L-14 869l100 46 100-163Z" horiz-adv-x="281" vert-adv-y="1000"/><glyph glyph-name="unicd" unicode="Í" d="M82 0v700h116V0H82m211 869L176 752H93l100 163 100-46Z" horiz-adv-x="281" vert-adv-y="1000"/><glyph glyph-name="unice" unicode="Î" d="M198 0H82v700h116V0m97 753h-86l-69 76-69-76h-84L90 899h102l103-146Z" horiz-adv-x="281" vert-adv-y="1000"/><glyph glyph-name="unicf" unicode="Ï" d="M82 0v700h116V0H82m207 757H177v111h112V757m-184 0H-7v111h112V757Z" horiz-adv-x="281" vert-adv-y="1000"/><glyph glyph-name="unid0" unicode="Ð" d="M649 347q0-155-92-251T317 0H104v299H36v105h68v296h213q148 0 240-96t92-250v-7m-120-1v6q0 112-58 177t-152 65H218V404h144V299H218V105h102q94 0 151.5 64.5T529 346Z" horiz-adv-x="700" vert-adv-y="1000"/><glyph glyph-name="unid1" unicode="Ñ" d="M77 0v700h107l307-466v466h114V0h-99L190 481V0H77m437 867q-26-116-101-116-29 0-81 24-34 18-50 18-18 0-27.5-11T234 744l-63 19q27 116 101 116 35 0 79-23 33-18 53-18 17 0 27.5 11t19.5 38l63-20Z" horiz-adv-x="681" vert-adv-y="1000"/><glyph glyph-name="unid2" unicode="Ò" d="m582 89.5-43.5-50.25Q495-11 359-11T136.5 88.5Q50 188 50 344v10q0 156 87 256.5T361 711q136 0 222-99.5T669 356v-10q0-156-87-256.5m-358 75 26.5-34.25Q277 96 361 96t136.5 68Q550 232 550 344v10q0 113-53.5 181.5T359 604q-83 0-135.5-68T171 356v-10q0-113 53-181.5M399 752h-83L199 869l100 46 100-163Z" horiz-adv-x="720" vert-adv-y="1000"/><glyph glyph-name="unid3" unicode="Ó" d="m582 89.5-43.5-50.25Q495-11 359-11T136.5 88.5Q50 188 50 344v10q0 156 87 256.5T361 711q136 0 222-99.5T669 356v-10q0-156-87-256.5m-358 75 26.5-34.25Q277 96 361 96t136.5 68Q550 232 550 344v10q0 113-53.5 181.5T359 604q-83 0-135.5-68T171 356v-10q0-113 53-181.5M516 869 399 752h-83l100 163 100-46Z" horiz-adv-x="720" vert-adv-y="1000"/><glyph glyph-name="unid4" unicode="Ô" d="M669 346q0-156-87-256.5T359-11q-136 0-222.5 99.5T50 344v10q0 156 87 256.5T361 711q136 0 222-99.5T669 356v-10m-119-2v10q0 113-53.5 181.5T359 604q-83 0-135.5-68T171 356v-10q0-113 53-181.5T361 96q84 0 136.5 68T550 344m-36 409h-86l-69 76-69-76h-84l103 146h102l103-146Z" horiz-adv-x="720" vert-adv-y="1000"/><glyph glyph-name="unid5" unicode="Õ" d="m582 89.5-43.5-50.25Q495-11 359-11T136.5 88.5Q50 188 50 344v10q0 156 87 256.5T361 711q136 0 222-99.5T669 356v-10q0-156-87-256.5m-358 75 26.5-34.25Q277 96 361 96t136.5 68Q550 232 550 344v10q0 113-53.5 181.5T359 604q-83 0-135.5-68T171 356v-10q0-113 53-181.5M531 867q-26-116-101-116-29 0-81 24-34 18-50 18-18 0-27.5-11T251 744l-63 19q27 116 101 116 35 0 79-23 33-18 53-18 17 0 27.5 11t19.5 38l63-20Z" horiz-adv-x="720" vert-adv-y="1000"/><glyph glyph-name="unid6" unicode="Ö" d="m582 89.5-43.5-50.25Q495-11 359-11T136.5 88.5Q50 188 50 344v10q0 156 87 256.5T361 711q136 0 222-99.5T669 356v-10q0-156-87-256.5m-358 75 26.5-34.25Q277 96 361 96t136.5 68Q550 232 550 344v10q0 113-53.5 181.5T359 604q-83 0-135.5-68T171 356v-10q0-113 53-181.5M508 757H396v111h112V757m-184 0H212v111h112V757Z" horiz-adv-x="720" vert-adv-y="1000"/><glyph glyph-name="unid7" unicode="×" d="M0 0v700h500V0H0m81 49h339L250 304 81 49M49 96l171 254L49 604V96m401 0v508L279 350 450 96M250 395l170 255H81l169-255Z" horiz-adv-x="500" vert-adv-y="1000"/><glyph glyph-name="unid8" unicode="Ø" d="M669 354v-8q0-156-87-256.5T359-11q-98 0-171 53L150-5H47l80 104q-77 99-77 245v9q0 156 87.5 257T361 711q98 0 172-57l39 51h104l-83-109q76-97 76-242M466 559q-44 47-107 47-85 0-138-69.5T168 354v-8q0-77 35-137l263 350m86-215v9q0 73-35 132L254 136q44-44 107-44 84 0 137.5 70T552 344Z" horiz-adv-x="720" vert-adv-y="1000"/><glyph glyph-name="unid9" unicode="Ù" d="m517 61.5-35-35.75Q447-10 327-10T137.5 61Q68 132 68 267v433h115V267q0-83 38.5-127T328 96q68 0 106 43t38 125v436h115V270q0-137-70-208.5M375 749h-83L175 866l100 46 100-163Z" horiz-adv-x="655" vert-adv-y="1000"/><glyph glyph-name="unida" unicode="Ú" d="m517 61.5-35-35.75Q447-10 327-10T137.5 61Q68 132 68 267v433h115V267q0-83 38.5-127T328 96q68 0 106 43t38 125v436h115V270q0-137-70-208.5M479 866 362 749h-83l100 163 100-46Z" horiz-adv-x="655" vert-adv-y="1000"/><glyph glyph-name="unidb" unicode="Û" d="M587 270q0-137-70-208.5T327-10q-120 0-189.5 71T68 267v433h115V267q0-83 38.5-127T328 96q68 0 106 43t38 125v436h115V270M482 752h-86l-69 76-69-76h-84l103 146h102l103-146Z" horiz-adv-x="655" vert-adv-y="1000"/><glyph glyph-name="unidc" unicode="Ü" d="M587 270q0-137-70-208.5T327-10q-120 0-189.5 71T68 267v433h115V267q0-83 38.5-127T328 96q68 0 106 43t38 125v436h115V270M476 756H364v111h112V756m-184 0H180v111h112V756Z" horiz-adv-x="655" vert-adv-y="1000"/><glyph glyph-name="unidd" unicode="Ý" d="M249 0v279L14 700h132l162-302 163 302h128L365 280V0H249m213 866L345 749h-83l100 163 100-46Z" horiz-adv-x="614" vert-adv-y="1000"/><glyph glyph-name="unide" unicode="Þ" d="M551 358q0-113-73-175.5T292 119H192V0H76v700h116V592h110q112 0 180.5-62.5T551 358m-117-3q0 64-37 97.5T296 486H192V223h103q64 0 101.5 36t37.5 96Z" horiz-adv-x="585" vert-adv-y="1000"/><glyph glyph-name="unidf" unicode="ß" d="M510 196q0-94-66-147T263-2v89q65 3 99.5 32t34.5 80v1q0 48-35.5 78.5T263 318v79q100 48 100 137v2q0 43-24 68.5T275 630q-44 0-70.5-33T178 507V0H65v503q0 104 58 164.5T280 728q90 0 142.5-51T475 547v-2q0-112-103-171 138-48 138-176v-2Z" horiz-adv-x="552" vert-adv-y="1000"/><glyph glyph-name="unie0" unicode="à" d="M457 0H346v65q-55-75-148-75-69 0-116.5 43.5T34 151v6q0 83 51.5 126.5T224 327q65 0 122-21v21q0 109-116 109-61 0-133-30l-22 93q80 37 172 37 103 0 156.5-53T457 329V0M347 177v54q-43 19-99 19-49 0-76-23t-27-64v-6q0-39 24-60.5T232 75q50 0 82.5 28.5T347 177m-41 416h-83L106 710l100 46 100-163Z" horiz-adv-x="516" vert-adv-y="1000"/><glyph glyph-name="unie1" unicode="á" d="M198-10q-69 0-116.5 43.5T34 151v6q0 83 51.5 126.5T224 327q65 0 122-21v21q0 109-116 109-61 0-133-30l-22 93q80 37 172 37 103 0 156.5-53T457 329V0H346v65q-55-75-148-75m34 85q50 0 82.5 28.5T347 177v54q-43 19-99 19-49 0-76-23t-27-64v-6q0-39 24-60.5T232 75m169 635L284 593h-83l100 163 100-46Z" horiz-adv-x="516" vert-adv-y="1000"/><glyph glyph-name="unie2" unicode="â" d="M198-10q-69 0-116.5 43.5T34 151v6q0 83 51.5 126.5T224 327q65 0 122-21v21q0 109-116 109-61 0-133-30l-22 93q80 37 172 37 103 0 156.5-53T457 329V0H346v65q-55-75-148-75m34 85q50 0 82.5 28.5T347 177v54q-43 19-99 19-49 0-76-23t-27-64v-6q0-39 24-60.5T232 75m179 519h-86l-69 76-69-76h-84l103 146h102l103-146Z" horiz-adv-x="516" vert-adv-y="1000"/><glyph glyph-name="unie3" unicode="ã" d="M198-10q-69 0-116.5 43.5T34 151v6q0 83 51.5 126.5T224 327q65 0 122-21v21q0 109-116 109-61 0-133-30l-22 93q80 37 172 37 103 0 156.5-53T457 329V0H346v65q-55-75-148-75m34 85q50 0 82.5 28.5T347 177v54q-43 19-99 19-49 0-76-23t-27-64v-6q0-39 24-60.5T232 75m197 633q-26-116-101-116-29 0-81 24-34 18-50 18-18 0-27.5-11T149 585l-63 19q27 116 101 116 35 0 79-23 33-18 53-18 17 0 27.5 11t19.5 38l63-20Z" horiz-adv-x="516" vert-adv-y="1000"/><glyph glyph-name="unie4" unicode="ä" d="M457 0H346v65q-55-75-148-75-69 0-116.5 43.5T34 151v6q0 83 51.5 126.5T224 327q65 0 122-21v21q0 109-116 109-61 0-133-30l-22 93q80 37 172 37 103 0 156.5-53T457 329V0M347 177v54q-43 19-99 19-49 0-76-23t-27-64v-6q0-39 24-60.5T232 75q50 0 82.5 28.5T347 177m57 421H292v111h112V598m-184 0H108v111h112V598Z" horiz-adv-x="516" vert-adv-y="1000"/><glyph glyph-name="unie5" unicode="å" d="M457 0H346v65q-55-75-148-75-69 0-116.5 43.5T34 151v6q0 83 51.5 126.5T224 327q65 0 122-21v21q0 109-116 109-61 0-133-30l-22 93q80 37 172 37 103 0 156.5-53T457 329V0M347 177v54q-43 19-99 19-49 0-76-23t-27-64v-6q0-39 24-60.5T232 75q50 0 82.5 28.5T347 177m17 523v-3q0-44-32.5-76T255 589q-44 0-77 32t-33 76v3q0 45 32.5 77t77.5 32q44 0 76.5-32t32.5-77m-52-2v2q0 24-16.5 42T255 760q-24 0-41-18t-17-42v-2q0-24 17-42t41-18q24 0 40.5 18t16.5 42Z" horiz-adv-x="516" vert-adv-y="1000"/><glyph glyph-name="unie6" unicode="æ" d="M209-10q-77 0-126 43.5T34 153v5q0 82 51 125.5T223 327q63 0 121-21v21q0 109-115 109-60 0-132-30l-22 93q82 37 171 37 121 0 165-80 59 83 159 83 104 0 162-77.5T790 261l-1-40H454q8-66 44.5-101T589 85q68 0 129 55l51-71q-75-80-185-80-119 0-186 95-81-94-189-94m23 86q73 0 131 74-13 35-16 82-50 18-100 18-49 0-75.5-22.5T145 163v-4q0-39 24-61t63-22m221 224h226q-5 66-33.5 105.5T568 445q-47 0-78-38.5T453 300Z" horiz-adv-x="829" vert-adv-y="1000"/><glyph glyph-name="unie7" unicode="ç" d="M220-2Q140 18 90.5 89T41 259v9q0 118 69 194.5T283 539q100 0 168-68l-52-86q-55 53-114 53-56 0-93-46.5T155 270v-10q0-77 37.5-123T290 91q59 0 114 52l50-79Q390-4 302-10l-63-146-99 40L220-2Z" horiz-adv-x="486" vert-adv-y="1000"/><glyph glyph-name="unie8" unicode="è" d="m489 261-1-40H154q8-66 44.5-101T288 85q70 0 128 55l53-71q-75-80-185-80-105 0-174.5 74T40 259v8q0 119 64.5 195.5T268 539q105 0 163-77.5T489 261m-111 39q-4 65-33 105t-77 40q-47 0-78-38.5T153 300h225m-66 293h-83L112 710l100 46 100-163Z" horiz-adv-x="529" vert-adv-y="1000"/><glyph glyph-name="unie9" unicode="é" d="M284-11q-105 0-174.5 74T40 259v8q0 119 64.5 195.5T268 539q105 0 163-77.5T489 261q0-27-1-40H154q8-66 44.5-101T288 85q70 0 128 55l53-71q-75-80-185-80M153 300h225q-4 65-33 105t-77 40q-47 0-78-38.5T153 300m264 410L300 593h-83l100 163 100-46Z" horiz-adv-x="529" vert-adv-y="1000"/><glyph glyph-name="uniea" unicode="ê" d="M284-11q-105 0-174.5 74T40 259v8q0 119 64.5 195.5T268 539q105 0 163-77.5T489 261q0-27-1-40H154q8-66 44.5-101T288 85q70 0 128 55l53-71q-75-80-185-80M153 300h225q-4 65-33 105t-77 40q-47 0-78-38.5T153 300m269 294h-86l-69 76-69-76h-84l103 146h102l103-146Z" horiz-adv-x="529" vert-adv-y="1000"/><glyph glyph-name="unieb" unicode="ë" d="m489 261-1-40H154q8-66 44.5-101T288 85q70 0 128 55l53-71q-75-80-185-80-105 0-174.5 74T40 259v8q0 119 64.5 195.5T268 539q105 0 163-77.5T489 261m-111 39q-4 65-33 105t-77 40q-47 0-78-38.5T153 300h225m38 298H304v111h112V598m-184 0H120v111h112V598Z" horiz-adv-x="529" vert-adv-y="1000"/><glyph glyph-name="uniec" unicode="ì" d="M184 0H70v530h114V0m-10 593H91L-26 710l100 46 100-163Z" horiz-adv-x="255" vert-adv-y="1000"/><glyph glyph-name="unied" unicode="í" d="M184 0H70v530h114V0m95 710L162 593H79l100 163 100-46Z" horiz-adv-x="255" vert-adv-y="1000"/><glyph glyph-name="uniee" unicode="î" d="M184 0H70v530h114V0m98 594h-86l-69 76-69-76h-84L77 740h102l103-146Z" horiz-adv-x="255" vert-adv-y="1000"/><glyph glyph-name="unief" unicode="ï" d="M184 0H70v530h114V0m92 598H164v111h112V598m-184 0H-20v111H92V598Z" horiz-adv-x="255" vert-adv-y="1000"/><glyph glyph-name="unif0" unicode="ð" d="M517 249q0-113-66.5-186.5T275-11q-101 0-167.5 71T41 241v4q0 105 57 170t141 65q64 0 121-42l-90 136-106-51-44 64 110 51-53 84h124l23-40 88 41 44-64-92-42 76-120q77-124 77-244v-4m-112-10v4q0 68-36 109.5T277 394q-56 0-90-41t-34-110v-4q0-68 35.5-110.5T280 86q56 0 90.5 42.5T405 239Z" horiz-adv-x="560" vert-adv-y="1000"/><glyph glyph-name="unif1" unicode="ñ" d="M488 0H374v323q0 55-24.5 85T280 438q-46 0-74-32t-28-86V0H65v530h113v-78q58 88 145 88 78 0 121.5-50.5T488 354V0m-39 708q-26-116-101-116-29 0-81 24-34 18-50 18-18 0-27.5-11T169 585l-63 19q27 116 101 116 35 0 79-23 33-18 53-18 17 0 27.5 11t19.5 38l63-20Z" horiz-adv-x="548" vert-adv-y="1000"/><glyph glyph-name="unif2" unicode="ò" d="M531 260q0-117-70-194T285-11q-105 0-174.5 76.5T41 259v9q0 117 70 194t176 77q105 0 174.5-76.5T531 269v-9m-113-2v10q0 75-37.5 123.5T285 440q-59 0-95-47.5T154 270v-10q0-74 37.5-123T287 88q59 0 95 48t36 122m-89 335h-83L129 710l100 46 100-163Z" horiz-adv-x="573" vert-adv-y="1000"/><glyph glyph-name="unif3" unicode="ó" d="M285-11q-105 0-174.5 76.5T41 259v9q0 117 70 194t176 77q105 0 174.5-76.5T531 269v-9q0-117-70-194T285-11m2 99q59 0 95 48t36 122v10q0 75-37.5 123.5T285 440q-59 0-95-47.5T154 270v-10q0-74 37.5-123T287 88m156 622L326 593h-83l100 163 100-46Z" horiz-adv-x="573" vert-adv-y="1000"/><glyph glyph-name="unif4" unicode="ô" d="M285-11q-105 0-174.5 76.5T41 259v9q0 117 70 194t176 77q105 0 174.5-76.5T531 269v-9q0-117-70-194T285-11m2 99q59 0 95 48t36 122v10q0 75-37.5 123.5T285 440q-59 0-95-47.5T154 270v-10q0-74 37.5-123T287 88m153 506h-86l-69 76-69-76h-84l103 146h102l103-146Z" horiz-adv-x="573" vert-adv-y="1000"/><glyph glyph-name="unif5" unicode="õ" d="M285-11q-105 0-174.5 76.5T41 259v9q0 117 70 194t176 77q105 0 174.5-76.5T531 269v-9q0-117-70-194T285-11m2 99q59 0 95 48t36 122v10q0 75-37.5 123.5T285 440q-59 0-95-47.5T154 270v-10q0-74 37.5-123T287 88m170 620q-26-116-101-116-29 0-81 24-34 18-50 18-18 0-27.5-11T177 585l-63 19q27 116 101 116 35 0 79-23 33-18 53-18 17 0 27.5 11t19.5 38l63-20Z" horiz-adv-x="573" vert-adv-y="1000"/><glyph glyph-name="unif6" unicode="ö" d="M531 260q0-117-70-194T285-11q-105 0-174.5 76.5T41 259v9q0 117 70 194t176 77q105 0 174.5-76.5T531 269v-9m-113-2v10q0 75-37.5 123.5T285 440q-59 0-95-47.5T154 270v-10q0-74 37.5-123T287 88q59 0 95 48t36 122m16 340H322v111h112V598m-184 0H138v111h112V598Z" horiz-adv-x="573" vert-adv-y="1000"/><glyph glyph-name="unif7" unicode="÷" d="M514 299H76v107h438V299M360 97H242v122h118V97m0 389H242v122h118V486Z" horiz-adv-x="590" vert-adv-y="1000"/><glyph glyph-name="unif8" unicode="ø" d="M531 268v-8q0-117-70-194T285-11q-71 0-132 40L124-5H29l68 86q-56 73-56 178v7q0 118 70 195.5T287 539q74 0 131-41l30 37h95l-69-88q57-73 57-179M356 414q-30 28-71 28-59 0-97-49t-38-125v-8q0-44 20-82l186 236m66-156v9q0 45-20 83L216 113q30-28 71-28 59 0 97 49t38 124Z" horiz-adv-x="573" vert-adv-y="1000"/><glyph glyph-name="unif9" unicode="ù" d="M483 0H369v77q-57-87-145-87-77 0-120.5 50T60 176v354h114V207q0-55 25-85t69-30q45 0 73 31.5t28 85.5v321h114V0M324 592h-83L124 709l100 46 100-163Z" horiz-adv-x="548" vert-adv-y="1000"/><glyph glyph-name="unifa" unicode="ú" d="M224-10q-77 0-120.5 50T60 176v354h114V207q0-55 25-85t69-30q45 0 73 31.5t28 85.5v321h114V0H369v77q-57-87-145-87m197 719L304 592h-83l100 163 100-46Z" horiz-adv-x="548" vert-adv-y="1000"/><glyph glyph-name="unifb" unicode="û" d="M224-10q-77 0-120.5 50T60 176v354h114V207q0-55 25-85t69-30q45 0 73 31.5t28 85.5v321h114V0H369v77q-57-87-145-87m204 604h-86l-69 76-69-76h-84l103 146h102l103-146Z" horiz-adv-x="548" vert-adv-y="1000"/><glyph glyph-name="unifc" unicode="ü" d="M483 0H369v77q-57-87-145-87-77 0-120.5 50T60 176v354h114V207q0-55 25-85t69-30q45 0 73 31.5t28 85.5v321h114V0m-61 598H310v111h112V598m-184 0H126v111h112V598Z" horiz-adv-x="548" vert-adv-y="1000"/><glyph glyph-name="unifd" unicode="ý" d="M502 530 317-11q-27-77-63.5-110T157-154q-59 0-111 27l34 87q33-18 65-18 44 0 68 57L23 530h119l124-393 119 393h117m-92 179L293 592h-83l100 163 100-46Z" horiz-adv-x="526" vert-adv-y="1000"/><glyph glyph-name="unife" unicode="þ" d="M541 258q0-127-60.5-197.5T333-10q-92 0-155 90v-231H65v873h113V445q63 95 155 95 86 0 147-71t61-198v-13m-114 2v9q0 77-35.5 123.5T303 439q-53 0-90-47t-37-123v-10q0-76 37-122.5T303 90q53 0 88.5 46T427 260Z" horiz-adv-x="584" vert-adv-y="1000"/><glyph glyph-name="uniff" unicode="ÿ" d="M157-154q-59 0-111 27l34 87q33-18 65-18 44 0 68 57L23 530h119l124-393 119 393h117L317-11q-26-77-63-110t-97-33m254 752H299v111h112V598m-184 0H115v111h112V598Z" horiz-adv-x="526" vert-adv-y="1000"/><glyph glyph-name="uni0131" unicode="ı" d="M184 0H70v530h114V0Z" horiz-adv-x="255" vert-adv-y="1000"/><glyph glyph-name="uni0141" unicode="Ł" d="M517 0H103v283l-66-21v108l66 20v310h114V425l170 52V369l-170-51V106h300V0Z" horiz-adv-x="549" vert-adv-y="1000"/><glyph glyph-name="uni0142" unicode="ł" d="M214 334V0H102v296l-72-25v108l72 25v318h112V442l73 24V358l-73-24Z" horiz-adv-x="317" vert-adv-y="1000"/><glyph glyph-name="uni0152" unicode="Œ" d="M888 0H382Q234 0 142 95.5T50 346v6q0 154 92 251t240 97h502V595H574V405h273V300H574V105h314V0M458 105v489h-79q-94 0-151-64t-57-176v-7q0-113 57-177.5T379 105h79Z" horiz-adv-x="936" vert-adv-y="1000"/><glyph glyph-name="uni0153" unicode="œ" d="M281-11q-101 0-170.5 77T41 259v8q0 117 70 194.5T284 539q120 0 186-104 59 104 174 104 104 0 162-77.5T864 261l-1-40H529q8-66 44.5-101T664 85q69 0 128 55l51-71q-75-80-185-80-61 0-110.5 28T469 95q-30-50-79.5-78T281-11m3 99q58 0 93.5 47.5T413 259v9q0 75-36.5 123.5T283 440q-58 0-93.5-47.5T154 269v-9q0-75 37-123.5T284 88m243 212h226q-5 66-33.5 105.5T642 445q-47 0-77.5-38.5T527 300Z" horiz-adv-x="903" vert-adv-y="1000"/><glyph glyph-name="uni0160" unicode="Š" d="M280-9Q144-9 38 79l52 92q94-75 189-75 49 0 78.5 22.5T387 181q0 36-26.5 61T254 301q-108 46-153 90T56 516q0 85 61 139t155 54q118 0 209-68l-46-97q-86 60-163 60-46 0-73-22.5T172 524q0-38 27-62t111-59q105-45 149-91t44-123q0-91-62.5-144.5T280-9m149 908L326 753H224L121 899h86l68-76 69 76h85Z" horiz-adv-x="547" vert-adv-y="1000"/><glyph glyph-name="uni0161" unicode="š" d="M398 148q0-74-50.5-116T218-10Q116-10 30 53l38 86q79-56 151-56 34 0 54 15t20 41v2q0 6-1.5 11.5t-5 10.5q-3.5 5-6.5 9t-10.5 9l-12 8q-4.5 3-14.5 8t-15.5 8q-5.5 3-18.5 9t-19 9q-34 16-54.5 27.5t-43.5 31q-23 19.5-34 44T47 382v2q0 71 49 112.5T221 538q87 0 162-47l-34-88q-71 42-129 42-31 0-49-14t-18-37v-2q0-6 1.5-11t5-9.5q3.5-4.5 6.5-8.5t10-9q7-5 12-8.5t14.5-8.5q9.5-5 15.5-8.5t18.5-9.5q12.5-6 19.5-10 35-17 55-29t43-31.5q23-19.5 33.5-43.5t10.5-55v-2m-23 592L272 594H170L67 740h86l68-76 69 76h85Z" horiz-adv-x="436" vert-adv-y="1000"/><glyph glyph-name="uni0178" unicode="Ÿ" d="M599 700 365 280V0H249v279L14 700h132l162-302 163 302h128m-144 56H343v111h112V756m-184 0H159v111h112V756Z" horiz-adv-x="614" vert-adv-y="1000"/><glyph glyph-name="uni017D" unicode="Ž" d="M53 0v86l344 511H65v103h477v-86L198 103h344V0H53m402 899L352 753H250L147 899h86l68-76 69 76h85Z" horiz-adv-x="594" vert-adv-y="1000"/><glyph glyph-name="uni017E" unicode="ž" d="M440 0H43v78l259 358H51v94h389v-78L180 94h260V0m-39 740L298 594H196L93 740h86l68-76 69 76h85Z" horiz-adv-x="480" vert-adv-y="1000"/><glyph glyph-name="uni0192" unicode="ƒ" d="M439 596q-40 10-61 10-62 0-74-74l-11-78h114v-94H279l-33-220q-11-77-50-111T86-5Q56-5 33 0v95q17-3 36-3 56 0 66 64l29 204H94v94h85l14 100q23 151 162 151 44 0 84-11v-98Z" horiz-adv-x="468" vert-adv-y="1000"/><glyph glyph-name="uni02C6" unicode="ˆ" d="M405 594h-86l-69 76-69-76H97l103 146h102l103-146Z" horiz-adv-x="502" vert-adv-y="1000"/><glyph glyph-name="uni02C7" unicode="ˇ" d="M405 740 302 594H200L97 740h86l68-76 69 76h85Z" horiz-adv-x="502" vert-adv-y="1000"/><glyph glyph-name="uni02D8" unicode="˘" d="M406 734q-4-68-47-106t-108-38q-65 0-108 38T95 734h78q15-65 78-65t78 65h77Z" horiz-adv-x="502" vert-adv-y="1000"/><glyph glyph-name="uni02D9" unicode="˙" d="M310 592H191v115h119V592Z" horiz-adv-x="502" vert-adv-y="1000"/><glyph glyph-name="uni02DA" unicode="˚" d="M360 700v-3q0-44-32.5-76T251 589q-44 0-77 32t-33 76v3q0 45 32.5 77t77.5 32q44 0 76.5-32t32.5-77m-52-2v2q0 24-16.5 42T251 760q-24 0-41-18t-17-42v-2q0-24 17-42t41-18q24 0 40.5 18t16.5 42Z" horiz-adv-x="502" vert-adv-y="1000"/><glyph glyph-name="uni02DB" unicode="˛" d="M364-159q-89-3-136.5 25.5T180-52q0 32 16 64h78q-6-23-6-45 0-66 96-71v-55Z" horiz-adv-x="502" vert-adv-y="1000"/><glyph glyph-name="uni02DC" unicode="˜" d="M422 708q-26-116-101-116-29 0-81 24-34 18-50 18-18 0-27.5-11T142 585l-63 19q27 116 101 116 35 0 79-23 33-18 53-18 17 0 27.5 11t19.5 38l63-20Z" horiz-adv-x="502" vert-adv-y="1000"/><glyph glyph-name="uni02DD" unicode="˝" d="M437 710 320 593h-80l100 163 97-46m-172 0L150 593H69l99 163 97-46Z" horiz-adv-x="502" vert-adv-y="1000"/><glyph glyph-name="uni03C0" unicode="π" d="M0 0v700h500V0H0m81 49h339L250 304 81 49M49 96l171 254L49 604V96m401 0v508L279 350 450 96M250 395l170 255H81l169-255Z" horiz-adv-x="500" vert-adv-y="1000"/><glyph glyph-name="uni0401" unicode="Ё" d="M77 0v700h440V595H192V405h288V300H192V105h329V0H77m365 757H330v111h112V757m-184 0H146v111h112V757Z" horiz-adv-x="568" vert-adv-y="1000"/><glyph glyph-name="uni0402" unicode="Ђ" d="M483-4q-51 1-93 16l12 97q24-8 50-8 50 0 82 30.5t32 99.5q0 67-31 100.5T450 365q-80 0-144-56V0H190v594H30v106h491V594H306V411q79 57 173 57 95 0 150-63.5T684 226q0-111-54.5-170.5T483-4Z" horiz-adv-x="746" vert-adv-y="1000"/><glyph glyph-name="uni0403" unicode="Ѓ" d="M192 594V0H77v700h402V594H192m212 275L287 752h-83l100 163 100-46Z" horiz-adv-x="491" vert-adv-y="1000"/><glyph glyph-name="uni0404" unicode="Є" d="M357-10q-134 0-220.5 98.5T50 346v8q0 156 88.5 255.5T365 709q67 0 113.5-20.5T573 628l-49-88q-77 62-140 62-82 0-139.5-52.5T173 403h258V301H172q13-96 69-150t139-54q70 0 149 67l55-85q-89-89-227-89Z" horiz-adv-x="614" vert-adv-y="1000"/><glyph glyph-name="uni0405" unicode="Ѕ" d="M280-9Q144-9 38 79l52 92q94-75 189-75 49 0 78.5 22.5T387 181q0 36-26.5 61T254 301q-108 46-153 90T56 516q0 85 61 139t155 54q118 0 209-68l-46-97q-86 60-163 60-46 0-73-22.5T172 524q0-38 27-62t111-59q105-45 149-91t44-123q0-91-62.5-144.5T280-9Z" horiz-adv-x="547" vert-adv-y="1000"/><glyph glyph-name="uni0406" unicode="І" d="M82 0v700h116V0H82Z" horiz-adv-x="281" vert-adv-y="1000"/><glyph glyph-name="uni0407" unicode="Ї" d="M82 0v700h116V0H82m207 757H177v111h112V757m-184 0H-7v111h112V757Z" horiz-adv-x="281" vert-adv-y="1000"/><glyph glyph-name="uni0408" unicode="Ј" d="M198-9Q89-9 21 72l56 89q50-61 115-61 45 0 71 30t26 88v482h119V214q0-109-57-166T198-9Z" horiz-adv-x="475" vert-adv-y="1000"/><glyph glyph-name="uni0409" unicode="Љ" d="M471 0v594H274V475q0-148-12.5-244T222 83.5q-27-51.5-61.5-71T74-7Q42-7 2 3l8 99q16-6 36-6 27 0 45.5 12.5t37 51Q147 198 156 282.5t9 215.5v202h421V453h123q111 0 176-60t65-164q0-108-70-168.5T701 0H471m115 105h118q60 0 95 32.5t35 88.5q0 59-34.5 90.5T705 348H586V105Z" horiz-adv-x="980" vert-adv-y="1000"/><glyph glyph-name="uni040A" unicode="Њ" d="M582 700V433h150q106 0 168.5-57T963 219q0-103-67.5-161T724 0H467v325H192V0H77v700h115V433h275v267h115m0-595h145q55 0 87.5 30t32.5 81q0 54-32 83t-87 29H582V105Z" horiz-adv-x="993" vert-adv-y="1000"/><glyph glyph-name="uni040B" unicode="Ћ" d="M306 594V416q82 56 173 56 92 0 148.5-56.5T684 246V0H569v226q0 133-112 133-90 0-151-54V0H191v594H30v106h491V594H306Z" horiz-adv-x="746" vert-adv-y="1000"/><glyph glyph-name="uni040C" unicode="Ќ" d="M77 0v700h115V357l270 343h140L359 399 613 0H475L279 306l-87-104V0H77m376 869L336 752h-83l100 163 100-46Z" horiz-adv-x="627" vert-adv-y="1000"/><glyph glyph-name="uni040E" unicode="Ў" d="M178-10q-58 0-111 25l33 93q32-16 69-16 50 0 94 76L19 700h128l176-396 159 396h122L372 149q-36-84-81-121.5T178-10m242 793-19.5-17.5Q381 748 323 748t-97 35.5Q187 819 177 881l72 14q17-67 74-67t74 67l72-14q-10-63-49-98Z" horiz-adv-x="625" vert-adv-y="1000"/><glyph glyph-name="uni040F" unicode="Џ" d="M77 0v700h116V105h270v595h115V0H384v-136H273V0H77Z" horiz-adv-x="655" vert-adv-y="1000"/><glyph glyph-name="uni0410" unicode="А" d="m25 0 256 704h112L649 0H529l-59 165H200L141 0H25m210 268h199l-99 281-100-281Z" horiz-adv-x="674" vert-adv-y="1000"/><glyph glyph-name="uni0411" unicode="Б" d="M192 594V423h150q106 0 168.5-55.5T573 214q0-103-67-158.5T334 0H77v700h448V594H192m0-489h145q56 0 88 27.5t32 78.5q0 52-32 79.5T338 318H192V105Z" horiz-adv-x="615" vert-adv-y="1000"/><glyph glyph-name="uni0412" unicode="В" d="M77 0v700h249q102 0 163.5-48T551 519q0-109-103-157 133-47 133-167 0-93-67.5-144T332 0H77m113 103h146q61 0 95.5 26t34.5 74q0 48-35 74.5T330 304H190V103m0 299h121q58 0 91.5 25.5T436 501q0 46-31 71t-87 25H190V402Z" horiz-adv-x="623" vert-adv-y="1000"/><glyph glyph-name="uni0413" unicode="Г" d="M192 594V0H77v700h402V594H192Z" horiz-adv-x="491" vert-adv-y="1000"/><glyph glyph-name="uni0414" unicode="Д" d="M455 594H256q0-170-15.5-287T186 106h269v488M535 0H118l-12-136H7v242h59q45 98 62.5 233T146 700h425V106h75l-15-242h-96V0Z" horiz-adv-x="663" vert-adv-y="1000"/><glyph glyph-name="uni0415" unicode="Е" d="M77 0v700h440V595H192V405h288V300H192V105h329V0H77Z" horiz-adv-x="568" vert-adv-y="1000"/><glyph glyph-name="uni0416" unicode="Ж" d="M527 0H412v197l-84 115L149 0H12l235 396L25 700h136l251-354v354h115V346l251 354h134L690 396 926 0H790L610 312l-83-115V0Z" horiz-adv-x="939" vert-adv-y="1000"/><glyph glyph-name="uni0417" unicode="З" d="M266-10Q118-10 22 74l51 92q82-70 172-70 55 0 98 27.5t43 77.5q0 61-44.5 83.5T210 308h-31v96h34q82 0 121 25.5t39 82.5q0 43-36.5 68T246 605q-83 0-155-61l-46 83q48 42 101.5 62T278 709q92 0 150.5-51.5T487 528q0-116-115-165 129-40 129-168 0-91-65-148T266-10Z" horiz-adv-x="543" vert-adv-y="1000"/><glyph glyph-name="uni0418" unicode="И" d="M77 0v700h114V334q0-21-.5-63.5T190 206l294 494h108V0H479v367q0 85 1 127L185 0H77Z" horiz-adv-x="669" vert-adv-y="1000"/><glyph glyph-name="uni0419" unicode="Й" d="M77 0v700h114V334q0-21-.5-63.5T190 206l294 494h108V0H479v367q0 85 1 127L185 0H77m359 783-19.5-17.5Q397 748 339 748t-97 35.5Q203 819 193 881l72 14q17-67 74-67t74 67l72-14q-10-63-49-98Z" horiz-adv-x="669" vert-adv-y="1000"/><glyph glyph-name="uni041A" unicode="К" d="M77 0v700h115V357l270 343h140L359 399 613 0H475L279 306l-87-104V0H77Z" horiz-adv-x="627" vert-adv-y="1000"/><glyph glyph-name="uni041B" unicode="Л" d="M74-7Q42-7 2 3l8 99q16-6 36-6 27 0 45.5 12.5t37 51Q147 198 156 282.5t9 215.5v202h421V0H471v594H274V475q0-148-12.5-244T222 83.5q-27-51.5-61.5-71T74-7Z" horiz-adv-x="662" vert-adv-y="1000"/><glyph glyph-name="uni041C" unicode="М" d="M77 0v700h121l178-321 179 321h122V0H563v495L377 171h-3L189 493V0H77Z" horiz-adv-x="753" vert-adv-y="1000"/><glyph glyph-name="uni041D" unicode="Н" d="M77 0v700h115V406h275v294h115V0H467v298H192V0H77Z" horiz-adv-x="659" vert-adv-y="1000"/><glyph glyph-name="uni041E" unicode="О" d="m582 89.5-43.5-50.25Q495-11 359-11T136.5 88.5Q50 188 50 344v10q0 156 87 256.5T361 711q136 0 222-99.5T669 356v-10q0-156-87-256.5m-358 75 26.5-34.25Q277 96 361 96t136.5 68Q550 232 550 344v10q0 113-53.5 181.5T359 604q-83 0-135.5-68T171 356v-10q0-113 53-181.5Z" horiz-adv-x="720" vert-adv-y="1000"/><glyph glyph-name="uni041F" unicode="П" d="M77 0v700h500V0H462v594H192V0H77Z" horiz-adv-x="654" vert-adv-y="1000"/><glyph glyph-name="uni0420" unicode="Р" d="M77 0v700h223q115 0 183-62.5T551 466q0-113-72.5-176T292 227H192V0H77m115 332h103q64 0 102 35.5t38 95.5q0 65-37 98.5T296 595H192V332Z" horiz-adv-x="582" vert-adv-y="1000"/><glyph glyph-name="uni0421" unicode="С" d="M356-10q-132 0-219 99T50 345v9q0 157 88 256.5T362 710q125 0 214-81l-55-94q-77 67-157 67-85 0-139-67.5T171 355v-9q0-113 54-180.5T365 98q47 0 83.5 17t77.5 53l55-85q-95-93-225-93Z" horiz-adv-x="617" vert-adv-y="1000"/><glyph glyph-name="uni0422" unicode="Т" d="M217 0v592H33v108h483V592H333V0H217Z" horiz-adv-x="549" vert-adv-y="1000"/><glyph glyph-name="uni0423" unicode="У" d="M178-10q-58 0-111 25l33 93q32-16 69-16 50 0 94 76L19 700h128l176-396 159 396h122L372 149q-36-84-81-121.5T178-10Z" horiz-adv-x="625" vert-adv-y="1000"/><glyph glyph-name="uni0424" unicode="Ф" d="M347-21v77q-143 2-226 83T38 350v12q0 130 84 209.5T347 652v68h115v-68q140-1 224.5-80.5T771 361v-11q0-130-83-211T462 56v-77H347m115 181q89 0 140 52t51 140v8q0 85-51 136t-140 52V160m-115 0v388q-89-1-140.5-52T155 360v-12q0-86 52-136.5T347 160Z" horiz-adv-x="810" vert-adv-y="1000"/><glyph glyph-name="uni0425" unicode="Х" d="m30 0 214 358L39 700h132l143-243 143 243h129L382 359 595 0H463L311 260 159 0H30Z" horiz-adv-x="625" vert-adv-y="1000"/><glyph glyph-name="uni0426" unicode="Ц" d="M543-136V0H77v700h115V106h271v594h115V106h76l-15-242h-96Z" horiz-adv-x="670" vert-adv-y="1000"/><glyph glyph-name="uni0427" unicode="Ч" d="M417 376v324h116V0H417v272q-91-49-167-49-93 0-147.5 52.5T48 433v267h115V481q0-150 113-150 75 0 141 45Z" horiz-adv-x="610" vert-adv-y="1000"/><glyph glyph-name="uni0428" unicode="Ш" d="M880 700V0H77v700h115V104h229v596h116V104h228v596h115Z" horiz-adv-x="957" vert-adv-y="1000"/><glyph glyph-name="uni0429" unicode="Щ" d="M844-137V0H77v700h115V106h229v594h115V106h229v594h115V106h75l-15-243h-96Z" horiz-adv-x="971" vert-adv-y="1000"/><glyph glyph-name="uni042A" unicode="Ъ" d="M403 0H172v594H28v106h260V453h123q111 0 176-60t65-164q0-108-70-168.5T403 0M288 105h118q60 0 95 32.5t35 88.5q0 59-34.5 90.5T407 348H288V105Z" horiz-adv-x="682" vert-adv-y="1000"/><glyph glyph-name="uni042B" unicode="Ы" d="M192 700V453h123q111 0 176-60t65-164q0-108-70-168.5T307 0H77v700h115m0-595h118q60 0 95 32.5t35 88.5q0 59-34.5 90.5T311 348H192V105M623 0v700h115V0H623Z" horiz-adv-x="815" vert-adv-y="1000"/><glyph glyph-name="uni042C" unicode="Ь" d="M192 700V453h123q111 0 176-60t65-164q0-108-70-168.5T307 0H77v700h115m0-595h118q60 0 95 32.5t35 88.5q0 59-34.5 90.5T311 348H192V105Z" horiz-adv-x="586" vert-adv-y="1000"/><glyph glyph-name="uni042D" unicode="Э" d="M257-10Q119-10 30 79l55 85q79-67 149-67 83 0 139 54t69 150H183v102h258q-14 94-71.5 146.5T230 602q-63 0-140-62l-49 88q48 40 94.5 60.5T249 709q138 0 226.5-99.5T564 354v-8q0-159-86.5-257.5T257-10Z" horiz-adv-x="614" vert-adv-y="1000"/><glyph glyph-name="uni042E" unicode="Ю" d="M577-11q-118 0-196 84.5T290 299h-97V0H77v700h116V404h98q14 138 92 222.5T578 711q129 0 209.5-99.5T868 354v-9q0-158-81-257T577-11m1 104q77 0 124 68.5T749 345v9q0 114-47.5 182.5T577 605q-77 0-123.5-67.5T407 354v-9q0-114 47.5-183T578 93Z" horiz-adv-x="918" vert-adv-y="1000"/><glyph glyph-name="uni042F" unicode="Я" d="M547 700V0H432v245q-82 0-120 1L167 0H29l165 270q-67 23-106 75T49 476q0 224 265 224h233M300 347h132v247H327q-95 0-128-28t-33-96q0-58 36.5-90.5T300 347Z" horiz-adv-x="624" vert-adv-y="1000"/><glyph glyph-name="uni0430" unicode="а" d="M198-10q-69 0-116.5 43.5T34 151v6q0 83 51.5 126.5T224 327q65 0 122-21v21q0 109-116 109-61 0-133-30l-22 93q80 37 172 37 103 0 156.5-53T457 329V0H346v65q-55-75-148-75m34 85q50 0 82.5 28.5T347 177v54q-43 19-99 19-49 0-76-23t-27-64v-6q0-39 24-60.5T232 75Z" horiz-adv-x="516" vert-adv-y="1000"/><glyph glyph-name="uni0431" unicode="б" d="M289-11q-111 0-175 77T50 281v13q0 59 2.5 101t13 90.5Q76 534 95 566.5t52.5 58.5q33.5 26 81.5 37l255 58 20-93-247-59q-63-15-90-51t-30-92q20 37 64 64t108 27q91 0 155.5-73T529 258v-3q0-117-65-191.5T289-11m1 98q57 0 91.5 46.5T416 253v4q0 73-36 120t-91 47q-55 0-90-46.5T164 257v-4q0-72 36-119t90-47Z" horiz-adv-x="571" vert-adv-y="1000"/><glyph glyph-name="uni0432" unicode="в" d="M65 530h222q77 0 123.5-36T457 393q0-83-78-119 101-35 101-126 0-71-51-109.5T291 0H65v530M178 90h96q43 0 67 18t24 52q0 33-24.5 51.5T270 230h-92V90m0 220h85q39 0 61.5 17t22.5 50q0 31-21 47.5T267 441h-89V310Z" horiz-adv-x="521" vert-adv-y="1000"/><glyph glyph-name="uni0433" unicode="г" d="M65 0v530h328v-97H178V0H65Z" horiz-adv-x="411" vert-adv-y="1000"/><glyph glyph-name="uni0434" unicode="д" d="M367 433H222q0-231-47-336h192v336M435 0H116l-8-116H11V97h50q54 119 54 362v71h364V97h65l-12-213h-97V0Z" horiz-adv-x="565" vert-adv-y="1000"/><glyph glyph-name="uni0435" unicode="е" d="M284-11q-105 0-174.5 74T40 259v8q0 119 64.5 195.5T268 539q105 0 163-77.5T489 261q0-27-1-40H154q8-66 44.5-101T288 85q70 0 128 55l53-71q-75-80-185-80M153 300h225q-4 65-33 105t-77 40q-47 0-78-38.5T153 300Z" horiz-adv-x="529" vert-adv-y="1000"/><glyph glyph-name="uni0436" unicode="ж" d="M439 0H327v146l-62 86L133 0H9l177 302L15 530h129l183-255v255h112V275l183 255h129L580 302 757 0H632L500 232l-61-86V0Z" horiz-adv-x="766" vert-adv-y="1000"/><glyph glyph-name="uni0437" unicode="з" d="M214-11Q98-11 22 51l41 89q67-50 129-50 44 0 73.5 17t29.5 51q0 40-28 55t-99 15h-25v83h25q61 0 88 16t27 58q0 58-83 58-72 0-125-43l-38 79q73 60 182 60 78 0 128-38.5T397 400q0-85-83-122 92-32 92-129 0-70-53.5-115T214-11Z" horiz-adv-x="448" vert-adv-y="1000"/><glyph glyph-name="uni0438" unicode="и" d="M495 530V0H385v348L173 0H65v530h111V184l210 346h109Z" horiz-adv-x="560" vert-adv-y="1000"/><glyph glyph-name="uni0439" unicode="й" d="M495 530V0H385v348L173 0H65v530h111V184l210 346h109m-211 58q-57 0-95.5 35T142 720l68 12q17-67 74-67 59 0 74 67l68-12q-8-62-46-97t-96-35Z" horiz-adv-x="560" vert-adv-y="1000"/><glyph glyph-name="uni043A" unicode="к" d="M178 136V0H65v530h113V282l191 248h130L324 307 512 0H381L248 220l-70-84Z" horiz-adv-x="522" vert-adv-y="1000"/><glyph glyph-name="uni043B" unicode="л" d="M37 92q18 0 30 7t24.5 32q12.5 25 19.5 71t11.5 128q4.5 82 4.5 200h357V0H371v433H233q0-141-10-229.5T189.5 70Q166 25 138 10T64-5Q45-5 0 1l6 95q14-4 31-4Z" horiz-adv-x="550" vert-adv-y="1000"/><glyph glyph-name="uni043C" unicode="м" d="m318 293 140 237h113V0H458v352L317 119h-1L176 351V0H65v530h114l139-237Z" horiz-adv-x="636" vert-adv-y="1000"/><glyph glyph-name="uni043D" unicode="н" d="M488 530V0H375v218H178V0H65v530h113V314h197v216h113Z" horiz-adv-x="553" vert-adv-y="1000"/><glyph glyph-name="uni043E" unicode="о" d="M285-11q-105 0-174.5 76.5T41 259v9q0 117 70 194t176 77q105 0 174.5-76.5T531 269v-9q0-117-70-194T285-11m2 99q59 0 95 48t36 122v10q0 75-37.5 123.5T285 440q-59 0-95-47.5T154 270v-10q0-74 37.5-123T287 88Z" horiz-adv-x="573" vert-adv-y="1000"/><glyph glyph-name="uni043F" unicode="п" d="M483 530V0H371v433H178V0H65v530h418Z" horiz-adv-x="548" vert-adv-y="1000"/><glyph glyph-name="uni0440" unicode="р" d="M65-151v681h113v-85q61 95 155 95 87 0 147.5-70.5T541 272v-14q0-127-60.5-197.5T333-10q-90 0-155 90v-231H65m148.5 287.5 18.25-23.25Q250 90 303 90t89 46q36 46 36 123v11q0 77-36 123.5T303 440q-53 0-89.5-47T177 270v-11q0-76 36.5-122.5Z" horiz-adv-x="584" vert-adv-y="1000"/><glyph glyph-name="uni0441" unicode="с" d="M281-11q-104 0-172 76T41 259v9q0 118 69 194.5T283 539q100 0 168-68l-52-86q-55 53-114 53-56 0-93-46.5T155 270v-10q0-77 37.5-123T290 91q59 0 114 52l50-79q-73-75-173-75Z" horiz-adv-x="486" vert-adv-y="1000"/><glyph glyph-name="uni0442" unicode="т" d="M162 0v433H16v97h403v-97H274V0H162Z" horiz-adv-x="435" vert-adv-y="1000"/><glyph glyph-name="uni0443" unicode="у" d="M157-154q-59 0-111 27l34 87q33-18 65-18 44 0 68 57L23 530h119l124-393 119 393h117L317-11q-26-77-63-110t-97-33Z" horiz-adv-x="526" vert-adv-y="1000"/><glyph glyph-name="uni0444" unicode="ф" d="M336-151V40Q295-8 227-8 145-8 93.5 63.5T42 270q0 128 51 197.5T228 537q64 0 108-54v217h112V483q44 54 108 54 84 0 135-70t51-198v-6q0-131-51.5-201T557-8q-68 0-109 48v-191H336M522 89q51 0 78.5 45T628 263q0 81-28 128t-78 47q-42 0-74-45V127q32-38 74-38m-259 0q41 0 73 38v266q-30 45-73 45-50 0-78.5-47T156 263q0-83 27.5-128.5T263 89Z" horiz-adv-x="784" vert-adv-y="1000"/><glyph glyph-name="uni0445" unicode="х" d="m26 0 166 270L32 530h122l103-175 104 175h118L319 272 486 0H364L254 186 145 0H26Z" horiz-adv-x="512" vert-adv-y="1000"/><glyph glyph-name="uni0446" unicode="ц" d="M437-116V0H65v530h113V97h193v433h112V97h63l-11-213h-98Z" horiz-adv-x="566" vert-adv-y="1000"/><glyph glyph-name="uni0447" unicode="ч" d="M345 0v201q-61-36-137-36-71 0-114 41T51 325v205h113V354q0-43 20.5-67.5T240 262q57 0 105 31v237h112V0H345Z" horiz-adv-x="524" vert-adv-y="1000"/><glyph glyph-name="uni0448" unicode="ш" d="M735 530V0H65v530h113V97h166v433h112V97h167v433h112Z" horiz-adv-x="800" vert-adv-y="1000"/><glyph glyph-name="uni0449" unicode="щ" d="M691-116V0H65v530h113V97h166v433h112V97h167v433h112V97h64l-10-213h-98Z" horiz-adv-x="819" vert-adv-y="1000"/><glyph glyph-name="uni044A" unicode="ъ" d="M336 0H131v433H10v97h235V343h89q91 0 145-42t54-125q0-87-53-131.5T336 0m-91 91h87q40 0 64 22t24 59q0 40-23.5 61T333 254h-88V91Z" horiz-adv-x="561" vert-adv-y="1000"/><glyph glyph-name="uni044B" unicode="ы" d="M527 0v530h112V0H527M65 0v530h113V343h89q91 0 145-42t54-125q0-87-53-131.5T269 0H65m113 91h87q40 0 64 22t24 59q0 40-23.5 61T266 254h-88V91Z" horiz-adv-x="704" vert-adv-y="1000"/><glyph glyph-name="uni044C" unicode="ь" d="M65 0v530h113V343h89q91 0 145-42t54-125q0-87-53-131.5T269 0H65m113 91h87q40 0 64 22t24 59q0 40-23.5 61T266 254h-88V91Z" horiz-adv-x="492" vert-adv-y="1000"/><glyph glyph-name="uni044D" unicode="э" d="M200-11Q96-11 24 63l51 77q53-51 103-51 57 0 97 35.5t50 97.5H150v86h175q-9 56-42.5 92T202 439q-75 0-125-49l-45 80q69 67 162 67 107 0 176.5-75.5T440 267v-8q0-118-68.5-194T200-11Z" horiz-adv-x="481" vert-adv-y="1000"/><glyph glyph-name="uni044E" unicode="ю" d="M486-11q-93 0-155 62.5T257 216h-79V0H65v530h113V313h79q13 101 75.5 163T487 538q103 0 167.5-76T719 267v-7q0-118-65-194.5T486-11m-86 146.5 16.5-24.25Q433 87 487 87t87 49q33 49 33 127t-34 127q-34 49-87 49-55 0-87-48t-32-128q0-79 33-127.5Z" horiz-adv-x="760" vert-adv-y="1000"/><glyph glyph-name="uni044F" unicode="я" d="M458 530V0H346v181h-86L157 0H22l127 203q-49 18-78 57.5T42 357q0 83 48 128t146 45h222M246 268h100v170h-82q-62 0-86-19.5T154 353q0-40 25-62.5t67-22.5Z" horiz-adv-x="523" vert-adv-y="1000"/><glyph glyph-name="uni0451" unicode="ё" d="M284-11q-105 0-174.5 74T40 259v8q0 119 64.5 195.5T268 539q105 0 163-77.5T489 261q0-27-1-40H154q8-66 44.5-101T288 85q70 0 128 55l53-71q-75-80-185-80M153 300h225q-4 65-33 105t-77 40q-47 0-78-38.5T153 300m259 298H300v111h112V598m-184 0H116v111h112V598Z" horiz-adv-x="529" vert-adv-y="1000"/><glyph glyph-name="uni0452" unicode="ђ" d="M315-6q-44 0-86 14l15 89q17-6 34-6 44 0 70 29t26 80v103q0 55-24.5 85T280 418q-46 0-74-32t-28-86V0H65v564H4v86h61v72h113v-72h162v-86H178V432q58 88 145 88 78 0 121.5-50.5T488 334V173q0-83-46.5-131T315-6Z" horiz-adv-x="548" vert-adv-y="1000"/><glyph glyph-name="uni0453" unicode="ѓ" d="M65 0v530h328v-97H178V0H65m281 710L229 593h-83l100 163 100-46Z" horiz-adv-x="411" vert-adv-y="1000"/><glyph glyph-name="uni0454" unicode="є" d="M281-11q-103 0-171.5 76T41 259v8q0 119 69.5 194.5T287 537q93 0 162-67l-45-80q-50 49-125 49-47-3-80.5-39T156 308h175v-86H156q10-62 50-97.5T303 89q50 0 103 51l51-77q-72-74-176-74Z" horiz-adv-x="481" vert-adv-y="1000"/><glyph glyph-name="uni0455" unicode="ѕ" d="M218-10Q116-10 30 53l38 86q79-56 151-56 34 0 54 15.5t20 42.5q0 6-1.5 11.5t-5 10.5q-3.5 5-6.5 9t-10.5 9l-12 8q-4.5 3-14.5 8t-15.5 8q-5.5 3-18.5 9t-19 9q-34 16-54.5 27.5t-43.5 31q-23 19.5-34 45T47 384q0 71 49 112.5T221 538q87 0 162-47l-34-88q-71 42-129 42-31 0-49-14.5T153 392q0-6 1.5-11t5-10q3.5-5 6.5-8.5t10-8.5q7-5 11.5-8t15-8.5q10.5-5.5 16-8.5t18.5-9.5l19-9.5q36-18 55.5-30t42.5-31.5q23-19.5 33.5-44T398 148q0-74-50.5-116T218-10Z" horiz-adv-x="436" vert-adv-y="1000"/><glyph glyph-name="uni0456" unicode="і" d="M70 0v530h114V0H70m-2 607v111h120V607H68Z" horiz-adv-x="255" vert-adv-y="1000"/><glyph glyph-name="uni0457" unicode="ї" d="M276 598H164v111h112V598m-184 0H-20v111H92V598M184 0H70v530h114V0Z" horiz-adv-x="255" vert-adv-y="1000"/><glyph glyph-name="uni0458" unicode="ј" d="M42-154q-24 0-52 5v91q14-3 27-3 55 0 55 63v528h113V-7q0-147-143-147m26 761v111h121V607H68Z" horiz-adv-x="257" vert-adv-y="1000"/><glyph glyph-name="uni0459" unicode="љ" d="M372 0v433H233q0-141-10-229.5T189.5 70Q166 25 138 10T64-5Q45-5 0 1l6 95q14-4 31-4 18 0 30 7t24.5 32q12.5 25 19.5 71t11.5 128q4.5 82 4.5 200h358V343h89q91 0 145-42t54-125q0-87-53-131.5T576 0H372m113 91h87q40 0 64 22t24 59q0 40-23.5 61T573 254h-88V91Z" horiz-adv-x="799" vert-adv-y="1000"/><glyph glyph-name="uni045A" unicode="њ" d="M375 0v237H178V0H65v530h113V333h197v197h113V333h89q92 0 145.5-39.5T776 171q0-87-52.5-129T579 0H375m113 91h87q41 0 64.5 20t23.5 56q0 77-87 77h-88V91Z" horiz-adv-x="802" vert-adv-y="1000"/><glyph glyph-name="uni045B" unicode="ћ" d="M4 650h61v72h113v-72h162v-86H178V432q58 88 145 88 78 0 121.5-50.5T488 334V0H374v303q0 55-24.5 85T280 418q-46 0-74-32t-28-86V0H65v564H4v86Z" horiz-adv-x="548" vert-adv-y="1000"/><glyph glyph-name="uni045C" unicode="ќ" d="M178 136V0H65v530h113V282l191 248h130L324 307 512 0H381L248 220l-70-84m223 574L284 593h-83l100 163 100-46Z" horiz-adv-x="522" vert-adv-y="1000"/><glyph glyph-name="uni045E" unicode="ў" d="M157-154q-59 0-111 27l34 87q33-18 65-18 44 0 68 57L23 530h119l124-393 119 393h117L317-11q-26-77-63-110t-97-33m109 742q-57 0-95.5 35T124 720l68 12q17-67 74-67 59 0 74 67l68-12q-8-62-46-97t-96-35Z" horiz-adv-x="526" vert-adv-y="1000"/><glyph glyph-name="uni045F" unicode="џ" d="M485 530V0H330v-116H223V0H65v530h114V97h193v433h113Z" horiz-adv-x="550" vert-adv-y="1000"/><glyph glyph-name="uni0490" unicode="Ґ" d="M479 594H192V0H77v700h291v136h96l15-242Z" horiz-adv-x="491" vert-adv-y="1000"/><glyph glyph-name="uni0491" unicode="ґ" d="M393 433H178V0H65v530h219v116h98l11-213Z" horiz-adv-x="411" vert-adv-y="1000"/><glyph glyph-name="uni2013" unicode="–" d="M450 252H51v108h399V252Z" horiz-adv-x="502" vert-adv-y="1000"/><glyph glyph-name="uni2014" unicode="—" d="M771 252H51v108h720V252Z" horiz-adv-x="823" vert-adv-y="1000"/><glyph glyph-name="uni2018" unicode="‘" d="M215 656q-90-19-82-97h51V426H57v112q0 78 36 118t110 48l12-48Z" horiz-adv-x="250" vert-adv-y="1000"/><glyph glyph-name="uni2019" unicode="’" d="M194 589q0-79-36.5-118.5T47 423l-12 48q90 19 82 97H66v132h128V589Z" horiz-adv-x="250" vert-adv-y="1000"/><glyph glyph-name="uni201A" unicode="‚" d="M193 21q0-78-36.5-118T44-145L33-96q90 19 84 96H65v132h128V21Z" horiz-adv-x="256" vert-adv-y="1000"/><glyph glyph-name="uni201C" unicode="“" d="M429 656q-90-19-82-97h51V426H270v112q0 78 36.5 118T417 704l12-48m-214 0q-90-19-82-97h51V426H57v112q0 78 36 118t110 48l12-48Z" horiz-adv-x="464" vert-adv-y="1000"/><glyph glyph-name="uni201D" unicode="”" d="M408 589q0-79-36.5-118.5T261 423l-12 48q90 19 82 97h-51v132h128V589m-214 0q0-79-36.5-118.5T47 423l-12 48q90 19 82 97H66v132h128V589Z" horiz-adv-x="464" vert-adv-y="1000"/><glyph glyph-name="uni201E" unicode="„" d="M409 21q0-78-36.5-118T260-145l-12 49q91 19 85 96h-52v132h128V21m-216 0q0-78-36.5-118T44-145L33-96q90 19 84 96H65v132h128V21Z" horiz-adv-x="472" vert-adv-y="1000"/><glyph glyph-name="uni2020" unicode="†" d="m205 513 10-275h-71l9 275-108-9v71l107-11-12 136h78l-12-136 107 11v-71l-108 9Z" horiz-adv-x="359" vert-adv-y="1000"/><glyph glyph-name="uni2021" unicode="‡" d="m323 125-107 9L228 0h-78l12 134-107-9v71l107-11-9 165 9 163-107-9v71l107-11-12 136h79l-13-136 107 11v-71l-108 9 10-163-10-165 108 11v-71Z" horiz-adv-x="379" vert-adv-y="1000"/><glyph glyph-name="uni2022" unicode="•" d="m315.5 251-18.75-19.5Q278 212 223 212t-92 39q-37 39-37 99v5q0 60 37 99t92 39q55 0 92.5-39t37.5-99v-5q0-60-37.5-99Z" horiz-adv-x="447" vert-adv-y="1000"/><glyph glyph-name="uni2026" unicode="…" d="M689 0H564v131h125V0M439 0H313v131h126V0M188 0H63v131h125V0Z" horiz-adv-x="752" vert-adv-y="1000"/><glyph glyph-name="uni2030" unicode="‰" d="M339 531v-5q0-76-42.5-127T189 348q-65 0-106 50T42 524v6q0 76 42 126.5T191 707q65 0 106.5-50T339 531m224 169h88L197 0h-88l454 700m496-524v-6q0-76-42-126.5T909-7q-65 0-105.5 50T763 169v5q0 76 41.5 126.5T911 351q65 0 106.5-49.5T1059 176m-341 0v-6q0-76-42-126.5T568-7q-65 0-106 50t-41 126v5q0 76 42 126.5T570 351q65 0 106.5-49.5T718 176M255 524v6q0 46-18.5 74.5T189 633q-30 0-47.5-28.5T124 531v-5q0-47 19-75.5t48-28.5q30 0 47 28t17 74m721-355v5q0 46-19 74.5T909 277q-29 0-46.5-28T845 175v-5q0-46 18.5-75T911 66q30 0 47.5 28.5T976 169m-342 0v5q0 46-18.5 74.5T568 277q-29 0-47-28t-18-74v-5q0-46 19-75t48-29q29 0 46.5 28.5T634 169Z" horiz-adv-x="1101" vert-adv-y="1000"/><glyph glyph-name="uni2039" unicode="‹" d="m281 87-88-46L40 260v8l153 220 88-45-125-178L281 87Z" horiz-adv-x="326" vert-adv-y="1000"/><glyph glyph-name="uni203A" unicode="›" d="M287 260 132 41 44 86l127 178L45 441l87 47 155-220v-8Z" horiz-adv-x="326" vert-adv-y="1000"/><glyph glyph-name="uni2044" unicode="⁄" d="M367 754h103L49-89H-54l421 843Z" horiz-adv-x="435" vert-adv-y="1000"/><glyph glyph-name="uni20AC" unicode="€" d="M577 93Q495-11 382-11q-98 0-166 63.5T123 228H41v81h71q-1 12-1 37v7q0 29 1 43H41v81h84q26 109 94 171.5T382 711q117 0 193-97l-65-79q-29 37-58.5 54T382 606q-48 0-83.5-33.5T245 477h185v-81H230q-2-13-2-42v-7q0-25 1-38h201v-81H243Q280 94 388 94q66 0 127 74l62-75Z" horiz-adv-x="616" vert-adv-y="1000"/><glyph glyph-name="uni2116" unicode="№" d="M77 0v700h110l265-464v464h117V0H467L193 476V0H77m691 226q-59 0-97 43.5T633 381v5q0 67 38 111t97 44q59 0 97-43.5T903 387v-6q0-67-38.5-111T768 226m0 68q27 0 44 23.5t17 65.5q0 42-17.5 66T768 473q-27 0-44.5-24T706 383q0-40 18-64.5t44-24.5M644 98v75h247V98H644Z" horiz-adv-x="949" vert-adv-y="1000"/><glyph glyph-name="uni2117" unicode="℗" d="M693 355v-10q0-150-93.5-253T368-11Q231-11 138 91.5T45 344v10q0 150 93.5 253.5T370 711q137 0 230-103t93-253m-37-10v10q0 136-81 228.5T370 676q-125 0-206.5-93T82 354v-11q0-136 81-227.5T368 24q124 0 206 92.5T656 345m-136 74v-1q0-62-40.5-96T377 287h-52V166h-68v381h124q64 0 101.5-34t37.5-94m-69-2q0 33-19 50.5T380 485h-55V349h55q32 0 51.5 18.5T451 417Z" horiz-adv-x="738" vert-adv-y="1000"/><glyph glyph-name="uni2122" unicode="™" d="m514 606-80-144h-4l-80 144V389h-56v311h62l77-138 76 138h61V389h-56v217m-355 41V389h-58v258H22v53h215v-53h-78Z" horiz-adv-x="609" vert-adv-y="1000"/><glyph glyph-name="uni2202" unicode="∂" d="M0 0v700h500V0H0m81 49h339L250 304 81 49M49 96l171 254L49 604V96m401 0v508L279 350 450 96M250 395l170 255H81l169-255Z" horiz-adv-x="500" vert-adv-y="1000"/><glyph glyph-name="uni2206" unicode="∆" d="m22 0 251 701h112L636 0H22m158 104h297L329 539 180 104Z" horiz-adv-x="583" vert-adv-y="1000"/><glyph glyph-name="uni220F" unicode="∏" d="M0 0v700h500V0H0m81 49h339L250 304 81 49M49 96l171 254L49 604V96m401 0v508L279 350 450 96M250 395l170 255H81l169-255Z" horiz-adv-x="500" vert-adv-y="1000"/><glyph glyph-name="uni2211" unicode="∑" d="M0 0v700h500V0H0m81 49h339L250 304 81 49M49 96l171 254L49 604V96m401 0v508L279 350 450 96M250 395l170 255H81l169-255Z" horiz-adv-x="500" vert-adv-y="1000"/><glyph glyph-name="uni2212" unicode="−" d="M0 0v700h500V0H0m81 49h339L250 304 81 49M49 96l171 254L49 604V96m401 0v508L279 350 450 96M250 395l170 255H81l169-255Z" horiz-adv-x="500" vert-adv-y="1000"/><glyph glyph-name="uni221A" unicode="√" d="m82 208-88-7-5 82 147 11L241 59l240 735h91L257-147h-18L82 208Z" horiz-adv-x="533" vert-adv-y="1000"/><glyph glyph-name="uni221E" unicode="∞" d="M0 0v700h500V0H0m81 49h339L250 304 81 49M49 96l171 254L49 604V96m401 0v508L279 350 450 96M250 395l170 255H81l169-255Z" horiz-adv-x="500" vert-adv-y="1000"/><glyph glyph-name="uni222B" unicode="∫" d="M0 0v700h500V0H0m81 49h339L250 304 81 49M49 96l171 254L49 604V96m401 0v508L279 350 450 96M250 395l170 255H81l169-255Z" horiz-adv-x="500" vert-adv-y="1000"/><glyph glyph-name="uni2248" unicode="≈" d="m121 385-64 15q30 141 132 141 32 0 108.5-24.5T395 492q54 0 73 55l32-7q32-7 33-7-29-141-132-141-33 0-110 24.5T194 441q-52 0-73-56m0-229-64 15q30 140 132 140 33 0 109-24t97-24q55 0 73 55l32-8q32-7 33-7-29-140-132-140-33 0-109.5 24T194 211q-53 0-73-55Z" horiz-adv-x="590" vert-adv-y="1000"/><glyph glyph-name="uni2260" unicode="≠" d="m417 646 80-9-63-113h80V418H372l-76-134h218V178H235L167 55q-76 9-79 9l63 114H73v106h140l76 134H73v106h276l68 122Z" horiz-adv-x="590" vert-adv-y="1000"/><glyph glyph-name="uni2264" unicode="≤" d="M68 20v101h454V20H68m454 147L68 339v110l454 172V508L187 394l335-113V167Z" horiz-adv-x="590" vert-adv-y="1000"/><glyph glyph-name="uni2265" unicode="≥" d="M521 339 69 167v113l334 114L69 507v114l452-172V339m1-218V20H68v101h454Z" horiz-adv-x="590" vert-adv-y="1000"/><glyph glyph-name="uni25CA" unicode="◊" d="M0 0v700h500V0H0m81 49h339L250 304 81 49M49 96l171 254L49 604V96m401 0v508L279 350 450 96M250 395l170 255H81l169-255Z" horiz-adv-x="500" vert-adv-y="1000"/><glyph glyph-name="uniF6D1" unicode="" d="M249 588q-57 0-95.5 35T107 720l68 12q17-67 74-67 59 0 74 67l68-12q-8-62-46-97t-96-35Z" horiz-adv-x="500" vert-adv-y="1000"/><glyph glyph-name="uniF6D4" unicode="" d="m346 624-19.5-17.5Q307 589 249 589t-97 35.5Q113 660 103 722l72 14q17-67 74-67t74 67l72-14q-10-63-49-98Z" horiz-adv-x="500" vert-adv-y="1000"/><glyph glyph-name="uniF8FF" unicode="" d="M0 0v700h500V0H0m81 49h339L250 304 81 49M49 96l171 254L49 604V96m401 0v508L279 350 450 96M250 395l170 255H81l169-255Z" horiz-adv-x="500" vert-adv-y="1000"/><glyph glyph-name="uniFB00" unicode="ﬀ" d="M531 526h118v-93H532V0H420v433h-59v94h59v41q0 159 150 159 47 0 80-11v-96q-28 10-55 10-64 0-64-73v-31m-330 0h117v-93H202V0H89v433H30v94h59v41q0 79 39 119t111 40q47 0 80-11v-96q-28 10-54 10-64 0-64-73v-31Z" horiz-adv-x="662" vert-adv-y="1000"/><glyph glyph-name="uniFB01" unicode="ﬁ" d="M519 607H399v111h120V607M319 433H202V0H89v433H31v95h58v40q0 79 39 119t111 40q48 0 81-11v-95q-27 9-55 9-64 0-64-73v-30h118v-94M516 0H402v530h114V0Z" horiz-adv-x="587" vert-adv-y="1000"/><glyph glyph-name="uniFB02" unicode="ﬂ" d="M319 433H202V0H89v433H31v95h58v40q0 79 39 119t111 40q48 0 81-11v-95q-27 9-55 9-64 0-64-73v-30h118v-94M516 0H402v722h114V0Z" horiz-adv-x="587" vert-adv-y="1000"/><glyph glyph-name="uniFB03" unicode="ﬃ" d="M848 607H728v111h120V607m-317-81h118v-93H532V0H420v433h-59v94h59v41q0 159 150 159 47 0 80-11v-96q-28 10-55 10-64 0-64-73v-31m-330 0h117v-93H202V0H89v433H30v94h59v41q0 79 39 119t111 40q47 0 80-11v-96q-28 10-54 10-64 0-64-73v-31M845 0H732v530h113V0Z" horiz-adv-x="916" vert-adv-y="1000"/><glyph glyph-name="uniFB04" unicode="ﬄ" d="M531 526h118v-93H532V0H420v433h-59v94h59v41q0 159 150 159 47 0 80-11v-96q-28 10-55 10-64 0-64-73v-31m-330 0h117v-93H202V0H89v433H30v94h59v41q0 79 39 119t111 40q47 0 80-11v-96q-28 10-54 10-64 0-64-73v-31M845 0H732v722h113V0Z" horiz-adv-x="916" vert-adv-y="1000"/></font>
</defs>
</svg>
