<svg><defs><font id="GothamPro-BlackItalic" horiz-adv-x="1349" vert-adv-y="1349"><font-face font-family="Gotham Pro Black" font-weight="400" ascent="730" descent="-180"/><glyph glyph-name="uni21" unicode="!" d="m-10 0 45 170h198L187 0H-10m110 228 45 387 23 85h217l-24-85-162-387h-99Z" horiz-adv-x="322" vert-adv-y="1000"/><glyph glyph-name="uni22" unicode="&quot;" d="m67 341 95 359h204l-1-5-198-354H67m259 0 96 359h204l-1-5-198-354H326Z" horiz-adv-x="540" vert-adv-y="1000"/><glyph glyph-name="uni23" unicode="#" d="m38 0 47 135H3l36 161h103l39 112H87l36 161h115l46 131h145l-46-131h126l46 131h145l-46-131h82l-36-161H598l-40-112h95l-36-161H502L454 0H309l48 135H230L183 0H38m243 292h135l42 120H323l-42-120Z" horiz-adv-x="697" vert-adv-y="1000"/><glyph glyph-name="uni24" unicode="$" d="M177-98 208 9Q66 35-19 122L97 243q78-65 160-82l37 122q-97 30-144.5 72.5T102 473q0 97 83.5 162T404 700h9l17 58h104l-20-69q105-24 178-88L585 471q-52 43-119 64l-35-115q94-31 140.5-73.5T618 230q0-102-84.5-166T314 0h-5l-28-98H177m171 250q81 3 81 57 0 16-10.5 27T380 258l-32-106m-3 294 30 103q-41 0-62-15.5T292 494q0-17 11.5-27.5T345 446Z" horiz-adv-x="656" vert-adv-y="1000"/><glyph glyph-name="uni25" unicode="%" d="m68 0 689 700h141L208 0H68m615-10q-78 0-122.5 45.5T516 153q0 85 57.5 151T719 370q78 0 122.5-45.5T886 207q0-85-57.5-151T683-10m5 105q36 0 59 33t23 74q0 28-15.5 45.5T714 265q-36 0-59-33t-23-74q0-28 15.5-45.5T688 95M247 330q-78 0-123 45.5T79 493q0 85 57.5 151T282 710q78 0 122.5-45.5T449 547q0-85-57.5-151T247 330m5 105q35 0 58 33t23 74q0 28-15 45.5T277 605q-35 0-58-33t-23-74q0-28 15-45.5t41-17.5Z" horiz-adv-x="923" vert-adv-y="1000"/><glyph glyph-name="uni26" unicode="&amp;" d="m517-14-49 69Q364-11 254-11 142-11 77.5 41T13 182q0 78 53 134.5T214 404q-32 62-32 116 0 82 61.5 137.5T404 713q92 0 150-50t58-127q0-130-173-192l61-83q36 39 72 92l113-79q-43-66-98-124l57-77-127-87M278 133q48 0 103 33l-95 135q-90-37-90-104 0-28 22-46t60-18m85 309q51 19 72.5 39t21.5 48q0 22-14.5 37T405 581q-29 0-47-20t-18-48q0-34 23-71Z" horiz-adv-x="700" vert-adv-y="1000"/><glyph glyph-name="uni27" unicode="'" d="m67 341 95 359h207l-1-5-198-354H67Z" horiz-adv-x="282" vert-adv-y="1000"/><glyph glyph-name="uni28" unicode="(" d="M242-143Q45 7 45 217q0 174 112.5 304T457 713l56-129q-139-61-211.5-158.5T229 222q0-125 121-255L242-143Z" horiz-adv-x="455" vert-adv-y="1000"/><glyph glyph-name="uni29" unicode=")" d="M7-140-50-11Q90 50 162 147.5T234 351q0 125-121 255l109 110q196-150 196-360 0-173-112.5-303.5T7-140Z" horiz-adv-x="455" vert-adv-y="1000"/><glyph glyph-name="uni2a" unicode="*" d="m285 329-102 27 58 121-122-58-28 103 135 10-112 77 77 76 76-112 10 134 102-27-58-122 122 59 28-104-135-10 112-77-77-75-76 112-10-134Z" horiz-adv-x="436" vert-adv-y="1000"/><glyph glyph-name="uni2b" unicode="+" d="m191 96 46 172H69l45 168h168l46 172h175l-46-172h168l-45-168H412L366 96H191Z" horiz-adv-x="650" vert-adv-y="1000"/><glyph glyph-name="uni2c" unicode="," d="m-66-165-8 73Q39-81 57 2h-77l53 195h197L185 29q-26-98-83.5-144T-66-165Z" horiz-adv-x="302" vert-adv-y="1000"/><glyph glyph-name="uni2d" unicode="-" d="m33 229 45 167h328l-44-167H33Z" horiz-adv-x="417" vert-adv-y="1000"/><glyph glyph-name="uni2e" unicode="." d="m-20 0 52 195h198L177 0H-20Z" horiz-adv-x="302" vert-adv-y="1000"/><glyph glyph-name="uni2f" unicode="/" d="m-145-128 682 926h166L21-128h-166Z" horiz-adv-x="535" vert-adv-y="1000"/><glyph glyph-name="uni30" unicode="0" d="M330-14q-128 0-204 80T50 270q0 112 47 213t137 166q90 65 203 65 129 0 205-80t76-204q0-113-47-213.5T533.5 51Q443-14 330-14m17 171q75 0 124.5 84T521 419q0 60-27.5 91.5T420 542q-75 0-124-84t-49-178q0-60 27-91.5t73-31.5Z" horiz-adv-x="726" vert-adv-y="1000"/><glyph glyph-name="uni31" unicode="1" d="m84 0 138 517-117-28-4 157 222 59h141L275 0H84Z" horiz-adv-x="430" vert-adv-y="1000"/><glyph glyph-name="uni32" unicode="2" d="M-33 0 8 150l356 232q81 52 81 104 0 27-17.5 42T377 543q-70 0-159-87L105 575q124 136 290 136 113 0 179.5-55.5T641 511q0-66-41-122T457 267L286 158h279L522 0H-33Z" horiz-adv-x="627" vert-adv-y="1000"/><glyph glyph-name="uni33" unicode="3" d="M256-14Q67-14-24 121l132 109q59-78 148-78 51 0 84 25t33 58q0 64-109 64h-67l-4 100 196 144H127l42 157h506l-38-139-214-149q142-39 142-170 0-114-86-185T256-14Z" horiz-adv-x="611" vert-adv-y="1000"/><glyph glyph-name="uni34" unicode="4" d="m313 0 36 136H28L7 278l476 427h205L575 281h89l-40-145h-88L499 0H313m-90 280h165l53 199-218-199Z" horiz-adv-x="679" vert-adv-y="1000"/><glyph glyph-name="uni35" unicode="5" d="M261-13q-84 0-162.5 36T-22 111l122 114q76-74 167-74 54 0 88 27.5t34 67.5q0 33-26.5 54T285 321q-51 0-99-29l-99 69 111 339h462l-43-160H311l-32-97q41 14 89 14 97 0 156.5-52.5T584 263q0-118-89.5-197T261-13Z" horiz-adv-x="612" vert-adv-y="1000"/><glyph glyph-name="uni36" unicode="6" d="M317-13q-126 0-196 70-72 72-72 193 0 98 35.5 191.5T186 601q112 112 275 112 137 0 226-76l-97-137q-61 54-137 54-81 0-136-55-39-39-59-96 64 55 160 55 85 0 143-51t58-139q0-116-88.5-198.5T317-13m0 147q48 0 79.5 33.5T428 245q0 35-23.5 56.5T344 323q-50 0-82-32.5T230 213q0-34 22-54 25-25 65-25Z" horiz-adv-x="654" vert-adv-y="1000"/><glyph glyph-name="uni37" unicode="7" d="m-4 0 422 537H102l44 163h540l-40-146L218 0H-4Z" horiz-adv-x="614" vert-adv-y="1000"/><glyph glyph-name="uni38" unicode="8" d="M305-10q-118 0-199.5 54T24 186q0 72 45 120t126 70q-76 45-76 132 0 80 75 141t204 61q115 0 187-54.5T657 519q0-63-39.5-107.5T507 346q103-43 103-144 0-90-84.5-151T305-10m11 143q46 0 77 23.5t31 60.5q0 33-29 53.5T324 291q-47 0-77.5-23.5T216 207q0-33 29-53.5t71-20.5m64 284q37 0 67 22t30 59q0 31-25.5 50T387 567q-37 0-67-22t-30-59q0-31 26-50t64-19Z" horiz-adv-x="664" vert-adv-y="1000"/><glyph glyph-name="uni39" unicode="9" d="M238-13Q100-13 5 68l97 136q70-58 141-58 80 0 137 57 38 37 57 91-63-54-159-54-86 0-143.5 50.5T77 430q0 119 88 201.5T379 714q126 0 196-70 73-73 73-200 0-94-36-186T509 99Q397-13 238-13m116 387q48 0 80 33.5t32 79.5q0 32-21 55-24 24-65 24-49 0-80.5-33.5T268 453q0-36 24-57.5t62-21.5Z" horiz-adv-x="654" vert-adv-y="1000"/><glyph glyph-name="uni3a" unicode=":" d="m-18 0 53 195h197L180 0H-18m93 346 52 195h198l-53-195H75Z" horiz-adv-x="307" vert-adv-y="1000"/><glyph glyph-name="uni3b" unicode=";" d="m-64-167-8 73Q41-83 59 0h-77l53 195h197L187 27q-26-98-83.5-144T-64-167M75 346l52 195h198l-53-195H75Z" horiz-adv-x="307" vert-adv-y="1000"/><glyph glyph-name="uni3c" unicode="&lt;" d="M513 65 68 263l48 177 550 198-50-185-356-110 298-109-45-169Z" horiz-adv-x="640" vert-adv-y="1000"/><glyph glyph-name="uni3d" unicode="=" d="m38 134 45 167h491l-44-167H38m72 269 45 167h492l-45-167H110Z" horiz-adv-x="640" vert-adv-y="1000"/><glyph glyph-name="uni3e" unicode="&gt;" d="m20 65 50 185 356 110-298 109 45 169 445-198-48-177L20 65Z" horiz-adv-x="640" vert-adv-y="1000"/><glyph glyph-name="uni3f" unicode="?" d="m67 0 46 170h197L264 0H67m101 228 18 168 9 8q182 15 182 87 0 50-67 50-65 0-135-54L97 622q102 88 247 88 102 0 164-52t62-130q0-88-62.5-147T319 302l-30-74H168Z" horiz-adv-x="540" vert-adv-y="1000"/><glyph glyph-name="uni40" unicode="@" d="M462-154q-185 0-300 107.5T47 234q0 128 64 238.5T288 649q113 66 249 66 184 0 293-98.5T939 372q0-154-72-234.5T696 57q-53 0-93 22.5T544 139q-72-80-159-80-67 0-111 46.5T230 231q0 121 73 204.5T474 519q86 0 129-72l21 67 147-40-80-254q-7-21-7-41 0-59 65-59 54 0 101.5 69.5T898 375q0 127-98 213.5T537 675q-189 0-319-130.5T88 234Q88 78 192-18.5T463-115q103 0 205 45l16-37q-104-47-222-47m-2 345q43 0 76 37.5t33 89.5q0 31-19.5 50T499 387q-44 0-76-37t-32-89q0-32 18.5-51t50.5-19Z" horiz-adv-x="965" vert-adv-y="1000"/><glyph glyph-name="uni41" unicode="A" d="m-74 0 487 705h190L712 0H508l-17 125H221L137 0H-74m393 276h156l-25 201-131-201Z" horiz-adv-x="775" vert-adv-y="1000"/><glyph glyph-name="uni42" unicode="B" d="m-12 0 188 700h291q134 0 193.5-47T720 532q0-67-41.5-114T563 353q106-38 106-140 0-95-81-154T351 0H-12m231 156h147q50 0 79 20.5t29 53.5q0 55-86 55H254l-35-129m72 265h131q51 0 78.5 19t27.5 52q0 52-84 52H323l-32-123Z" horiz-adv-x="714" vert-adv-y="1000"/><glyph glyph-name="uni43" unicode="C" d="M382-14q-147 0-239 83.5T51 292q0 105 52 200.5T257 651q102 63 231 63 105 0 178.5-47T772 537l-168-90q-44 90-141 90-86 0-147.5-69T254 306q0-66 39-105t101-39q79 0 150 71l131-116Q559-14 382-14Z" horiz-adv-x="727" vert-adv-y="1000"/><glyph glyph-name="uni44" unicode="D" d="m-12 0 188 700h226q184 0 274-90 76-76 76-205 0-161-115-276Q508 0 270 0H-12m241 172h64q129 0 200 71 60 60 60 146 0 61-35 96-41 43-137 43h-56l-96-356Z" horiz-adv-x="761" vert-adv-y="1000"/><glyph glyph-name="uni45" unicode="E" d="m-12 0 188 700h561l-45-165H324l-29-106h334l-41-153H254l-30-111h374L554 0H-12Z" horiz-adv-x="669" vert-adv-y="1000"/><glyph glyph-name="uni46" unicode="F" d="m-12 0 188 700h560l-46-170H325l-32-119h330l-43-161H250L183 0H-12Z" horiz-adv-x="652" vert-adv-y="1000"/><glyph glyph-name="uni47" unicode="G" d="M387-14q-65 0-123.5 18.5t-107 55Q108 96 79 156.5T50 295q0 172 127 295.5T499 714q99 0 175-34t115-85L659 469q-72 72-173 72-104 0-171-69.5T248 303q0-71 44.5-110T405 154q52 0 93 19l28 94H391l37 142h321L649 56Q528-14 387-14Z" horiz-adv-x="762" vert-adv-y="1000"/><glyph glyph-name="uni48" unicode="H" d="m-12 0 188 700h195l-71-262h247l70 262h195L624 0H429l72 266H254L183 0H-12Z" horiz-adv-x="757" vert-adv-y="1000"/><glyph glyph-name="uni49" unicode="I" d="m-7 0 188 700h194L187 0H-7Z" horiz-adv-x="325" vert-adv-y="1000"/><glyph glyph-name="uni4a" unicode="J" d="M197-12q-74 0-137.5 32T-41 111L91 226q50-68 112-68 43 0 75 32 28 28 53 119l105 391h193L515 272Q477 130 411 64q-78-76-214-76Z" horiz-adv-x="568" vert-adv-y="1000"/><glyph glyph-name="uni4b" unicode="K" d="m-12 0 188 700h195l-76-280 289 280h247L501 393 657 0H447L346 270 225 159 183 0H-12Z" horiz-adv-x="722" vert-adv-y="1000"/><glyph glyph-name="uni4c" unicode="L" d="m-12 0 188 700h195L229 170h334L517 0H-12Z" horiz-adv-x="617" vert-adv-y="1000"/><glyph glyph-name="uni4d" unicode="M" d="m-12 0 188 700h196l93-271 238 271h218L733 0H538l107 402-251-274h-4L287 400 180 0H-12Z" horiz-adv-x="866" vert-adv-y="1000"/><glyph glyph-name="uni4e" unicode="N" d="m-12 0 188 700h181l181-389 105 389h193L648 0H478L289 403 181 0H-12Z" horiz-adv-x="781" vert-adv-y="1000"/><glyph glyph-name="uni4f" unicode="O" d="M386-13q-148 0-241 89.5T52 301q0 79 31.5 154T169 587q54 57 132.5 91.5T469 713q148 0 241-89.5T803 399q0-79-31.5-154T686 113q-54-57-132.5-91.5T386-13m17 174q88 0 145 69.5T605 384q0 69-40.5 112T452 539q-87 0-144.5-70T250 316q0-69 40.5-112T403 161Z" horiz-adv-x="813" vert-adv-y="1000"/><glyph glyph-name="uni50" unicode="P" d="m-12 0 188 700h229q166 0 240-74 55-55 55-143 0-129-95.5-205.5T352 201H237L183 0H-12m289 352h73q71 0 111 29.5t40 79.5q0 29-20 49-27 27-83 27h-72l-49-185Z" horiz-adv-x="672" vert-adv-y="1000"/><glyph glyph-name="uni51" unicode="Q" d="m603-45-45 69q-80-37-172-37-148 0-241 89.5T52 301q0 79 31.5 154T169 587q54 57 132.5 91.5T469 713q148 0 241-89.5T803 399q0-160-115-281l53-72-138-91M402 157q23 0 50 9l-77 104 139 92 60-94q31 54 31 114 0 70-40.5 113.5T452 539q-88 0-145.5-70T249 314q0-70 40.5-113.5T402 157Z" horiz-adv-x="813" vert-adv-y="1000"/><glyph glyph-name="uni52" unicode="R" d="m-12 0 188 700h264q168 0 241-73 54-54 54-143 0-90-52.5-154.5T525 236L633 0H419l-93 212h-86L183 0H-12m292 364h111q66 0 105 26t39 71q0 27-18 47-24 24-86 24H326l-46-168Z" horiz-adv-x="720" vert-adv-y="1000"/><glyph glyph-name="uni53" unicode="S" d="M302-12Q96-12-23 116l125 129q103-95 216-95 35 0 57 14t22 38q0 21-22 36t-95 43q-92 35-137 78T98 474q0 104 84 171t213 67q178 0 287-104L562 474q-89 77-185 77-34 0-55-14t-21-36q0-20 21-33t96-43q90-34 136-78t46-117q0-108-83.5-175T302-12Z" horiz-adv-x="645" vert-adv-y="1000"/><glyph glyph-name="uni54" unicode="T" d="m151 0 143 530H84l46 170h613l-45-170H488L346 0H151Z" horiz-adv-x="645" vert-adv-y="1000"/><glyph glyph-name="uni55" unicode="U" d="M342-13q-135 0-209 64.5T59 232q0 51 16 112l96 356h196l-99-370q-10-37-10-66 0-48 28.5-75t80.5-27q57 0 94 37 38 36 59 116l104 385h196L709 286Q672 149 600 77q-90-90-258-90Z" horiz-adv-x="760" vert-adv-y="1000"/><glyph glyph-name="uni56" unicode="V" d="m202-5-93 705h212l39-440 275 440h219L383-5H202Z" horiz-adv-x="739" vert-adv-y="1000"/><glyph glyph-name="uni57" unicode="W" d="m162-5-45 705h201l13-405 242 407h168l27-407 230 405h211L786-5H612l-32 398L335-5H162Z" horiz-adv-x="1102" vert-adv-y="1000"/><glyph glyph-name="uni58" unicode="X" d="m-75 0 341 366-145 334h213l77-197 173 197h234L494 352 648 0H434l-84 216L160 0H-75Z" horiz-adv-x="713" vert-adv-y="1000"/><glyph glyph-name="uni59" unicode="Y" d="m159 0 73 271L91 700h209l69-262 211 262h232L421 250 354 0H159Z" horiz-adv-x="677" vert-adv-y="1000"/><glyph glyph-name="uni5a" unicode="Z" d="M-36 0 1 141l446 395H119l45 164h595l-38-141-446-395h341L572 0H-36Z" horiz-adv-x="681" vert-adv-y="1000"/><glyph glyph-name="uni5b" unicode="[" d="m-26-130 223 830h346l-35-129H332L178-1h176l-34-129H-26Z" horiz-adv-x="468" vert-adv-y="1000"/><glyph glyph-name="uni5c" unicode="\" d="M316-128 109 798h153l207-926H316Z" horiz-adv-x="535" vert-adv-y="1000"/><glyph glyph-name="uni5d" unicode="]" d="M-67-130-32-1h176l153 572H121l35 129h346L279-130H-67Z" horiz-adv-x="468" vert-adv-y="1000"/><glyph glyph-name="uni5e" unicode="^" d="m89 493 199 206h128l89-206H382l-50 97-102-97H89Z" horiz-adv-x="500" vert-adv-y="1000"/><glyph glyph-name="uni5f" unicode="_" d="m-117-160 31 116h604l-31-116h-604Z" horiz-adv-x="600" vert-adv-y="1000"/><glyph glyph-name="uni60" unicode="`" d="M333 587 222 715l179 57 55-185H333Z" horiz-adv-x="500" vert-adv-y="1000"/><glyph glyph-name="uni61" unicode="a" d="M152-11Q85-11 43 29T1 136q0 88 65 139.5T239 327q68 0 137-21l2 7q5 22 5 33 0 58-93 58-78 0-146-27l-27 138q94 33 213 33 120 0 180.5-45T571 376q0-36-11-78L480 0H293l15 58q-74-69-156-69m88 117q36 0 68 28t43 70l5 18q-36 12-71 12-45 0-72-21t-27-57q0-23 15-36.5t39-13.5Z" horiz-adv-x="597" vert-adv-y="1000"/><glyph glyph-name="uni62" unicode="b" d="M353-12q-108 0-164 86L169 0H-21l195 730h190l-66-246q71 69 154 69t137.5-60Q644 433 644 331q0-144-86.5-243.5T353-12m-33 158q54 0 93 45.5T452 301q0 43-25.5 69T360 396q-54 0-94-46t-40-108q0-43 26-69.5t68-26.5Z" horiz-adv-x="672" vert-adv-y="1000"/><glyph glyph-name="uni63" unicode="c" d="M281-13Q170-13 99 51.5T28 224q0 136 95 232t230 96q90 0 148.5-41T583 404l-149-77q-29 68-93 68-53 0-91.5-49T211 234q0-41 23.5-65.5T294 144q52 0 102 50L512 93Q421-13 281-13Z" horiz-adv-x="563" vert-adv-y="1000"/><glyph glyph-name="uni64" unicode="d" d="M220-12q-83 0-137.5 60T28 210q0 144 86.5 243.5T319 553q108 0 164-86l70 263h190L548 0H358l16 57q-72-69-154-69m92 157q54 0 94 46t40 108q0 43-26 69.5T352 395q-54 0-93-45.5T220 240q0-43 25.5-69t66.5-26Z" horiz-adv-x="672" vert-adv-y="1000"/><glyph glyph-name="uni65" unicode="e" d="M286-13Q167-13 97.5 52T28 227q0 127 91 226.5T353 553q113 0 171.5-64.5T583 329q0-54-21-111H203q7-89 101-89 56 0 115 43l88-104q-93-81-221-81m-70 328h193q5 15 5 29 0 30-19 49.5T340 413q-40 0-73.5-25.5T216 315Z" horiz-adv-x="601" vert-adv-y="1000"/><glyph glyph-name="uni66" unicode="f" d="m13 0 105 388H54l41 153h63l3 11q25 98 81.5 141.5T393 737q67 0 121-18l-35-133q-34 12-64 12-55 0-68-51l-3-9h122l-40-150H308L203 0H13Z" horiz-adv-x="418" vert-adv-y="1000"/><glyph glyph-name="uni67" unicode="g" d="M238-162q-77 0-154.5 20.5T-47-88L38 31q92-56 192-56 72 0 112 40 28 29 45 87l3 12q-74-66-164-66-78 0-135.5 50.5T33 235q0 128 82.5 222.5T317 552q109 0 164-88l20 77h190L576 111Q541-21 480-83q-78-79-242-79m72 347q54 0 91 39.5t37 91.5q0 38-24.5 62T348 402q-53 0-89.5-40.5T222 268q0-38 24-60.5t64-22.5Z" horiz-adv-x="668" vert-adv-y="1000"/><glyph glyph-name="uni68" unicode="h" d="m-21 0 195 730h190l-67-251q70 74 155 74 73 0 115-43.5T609 391q0-37-16-97L515 0H325l76 283q6 21 6 44 0 57-60 57-74 0-101-98L169 0H-21Z" horiz-adv-x="632" vert-adv-y="1000"/><glyph glyph-name="uni69" unicode="i" d="m-17 0 145 541h190L173 0H-17m155 590 38 140h198l-38-140H138Z" horiz-adv-x="301" vert-adv-y="1000"/><glyph glyph-name="uni6a" unicode="j" d="M-53-163q-43 0-81 7l33 126q12-3 24-3 29 0 46 17.5T-3 45l133 496h190L180 21Q152-82 97-122.5T-53-163m192 753 38 140h198l-38-140H139Z" horiz-adv-x="303" vert-adv-y="1000"/><glyph glyph-name="uni6b" unicode="k" d="m-21 0 196 730h190l-96-357 181 168h229L430 319 536 0H333l-58 192-71-63L169 0H-21Z" horiz-adv-x="599" vert-adv-y="1000"/><glyph glyph-name="uni6c" unicode="l" d="m-17 0 196 730h190L173 0H-17Z" horiz-adv-x="301" vert-adv-y="1000"/><glyph glyph-name="uni6d" unicode="m" d="m-21 0 145 541h190l-16-60q70 72 151 72 107 0 141-94 83 94 196 94 76 0 118-43t42-118q0-38-16-98L851 0H662l75 283q7 25 7 44 0 57-58 57-72 0-99-98L510 0H320l76 283q7 24 7 44 0 57-58 57-72 0-99-98L169 0H-21Z" horiz-adv-x="968" vert-adv-y="1000"/><glyph glyph-name="uni6e" unicode="n" d="m-21 0 145 541h190l-17-62q70 74 155 74 73 0 115-43.5T609 391q0-37-16-97L515 0H325l76 283q6 21 6 44 0 57-60 57-74 0-101-98L169 0H-21Z" horiz-adv-x="630" vert-adv-y="1000"/><glyph glyph-name="uni6f" unicode="o" d="M295-13q-121 0-193 71T30 239q0 125 92.5 219.5T348 553q122 0 194-71t72-180q0-126-92.5-220.5T295-13m11 158q54 0 90 46.5T432 295q0 45-26 72.5T338 395q-54 0-90-46.5T212 246q0-46 26-73.5t68-27.5Z" horiz-adv-x="644" vert-adv-y="1000"/><glyph glyph-name="uni70" unicode="p" d="m-64-160 188 701h190l-16-57q71 69 154 69t137.5-60Q644 433 644 331q0-144-86.5-243.5T353-12q-108 0-164 86l-63-234H-64m384 306q54 0 93 45.5T452 301q0 43-25.5 69T360 396q-54 0-94-46t-40-108q0-43 26-69.5t68-26.5Z" horiz-adv-x="672" vert-adv-y="1000"/><glyph glyph-name="uni71" unicode="q" d="m310-180 64 237q-72-69-154-69-83 0-137.5 60T28 210q0 144 86.5 243.5T319 553q108 0 164-86l20 74h190L500-180H310m2 325q54 0 94 46t40 108q0 43-26 69.5T352 395q-54 0-93-45.5T220 240q0-43 25.5-69t66.5-26Z" horiz-adv-x="672" vert-adv-y="1000"/><glyph glyph-name="uni72" unicode="r" d="m-21 0 145 541h190l-29-109q85 126 203 118l-54-200h-16q-156 0-205-187L169 0H-21Z" horiz-adv-x="430" vert-adv-y="1000"/><glyph glyph-name="uni73" unicode="s" d="M230-13q-77 0-147.5 25T-37 81l94 111q38-34 87.5-53.5T237 119q48 0 48 33 0 14-16 24t-58 27q-75 30-113.5 64.5T59 361q0 83 63.5 137.5T295 553q69 0 131.5-22T529 477l-91-114q-78 58-153 58-47 0-47-31 0-13 16-23.5t59-27.5q73-29 112-63t39-95q0-83-61-138.5T230-13Z" horiz-adv-x="511" vert-adv-y="1000"/><glyph glyph-name="uni74" unicode="t" d="M214-11q-81 0-122.5 33.5T50 117q0 34 10 71l54 200H50l41 153h64l37 137h190l-37-137h126l-41-153H304l-46-170q-5-22-5-33 0-34 43-34 30 0 72 15L326 8q-54-19-112-19Z" horiz-adv-x="430" vert-adv-y="1000"/><glyph glyph-name="uni75" unicode="u" d="M183-12q-73 0-115 43.5T26 150q0 40 15 97l79 294h190l-76-283q-7-24-7-44 0-57 61-57 75 0 100 98l77 286h190L511 0H321l16 62q-70-74-154-74Z" horiz-adv-x="632" vert-adv-y="1000"/><glyph glyph-name="uni76" unicode="v" d="M151-4 81 541h195l20-315 187 315h202L324-4H151Z" horiz-adv-x="621" vert-adv-y="1000"/><glyph glyph-name="uni77" unicode="w" d="M103-4 84 541h183l-2-272 157 274h156l11-276 146 274h185L607-4H445l-13 281L267-4H103Z" horiz-adv-x="859" vert-adv-y="1000"/><glyph glyph-name="uni78" unicode="x" d="m-62 0 259 281L85 541h197l47-131 109 131h214L400 267 514 0H317l-49 137L152 0H-62Z" horiz-adv-x="589" vert-adv-y="1000"/><glyph glyph-name="uni79" unicode="y" d="M94-163q-84 0-144 39L35 15q37-27 75-27 27 0 47 20L87 541h193l22-325 182 325h200L349 3q-57-91-115.5-128.5T94-163Z" horiz-adv-x="622" vert-adv-y="1000"/><glyph glyph-name="uni7a" unicode="z" d="m-40 0 34 125 318 265H74l40 151h486l-33-125-319-265h249L457 0H-40Z" horiz-adv-x="558" vert-adv-y="1000"/><glyph glyph-name="uni7b" unicode="{" d="M322-141q-117 13-165 49.5T109 5q0 32 16 82 16 52 16 76 0 31-18 46t-70 15H27l33 126h27q78 0 107 32t42 121q8 54 24.5 91t51 65.5q34.5 28.5 92 42T546 715l12-112q-91-7-123-41.5T394 452q-10-87-45-127t-122-50q86-17 86-95 0-27-14-71-15-43-15-68 0-31 19-48.5T375-38l-53-103Z" horiz-adv-x="497" vert-adv-y="1000"/><glyph glyph-name="uni7c" unicode="|" d="M122-128v926h145v-926H122Z" horiz-adv-x="356" vert-adv-y="1000"/><glyph glyph-name="uni7d" unicode="}" d="M-40-141-52-29q91 7 122.5 41.5T112 122q11 87 45.5 127T279 299q-86 17-86 95 0 27 14 71 15 43 15 68 0 31-19 48.5T131 612l53 103q117-13 165-49.5t48-96.5q0-32-16-82-16-52-16-76 0-31 18-46t70-15h26l-33-126h-27q-78 0-107.5-32T270 71q-8-54-24.5-91t-51-65.5q-34.5-28.5-92-42T-40-141Z" horiz-adv-x="497" vert-adv-y="1000"/><glyph glyph-name="uni7e" unicode="~" d="m129 216-88 41q28 69 70 106.5t90 37.5q42 0 84-31 35-24 52-24 34 0 66 57l89-41q-29-69-71-106.5T331 218q-42 0-84 31-34 24-52 24-34 0-66-57Z" horiz-adv-x="505" vert-adv-y="1000"/><glyph glyph-name="unia1" unicode="¡" d="M-20 0 4 85l162 387h99L220 85 197 0H-20m152 530 46 170h197l-45-170H132Z" horiz-adv-x="322" vert-adv-y="1000"/><glyph glyph-name="unia2" unicode="¢" d="M258-6H148l42 107q-65 30-100.5 86T54 319q0 135 93.5 228T380 640h21l26 66h110l-35-89q86-39 117-127l-137-71q-14 37-42 56l-98-254q54 4 103 53l108-96Q465 75 325 75q-23 0-35 2L258-6m-5 253 97 247q-57-5-93.5-55.5T220 327q0-54 33-80Z" horiz-adv-x="585" vert-adv-y="1000"/><glyph glyph-name="unia3" unicode="£" d="M-22 0 9 116l82 28 33 121H49l36 135h75l15 57q30 116 92 178 77 77 206 77 71 0 127.5-29t87.5-75L557 490q-38 51-92 51-37 0-64-27-23-21-36-69l-13-45h209l-36-135H317l-30-111h285L531 0H-22Z" horiz-adv-x="631" vert-adv-y="1000"/><glyph glyph-name="unia4" unicode="¤" d="M385-14q-114 0-189.5 64.5T109 223H19l28 104h67q6 34 11 50H60l28 104h65q45 106 131 169.5T489 714q178 0 246-147l-142-95q-40 75-119 75-77 0-123-68h169l-27-101H313q-8-26-12-52h178l-27-101H298q16-72 95-72 67 0 126 59L630 93Q529-14 385-14Z" horiz-adv-x="677" vert-adv-y="1000"/><glyph glyph-name="unia5" unicode="¥" d="m190 0 25 93H31l32 120h184l13 50H76l32 120h140L126 700h205l73-230 188 230h229L530 383h138l-32-120H452l-13-50h183L590 93H406L381 0H190Z" horiz-adv-x="718" vert-adv-y="1000"/><glyph glyph-name="unia6" unicode="¦" d="M33-89v250h157V-89H33m0 500v250h157V411H33Z" horiz-adv-x="222" vert-adv-y="1000"/><glyph glyph-name="unia7" unicode="§" d="M280-12q-79 0-147.5 25.5T23 82l99 105q32-29 77-49t85-20q53 0 53 30 0 14-19.5 23.5T239 199q-85 25-131 56.5T62 339q0 101 126 130-33 35-33 82 0 69 63.5 116T388 714q79 0 148-25.5T645 620l-98-105q-31 29-77 48.5T384 583q-52 0-52-29 0-14 19.5-24t77.5-27q86-26 131.5-57.5T606 362q0-99-125-130 32-35 32-81 0-70-63-116.5T280-12m124 304q22 0 36.5 10t14.5 26q0 17-19.5 28.5T368 384q-76 26-103 26-22 0-37-10t-15-27q0-16 19.5-27.5T300 317q74-25 104-25Z" horiz-adv-x="625" vert-adv-y="1000"/><glyph glyph-name="unia8" unicode="¨" d="m142 587 39 143h166l-39-143H142m219 0 39 143h166l-39-143H361Z" horiz-adv-x="500" vert-adv-y="1000"/><glyph glyph-name="unia9" unicode="©" d="m694 93.5-53-53.75Q588-14 437-14T181 93Q76 200 76 350q0 149 106 256.5T439 714q151 0 256-107t105-257q0-149-106-256.5M437 26q136 0 228.5 95.5T758 352q0 134-92 228t-227 94q-136 0-228.5-95.5T118 348q0-134 92-228t227-94m6 130q-87 0-144.5 57T241 355q0 83 57.5 141T445 554q105 0 162-79l-81-64q-35 45-83 45-39 0-65-29.5T352 354q0-42 26-71t65-29q47 0 86 46l81-58q-62-86-167-86Z" horiz-adv-x="830" vert-adv-y="1000"/><glyph glyph-name="uniaa" unicode="ª" d="m45 270 21 77h288l-21-77H45m137 128q-37 0-60 22t-23 58q0 49 36 77.5t95 28.5q37 0 75-13l2 6q3 7 3 16 0 33-51 33-42 0-79-14l-15 75q51 19 116 19t98.5-25q33.5-25 33.5-70 0-21-6-43l-44-164H259l9 32q-40-38-86-38m49 64q20 0 37.5 15.5T291 515l3 11q-23 7-40 7-23 0-38-12t-15-31q0-12 8.5-20t21.5-8Z" horiz-adv-x="395" vert-adv-y="1000"/><glyph glyph-name="uniab" unicode="«" d="M138 28 30 252l13 49 215 212 105-96-166-161 82-165-141-63m263-3L288 260l2 8 241 237 105-96-171-166 77-155-141-63Z" horiz-adv-x="630" vert-adv-y="1000"/><glyph glyph-name="uniac" unicode="¬" d="m382 231 46 172H111l45 167h491l-91-339H382Z" horiz-adv-x="640" vert-adv-y="1000"/><glyph glyph-name="uniad" unicode="­" d="m33 229 45 167h328l-44-167H33Z" horiz-adv-x="417" vert-adv-y="1000"/><glyph glyph-name="uniae" unicode="®" d="m694 93.5-53-53.75Q588-14 437-14T181 93Q76 200 76 350q0 149 106 256.5T439 714q151 0 256-107t105-257q0-149-106-256.5M437 26q136 0 228.5 95.5T758 352q0 134-92 228t-227 94q-136 0-228.5-95.5T118 348q0-134 92-228t227-94M278 168v385h180q86 0 129-43 34-34 34-90 0-85-80-118l92-134H510l-80 117h-44V168H278m108 200h69q58 0 58 47 0 46-58 46h-69v-93Z" horiz-adv-x="830" vert-adv-y="1000"/><glyph glyph-name="uniaf" unicode="¯" d="m149 592 30 116h376l-31-116H149Z" horiz-adv-x="500" vert-adv-y="1000"/><glyph glyph-name="unib0" unicode="°" d="M260 346q-77 0-123.5 46T90 508q0 83 58 142t141 59q77 0 123.5-46.5T459 547q0-83-58-142t-141-59m5 94q39 0 64 31.5t25 70.5q0 32-19 52.5T285 615q-40 0-64.5-31.5T196 513q0-32 19-52.5t50-20.5Z" horiz-adv-x="452" vert-adv-y="1000"/><glyph glyph-name="unib1" unicode="±" d="m-8-16 42 157h491L483-16H-8m217 222 35 132H75l45 168h169l36 132h174l-36-132h169l-45-168H418l-35-132H209Z" horiz-adv-x="640" vert-adv-y="1000"/><glyph glyph-name="unib2" unicode="²" d="M0 0v700h500V0H0m81 49h340L250 304 81 49M50 95l170 254L50 605V95m401 0v510L279 349 451 95M250 395l171 255H81l169-255Z" horiz-adv-x="500" vert-adv-y="1000"/><glyph glyph-name="unib3" unicode="³" d="M0 0v700h500V0H0m81 49h340L250 304 81 49M50 95l170 254L50 605V95m401 0v510L279 349 451 95M250 395l171 255H81l169-255Z" horiz-adv-x="500" vert-adv-y="1000"/><glyph glyph-name="unib4" unicode="´" d="m200 587 155 185 173-57-181-128H200Z" horiz-adv-x="500" vert-adv-y="1000"/><glyph glyph-name="unib5" unicode="µ" d="m-64-160 188 701h190l-79-293q-12-43 3-67t50-24q35 0 63 24t40 67l79 293h190L515 0H325l19 74Q266-2 191-2q-8 0-22 2l-43-160H-64Z" horiz-adv-x="634" vert-adv-y="1000"/><glyph glyph-name="unib6" unicode="¶" d="m270 0 56 212Q69 225 69 421q0 126 91.5 202.5T422 700h230L464 0H270Z" horiz-adv-x="597" vert-adv-y="1000"/><glyph glyph-name="unib7" unicode="·" d="m35 215 52 195h198l-53-195H35Z" horiz-adv-x="302" vert-adv-y="1000"/><glyph glyph-name="unib8" unicode="¸" d="M160-173 21-109 146 15h129L160-173Z" horiz-adv-x="500" vert-adv-y="1000"/><glyph glyph-name="unib9" unicode="¹" d="M0 0v700h500V0H0m81 49h340L250 304 81 49M50 95l170 254L50 605V95m401 0v510L279 349 451 95M250 395l171 255H81l169-255Z" horiz-adv-x="500" vert-adv-y="1000"/><glyph glyph-name="uniba" unicode="º" d="m48 270 21 77h283l-20-77H48m201 125q-67 0-107 39.5T102 535q0 68 51 119.5T278 706q66 0 106-39.5T424 566q0-68-51-119.5T249 395m5 87q30 0 49.5 25t19.5 56q0 25-14 40.5T272 619q-30 0-49.5-25T203 537q0-24 14-39.5t37-15.5Z" horiz-adv-x="402" vert-adv-y="1000"/><glyph glyph-name="unibb" unicode="»" d="M99 37-6 132l171 166-77 155 142 63 112-234-2-8L99 37m273-9-105 96 166 161-82 165 142 63 108-224-14-49L372 28Z" horiz-adv-x="630" vert-adv-y="1000"/><glyph glyph-name="unibc" unicode="¼" d="M0 0v700h500V0H0m81 49h340L250 304 81 49M50 95l170 254L50 605V95m401 0v510L279 349 451 95M250 395l171 255H81l169-255Z" horiz-adv-x="500" vert-adv-y="1000"/><glyph glyph-name="unibd" unicode="½" d="M0 0v700h500V0H0m81 49h340L250 304 81 49M50 95l170 254L50 605V95m401 0v510L279 349 451 95M250 395l171 255H81l169-255Z" horiz-adv-x="500" vert-adv-y="1000"/><glyph glyph-name="unibe" unicode="¾" d="M0 0v700h500V0H0m81 49h340L250 304 81 49M50 95l170 254L50 605V95m401 0v510L279 349 451 95M250 395l171 255H81l169-255Z" horiz-adv-x="500" vert-adv-y="1000"/><glyph glyph-name="unibf" unicode="¿" d="M240-10Q137-10 75 42T13 172q0 87 63 146.5T265 398l30 74h120l-17-168-10-8q-181-15-181-87 0-50 66-50t135 54l78-135Q386-10 240-10m33 540 46 170h198l-46-170H273Z" horiz-adv-x="540" vert-adv-y="1000"/><glyph glyph-name="unic0" unicode="À" d="m-74 0 487 705h190L712 0H508l-17 125H221L137 0H-74m393 276h156l-25 201-131-201m139 471L347 875l179 57 55-185H458Z" horiz-adv-x="775" vert-adv-y="1000"/><glyph glyph-name="unic1" unicode="Á" d="m-74 0 487 705h190L712 0H508l-17 125H221L137 0H-74m393 276h156l-25 201-131-201m106 471 155 185 173-57-181-128H425Z" horiz-adv-x="775" vert-adv-y="1000"/><glyph glyph-name="unic2" unicode="Â" d="m-74 0 487 705h190L712 0H508l-17 125H221L137 0H-74m393 276h156l-25 201-131-201m-20 471 172 165h154l84-165H596l-68 61-101-61H299Z" horiz-adv-x="775" vert-adv-y="1000"/><glyph glyph-name="unic3" unicode="Ã" d="m-74 0 487 705h190L712 0H508l-17 125H221L137 0H-74m393 276h156l-25 201-131-201m71 468-89 40q28 69 70.5 106.5T462 928q41 0 84-30 34-25 51-25 34 0 66 57l89-40q-29-70-71-107t-90-37q-41 0-84 30-36 25-52 25-33 0-65-57Z" horiz-adv-x="775" vert-adv-y="1000"/><glyph glyph-name="unic4" unicode="Ä" d="m-74 0 487 705h190L712 0H508l-17 125H221L137 0H-74m393 276h156l-25 201-131-201m0 471 39 143h166l-39-143H319m219 0 39 143h166l-39-143H538Z" horiz-adv-x="775" vert-adv-y="1000"/><glyph glyph-name="unic5" unicode="Å" d="M-74 0q30 44 79.5 115T159 337q104 151 173 251l70 100q-19 28-19 61 0 60 43 102.5T530 894q54 0 87.5-32t33.5-80q0-59-44-100L712 0H508l-17 125H221L137 0H-74m393 276h156l-25 201-131-201m187 422q32 0 52.5 25t20.5 58q0 23-14 38t-38 15q-31 0-51.5-25.5T455 751q0-23 14-38t37-15Z" horiz-adv-x="775" vert-adv-y="1000"/><glyph glyph-name="unic6" unicode="Æ" d="m-76 0 550 700h673l-44-165H754l-28-106h313l-41-153H685l-31-111h354L964 0H421l34 125H232L135 0H-76m424 276h148l71 268h-13L348 276Z" horiz-adv-x="1080" vert-adv-y="1000"/><glyph glyph-name="unic7" unicode="Ç" d="m291-173-139 64L265 3q-99 30-156.5 105.5T51 292q0 78 31 153t85.5 134.5Q222 639 305 676t178 37q107 0 182.5-47.5T772 536l-167-90q-44 90-142 90-86 0-147.5-69T254 306q0-65 39-104t101-39q79 0 150 71l131-116Q560-10 390-13l-99-160Z" horiz-adv-x="727" vert-adv-y="1000"/><glyph glyph-name="unic8" unicode="È" d="m-12 0 188 700h561l-45-165H324l-29-106h334l-41-153H254l-30-111h374L554 0H-12m440 747L317 875l179 57 55-185H428Z" horiz-adv-x="669" vert-adv-y="1000"/><glyph glyph-name="unic9" unicode="É" d="m-12 0 188 700h561l-45-165H324l-29-106h334l-41-153H254l-30-111h374L554 0H-12m382 747 155 185 173-57-181-128H370Z" horiz-adv-x="669" vert-adv-y="1000"/><glyph glyph-name="unica" unicode="Ê" d="m-12 0 188 700h561l-45-165H324l-29-106h334l-41-153H254l-30-111h374L554 0H-12m272 747 172 165h154l84-165H557l-68 61-101-61H260Z" horiz-adv-x="669" vert-adv-y="1000"/><glyph glyph-name="unicb" unicode="Ë" d="m-12 0 188 700h561l-45-165H324l-29-106h334l-41-153H254l-30-111h374L554 0H-12m285 747 39 143h166l-39-143H273m219 0 39 143h166l-39-143H492Z" horiz-adv-x="669" vert-adv-y="1000"/><glyph glyph-name="unicc" unicode="Ì" d="m-7 0 188 700h194L187 0H-7m247 747L129 875l179 57 55-185H240Z" horiz-adv-x="325" vert-adv-y="1000"/><glyph glyph-name="unicd" unicode="Í" d="m-7 0 188 700h194L187 0H-7m206 747 155 185 173-57-181-128H199Z" horiz-adv-x="325" vert-adv-y="1000"/><glyph glyph-name="unice" unicode="Î" d="m-7 0 188 700h194L187 0H-7m83 747 172 165h154l84-165H373l-68 61-101-61H76Z" horiz-adv-x="325" vert-adv-y="1000"/><glyph glyph-name="unicf" unicode="Ï" d="m-7 0 188 700h194L187 0H-7M97 747l39 143h166l-39-143H97m219 0 39 143h166l-39-143H316Z" horiz-adv-x="325" vert-adv-y="1000"/><glyph glyph-name="unid0" unicode="Ð" d="m34 0 73 276H23l42 153h84l73 271h221q184 0 267-81t83-214q0-173-130-289T311 0H34m233 166h66q117 0 192.5 62.5T601 390q0 143-177 143h-58l-28-104h114l-41-153H297l-30-110Z" horiz-adv-x="800" vert-adv-y="1000"/><glyph glyph-name="unid1" unicode="Ñ" d="m-12 0 188 700h181l181-389 105 389h193L648 0H478L289 403 181 0H-12m400 744-89 40q28 69 70.5 106.5T460 928q41 0 84-30 34-25 51-25 34 0 66 57l89-40q-29-70-71-107t-90-37q-41 0-84 30-36 25-52 25-33 0-65-57Z" horiz-adv-x="781" vert-adv-y="1000"/><glyph glyph-name="unid2" unicode="Ò" d="M386-13q-148 0-241 89.5T52 301q0 79 31.5 154T169 587q54 57 132.5 91.5T469 713q148 0 241-89.5T803 399q0-79-31.5-154T686 113q-54-57-132.5-91.5T386-13m17 174q88 0 145 69.5T605 384q0 69-40.5 112T452 539q-87 0-144.5-70T250 316q0-69 40.5-112T403 161m52 586L344 875l179 57 55-185H455Z" horiz-adv-x="813" vert-adv-y="1000"/><glyph glyph-name="unid3" unicode="Ó" d="M386-13q-148 0-241 89.5T52 301q0 79 31.5 154T169 587q54 57 132.5 91.5T469 713q148 0 241-89.5T803 399q0-79-31.5-154T686 113q-54-57-132.5-91.5T386-13m17 174q88 0 145 69.5T605 384q0 69-40.5 112T452 539q-87 0-144.5-70T250 316q0-69 40.5-112T403 161m-9 586 155 185 173-57-181-128H394Z" horiz-adv-x="813" vert-adv-y="1000"/><glyph glyph-name="unid4" unicode="Ô" d="M386-13q-148 0-241 89.5T52 301q0 79 31.5 154T169 587q54 57 132.5 91.5T469 713q148 0 241-89.5T803 399q0-79-31.5-154T686 113q-54-57-132.5-91.5T386-13m17 174q88 0 145 69.5T605 384q0 69-40.5 112T452 539q-87 0-144.5-70T250 316q0-69 40.5-112T403 161M296 747l172 165h154l84-165H593l-68 61-101-61H296Z" horiz-adv-x="813" vert-adv-y="1000"/><glyph glyph-name="unid5" unicode="Õ" d="M386-13q-148 0-241 89.5T52 301q0 79 31.5 154T169 587q54 57 132.5 91.5T469 713q148 0 241-89.5T803 399q0-79-31.5-154T686 113q-54-57-132.5-91.5T386-13m17 174q88 0 145 69.5T605 384q0 69-40.5 112T452 539q-87 0-144.5-70T250 316q0-69 40.5-112T403 161m-13 583-89 40q28 69 70.5 106.5T462 928q41 0 84-30 34-25 51-25 34 0 66 57l89-40q-29-70-71-107t-90-37q-41 0-84 30-36 25-52 25-33 0-65-57Z" horiz-adv-x="813" vert-adv-y="1000"/><glyph glyph-name="unid6" unicode="Ö" d="M386-13q-148 0-241 89.5T52 301q0 79 31.5 154T169 587q54 57 132.5 91.5T469 713q148 0 241-89.5T803 399q0-79-31.5-154T686 113q-54-57-132.5-91.5T386-13m17 174q88 0 145 69.5T605 384q0 69-40.5 112T452 539q-87 0-144.5-70T250 316q0-69 40.5-112T403 161m-85 586 39 143h166l-39-143H318m219 0 39 143h166l-39-143H537Z" horiz-adv-x="813" vert-adv-y="1000"/><glyph glyph-name="unid7" unicode="×" d="M161 6 53 115l158 158L53 431l108 109 158-159 159 159 108-109-158-158 158-158L478 6 319 164 161 6Z" horiz-adv-x="640" vert-adv-y="1000"/><glyph glyph-name="unid8" unicode="Ø" d="M386-13q-126 0-212 66L111-5H-36l141 128q-53 78-53 178 0 79 31.5 154T169 587q54 57 132.5 91.5T469 713q128 0 219-70l68 62h147L754 570q49-74 49-171 0-79-31.5-154T686 113q-54-57-132.5-91.5T386-13m17 168q89 0 148.5 72T611 385q0 27-8 53L316 176q39-21 87-21m-148 98 292 265q-38 27-95 27-89 0-148-72t-59-158q0-35 10-62Z" horiz-adv-x="813" vert-adv-y="1000"/><glyph glyph-name="unid9" unicode="Ù" d="M342-13q-135 0-209 64.5T59 232q0 51 16 112l96 356h196l-99-370q-10-37-10-66 0-48 28.5-75t80.5-27q57 0 94 37 38 36 59 116l104 385h196L709 286Q672 149 600 77q-90-90-258-90m111 758L342 873l179 57 55-185H453Z" horiz-adv-x="760" vert-adv-y="1000"/><glyph glyph-name="unida" unicode="Ú" d="M342-13q-135 0-209 64.5T59 232q0 51 16 112l96 356h196l-99-370q-10-37-10-66 0-48 28.5-75t80.5-27q57 0 94 37 38 36 59 116l104 385h196L709 286Q672 149 600 77q-90-90-258-90m64 758 155 185 173-57-181-128H406Z" horiz-adv-x="760" vert-adv-y="1000"/><glyph glyph-name="unidb" unicode="Û" d="M342-13q-135 0-209 64.5T59 232q0 51 16 112l96 356h196l-99-370q-10-37-10-66 0-48 28.5-75t80.5-27q57 0 94 37 38 36 59 116l104 385h196L709 286Q672 149 600 77q-90-90-258-90m-48 760 172 165h154l84-165H591l-68 61-101-61H294Z" horiz-adv-x="760" vert-adv-y="1000"/><glyph glyph-name="unidc" unicode="Ü" d="M342-13q-135 0-209 64.5T59 232q0 51 16 112l96 356h196l-99-370q-10-37-10-66 0-48 28.5-75t80.5-27q57 0 94 37 38 36 59 116l104 385h196L709 286Q672 149 600 77q-90-90-258-90m-28 760 39 143h166l-39-143H314m219 0 39 143h166l-39-143H533Z" horiz-adv-x="760" vert-adv-y="1000"/><glyph glyph-name="unidd" unicode="Ý" d="m159 0 73 271L91 700h209l69-262 211 262h232L421 250 354 0H159m198 747 155 185 173-57-181-128H357Z" horiz-adv-x="677" vert-adv-y="1000"/><glyph glyph-name="unide" unicode="Þ" d="m-12 0 188 700h195l-26-100h37q165 0 238-73 54-55 54-141 0-129-94.5-204.5T330 106H211L183 0H-12m265 260h73q70 0 110 29.5t40 78.5q0 30-20 50-26 26-83 26h-71l-49-184Z" horiz-adv-x="682" vert-adv-y="1000"/><glyph glyph-name="unidf" unicode="ß" d="m235-3 36 138q71 0 104.5 26t33.5 66q0 63-94 71l27 101q121 25 121 115 0 31-18.5 49T399 581q-72 0-102-110L171 0H-19l129 479q32 120 94 184 75 75 202 75 106 0 170-54t64-142q0-73-40-125t-117-74q106-39 106-134 0-99-90.5-160.5T235-3Z" horiz-adv-x="639" vert-adv-y="1000"/><glyph glyph-name="unie0" unicode="à" d="M152-11Q85-11 43 29T1 136q0 88 65 139.5T239 327q68 0 137-21l2 7q5 22 5 33 0 58-93 58-78 0-146-27l-27 138q94 33 213 33 120 0 180.5-45T571 376q0-36-11-78L480 0H293l15 58q-74-69-156-69m88 117q36 0 68 28t43 70l5 18q-36 12-71 12-45 0-72-21t-27-57q0-23 15-36.5t39-13.5m94 481L223 715l179 57 55-185H334Z" horiz-adv-x="597" vert-adv-y="1000"/><glyph glyph-name="unie1" unicode="á" d="M152-11Q85-11 43 29T1 136q0 88 65 139.5T239 327q68 0 137-21l2 7q5 22 5 33 0 58-93 58-78 0-146-27l-27 138q94 33 213 33 120 0 180.5-45T571 376q0-36-11-78L480 0H293l15 58q-74-69-156-69m88 117q36 0 68 28t43 70l5 18q-36 12-71 12-45 0-72-21t-27-57q0-23 15-36.5t39-13.5m39 481 155 185 173-57-181-128H279Z" horiz-adv-x="597" vert-adv-y="1000"/><glyph glyph-name="unie2" unicode="â" d="M152-11Q85-11 43 29T1 136q0 88 65 139.5T239 327q68 0 137-21l2 7q5 22 5 33 0 58-93 58-78 0-146-27l-27 138q94 33 213 33 120 0 180.5-45T571 376q0-36-11-78L480 0H293l15 58q-74-69-156-69m88 117q36 0 68 28t43 70l5 18q-36 12-71 12-45 0-72-21t-27-57q0-23 15-36.5t39-13.5m-64 481 172 165h154l84-165H473l-68 61-101-61H176Z" horiz-adv-x="597" vert-adv-y="1000"/><glyph glyph-name="unie3" unicode="ã" d="M152-11Q85-11 43 29T1 136q0 88 65 139.5T239 327q68 0 137-21l2 7q5 22 5 33 0 58-93 58-78 0-146-27l-27 138q94 33 213 33 120 0 180.5-45T571 376q0-36-11-78L480 0H293l15 58q-74-69-156-69m88 117q36 0 68 28t43 70l5 18q-36 12-71 12-45 0-72-21t-27-57q0-23 15-36.5t39-13.5m17 478-89 40q28 69 70.5 106.5T329 768q41 0 84-30 34-25 51-25 34 0 66 57l89-40q-29-70-71-107t-90-37q-41 0-84 30-36 25-52 25-33 0-65-57Z" horiz-adv-x="597" vert-adv-y="1000"/><glyph glyph-name="unie4" unicode="ä" d="M152-11Q85-11 43 29T1 136q0 88 65 139.5T239 327q68 0 137-21l2 7q5 22 5 33 0 58-93 58-78 0-146-27l-27 138q94 33 213 33 120 0 180.5-45T571 376q0-36-11-78L480 0H293l15 58q-74-69-156-69m88 117q36 0 68 28t43 70l5 18q-36 12-71 12-45 0-72-21t-27-57q0-23 15-36.5t39-13.5m-50 482 39 143h166l-39-143H190m219 0 39 143h166l-39-143H409Z" horiz-adv-x="597" vert-adv-y="1000"/><glyph glyph-name="unie5" unicode="å" d="M152-11Q85-11 43 29T1 136q0 88 65 139.5T239 327q68 0 137-21l2 7q5 22 5 33 0 58-93 58-78 0-146-27l-27 138q94 33 213 33 120 0 180.5-45T571 376q0-36-11-78L480 0H293l15 58q-74-69-156-69m88 117q36 0 68 28t43 70l5 18q-36 12-71 12-45 0-72-21t-27-57q0-23 15-36.5t39-13.5m162 486q-54 0-87 32t-33 80q0 60 43 102.5T429 849q54 0 87-32t33-80q0-59-43-102t-104-43m3 61q32 0 52.5 25t20.5 58q0 22-14.5 37.5T426 789q-32 0-52.5-25.5T353 706q0-23 14-38t38-15Z" horiz-adv-x="597" vert-adv-y="1000"/><glyph glyph-name="unie6" unicode="æ" d="M174-11Q94-11 47.5 28.5T1 136q0 88 65 139.5T239 327q68 0 137-21l2 7q5 22 5 33 0 58-93 58-78 0-146-27l-27 138q94 33 213 33 124 0 176-64 84 69 185 69 108 0 165-64.5T913 329q0-54-21-111H533q7-89 101-89 56 0 115 43l88-104q-91-81-224-81-138 0-206 98-97-96-233-96m76 116q66 0 123 54-7 27-9 59-37 16-79 16-45 0-72-21t-27-57q0-23 17-37t47-14m296 210h193q5 15 5 29 0 30-19 49.5T670 413q-40 0-73.5-25.5T546 315Z" horiz-adv-x="931" vert-adv-y="1000"/><glyph glyph-name="unie7" unicode="ç" d="M195-173 56-109 172 6Q105 33 66.5 89.5T28 224q0 136 95 232t230 96q90 0 148.5-41T583 404l-149-77q-29 68-93 68-53 0-91.5-49T211 234q0-40 23-65t58-25q55 0 104 50L512 93Q424-8 294-13l-99-160Z" horiz-adv-x="563" vert-adv-y="1000"/><glyph glyph-name="unie8" unicode="è" d="M286-13Q167-13 97.5 52T28 227q0 127 91 226.5T353 553q113 0 171.5-64.5T583 329q0-54-21-111H203q7-89 101-89 56 0 115 43l88-104q-93-81-221-81m-70 328h193q5 15 5 29 0 30-19 49.5T340 413q-40 0-73.5-25.5T216 315m114 272L219 715l179 57 55-185H330Z" horiz-adv-x="601" vert-adv-y="1000"/><glyph glyph-name="unie9" unicode="é" d="M286-13Q167-13 97.5 52T28 227q0 127 91 226.5T353 553q113 0 171.5-64.5T583 329q0-54-21-111H203q7-89 101-89 56 0 115 43l88-104q-93-81-221-81m-70 328h193q5 15 5 29 0 30-19 49.5T340 413q-40 0-73.5-25.5T216 315m58 272 155 185 173-57-181-128H274Z" horiz-adv-x="601" vert-adv-y="1000"/><glyph glyph-name="uniea" unicode="ê" d="M286-13Q167-13 97.5 52T28 227q0 127 91 226.5T353 553q113 0 171.5-64.5T583 329q0-54-21-111H203q7-89 101-89 56 0 115 43l88-104q-93-81-221-81m-70 328h193q5 15 5 29 0 30-19 49.5T340 413q-40 0-73.5-25.5T216 315m-48 272 172 165h154l84-165H465l-68 61-101-61H168Z" horiz-adv-x="601" vert-adv-y="1000"/><glyph glyph-name="unieb" unicode="ë" d="M286-13Q167-13 97.5 52T28 227q0 127 91 226.5T353 553q113 0 171.5-64.5T583 329q0-54-21-111H203q7-89 101-89 56 0 115 43l88-104q-93-81-221-81m-70 328h193q5 15 5 29 0 30-19 49.5T340 413q-40 0-73.5-25.5T216 315m-31 272 39 143h166l-39-143H185m219 0 39 143h166l-39-143H404Z" horiz-adv-x="601" vert-adv-y="1000"/><glyph glyph-name="uniec" unicode="ì" d="m-17 0 145 541h190L173 0H-17m215 587L87 715l179 57 55-185H198Z" horiz-adv-x="301" vert-adv-y="1000"/><glyph glyph-name="unied" unicode="í" d="m-17 0 145 541h190L173 0H-17m155 587 155 185 173-57-181-128H138Z" horiz-adv-x="301" vert-adv-y="1000"/><glyph glyph-name="uniee" unicode="î" d="m-17 0 145 541h190L173 0H-17m41 587 172 165h154l84-165H321l-68 61-101-61H24Z" horiz-adv-x="301" vert-adv-y="1000"/><glyph glyph-name="unief" unicode="ï" d="m-17 0 145 541h190L173 0H-17m58 587 39 143h166l-39-143H41m219 0 39 143h166l-39-143H260Z" horiz-adv-x="301" vert-adv-y="1000"/><glyph glyph-name="unif0" unicode="ð" d="M288-12Q171-12 98.5 53.5T26 221q0 107 77 183t194 76q76 0 131-41l-55 119-131-45-41 89 133 42-39 86h181l15-34 121 41 41-89-124-39 39-89q44-98 44-199 0-145-88-239T288-12m13 158q52 0 86 35t34 82q0 39-26 64t-66 25q-51 0-85.5-34T209 236q0-40 26.5-65t65.5-25Z" horiz-adv-x="642" vert-adv-y="1000"/><glyph glyph-name="unif1" unicode="ñ" d="m-21 0 145 541h190l-17-62q70 74 155 74 73 0 115-43.5T609 391q0-37-16-97L515 0H325l76 283q6 21 6 44 0 57-60 57-74 0-101-98L169 0H-21m289 584-89 40q28 69 70.5 106.5T340 768q41 0 84-30 34-25 51-25 34 0 66 57l89-40q-29-70-71-107t-90-37q-41 0-84 30-36 25-52 25-33 0-65-57Z" horiz-adv-x="630" vert-adv-y="1000"/><glyph glyph-name="unif2" unicode="ò" d="M295-13q-121 0-193 71T30 239q0 125 92.5 219.5T348 553q122 0 194-71t72-180q0-126-92.5-220.5T295-13m11 158q54 0 90 46.5T432 295q0 45-26 72.5T338 395q-54 0-90-46.5T212 246q0-46 26-73.5t68-27.5m33 442L228 715l179 57 55-185H339Z" horiz-adv-x="644" vert-adv-y="1000"/><glyph glyph-name="unif3" unicode="ó" d="M295-13q-121 0-193 71T30 239q0 125 92.5 219.5T348 553q122 0 194-71t72-180q0-126-92.5-220.5T295-13m11 158q54 0 90 46.5T432 295q0 45-26 72.5T338 395q-54 0-90-46.5T212 246q0-46 26-73.5t68-27.5m-25 442 155 185 173-57-181-128H281Z" horiz-adv-x="644" vert-adv-y="1000"/><glyph glyph-name="unif4" unicode="ô" d="M295-13q-121 0-193 71T30 239q0 125 92.5 219.5T348 553q122 0 194-71t72-180q0-126-92.5-220.5T295-13m11 158q54 0 90 46.5T432 295q0 45-26 72.5T338 395q-54 0-90-46.5T212 246q0-46 26-73.5t68-27.5M172 587l172 165h154l84-165H469l-68 61-101-61H172Z" horiz-adv-x="644" vert-adv-y="1000"/><glyph glyph-name="unif5" unicode="õ" d="M295-13q-121 0-193 71T30 239q0 125 92.5 219.5T348 553q122 0 194-71t72-180q0-126-92.5-220.5T295-13m11 158q54 0 90 46.5T432 295q0 45-26 72.5T338 395q-54 0-90-46.5T212 246q0-46 26-73.5t68-27.5m-47 439-89 40q28 69 70.5 106.5T331 768q41 0 84-30 34-25 51-25 34 0 66 57l89-40q-29-70-71-107t-90-37q-41 0-84 30-36 25-52 25-33 0-65-57Z" horiz-adv-x="644" vert-adv-y="1000"/><glyph glyph-name="unif6" unicode="ö" d="M295-13q-121 0-193 71T30 239q0 125 92.5 219.5T348 553q122 0 194-71t72-180q0-126-92.5-220.5T295-13m11 158q54 0 90 46.5T432 295q0 45-26 72.5T338 395q-54 0-90-46.5T212 246q0-46 26-73.5t68-27.5M187 587l39 143h166l-39-143H187m219 0 39 143h166l-39-143H406Z" horiz-adv-x="644" vert-adv-y="1000"/><glyph glyph-name="unif7" unicode="÷" d="m166 34 47 175h178L344 34H166M75 271l45 167h491l-45-167H75m216 229 47 175h178l-47-175H291Z" horiz-adv-x="640" vert-adv-y="1000"/><glyph glyph-name="unif8" unicode="ø" d="M295-12q-100 0-169 51L77-5H-56L66 104q-36 58-36 138 0 123 92.5 217T348 553q103 0 172-52l50 45h133L579 435q35-58 35-136 0-123-93-217T295-12m9 150q58 0 97 49t39 109q0 9-2 23L251 151q24-13 53-13m-98 81 189 169q-22 14-55 14-58 0-97-48.5T204 245q0-8 2-26Z" horiz-adv-x="644" vert-adv-y="1000"/><glyph glyph-name="unif9" unicode="ù" d="M183-12q-73 0-115 43.5T26 150q0 40 15 97l79 294h190l-76-283q-7-24-7-44 0-57 61-57 75 0 100 98l77 286h190L511 0H321l16 62q-70-74-154-74m183 599L255 715l179 57 55-185H366Z" horiz-adv-x="632" vert-adv-y="1000"/><glyph glyph-name="unifa" unicode="ú" d="M183-12q-73 0-115 43.5T26 150q0 40 15 97l79 294h190l-76-283q-7-24-7-44 0-57 61-57 75 0 100 98l77 286h190L511 0H321l16 62q-70-74-154-74m114 599 155 185 173-57-181-128H297Z" horiz-adv-x="632" vert-adv-y="1000"/><glyph glyph-name="unifb" unicode="û" d="M183-12q-73 0-115 43.5T26 150q0 40 15 97l79 294h190l-76-283q-7-24-7-44 0-57 61-57 75 0 100 98l77 286h190L511 0H321l16 62q-70-74-154-74m7 599 172 165h154l84-165H487l-68 61-101-61H190Z" horiz-adv-x="632" vert-adv-y="1000"/><glyph glyph-name="unifc" unicode="ü" d="M183-12q-73 0-115 43.5T26 150q0 40 15 97l79 294h190l-76-283q-7-24-7-44 0-57 61-57 75 0 100 98l77 286h190L511 0H321l16 62q-70-74-154-74m25 599 39 143h166l-39-143H208m219 0 39 143h166l-39-143H427Z" horiz-adv-x="632" vert-adv-y="1000"/><glyph glyph-name="unifd" unicode="ý" d="M94-163q-84 0-144 39L35 15q37-27 75-27 27 0 47 20L87 541h193l22-325 182 325h200L349 3q-57-91-115.5-128.5T94-163m205 750 155 185 173-57-181-128H299Z" horiz-adv-x="622" vert-adv-y="1000"/><glyph glyph-name="unife" unicode="þ" d="m-64-160 238 890h190l-66-246q71 69 154 69t137.5-60Q644 433 644 331q0-144-86.5-243.5T353-12q-108 0-164 86l-63-234H-64m384 306q54 0 93 45.5T452 301q0 43-25.5 69T360 396q-54 0-94-46t-40-108q0-43 26-69.5t68-26.5Z" horiz-adv-x="672" vert-adv-y="1000"/><glyph glyph-name="uniff" unicode="ÿ" d="M94-163q-84 0-144 39L35 15q37-27 75-27 27 0 47 20L87 541h193l22-325 182 325h200L349 3q-57-91-115.5-128.5T94-163m101 750 39 143h166l-39-143H195m219 0 39 143h166l-39-143H414Z" horiz-adv-x="622" vert-adv-y="1000"/><glyph glyph-name="uni0131" unicode="ı" d="m-17 0 145 541h190L173 0H-17Z" horiz-adv-x="301" vert-adv-y="1000"/><glyph glyph-name="uni0141" unicode="Ł" d="m35 0 66 245-82-22 47 173 82 22 75 282h192l-60-225 192 53-46-174-192-52-36-132h334L561 0H35Z" horiz-adv-x="662" vert-adv-y="1000"/><glyph glyph-name="uni0142" unicode="ł" d="m32 0 71 263-88-23 46 170 88 24 79 296h190l-65-242 88 24-46-171-88-24L222 0H32Z" horiz-adv-x="398" vert-adv-y="1000"/><glyph glyph-name="uni0152" unicode="Œ" d="M401 0Q217 0 125 92q-74 74-74 203 0 161 115 276 129 129 367 129h614l-44-165H754l-28-106h313l-41-153H685l-31-111h354L964 0H401m21 172h42l96 356h-49q-129 0-200-71-60-60-60-146 0-61 35-96 41-43 136-43Z" horiz-adv-x="1080" vert-adv-y="1000"/><glyph glyph-name="uni0153" unicode="œ" d="M296-12q-122 0-194 71.5T30 242q0 124 92 217.5T348 553q131 0 196-90 87 90 212 90 111 0 169-64.5T983 329q0-54-21-111H603q7-89 102-89 55 0 114 43l88-104q-91-81-224-81-123 0-186 85-84-84-201-84m9 158q55 0 91 45t36 103q0 45-26 73t-68 28q-54 0-90-45.5T212 247q0-45 25.5-73t67.5-28m311 169h194q4 12 4 29 0 30-19 49.5T741 413q-40 0-74-25.5T616 315Z" horiz-adv-x="1002" vert-adv-y="1000"/><glyph glyph-name="uni0160" unicode="Š" d="M302-12Q96-12-23 116l125 129q103-95 216-95 35 0 57 14t22 38q0 21-22 36t-95 43q-92 35-137 78T98 474q0 104 84 171t213 67q178 0 287-104L562 474q-89 77-185 77-34 0-55-14t-21-36q0-20 21-33t96-43q90-34 136-78t46-117q0-108-83.5-175T302-12m57 759-84 165h113l68-61 101 61h128L513 747H359Z" horiz-adv-x="645" vert-adv-y="1000"/><glyph glyph-name="uni0161" unicode="š" d="M230-13q-77 0-147.5 25T-37 81l94 111q38-34 87.5-53.5T237 119q48 0 48 33 0 14-16 24t-58 27q-75 30-113.5 64.5T59 361q0 83 63.5 137.5T295 553q69 0 131.5-22T529 477l-91-114q-78 58-153 58-47 0-47-31 0-13 16-23.5t59-27.5q73-29 112-63t39-95q0-83-61-138.5T230-13m36 600-84 165h113l68-61 101 61h128L420 587H266Z" horiz-adv-x="511" vert-adv-y="1000"/><glyph glyph-name="uni0178" unicode="Ÿ" d="m159 0 73 271L91 700h209l69-262 211 262h232L421 250 354 0H159m97 747 39 143h166l-39-143H256m219 0 39 143h166l-39-143H475Z" horiz-adv-x="677" vert-adv-y="1000"/><glyph glyph-name="uni017D" unicode="Ž" d="M-36 0 1 141l446 395H119l45 164h595l-38-141-446-395h341L572 0H-36m420 747-84 165h113l68-61 101 61h128L538 747H384Z" horiz-adv-x="681" vert-adv-y="1000"/><glyph glyph-name="uni017E" unicode="ž" d="m-40 0 34 125 318 265H74l40 151h486l-33-125-319-265h249L457 0H-40m320 587-84 165h113l68-61 101 61h128L434 587H280Z" horiz-adv-x="558" vert-adv-y="1000"/><glyph glyph-name="uni0192" unicode="ƒ" d="M55-12Q4-12-44-2l32 139q27-7 50-7 51 0 82 70l58 129h-63l33 144h94l35 76q37 85 96 124t149 39q72 0 120-16l-32-140q-33 12-70 12-65 0-93-66l-13-29h117l-32-144H370l-78-174q-40-91-96.5-129T55-12Z" horiz-adv-x="559" vert-adv-y="1000"/><glyph glyph-name="uni02C6" unicode="ˆ" d="m130 587 172 165h154l84-165H427l-68 61-101-61H130Z" horiz-adv-x="500" vert-adv-y="1000"/><glyph glyph-name="uni02C7" unicode="ˇ" d="m256 587-84 165h113l68-61 101 61h128L410 587H256Z" horiz-adv-x="500" vert-adv-y="1000"/><glyph glyph-name="uni02D8" unicode="˘" d="M359 586q-84 0-131.5 44.5T180 748v4h113q2-26 21.5-42t52.5-16q62 0 96 58h114q-22-77-82-121.5T359 586Z" horiz-adv-x="500" vert-adv-y="1000"/><glyph glyph-name="uni02D9" unicode="˙" d="m250 587 39 143h170l-39-143H250Z" horiz-adv-x="500" vert-adv-y="1000"/><glyph glyph-name="uni02DA" unicode="˚" d="M356 592q-54 0-87 32t-33 80q0 60 43 102.5T383 849q54 0 87-32t33-80q0-59-43-102t-104-43m3 61q32 0 52.5 25t20.5 58q0 22-14.5 37.5T380 789q-32 0-52.5-25.5T307 706q0-23 14-38t38-15Z" horiz-adv-x="500" vert-adv-y="1000"/><glyph glyph-name="uni02DB" unicode="˛" d="M194-167Q54-167 54-85q0 45 45 95h118q-19-30-19-53 0-39 76-40l-22-81q-32-3-58-3Z" horiz-adv-x="500" vert-adv-y="1000"/><glyph glyph-name="uni02DC" unicode="˜" d="m222 584-89 40q28 69 70.5 106.5T294 768q41 0 84-30 34-25 51-25 34 0 66 57l89-40q-29-70-71-107t-90-37q-41 0-84 30-36 25-52 25-33 0-65-57Z" horiz-adv-x="500" vert-adv-y="1000"/><glyph glyph-name="uni02DD" unicode="˝" d="m116 588 149 184 148-54 43 54 156-57-170-127H311l86 109-150-109H116Z" horiz-adv-x="500" vert-adv-y="1000"/><glyph glyph-name="uni03A9" unicode="Ω" d="m-12 0 38 145h173l6 19q-57 16-87.5 69.5T87 352q0 87 36.5 157.5t96.5 114q60 43.5 134.5 67T508 714q118 0 198-66t80-169q0-100-70.5-196.5T534 164l-6-19h172L662 0H360l64 242q78 11 128 77.5T602 454q0 50-32 81.5T478 567q-89 0-150.5-67T266 351q0-42 22-72t66-37L290 0H-12Z" horiz-adv-x="778" vert-adv-y="1000"/><glyph glyph-name="uni03C0" unicode="π" d="M0 0v700h500V0H0m81 49h340L250 304 81 49M50 95l170 254L50 605V95m401 0v510L279 349 451 95M250 395l171 255H81l169-255Z" horiz-adv-x="500" vert-adv-y="1000"/><glyph glyph-name="uni0401" unicode="Ё" d="m-12 0 188 700h561l-45-165H324l-29-106h334l-41-153H254l-30-111h374L554 0H-12m275 747 39 143h166l-39-143H263m219 0 39 143h166l-39-143H482Z" horiz-adv-x="669" vert-adv-y="1000"/><glyph glyph-name="uni0402" unicode="Ђ" d="M497-67q-65 0-133 19l59 162q12-2 39-2 55 0 88 25t33 75q0 29-21 49t-58 20q-72 0-123-38L316 0H122l142 530H84l45 170h614l-45-170H458l-31-115q88 45 181 45 83 0 135.5-59T796 255q0-137-87-229.5T497-67Z" horiz-adv-x="854" vert-adv-y="1000"/><glyph glyph-name="uni0403" unicode="Ѓ" d="m-12 0 187 700h494l-45-170H324L182 0H-12m324 747 155 185 173-57-181-128H312Z" horiz-adv-x="572" vert-adv-y="1000"/><glyph glyph-name="uni0404" unicode="Є" d="M392-14q-154 0-247.5 84.5T51 301q0 105 50 198.5t147 154Q345 714 468 714q99 0 177.5-41T761 561L606 452q-51 90-145 90-67 0-116-32.5T270 422h228l-35-137H250q9-57 47.5-92.5T394 157q88 0 158 70l108-126Q547-14 392-14Z" horiz-adv-x="721" vert-adv-y="1000"/><glyph glyph-name="uni0405" unicode="Ѕ" d="M302-12Q96-12-23 116l125 129q103-95 216-95 35 0 57 14t22 38q0 21-22 36t-95 43q-92 35-137 78T98 474q0 104 84 171t213 67q178 0 287-104L562 474q-89 77-185 77-34 0-55-14t-21-36q0-20 21-33t96-43q90-34 136-78t46-117q0-108-83.5-175T302-12Z" horiz-adv-x="645" vert-adv-y="1000"/><glyph glyph-name="uni0406" unicode="І" d="m-7 0 188 700h194L187 0H-7Z" horiz-adv-x="325" vert-adv-y="1000"/><glyph glyph-name="uni0407" unicode="Ї" d="m-7 0 188 700h194L187 0H-7m93 747 39 143h166l-39-143H86m219 0 39 143h166l-39-143H305Z" horiz-adv-x="325" vert-adv-y="1000"/><glyph glyph-name="uni0408" unicode="Ј" d="M197-12q-74 0-137.5 32T-41 111L91 226q50-68 112-68 43 0 75 32 28 28 53 119l105 391h193L515 272Q477 130 411 64q-78-76-214-76Z" horiz-adv-x="568" vert-adv-y="1000"/><glyph glyph-name="uni0409" unicode="Љ" d="M40-10Q-32-10-74 6l52 149q18-4 44-4 21 0 33.5 3.5t35 24Q113 199 132 240t47 121q28 80 59 196l38 143h538l-59-220h87q118 0 187-56.5t69-143.5q0-132-93.5-206T763 0H433l143 535H413l-19-71q-34-125-69-213t-66-138.5Q228 62 189.5 34t-71-36Q86-10 40-10m630 173h101q55 0 91.5 23.5T899 259q0 29-23.5 49T811 328h-96l-45-165Z" horiz-adv-x="1118" vert-adv-y="1000"/><glyph glyph-name="uni040A" unicode="Њ" d="m-12 0 188 700h195l-66-246h247l65 246h195l-66-246h107q111 0 176.5-53.5T1095 265q0-125-88.5-195T778 0H429l80 301H262L183 0H-12m678 163h118q49 0 81 21t32 64q0 25-20.5 42.5T820 308H705l-39-145Z" horiz-adv-x="1115" vert-adv-y="1000"/><glyph glyph-name="uni040B" unicode="Ћ" d="m122 0 142 530H84l45 170h614l-45-170H458l-31-115q88 45 181 45 89 0 141-42t52-118q0-33-10-69L729 0H535l40 150q10 40 10 63 0 68-71 68-81 0-133-38L316 0H122Z" horiz-adv-x="854" vert-adv-y="1000"/><glyph glyph-name="uni040C" unicode="Ќ" d="m-12 0 188 700h195l-76-280 289 280h247L501 393 657 0H447L346 270 225 159 183 0H-12m379 747 155 185 173-57-181-128H367Z" horiz-adv-x="722" vert-adv-y="1000"/><glyph glyph-name="uni040E" unicode="Ў" d="M153-10q81 0 147 40.5T437 166l401 534H619L379 368l-71 332H102l135-517q-35-30-68-30-44 0-73 24L-18 37q67-47 171-47m315 755q-72 0-113 40t-42 113l109 19q13-60 61-60 50 0 80 60l103-19q-21-73-73-113t-125-40Z" horiz-adv-x="713" vert-adv-y="1000"/><glyph glyph-name="uni040F" unicode="Џ" d="M168-140 206 0H-12l187 700h194L227 170h239l142 530h194L615 0H392l-38-140H168Z" horiz-adv-x="751" vert-adv-y="1000"/><glyph glyph-name="uni0410" unicode="А" d="m-74 0 487 705h190L712 0H508l-17 125H221L137 0H-74m393 276h156l-25 201-131-201Z" horiz-adv-x="775" vert-adv-y="1000"/><glyph glyph-name="uni0411" unicode="Б" d="m-12 0 187 700h553l-44-165H325l-22-81h123q111 0 176.5-53.5T668 265q0-125-88.5-195T351 0H-12m237 163h132q49 0 81 21t32 64q0 25-20.5 42.5T393 308H264l-39-145Z" horiz-adv-x="700" vert-adv-y="1000"/><glyph glyph-name="uni0412" unicode="В" d="m-12 0 188 700h291q134 0 193.5-47T720 532q0-67-41.5-114T563 353q106-38 106-140 0-95-81-154T351 0H-12m231 156h147q50 0 79 20.5t29 53.5q0 55-86 55H254l-35-129m72 265h131q51 0 78.5 19t27.5 52q0 52-84 52H323l-32-123Z" horiz-adv-x="714" vert-adv-y="1000"/><glyph glyph-name="uni0413" unicode="Г" d="m-12 0 187 700h494l-45-170H324L182 0H-12Z" horiz-adv-x="572" vert-adv-y="1000"/><glyph glyph-name="uni0414" unicode="Д" d="m-91-140 82 310h57q61 82 104 172.5T243 613l23 87h543L667 170h79L641-140H477L515 0H133L82-140H-91m347 310h217l99 365H410l-21-69q-55-182-133-296Z" horiz-adv-x="776" vert-adv-y="1000"/><glyph glyph-name="uni0415" unicode="Е" d="m-12 0 188 700h561l-45-165H324l-29-106h334l-41-153H254l-30-111h374L554 0H-12Z" horiz-adv-x="669" vert-adv-y="1000"/><glyph glyph-name="uni0416" unicode="Ж" d="m-87 0 371 425-155 275h212l143-290 78 290h194l-75-282 282 282h241L879 398 1022 0H806l-90 263-101-90L569 0H375l50 187-46 81L161 0H-87Z" horiz-adv-x="1096" vert-adv-y="1000"/><glyph glyph-name="uni0417" unicode="З" d="M257-14Q60-14-30 119L99 231q68-81 160-81 49 0 78 22.5t29 52.5q0 55-87 55h-72l39 146h68q50 0 80 18.5t30 51.5q0 24-20.5 39T353 550q-72 0-154-68l-99 122q115 110 277 110 111 0 176.5-53T619 533q0-139-163-184 104-38 104-141 0-97-85.5-159.5T257-14Z" horiz-adv-x="616" vert-adv-y="1000"/><glyph glyph-name="uni0418" unicode="И" d="m-12 0 188 700h191L262 306l376 394h181L632 0H440l105 394L169 0H-12Z" horiz-adv-x="764" vert-adv-y="1000"/><glyph glyph-name="uni0419" unicode="Й" d="m-12 0 188 700h191L262 306l376 394h181L632 0H440l105 394L169 0H-12m509 745q-72 0-113 40t-42 113l109 19q13-60 61-60 50 0 80 60l103-19q-21-73-73-113t-125-40Z" horiz-adv-x="764" vert-adv-y="1000"/><glyph glyph-name="uni041A" unicode="К" d="m-12 0 188 700h195l-76-280 289 280h247L501 393 657 0H447L346 270 225 159 183 0H-12Z" horiz-adv-x="722" vert-adv-y="1000"/><glyph glyph-name="uni041B" unicode="Л" d="M40-10Q-32-10-74 6l52 149q18-4 44-4 21 0 33.5 3.5t35 24Q113 199 132 240t47 121q28 80 59 196l38 143h538L627 0H433l143 535H413l-19-71q-34-125-69-213t-66-138.5Q228 62 189.5 34t-71-36Q86-10 40-10Z" horiz-adv-x="759" vert-adv-y="1000"/><glyph glyph-name="uni041C" unicode="М" d="m-12 0 188 700h196l93-271 238 271h218L733 0H538l107 402-251-274h-4L287 400 180 0H-12Z" horiz-adv-x="866" vert-adv-y="1000"/><glyph glyph-name="uni041D" unicode="Н" d="m-12 0 188 700h195l-71-262h247l70 262h195L624 0H429l72 266H254L183 0H-12Z" horiz-adv-x="757" vert-adv-y="1000"/><glyph glyph-name="uni041E" unicode="О" d="M386-13q-148 0-241 89.5T52 301q0 79 31.5 154T169 587q54 57 132.5 91.5T469 713q148 0 241-89.5T803 399q0-79-31.5-154T686 113q-54-57-132.5-91.5T386-13m17 174q88 0 145 69.5T605 384q0 69-40.5 112T452 539q-87 0-144.5-70T250 316q0-69 40.5-112T403 161Z" horiz-adv-x="813" vert-adv-y="1000"/><glyph glyph-name="uni041F" unicode="П" d="m-12 0 188 700h626L614 0H419l143 530H325L183 0H-12Z" horiz-adv-x="747" vert-adv-y="1000"/><glyph glyph-name="uni0420" unicode="Р" d="m-12 0 188 700h229q166 0 240-74 55-55 55-143 0-129-95.5-205.5T352 201H237L183 0H-12m289 352h73q71 0 111 29.5t40 79.5q0 29-20 49-27 27-83 27h-72l-49-185Z" horiz-adv-x="672" vert-adv-y="1000"/><glyph glyph-name="uni0421" unicode="С" d="M382-14q-147 0-239 83.5T51 292q0 105 52 200.5T257 651q102 63 231 63 105 0 178.5-47T772 537l-168-90q-44 90-141 90-86 0-147.5-69T254 306q0-66 39-105t101-39q79 0 150 71l131-116Q559-14 382-14Z" horiz-adv-x="727" vert-adv-y="1000"/><glyph glyph-name="uni0422" unicode="Т" d="m151 0 143 530H84l46 170h613l-45-170H488L346 0H151Z" horiz-adv-x="645" vert-adv-y="1000"/><glyph glyph-name="uni0423" unicode="У" d="M153-10Q49-10-18 37L96 177q29-24 73-24 33 0 68 30L102 700h206l71-332 240 332h219L437 166Q366 71 300 30.5T153-10Z" horiz-adv-x="713" vert-adv-y="1000"/><glyph glyph-name="uni0424" unicode="Ф" d="m291-30 21 80q-131 10-201.5 81T40 313q0 154 110.5 254.5T442 668h37l17 62h195l-17-64q133-9 205.5-78T952 410q0-156-111-259T550 48h-43l-21-78H291m67 250 75 276h-15q-77 0-127-43.5T241 334q0-50 31.5-79.5T358 220m195 0h21q76 0 126.5 43T751 381q0 50-33 80t-90 34l-75-275Z" horiz-adv-x="957" vert-adv-y="1000"/><glyph glyph-name="uni0425" unicode="Х" d="m-75 0 341 366-145 334h213l77-197 173 197h234L494 352 648 0H434l-84 216L160 0H-75Z" horiz-adv-x="713" vert-adv-y="1000"/><glyph glyph-name="uni0426" unicode="Ц" d="M470-140 508 0H-12l188 700h194L227 170h239l142 530h194L660 170h79L634-140H470Z" horiz-adv-x="768" vert-adv-y="1000"/><glyph glyph-name="uni0427" unicode="Ч" d="m383 0 65 245q-79-40-191-40-86 0-130.5 50.5T82 386q0 41 12 85l63 229h194l-56-211q-8-30-8-50 0-60 74-60 77 0 133 38l76 283h194L577 0H383Z" horiz-adv-x="709" vert-adv-y="1000"/><glyph glyph-name="uni0428" unicode="Ш" d="m-12 0 187 700h194L227 170h199l142 530h194L620 170h199l142 530h194L968 0H-12Z" horiz-adv-x="1100" vert-adv-y="1000"/><glyph glyph-name="uni0429" unicode="Щ" d="M823-140 861 0H-12l187 700h194L227 170h199l142 530h194L620 170h199l142 530h194l-142-530h79L987-140H823Z" horiz-adv-x="1121" vert-adv-y="1000"/><glyph glyph-name="uni042A" unicode="Ъ" d="m101 0 142 530H84l45 170h353l-59-220h87q118 0 187-56.5T766 280q0-132-93.5-206T431 0H101m237 163h101q55 0 91.5 23.5T567 259q0 29-23.5 49T479 328h-96l-45-165Z" horiz-adv-x="786" vert-adv-y="1000"/><glyph glyph-name="uni042B" unicode="Ы" d="m-12 0 187 700h194l-59-220h87q118 0 187-56.5T653 280q0-132-93.5-206T318 0H-12m237 163h101q55 0 91.5 23.5T454 259q0 29-23.5 49T366 328h-96l-45-165M661 0l187 700h194L855 0H661Z" horiz-adv-x="987" vert-adv-y="1000"/><glyph glyph-name="uni042C" unicode="Ь" d="m-12 0 187 700h194l-59-220h87q118 0 187-56.5T653 280q0-132-93.5-206T318 0H-12m237 163h101q55 0 91.5 23.5T454 259q0 29-23.5 49T366 328h-96l-45-165Z" horiz-adv-x="673" vert-adv-y="1000"/><glyph glyph-name="uni042D" unicode="Э" d="M284-14q-99 0-177.5 41T-9 139l155 109q51-90 145-90 69 0 119 34.5t74 92.5H254l35 137h211q-10 54-48 87.5T358 543q-88 0-158-70L92 599q113 115 268 115 149 0 245-85.5T701 399q0-105-50-198.5t-147-154Q407-14 284-14Z" horiz-adv-x="721" vert-adv-y="1000"/><glyph glyph-name="uni042E" unicode="Ю" d="M665-14q-134 0-219 79t-93 203H253L182 0H-12l187 700h194l-70-264h78q45 121 150.5 199.5T764 714q139 0 223.5-87t84.5-221q0-111-53.5-207.5T871 44q-94-58-206-58m21 174q77 0 132 65.5T873 383q0 68-37 112.5T737 540q-77 0-131.5-66T551 315q0-68 36.5-111.5T686 160Z" horiz-adv-x="1082" vert-adv-y="1000"/><glyph glyph-name="uni042F" unicode="Я" d="m-42 0 236 248Q90 301 90 424q0 126 93.5 201T430 700h349L592 0H398l56 212h-74L197 0H-42m430 361h106l47 174H433q-67 0-104-27.5T292 433q0-35 27-53.5t69-18.5Z" horiz-adv-x="724" vert-adv-y="1000"/><glyph glyph-name="uni0430" unicode="а" d="M152-11Q85-11 43 29T1 136q0 88 65 139.5T239 327q68 0 137-21l2 7q5 22 5 33 0 58-93 58-78 0-146-27l-27 138q94 33 213 33 120 0 180.5-45T571 376q0-36-11-78L480 0H293l15 58q-74-69-156-69m88 117q36 0 68 28t43 70l5 18q-36 12-71 12-45 0-72-21t-27-57q0-23 15-36.5t39-13.5Z" horiz-adv-x="597" vert-adv-y="1000"/><glyph glyph-name="uni0431" unicode="б" d="M302-13q-125 0-194.5 74T38 262q0 73 16.5 141t50 129.5Q138 594 198.5 636T338 691l289 45V589l-296-52q-66-12-98-45.5T195 428q18 25 71.5 52.5T392 508q98 0 162-58.5T618 289q0-126-91-214T302-13m9 161q50 0 85 38.5t35 91.5q0 41-24.5 67.5T341 372q-50 0-85-38.5T221 242q0-41 24.5-67.5T311 148Z" horiz-adv-x="644" vert-adv-y="1000"/><glyph glyph-name="uni0432" unicode="в" d="m-21 0 145 541h269q104 0 150-36t46-94q0-52-32.5-88T467 273q82-29 82-108 0-74-62.5-119.5T304 0H-21m219 123h77q39 0 61.5 16t22.5 42q0 43-67 43h-67l-27-101m55 202h62q82 0 82 55 0 40-65 40h-54l-25-95Z" horiz-adv-x="605" vert-adv-y="1000"/><glyph glyph-name="uni0433" unicode="г" d="m-21 0 145 541h408l-41-153H273L169 0H-21Z" horiz-adv-x="465" vert-adv-y="1000"/><glyph glyph-name="uni0434" unicode="д" d="m-89-110 70 263h49q85 119 150 362l7 26h482L565 153h73l-89-263H387L417 0H120L80-110H-89m318 263h145l63 237H327l-6-24q-13-49-42.5-118.5T229 153Z" horiz-adv-x="659" vert-adv-y="1000"/><glyph glyph-name="uni0435" unicode="е" d="M286-13Q167-13 97.5 52T28 227q0 127 91 226.5T353 553q113 0 171.5-64.5T583 329q0-54-21-111H203q7-89 101-89 56 0 115 43l88-104q-93-81-221-81m-70 328h193q5 15 5 29 0 30-19 49.5T340 413q-40 0-73.5-25.5T216 315Z" horiz-adv-x="601" vert-adv-y="1000"/><glyph glyph-name="uni0436" unicode="ж" d="m-86 0 292 339L94 541h195l93-201 54 201h190l-54-201 201 201h215L744 314 843 0H649l-61 186-76-69L481 0H291l34 127-32 58L143 0H-86Z" horiz-adv-x="914" vert-adv-y="1000"/><glyph glyph-name="uni0437" unicode="з" d="M209-14Q128-14 71 5T-35 66l92 118q82-59 149-59 83 0 83 49 0 39-69 39h-68l31 119h59q36 0 53 15t17 34q0 14-15 24t-45 10q-36 0-80.5-15.5T98 361L37 465q106 88 258 88 101 0 155-36t54-94q0-94-111-140 85-31 85-107 0-86-65.5-138T209-14Z" horiz-adv-x="530" vert-adv-y="1000"/><glyph glyph-name="uni0438" unicode="и" d="m-21 0 145 541h184l-73-271 253 271h175L518 0H334l72 271L154 0H-21Z" horiz-adv-x="637" vert-adv-y="1000"/><glyph glyph-name="uni0439" unicode="й" d="m-21 0 145 541h184l-73-271 253 271h175L518 0H334l72 271L154 0H-21m542.5 624-24.25-19.5Q473 585 405 585t-106 39q-38 39-38 110l101 18q12-58 58-58t74 58l97-18q-21-71-69.5-110Z" horiz-adv-x="637" vert-adv-y="1000"/><glyph glyph-name="uni043A" unicode="к" d="m-21 0 145 541h190l-52-195 188 195h229L432 312 536 0H333l-55 180-80-73L169 0H-21Z" horiz-adv-x="599" vert-adv-y="1000"/><glyph glyph-name="uni043B" unicode="л" d="M26-7Q-27-7-60 7l45 141q20-3 30-3 26 0 42.5 13.5t44 79.5Q129 304 165 437l28 104h467L515 0H325l104 390H329l-19-67q-17-60-33.5-107.5t-34-81.5q-17.5-34-32-58.5t-34-40q-19.5-15.5-34-24T105.5-1Q83-5 68-6T26-7Z" horiz-adv-x="638" vert-adv-y="1000"/><glyph glyph-name="uni043C" unicode="м" d="m-21 0 145 541h177l81-187 170 187h209L616 0H426l71 267L316 83l-80 180L166 0H-21Z" horiz-adv-x="739" vert-adv-y="1000"/><glyph glyph-name="uni043D" unicode="н" d="m-21 0 145 541h190l-52-192h156l52 192h190L515 0H325l52 196H221L169 0H-21Z" horiz-adv-x="634" vert-adv-y="1000"/><glyph glyph-name="uni043E" unicode="о" d="M295-13q-121 0-193 71T30 239q0 125 92.5 219.5T348 553q122 0 194-71t72-180q0-126-92.5-220.5T295-13m11 158q54 0 90 46.5T432 295q0 45-26 72.5T338 395q-54 0-90-46.5T212 246q0-46 26-73.5t68-27.5Z" horiz-adv-x="644" vert-adv-y="1000"/><glyph glyph-name="uni043F" unicode="п" d="m-21 0 145 541h528L507 0H317l104 388H273L169 0H-21Z" horiz-adv-x="626" vert-adv-y="1000"/><glyph glyph-name="uni0440" unicode="р" d="m-64-160 188 701h190l-16-57q71 69 154 69t137.5-60Q644 433 644 331q0-144-86.5-243.5T353-12q-108 0-164 86l-63-234H-64m384 306q54 0 93 45.5T452 301q0 43-25.5 69T360 396q-54 0-94-46t-40-108q0-43 26-69.5t68-26.5Z" horiz-adv-x="672" vert-adv-y="1000"/><glyph glyph-name="uni0441" unicode="с" d="M281-13Q170-13 99 51.5T28 224q0 136 95 232t230 96q90 0 148.5-41T583 404l-149-77q-29 68-93 68-53 0-91.5-49T211 234q0-41 23.5-65.5T294 144q52 0 102 50L512 93Q421-13 281-13Z" horiz-adv-x="563" vert-adv-y="1000"/><glyph glyph-name="uni0442" unicode="т" d="m101 0 104 388H42l41 153h506l-41-153H395L291 0H101Z" horiz-adv-x="522" vert-adv-y="1000"/><glyph glyph-name="uni0443" unicode="у" d="M94-163q-84 0-144 39L35 15q37-27 75-27 27 0 47 20L87 541h193l22-325 182 325h200L349 3q-58-91-116.5-128.5T94-163Z" horiz-adv-x="622" vert-adv-y="1000"/><glyph glyph-name="uni0444" unicode="ф" d="m251-160 49 185Q244-9 186-9 111-9 70.5 45T30 203q0 62 18 122.5t52 111q34 50.5 90.5 82T317 550q62 0 112-45l52 195h190l-51-189q58 39 115 39 76 0 116.5-54.5T892 337q0-62-18-122t-52.5-111Q787 53 731 22T606-9q-64 0-114 39l-51-190H251m35 304q26 0 49 10l62 232q-24 11-53 11-53 0-86.5-49T224 225q0-35 15-58t47-23m292 0q52 0 86.5 48T699 314q0 36-15.5 59.5T636 397q-24 0-49-11l-62-231q24-11 53-11Z" horiz-adv-x="922" vert-adv-y="1000"/><glyph glyph-name="uni0445" unicode="х" d="m-62 0 259 281L85 541h197l47-131 109 131h214L400 267 514 0H317l-49 137L152 0H-62Z" horiz-adv-x="589" vert-adv-y="1000"/><glyph glyph-name="uni0446" unicode="ц" d="M370-110 400 0H-21l145 541h190L210 153h148l104 388h190L548 153h73l-89-263H370Z" horiz-adv-x="642" vert-adv-y="1000"/><glyph glyph-name="uni0447" unicode="ч" d="m300 0 46 174q-59-24-140-24-69 0-108.5 38.5T58 290q0 24 8 56l53 195h191l-41-153q-7-28-7-40 0-43 41-43 51 0 84 21l58 215h190L490 0H300Z" horiz-adv-x="609" vert-adv-y="1000"/><glyph glyph-name="uni0448" unicode="ш" d="m-21 0 145 541h190L210 153h133l104 388h190L533 153h133l104 388h190L815 0H-21Z" horiz-adv-x="934" vert-adv-y="1000"/><glyph glyph-name="uni0449" unicode="щ" d="M678-110 708 0H-21l145 541h190L210 153h133l104 388h190L533 153h133l104 388h190L856 153h73l-89-263H678Z" horiz-adv-x="950" vert-adv-y="1000"/><glyph glyph-name="uni044A" unicode="ъ" d="m66 0 104 388H39l41 153h321l-46-170h77q92 0 145-43.5T630 216q0-102-72.5-159T371 0H66m226 136h61q39 0 64 16.5t25 50.5q0 20-16 34t-45 14h-58l-31-115Z" horiz-adv-x="661" vert-adv-y="1000"/><glyph glyph-name="uni044B" unicode="ы" d="m-21 0 145 541h190l-46-170h77q92 0 145-43.5T543 216q0-102-72.5-159T284 0H-21m226 136h61q39 0 64 16.5t25 50.5q0 20-16 34t-45 14h-58l-31-115M545 0l145 541h190L735 0H545Z" horiz-adv-x="854" vert-adv-y="1000"/><glyph glyph-name="uni044C" unicode="ь" d="m-21 0 145 541h190l-46-170h77q92 0 145-43.5T543 216q0-102-72.5-159T284 0H-21m226 136h61q39 0 64 16.5t25 50.5q0 20-16 34t-45 14h-58l-31-115Z" horiz-adv-x="574" vert-adv-y="1000"/><glyph glyph-name="uni044D" unicode="э" d="M221-13q-91 0-152 37.5T-22 123l144 89q30-71 98-71 38 0 68.5 21t47.5 57H180l29 105h141q-8 36-32.5 56T262 400q-62 0-109-47L47 462q84 90 231 90 109 0 181-73t72-183q0-135-90-222T221-13Z" horiz-adv-x="563" vert-adv-y="1000"/><glyph glyph-name="uni044E" unicode="ю" d="M565-13q-109 0-178.5 57.5T303 196h-82L169 0H-21l145 541h190l-52-192h59q35 89 115.5 146.5T618 553q121 0 188-70.5T873 302q0-127-87.5-221T565-13m6 158q53 0 86.5 46.5T691 295q0 46-23 73t-65 27q-53 0-87-46t-34-103q0-47 23.5-74t65.5-27Z" horiz-adv-x="903" vert-adv-y="1000"/><glyph glyph-name="uni044F" unicode="я" d="m-44 0 170 189q-17 11-28 23-43 44-43 111 0 100 74 159t194 59h318L496 0H305l41 156h-35L183 0H-44m358 283h69l31 115h-71q-45 0-69-18t-24-50q0-19 11-30 18-17 53-17Z" horiz-adv-x="619" vert-adv-y="1000"/><glyph glyph-name="uni0451" unicode="ё" d="M286-13Q167-13 97.5 52T28 227q0 127 91 226.5T353 553q113 0 171.5-64.5T583 329q0-54-21-111H203q7-89 101-89 56 0 115 43l88-104q-93-81-221-81m-70 328h193q5 15 5 29 0 30-19 49.5T340 413q-40 0-73.5-25.5T216 315m-34 272 39 143h166l-39-143H182m219 0 39 143h166l-39-143H401Z" horiz-adv-x="601" vert-adv-y="1000"/><glyph glyph-name="uni0452" unicode="ђ" d="M326-14q-61 0-103 14l51 153q4-1 27-1 37 0 65 34.5t28 84.5q0 70-59 70-74 0-101-98L169 0H-21l144 541H61l34 128h62l17 61h190l-17-61h158l-34-128H313l-27-105q79 74 154 74 79 0 117.5-45T596 347q0-39-11-83l-32-119q-24-88-79.5-123.5T326-14Z" horiz-adv-x="632" vert-adv-y="1000"/><glyph glyph-name="uni0453" unicode="ѓ" d="m-21 0 145 541h408l-41-153H273L169 0H-21m220 587 155 185 173-57-181-128H199Z" horiz-adv-x="465" vert-adv-y="1000"/><glyph glyph-name="uni0454" unicode="є" d="M280-13Q170-13 98.5 55.5T27 233q0 135 90.5 227T337 552q171 0 238-136l-137-84q-29 68-100 68-37 0-67-21t-47-55h154l-29-105H207q6-38 31.5-59t57.5-21q58 0 111 53L513 83q-89-96-233-96Z" horiz-adv-x="563" vert-adv-y="1000"/><glyph glyph-name="uni0455" unicode="ѕ" d="M230-13q-77 0-147.5 25T-37 81l94 111q38-34 87.5-53.5T237 119q48 0 48 33 0 14-16 24t-58 27q-75 30-113.5 64.5T59 361q0 83 63.5 137.5T295 553q69 0 131.5-22T529 477l-91-114q-78 58-153 58-47 0-47-31 0-13 16-23.5t59-27.5q73-29 112-63t39-95q0-83-61-138.5T230-13Z" horiz-adv-x="511" vert-adv-y="1000"/><glyph glyph-name="uni0456" unicode="і" d="m-17 0 145 541h190L173 0H-17m155 590 38 140h198l-38-140H138Z" horiz-adv-x="301" vert-adv-y="1000"/><glyph glyph-name="uni0457" unicode="ї" d="m29 587 39 143h166l-39-143H29m219 0 39 143h166l-39-143H248M-17 0l145 541h190L173 0H-17Z" horiz-adv-x="301" vert-adv-y="1000"/><glyph glyph-name="uni0458" unicode="ј" d="M-53-163q-43 0-81 7l33 126q12-3 24-3 29 0 46 17.5T-3 45l133 496h190L180 21Q152-82 97-122.5T-53-163m192 753 38 140h198l-38-140H139Z" horiz-adv-x="303" vert-adv-y="1000"/><glyph glyph-name="uni0459" unicode="љ" d="M26-7Q-27-7-60 7l45 141q20-3 30-3 26 0 42.5 13.5t44 79.5Q129 304 165 437l28 104h467l-46-170h77q92 0 145-43.5T889 216q0-102-72.5-159T630 0H325l104 390H329l-19-67q-17-60-33.5-107.5t-34-81.5q-17.5-34-32-58.5t-34-40q-19.5-15.5-34-24T105.5-1Q83-5 68-6T26-7m525 143h61q39 0 64 16.5t25 50.5q0 20-16 34t-45 14h-58l-31-115Z" horiz-adv-x="920" vert-adv-y="1000"/><glyph glyph-name="uni045A" unicode="њ" d="m-21 0 145 541h190l-49-179h156l49 179h190l-49-179h77q92 0 146.5-42T889 211q0-101-72-156T630 0H325l58 221H227L169 0H-21m572 136h61q89 0 89 62 0 19-17.5 31.5T637 242h-58l-28-106Z" horiz-adv-x="920" vert-adv-y="1000"/><glyph glyph-name="uni045B" unicode="ћ" d="m-21 0 144 541H61l34 128h62l17 61h190l-17-61h158l-34-128H313l-28-105q70 74 155 74 73 0 115-43.5T597 348q0-37-16-97L515 0H325l64 240q6 21 6 44 0 57-60 57-74 0-101-98L169 0H-21Z" horiz-adv-x="632" vert-adv-y="1000"/><glyph glyph-name="uni045C" unicode="ќ" d="m-21 0 145 541h190l-52-195 188 195h229L432 312 536 0H333l-55 180-80-73L169 0H-21m287 587 155 185 173-57-181-128H266Z" horiz-adv-x="599" vert-adv-y="1000"/><glyph glyph-name="uni045E" unicode="ў" d="M94-163q-84 0-144 39L35 15q37-27 75-27 27 0 47 20L87 541h193l22-325 182 325h200L349 3q-58-91-116.5-128.5T94-163m407.5 787-24.25-19.5Q453 585 385 585t-106 39q-38 39-38 110l101 18q12-58 58-58t74 58l97-18q-21-71-69.5-110Z" horiz-adv-x="622" vert-adv-y="1000"/><glyph glyph-name="uni045F" unicode="џ" d="M122-110 152 0H-21l145 541h190L210 153h148l104 388h190L507 0H332l-30-110H122Z" horiz-adv-x="626" vert-adv-y="1000"/><glyph glyph-name="uni0490" unicode="Ґ" d="m-12 0 187 700h318l38 140h164l-61-310H324L182 0H-12Z" horiz-adv-x="592" vert-adv-y="1000"/><glyph glyph-name="uni0491" unicode="ґ" d="m-21 0 145 541h228l29 110h162l-52-263H273L169 0H-21Z" horiz-adv-x="465" vert-adv-y="1000"/><glyph glyph-name="uni2013" unicode="–" d="m33 231 44 163h438l-44-163H33Z" horiz-adv-x="526" vert-adv-y="1000"/><glyph glyph-name="uni2014" unicode="—" d="m33 231 44 163h808l-44-163H33Z" horiz-adv-x="896" vert-adv-y="1000"/><glyph glyph-name="uni2018" unicode="‘" d="m63 344 45 169q26 98 83.5 143.5T359 707l8-74q-113-11-131-94h77l-53-195H63Z" horiz-adv-x="302" vert-adv-y="1000"/><glyph glyph-name="uni2019" unicode="’" d="m66 338-8 73q113 11 131 94h-77l53 195h197l-45-169q-26-97-83.5-143T66 338Z" horiz-adv-x="302" vert-adv-y="1000"/><glyph glyph-name="uni201A" unicode="‚" d="m-66-167-8 73Q38-83 56 0h-76l52 195h198L185 27q-27-98-84-144t-167-50Z" horiz-adv-x="302" vert-adv-y="1000"/><glyph glyph-name="uni201C" unicode="“" d="m64 343 45 169q26 98 82 143.5T357 706l8-74q-110-11-128-94h74l-52-195H64m266 0 45 169q26 98 82 143.5T623 706l8-74q-110-11-128-94h74l-52-195H330Z" horiz-adv-x="565" vert-adv-y="1000"/><glyph glyph-name="uni201D" unicode="”" d="m67 338-8 73q110 11 128 94h-74l52 195h195l-45-169q-26-98-82.5-143.5T67 338m266 0-8 73q110 11 128 94h-74l52 195h195l-45-169q-26-98-82.5-143.5T333 338Z" horiz-adv-x="565" vert-adv-y="1000"/><glyph glyph-name="uni201E" unicode="„" d="m-66-167-8 73Q36-83 54 0h-74l52 195h195L182 27q-26-98-82.5-144T-66-167m266 0-8 73Q302-83 320 0h-74l52 195h195L448 27q-26-98-82.5-144T200-167Z" horiz-adv-x="565" vert-adv-y="1000"/><glyph glyph-name="uni2020" unicode="†" d="m143 223 83 270-129-13 28 104 121-13 19 129h112l-50-129 128 13-28-104-122 13-62-270H143Z" horiz-adv-x="412" vert-adv-y="1000"/><glyph glyph-name="uni2021" unicode="‡" d="m82 0 50 129L5 116l27 104 122-13 26 143 51 143-129-13 28 104 121-13 19 129h112l-50-129 127 13-28-104-121 13-26-143-52-143 130 13-28-104-121 13L194 0H82Z" horiz-adv-x="422" vert-adv-y="1000"/><glyph glyph-name="uni2022" unicode="•" d="M246 180q-63 0-98.5 37T112 314q0 81 53 146t134 65q62 0 98-37t36-97q0-81-53.5-146T246 180Z" horiz-adv-x="501" vert-adv-y="1000"/><glyph glyph-name="uni2026" unicode="…" d="m-20 0 51 192h195L174 0H-20m280 0 51 192h195L454 0H260m280 0 51 192h195L734 0H540Z" horiz-adv-x="858" vert-adv-y="1000"/><glyph glyph-name="uni2030" unicode="‰" d="m68 0 689 700h141L208 0H68m615-10q-78 0-122.5 45.5T516 153q0 85 57.5 151T719 370q78 0 122.5-45.5T886 207q0-85-57.5-151T683-10m5 105q36 0 59 33t23 74q0 28-15.5 45.5T714 265q-36 0-59-33t-23-74q0-28 15.5-45.5T688 95m421-105q-78 0-122.5 45.5T942 153q0 85 57.5 151t144.5 66q78 0 122.5-45.5T1311 207q0-85-57.5-151T1109-10m5 105q35 0 58 33t23 74q0 28-15 45.5t-41 17.5q-35 0-58-33t-23-74q0-28 15-45.5t41-17.5M247 330q-78 0-123 45.5T79 493q0 85 57.5 151T282 710q78 0 122.5-45.5T449 547q0-85-57.5-151T247 330m5 105q35 0 58 33t23 74q0 28-15 45.5T277 605q-35 0-58-33t-23-74q0-28 15-45.5t41-17.5Z" horiz-adv-x="1349" vert-adv-y="1000"/><glyph glyph-name="uni2039" unicode="‹" d="M133 25 28 244l13 49 218 214 104-96-168-163 79-160-141-63Z" horiz-adv-x="357" vert-adv-y="1000"/><glyph glyph-name="uni203A" unicode="›" d="M96 25-9 121l168 164-79 160 141 62 106-219-14-48L96 25Z" horiz-adv-x="357" vert-adv-y="1000"/><glyph glyph-name="uni2044" unicode="⁄" d="m-140-98 694 856h159L18-98h-158Z" horiz-adv-x="546" vert-adv-y="1000"/><glyph glyph-name="uni20AC" unicode="€" d="M385-14q-114 0-189.5 64.5T109 223H19l28 104h67q6 34 11 50H60l28 104h65q45 106 131 169.5T489 714q178 0 246-147l-142-95q-40 75-119 75-77 0-123-68h169l-27-101H313q-8-26-12-52h178l-27-101H298q16-72 95-72 67 0 126 59L630 93Q529-14 385-14Z" horiz-adv-x="677" vert-adv-y="1000"/><glyph glyph-name="uni2116" unicode="№" d="m-12 0 187 700h181l124-350 94 350h202L589 0H419L287 364 190 0H-12m723 110 31 117h292l-31-117H711m203 163q-64 0-101.5 39.5T775 413q0 80 54.5 138.5T962 610q64 0 101.5-40t37.5-100q0-80-55-138.5T914 273m15 98q24 0 42.5 24.5T990 455q0 24-12 40.5T947 512q-24 0-42.5-24.5T886 428q0-25 12-41t31-16Z" horiz-adv-x="1098" vert-adv-y="1000"/><glyph glyph-name="uni2117" unicode="℗" d="m694 93.5-53-53.75Q588-14 437-14T181 93Q76 200 76 350q0 149 106 256.5T439 714q151 0 256-107t105-257q0-149-106-256.5M437 26q136 0 228.5 95.5T758 352q0 134-92 228t-227 94q-136 0-228.5-95.5T118 348q0-134 92-228t227-94M295 164v385h166q74 0 117-36.5T621 411q0-65-45.5-101T456 274h-53V164H295m108 194h50q28 0 44.5 13.5T514 409q0 50-62 50h-49V358Z" horiz-adv-x="830" vert-adv-y="1000"/><glyph glyph-name="uni2120" unicode="℠" d="M0 0v700h500V0H0m81 49h340L250 304 81 49M50 95l170 254L50 605V95m401 0v510L279 349 451 95M250 395l171 255H81l169-255Z" horiz-adv-x="500" vert-adv-y="1000"/><glyph glyph-name="uni2122" unicode="™" d="m130 392 63 233h-92l20 75h270l-20-75h-92l-62-233h-87m227 0 82 308h87l41-119 105 119h95l-82-308h-85l48 180-111-122h-3l-45 122-48-180h-84Z" horiz-adv-x="695" vert-adv-y="1000"/><glyph glyph-name="uni2202" unicode="∂" d="M0 0v700h500V0H0m81 49h340L250 304 81 49M50 95l170 254L50 605V95m401 0v510L279 349 451 95M250 395l171 255H81l169-255Z" horiz-adv-x="500" vert-adv-y="1000"/><glyph glyph-name="uni2206" unicode="∆" d="m-70 0 471 700h180L678 0H-70m329 170h196l-19 293-177-293Z" horiz-adv-x="760" vert-adv-y="1000"/><glyph glyph-name="uni220F" unicode="∏" d="M0 0v700h500V0H0m81 49h340L250 304 81 49M50 95l170 254L50 605V95m401 0v510L279 349 451 95M250 395l171 255H81l169-255Z" horiz-adv-x="500" vert-adv-y="1000"/><glyph glyph-name="uni2211" unicode="∑" d="M0 0v700h500V0H0m81 49h340L250 304 81 49M50 95l170 254L50 605V95m401 0v510L279 349 451 95M250 395l171 255H81l169-255Z" horiz-adv-x="500" vert-adv-y="1000"/><glyph glyph-name="uni2212" unicode="−" d="m74 269 45 167h491l-45-167H74Z" horiz-adv-x="640" vert-adv-y="1000"/><glyph glyph-name="uni221A" unicode="√" d="M282-128 103 223H-3v118h175l96-185 268 642h134L282-128Z" horiz-adv-x="596" vert-adv-y="1000"/><glyph glyph-name="uni221E" unicode="∞" d="M284 135q-96 0-152 62T76 356q0 95 54 154.5T279 570q64 0 107-31.5t89-94.5q44 63 87.5 94.5T672 570q95 0 149-59.5T875 356q0-96-54-158.5T672 135q-108 0-197 118-42-57-86.5-87.5T284 135m-3 138q60 0 115 78-59 82-116 82-33 0-52.5-23.5T208 352q0-35 19.5-57t53.5-22m389 0q35 0 54 22.5t19 57.5q0 34-21 57t-55 23q-54 0-113-82 55-78 116-78Z" horiz-adv-x="889" vert-adv-y="1000"/><glyph glyph-name="uni222B" unicode="∫" d="M0 0v700h500V0H0m81 49h340L250 304 81 49M50 95l170 254L50 605V95m401 0v510L279 349 451 95M250 395l171 255H81l169-255Z" horiz-adv-x="500" vert-adv-y="1000"/><glyph glyph-name="uni2248" unicode="≈" d="M96 122 4 148q28 73 85.5 131.5T211 338q41 0 119-29.5T433 279q49 0 82 53l92-25q-31-76-86-133.5T400 116q-39 0-123 30t-103 30q-21 0-42.5-16T96 122m68 251-92 26q27 72 84.5 131T279 589q41 0 119-29.5T501 530q48 0 81 53l92-25q-30-75-85.5-133T467 367q-39 0-123 30t-103 30q-21 0-42.5-16T164 373Z" horiz-adv-x="640" vert-adv-y="1000"/><glyph glyph-name="uni2260" unicode="≠" d="M157-11 37 57l58 77H38l45 167h139l78 102H110l45 167h272l110 145 119-68-59-77h50l-45-167H471l-78-102h181l-44-167H267L157-11Z" horiz-adv-x="640" vert-adv-y="1000"/><glyph glyph-name="uni2264" unicode="≤" d="m8-16 42 157h491L499-16H8m539 181L103 333l47 177 535 168-48-183-348-79 306-79-48-172Z" horiz-adv-x="640" vert-adv-y="1000"/><glyph glyph-name="uni2265" unicode="≥" d="m17-16 42 157h491L508-16H17m50 181 48 186 348 79-306 79 48 169 443-168-47-177L67 165Z" horiz-adv-x="640" vert-adv-y="1000"/><glyph glyph-name="uni25CA" unicode="◊" d="M263-35 69 356l196 391h140l196-391L405-35H263m72 160 104 231-104 231-105-231 105-231Z" horiz-adv-x="640" vert-adv-y="1000"/><glyph glyph-name="uniF6D1" unicode="" d="M353 585q-72 0-113 40t-42 113l109 19q13-60 61-60 50 0 80 60l103-19q-21-73-73-113t-125-40Z" horiz-adv-x="500" vert-adv-y="1000"/><glyph glyph-name="uniF6D4" unicode="" d="m468.5 624-24.25-19.5Q420 585 352 585t-106 39q-38 39-38 110l101 18q12-58 58-58t74 58l97-18q-21-71-69.5-110Z" horiz-adv-x="500" vert-adv-y="1000"/><glyph glyph-name="uniF8FF" unicode="" d="M0 0v700h500V0H0m81 49h340L250 304 81 49M50 95l170 254L50 605V95m401 0v510L279 349 451 95M250 395l171 255H81l169-255Z" horiz-adv-x="500" vert-adv-y="1000"/><glyph glyph-name="uniFB00" unicode="ﬀ" d="m13 0 105 388H54l41 153h63l3 11q25 98 81.5 141.5T393 737q67 0 121-18l-35-133q-34 12-64 12-55 0-68-51l-3-9h122l-40-150H308L203 0H13m418 0 105 388h-64l41 153h63l3 11q25 98 81.5 141.5T811 737q67 0 121-18l-35-133q-34 12-64 12-55 0-68-51l-3-9h122l-40-150H726L621 0H431Z" horiz-adv-x="836" vert-adv-y="1000"/><glyph glyph-name="uniFB01" unicode="ﬁ" d="m13 0 105 388H54l41 153h63l3 11q25 98 81.5 141.5T393 737q67 0 121-18l-35-133q-34 12-64 12-55 0-68-51l-3-9h122l-40-150H308L203 0H13m388 0 145 541h190L591 0H401m155 590 38 140h198l-38-140H556Z" horiz-adv-x="719" vert-adv-y="1000"/><glyph glyph-name="uniFB02" unicode="ﬂ" d="m13 0 105 388H54l41 153h63l3 11q25 98 81.5 141.5T393 737q67 0 121-18l-35-133q-34 12-64 12-55 0-68-51l-3-9h122l-40-150H308L203 0H13m388 0 196 730h190L591 0H401Z" horiz-adv-x="719" vert-adv-y="1000"/><glyph glyph-name="uniFB03" unicode="ﬃ" d="m13 0 105 388H54l41 153h63l3 11q25 98 81.5 141.5T393 737q67 0 121-18l-35-133q-34 12-64 12-55 0-68-51l-3-9h122l-40-150H308L203 0H13m418 0 105 388h-64l41 153h63l3 11q25 98 81.5 141.5T811 737q67 0 121-18l-35-133q-34 12-64 12-55 0-68-51l-3-9h122l-40-150H726L621 0H431m388 0 145 541h190L1009 0H819m155 590 38 140h198l-38-140H974Z" horiz-adv-x="1137" vert-adv-y="1000"/><glyph glyph-name="uniFB04" unicode="ﬄ" d="m13 0 105 388H54l41 153h63l3 11q25 98 81.5 141.5T393 737q67 0 121-18l-35-133q-34 12-64 12-55 0-68-51l-3-9h122l-40-150H308L203 0H13m418 0 105 388h-64l41 153h63l3 11q25 98 81.5 141.5T811 737q67 0 121-18l-35-133q-34 12-64 12-55 0-68-51l-3-9h122l-40-150H726L621 0H431m388 0 196 730h190L1009 0H819Z" horiz-adv-x="1137" vert-adv-y="1000"/></font>
</defs>
</svg>
