<?xml version="1.0" standalone="no"?>
  <!DOCTYPE svg PUBLIC "-//W3C//DTD SVG 1.1//EN" "http://www.w3.org/Graphics/SVG/1.1/DTD/svg11.dtd" >
  <svg>
  <metadata>
  Created by font-carrier
  </metadata>
  <defs>
  <font id="GothamProNarrow-Bold" horiz-adv-x="1116" vert-adv-y="1116" >
    <font-face
      
      font-family="Gotham Pro Narrow Bold"
      
      font-weight="400"
      
      font-stretch="normal"
      
      units-per-em="1000"
      
      ascent="722"
      
      descent="-151"
      
    />
      <missing-glyph />

      

      
      <glyph glyph-name="uni21" unicode="&#x21;" d="M231 680L185 232L108 232L63 680L63 700L231 700L231 680M224 0L69 0L69 153L224 153L224 0Z"  horiz-adv-x="293" vert-adv-y="1000"  />

      
      <glyph glyph-name="uni22" unicode="&#x22;" d="M434 694L335 381L268 381L280 700L434 700L434 694M220 694L120 381L53 381L66 700L220 700L220 694Z"  horiz-adv-x="467" vert-adv-y="1000"  />

      
      <glyph glyph-name="uni23" unicode="&#x23;" d="M574 429L488 429L466 275L545 275L545 153L448 153L426 0L310 0L332 153L212 153L189 0L74 0L96 153L28 153L28 275L114 275L136 429L58 429L58 551L155 551L176 700L292 700L270 551L391 551L412 700L528 700L506 551L574 551L574 429M373 429L252 429L230 275L351 275L373 429Z"  horiz-adv-x="603" vert-adv-y="1000"  />

      
      <glyph glyph-name="uni24" unicode="&#x24;" d="M332-101L235-101L235 0Q126 14 40 76L95 193Q180 133 248 123L248 292Q146 334 100.50 381Q55 428 55 508L55 509Q55 586 104.50 637Q154 688 235 699L235 763L332 763L332 700Q417 690 489 642L442 522Q374 565 319 576L319 417Q433 366 474.50 318.50Q516 271 516 193L516 192Q516 116 465.50 65Q415 14 332 2L332-101M384 186Q384 211 370 228Q356 245 319 263L319 123Q384 131 384 185L384 186M187 518Q187 494 199.50 479Q212 464 248 447L248 577Q187 568 187 519L187 518Z"  horiz-adv-x="555" vert-adv-y="1000"  />

      
      <glyph glyph-name="uni25" unicode="&#x25;" d="M344 522Q344 445 301.50 395Q259 345 191 345Q123 345 81 394.50Q39 444 39 521L39 530Q39 607 81.50 657Q124 707 192 707Q260 707 302 657Q344 607 344 530L344 522M667 700L211 0L107 0L562 700L667 700M734 170Q734 93 691 43Q648-7 580-7Q513-7 471 43Q429 93 429 170L429 178Q429 255 471.50 305Q514 355 582 355Q650 355 692 305.50Q734 256 734 179L734 170M246 522L246 529Q246 570 231 594.50Q216 619 191 619Q165 619 151 595.50Q137 572 137 530L137 523Q137 482 152 457.50Q167 433 192 433Q218 433 232 456.50Q246 480 246 522M636 170L636 177Q636 218 621 242.50Q606 267 580 267Q555 267 541 243.50Q527 220 527 178L527 171Q527 130 542 105.50Q557 81 582 81Q608 81 622 104.50Q636 128 636 170Z"  horiz-adv-x="773" vert-adv-y="1000"  />

      
      <glyph glyph-name="uni26" unicode="&#x26;" d="M597 58L492-13L425 63Q344-10 243-10Q150-10 88.50 44.50Q27 99 27 188L27 191Q27 316 155 388Q103 467 103 533L103 537Q103 609 155.50 660Q208 711 295 711Q375 711 425 663Q475 615 475 543L475 539Q475 420 342 355L426 254Q449 295 479 365L586 317Q552 228 508 160L597 58M350 532L350 536Q350 565 334 581.50Q318 598 292 598Q265 598 249 580Q233 562 233 533L233 529Q233 489 272 436Q350 474 350 532M349 148L229 296Q171 257 171 198L171 194Q171 157 196 133.50Q221 110 259 110Q306 110 349 148Z"  horiz-adv-x="617" vert-adv-y="1000"  />

      
      <glyph glyph-name="uni27" unicode="&#x27;" d="M221 694L122 381L53 381L66 700L221 700L221 694Z"  horiz-adv-x="254" vert-adv-y="1000"  />

      
      <glyph glyph-name="uni28" unicode="&#x28;" d="M363-44L317-140Q54-17 54 288Q54 591 317 714L363 618Q274 559 233.50 479.50Q193 400 193 288Q193 175 233.50 95Q274 15 363-44Z"  horiz-adv-x="401" vert-adv-y="1000"  />

      
      <glyph glyph-name="uni29" unicode="&#x29;" d="M347 288Q347-17 84-140L37-44Q127 15 167 95Q207 175 207 288Q207 400 166.50 480Q126 560 37 618L84 714Q347 591 347 288Z"  horiz-adv-x="401" vert-adv-y="1000"  />

      
      <glyph glyph-name="uni2a" unicode="&#x2a;" d="M351 496L309 425L219 496L236 379L154 379L171 496L81 425L40 496L145 540L40 584L81 655L171 584L154 701L236 701L219 584L309 655L351 584L245 540L351 496Z"  horiz-adv-x="390" vert-adv-y="1000"  />

      
      <glyph glyph-name="uni2b" unicode="&#x2b;" d="M525 287L356 287L356 114L223 114L223 287L54 287L54 417L223 417L223 590L356 590L356 417L525 417L525 287Z"  horiz-adv-x="579" vert-adv-y="1000"  />

      
      <glyph glyph-name="uni2c" unicode="&#x2c;" d="M210 25Q210-153 35-162L24-103Q75-96 98-68.50Q121-41 117 0L55 0L55 153L210 153L210 25Z"  horiz-adv-x="266" vert-adv-y="1000"  />

      
      <glyph glyph-name="uni2d" unicode="&#x2d;" d="M339 241L46 241L46 379L339 379L339 241Z"  horiz-adv-x="386" vert-adv-y="1000"  />

      
      <glyph glyph-name="uni2e" unicode="&#x2e;" d="M210 0L55 0L55 153L210 153L210 0Z"  horiz-adv-x="266" vert-adv-y="1000"  />

      
      <glyph glyph-name="uni2f" unicode="&#x2f;" d="M473 789L97-119L-22-119L353 789L473 789Z"  horiz-adv-x="463" vert-adv-y="1000"  />

      
      <glyph glyph-name="uni30" unicode="&#x30;" d="M584 344Q584 183 510.50 86Q437-11 314-11Q191-11 118 85.50Q45 182 45 343L45 356Q45 517 118.50 614Q192 711 315 711Q438 711 511 614.50Q584 518 584 357L584 344M437 343L437 355Q437 464 403.50 522.50Q370 581 314 581Q257 581 224.50 523.50Q192 466 192 357L192 345Q192 236 225 177.50Q258 119 315 119Q372 119 404.50 176.50Q437 234 437 343Z"  horiz-adv-x="629" vert-adv-y="1000"  />

      
      <glyph glyph-name="uni31" unicode="&#x31;" d="M293 0L150 0L150 556L43 528L21 653L194 705L293 705L293 0Z"  horiz-adv-x="371" vert-adv-y="1000"  />

      
      <glyph glyph-name="uni32" unicode="&#x32;" d="M488 0L41 0L41 116L239 331Q295 389 316.50 424Q338 459 338 495Q338 533 315 555Q292 577 254 577Q219 577 190.50 559Q162 541 126 502L51 599Q97 655 147 681.50Q197 708 269 708Q367 708 425.50 655Q484 602 484 511L484 508Q484 440 452 390Q420 340 338 261L228 129L488 129L488 0Z"  horiz-adv-x="532" vert-adv-y="1000"  />

      
      <glyph glyph-name="uni33" unicode="&#x33;" d="M487 216Q487 116 423 53Q359-10 253-10Q116-10 31 80L105 185Q171 121 249 121Q292 121 318.50 145Q345 169 345 210L345 214Q345 306 213 309L168 309L151 401L302 572L62 572L62 700L478 700L478 586L319 413Q487 379 487 221L487 216Z"  horiz-adv-x="533" vert-adv-y="1000"  />

      
      <glyph glyph-name="uni34" unicode="&#x34;" d="M560 144L477 144L477 0L340 0L340 144L43 144L26 249L350 704L477 704L477 263L560 263L560 144M340 263L340 493L182 263L340 263Z"  horiz-adv-x="598" vert-adv-y="1000"  />

      
      <glyph glyph-name="uni35" unicode="&#x35;" d="M495 230Q495 119 428.50 54.50Q362-10 250-10Q127-10 39 68L104 182Q174 123 245 123Q295 123 324 150Q353 177 353 226L353 231Q353 278 324.50 302.50Q296 327 246 327Q199 327 150 306L70 359L90 700L466 700L466 571L209 571L201 444Q239 454 279 454Q375 454 435 400Q495 346 495 234L495 230Z"  horiz-adv-x="541" vert-adv-y="1000"  />

      
      <glyph glyph-name="uni36" unicode="&#x36;" d="M530 230Q530 123 463.50 56Q397-11 295-11Q188-11 126 52Q46 132 46 327L46 331Q46 512 116 611Q186 710 320 710Q422 710 499 652L442 533Q380 579 321 579Q264 579 231 534Q198 489 193 409Q251 454 322 454Q412 454 471 398.50Q530 343 530 236L530 230M389 224L389 229Q389 278 362 306Q335 334 291 334Q244 334 218 306Q191 279 191 230L191 224Q191 171 218 142.50Q245 114 291 114Q337 114 363 143Q389 172 389 224Z"  horiz-adv-x="574" vert-adv-y="1000"  />

      
      <glyph glyph-name="uni37" unicode="&#x37;" d="M486 593L230 0L73 0L329 570L52 570L52 700L486 700L486 593Z"  horiz-adv-x="527" vert-adv-y="1000"  />

      
      <glyph glyph-name="uni38" unicode="&#x38;" d="M515 195Q515 100 448.50 45Q382-10 276-10Q172-10 104.50 45.50Q37 101 37 193L37 196Q37 315 141 367Q57 418 57 518L57 522Q57 603 118.50 656.50Q180 710 276 710Q372 710 433.50 656.50Q495 603 495 522L495 518Q495 417 411 367Q515 310 515 199L515 195M359 503L359 506Q359 545 337 569Q315 593 276 593Q238 593 215.50 569.50Q193 546 193 507L193 504Q193 463 215.50 438Q238 413 276 413Q314 413 336.50 437.50Q359 462 359 503M375 203L375 207Q375 251 347.50 275.50Q320 300 276 300Q232 300 204.50 275.50Q177 251 177 207L177 203Q177 158 203 133Q229 108 276 108Q323 108 349 133Q375 158 375 203Z"  horiz-adv-x="553" vert-adv-y="1000"  />

      
      <glyph glyph-name="uni39" unicode="&#x39;" d="M529 369Q529 187 458 88.50Q387-10 255-10Q149-10 66 52L123 171Q188 121 254 121Q311 121 344.50 165Q378 209 382 286Q329 240 254 240Q162 240 103.50 297Q45 354 45 461L45 467Q45 575 111 643Q177 711 280 711Q386 711 449 648Q529 568 529 373L529 369M384 467L384 473Q384 528 357.50 557Q331 586 284 586Q237 586 211.50 556.50Q186 527 186 473L186 468Q186 418 213 389Q240 360 284 360Q327 360 356 387Q384 417 384 467Z"  horiz-adv-x="574" vert-adv-y="1000"  />

      
      <glyph glyph-name="uni3a" unicode="&#x3a;" d="M215 383L60 383L60 536L215 536L215 383M215 0L60 0L60 153L215 153L215 0Z"  horiz-adv-x="276" vert-adv-y="1000"  />

      
      <glyph glyph-name="uni3b" unicode="&#x3b;" d="M215 383L60 383L60 536L215 536L215 383M215 25Q215-153 40-162L29-103Q80-96 103-68.50Q126-41 122 0L60 0L60 153L215 153L215 25Z"  horiz-adv-x="276" vert-adv-y="1000"  />

      
      <glyph glyph-name="uni3c" unicode="&#x3c;" d="M490 74L64 283L64 421L490 630L490 489L197 353L490 217L490 74Z"  horiz-adv-x="555" vert-adv-y="1000"  />

      
      <glyph glyph-name="uni3d" unicode="&#x3d;" d="M501 411L54 411L54 544L501 544L501 411M501 160L54 160L54 293L501 293L501 160Z"  horiz-adv-x="555" vert-adv-y="1000"  />

      
      <glyph glyph-name="uni3e" unicode="&#x3e;" d="M490 283L65 74L65 215L357 351L65 487L65 630L490 421L490 283Z"  horiz-adv-x="555" vert-adv-y="1000"  />

      
      <glyph glyph-name="uni3f" unicode="&#x3f;" d="M446 505Q446 354 273 311L262 232L167 232L148 398L152 403Q304 416 304 501L304 503Q304 537 280 556.50Q256 576 215 576Q144 576 84 521L20 624Q104 708 224 708Q325 708 385.50 654.50Q446 601 446 509L446 505M291 0L136 0L136 153L291 153L291 0Z"  horiz-adv-x="477" vert-adv-y="1000"  />

      
      <glyph glyph-name="uni40" unicode="&#x40;" d="M831 343Q831 218 778 142Q725 66 641 66Q543 66 504 132Q448 67 371 67Q305 67 261.50 113.50Q218 160 218 238Q218 348 278.50 428Q339 508 419 508Q495 508 537 442L547 496L659 477L613 213Q609 196 609 171Q609 145 625 129.50Q641 114 669 114Q720 114 754 178Q788 242 788 345Q788 477 691 574Q594 671 450 671Q348 671 264 613.50Q180 556 134 461Q88 366 88 255Q87 94 186.50-10Q286-114 440-114Q557-114 655-56L676-89Q566-154 438-154Q269-154 157-38Q45 78 45 256Q45 377 97.50 481Q150 585 244 648Q338 711 452 711Q611 711 721 601Q831 491 831 343M513 328Q513 365 493 386.50Q473 408 440 408Q407 408 380 381Q353 354 343 310Q334 267 334 245Q334 206 354.50 184.50Q375 163 409 163Q441 163 468.50 191Q496 219 506 265Q513 297 513 328Z"  horiz-adv-x="877" vert-adv-y="1000"  />

      
      <glyph glyph-name="uni41" unicode="&#x41;" d="M655 0L506 0L454 152L214 152L162 0L17 0L267 704L405 704L655 0M410 280L334 508L257 280L410 280Z"  horiz-adv-x="672" vert-adv-y="1000"  />

      
      <glyph glyph-name="uni42" unicode="&#x42;" d="M589 193Q589 100 520.50 50Q452 0 336 0L70 0L70 700L329 700Q433 700 496 652Q559 604 559 517Q559 413 464 364Q525 339 557 300.50Q589 262 589 197L589 193M416 493Q416 572 318 572L211 572L211 413L311 413Q416 413 416 493M445 209Q445 293 336 293L211 293L211 128L340 128Q390 128 417.50 148.50Q445 169 445 209Z"  horiz-adv-x="624" vert-adv-y="1000"  />

      
      <glyph glyph-name="uni43" unicode="&#x43;" d="M583 84Q536 37 482.50 13.50Q429-10 354-10Q219-10 131.50 88Q44 186 44 345L44 354Q44 513 133 611.50Q222 710 361 710Q490 710 578 630L510 513Q437 575 364 575Q289 575 241.50 516Q194 457 194 356L194 346Q194 243 241 184Q288 125 365 125Q440 125 514 189L583 84Z"  horiz-adv-x="617" vert-adv-y="1000"  />

      
      <glyph glyph-name="uni44" unicode="&#x44;" d="M629 346Q629 192 537 96Q445 0 295 0L70 0L70 700L295 700Q445 700 537 604.50Q629 509 629 355L629 346M479 345L479 354Q479 456 429.50 512.50Q380 569 299 569L214 569L214 131L299 131Q380 131 429.50 187Q479 243 479 345Z"  horiz-adv-x="673" vert-adv-y="1000"  />

      
      <glyph glyph-name="uni45" unicode="&#x45;" d="M524 0L70 0L70 700L520 700L520 570L213 570L213 417L483 417L483 287L213 287L213 130L524 130L524 0Z"  horiz-adv-x="568" vert-adv-y="1000"  />

      
      <glyph glyph-name="uni46" unicode="&#x46;" d="M519 567L214 567L214 410L483 410L483 278L214 278L214 0L70 0L70 700L519 700L519 567Z"  horiz-adv-x="552" vert-adv-y="1000"  />

      
      <glyph glyph-name="uni47" unicode="&#x47;" d="M616 77Q504-10 369-10Q225-10 134.50 87Q44 184 44 345L44 354Q44 509 136.50 609.50Q229 710 371 710Q500 710 592 637L524 517Q450 575 369 575Q294 575 244 513.50Q194 452 194 357L194 345Q194 240 244.50 181Q295 122 374 122Q433 122 479 151L479 275L352 275L352 401L616 401L616 77Z"  horiz-adv-x="670" vert-adv-y="1000"  />

      
      <glyph glyph-name="uni48" unicode="&#x48;" d="M589 0L445 0L445 285L214 285L214 0L70 0L70 700L214 700L214 419L445 419L445 700L589 700L589 0Z"  horiz-adv-x="659" vert-adv-y="1000"  />

      
      <glyph glyph-name="uni49" unicode="&#x49;" d="M219 0L75 0L75 700L219 700L219 0Z"  horiz-adv-x="295" vert-adv-y="1000"  />

      
      <glyph glyph-name="uni4a" unicode="&#x4a;" d="M422 222Q422 108 362 49.50Q302-9 198-9Q89-9 15 67L82 180Q135 127 189 127Q274 127 274 230L274 700L422 700L422 222Z"  horiz-adv-x="483" vert-adv-y="1000"  />

      
      <glyph glyph-name="uni4b" unicode="&#x4b;" d="M624 0L453 0L279 288L214 206L214 0L70 0L70 700L214 700L214 398L442 700L614 700L379 404L624 0Z"  horiz-adv-x="632" vert-adv-y="1000"  />

      
      <glyph glyph-name="uni4c" unicode="&#x4c;" d="M497 0L70 0L70 700L214 700L214 133L497 133L497 0Z"  horiz-adv-x="523" vert-adv-y="1000"  />

      
      <glyph glyph-name="uni4d" unicode="&#x4d;" d="M684 0L542 0L542 447L377 158L374 158L210 444L210 0L70 0L70 700L222 700L376 416L531 700L684 700L684 0Z"  horiz-adv-x="753" vert-adv-y="1000"  />

      
      <glyph glyph-name="uni4e" unicode="&#x4e;" d="M612 0L487 0L211 423L211 0L70 0L70 700L203 700L469 292L469 700L612 700L612 0Z"  horiz-adv-x="681" vert-adv-y="1000"  />

      
      <glyph glyph-name="uni4f" unicode="&#x4f;" d="M676 345Q676 189 587 89Q498-11 360-11Q221-11 132.50 88Q44 187 44 343L44 355Q44 512 133 611.50Q222 711 361 711Q499 711 587.50 612Q676 513 676 357L676 345M527 343L527 355Q527 457 480.50 517.50Q434 578 360 578Q285 578 239.50 518.50Q194 459 194 357L194 345Q194 243 240.50 182.50Q287 122 361 122Q436 122 481.50 181.50Q527 241 527 343Z"  horiz-adv-x="721" vert-adv-y="1000"  />

      
      <glyph glyph-name="uni50" unicode="&#x50;" d="M558 458Q558 341 484.50 277Q411 213 296 213L214 213L214 0L70 0L70 700L302 700Q420 700 489 635.50Q558 571 558 458M412 455Q412 511 382 540Q352 569 298 569L214 569L214 343L299 343Q351 343 381.50 373.50Q412 404 412 455Z"  horiz-adv-x="583" vert-adv-y="1000"  />

      
      <glyph glyph-name="uni51" unicode="&#x51;" d="M691 76L604-19L536 44Q460-11 360-11Q221-11 132.50 88Q44 187 44 343L44 355Q44 512 133 611.50Q222 711 361 711Q499 711 587.50 612Q676 513 676 357L676 345Q676 225 622 136L691 76M527 343L527 355Q527 457 480.50 517.50Q434 578 360 578Q285 578 239.50 518.50Q194 459 194 357L194 345Q194 240 240.50 180.50Q287 121 364 121Q404 121 435 136L337 222L423 318L512 236Q527 281 527 343Z"  horiz-adv-x="723" vert-adv-y="1000"  />

      
      <glyph glyph-name="uni52" unicode="&#x52;" d="M599 0L434 0L306 230L214 230L214 0L70 0L70 700L331 700Q448 700 514.50 640Q581 580 581 468Q581 318 451 260L599 0M435 461L435 465Q435 569 322 569L214 569L214 358L325 358Q376 358 405.50 385Q435 412 435 461Z"  horiz-adv-x="625" vert-adv-y="1000"  />

      
      <glyph glyph-name="uni53" unicode="&#x53;" d="M508 198Q508 102 444 47Q380-8 277-8Q136-8 31 79L95 193Q187 122 274 122Q316 122 340 139Q364 156 364 188Q364 217 341 237Q318 257 246 288Q203 306 177 319Q151 332 123.50 351.50Q96 371 81.50 391Q67 411 57.50 440Q48 469 48 506Q48 597 110.50 652.50Q173 708 271 708Q394 708 485 640L429 521Q342 578 273 578Q235 578 213.50 561Q192 544 192 516Q192 485 214.50 468Q237 451 317 415Q420 369 464 323Q508 277 508 198Z"  horiz-adv-x="545" vert-adv-y="1000"  />

      
      <glyph glyph-name="uni54" unicode="&#x54;" d="M522 566L348 566L348 0L203 0L203 566L28 566L28 700L522 700L522 566Z"  horiz-adv-x="551" vert-adv-y="1000"  />

      
      <glyph glyph-name="uni55" unicode="&#x55;" d="M592 274Q592 134 521 62Q450-10 326-10Q202-10 131.50 61.50Q61 133 61 271L61 700L205 700L205 270Q205 197 237 160Q269 123 327 123Q385 123 417 159.50Q449 196 449 267L449 700L592 700L592 274Z"  horiz-adv-x="654" vert-adv-y="1000"  />

      
      <glyph glyph-name="uni56" unicode="&#x56;" d="M621 700L385-4L252-4L17 700L173 700L321 218L469 700L621 700Z"  horiz-adv-x="638" vert-adv-y="1000"  />

      
      <glyph glyph-name="uni57" unicode="&#x57;" d="M940 700L741-4L609-4L481 441L353-4L221-4L22 700L175 700L291 240L420 701L546 701L674 240L791 700L940 700Z"  horiz-adv-x="963" vert-adv-y="1000"  />

      
      <glyph glyph-name="uni58" unicode="&#x58;" d="M606 0L441 0L313 232L184 0L24 0L229 357L32 700L197 700L316 481L437 700L597 700L401 357L606 0Z"  horiz-adv-x="630" vert-adv-y="1000"  />

      
      <glyph glyph-name="uni59" unicode="&#x59;" d="M607 700L380 278L380 0L235 0L235 276L8 700L172 700L309 425L448 700L607 700Z"  horiz-adv-x="616" vert-adv-y="1000"  />

      
      <glyph glyph-name="uni5a" unicode="&#x5a;" d="M548 0L51 0L51 111L369 571L61 571L61 700L548 700L548 589L230 129L548 129L548 0Z"  horiz-adv-x="598" vert-adv-y="1000"  />

      
      <glyph glyph-name="uni5b" unicode="&#x5b;" d="M362-130L76-130L76 700L362 700L362 592L210 592L210-22L362-22L362-130Z"  horiz-adv-x="411" vert-adv-y="1000"  />

      
      <glyph glyph-name="uni5c" unicode="&#x5c;" d="M485-119L365-119L-10 789L110 789L485-119Z"  horiz-adv-x="463" vert-adv-y="1000"  />

      
      <glyph glyph-name="uni5d" unicode="&#x5d;" d="M335-130L49-130L49-22L201-22L201 592L49 592L49 700L335 700L335-130Z"  horiz-adv-x="411" vert-adv-y="1000"  />

      
      <glyph glyph-name="uni5e" unicode="&#x5e;" d="M427 496L327 496L249 617L171 496L73 496L199 698L301 698L427 496Z"  horiz-adv-x="500" vert-adv-y="1000"  />

      
      <glyph glyph-name="uni5f" unicode="&#x5f;" d="M558-157L-2-157L-2-49L558-49L558-157Z"  horiz-adv-x="556" vert-adv-y="1000"  />

      
      <glyph glyph-name="uni60" unicode="&#x60;" d="M347 593L245 593L121 715L239 769L347 593Z"  horiz-adv-x="500" vert-adv-y="1000"  />

      
      <glyph glyph-name="uni61" unicode="&#x61;" d="M467 0L328 0L328 57Q276-9 189-9Q120-9 74.50 34Q29 77 29 152L29 159Q29 244 79.50 287Q130 330 216 330Q276 330 329 309L329 324Q329 418 226 418Q167 418 96 390L69 505Q153 542 249 542Q358 542 412.50 486Q467 430 467 325L467 0M330 175L330 221Q296 238 251 238Q211 238 188.50 219.50Q166 201 166 166L166 159Q166 127 185 110Q204 93 235 93Q277 93 303.50 115.50Q330 138 330 175Z"  horiz-adv-x="519" vert-adv-y="1000"  />

      
      <glyph glyph-name="uni62" unicode="&#x62;" d="M549 260Q549 130 490 60Q431-10 344-10Q261-10 199 68L199 0L57 0L57 722L199 722L199 462Q257 546 344 546Q430 546 489.50 476Q549 406 549 276L549 260M408 262L408 274Q408 341 377.50 381.50Q347 422 302 422Q257 422 227.50 381.50Q198 341 198 274L198 262Q198 195 227.50 154.50Q257 114 302 114Q348 114 378 154.50Q408 195 408 262Z"  horiz-adv-x="587" vert-adv-y="1000"  />

      
      <glyph glyph-name="uni63" unicode="&#x63;" d="M458 64Q422 27 381.50 8Q341-11 281-11Q174-11 105 65.50Q36 142 36 261L36 272Q36 391 106 468Q176 545 283 545Q390 545 455 478L391 372Q342 419 287 419Q239 419 208 379Q177 339 177 274L177 262Q177 195 208.50 155Q240 115 292 115Q344 115 396 162L458 64Z"  horiz-adv-x="485" vert-adv-y="1000"  />

      
      <glyph glyph-name="uni64" unicode="&#x64;" d="M530 0L388 0L388 74Q330-10 243-10Q157-10 97.50 60Q38 130 38 260L38 276Q38 406 97 476Q156 546 243 546Q328 546 388 468L388 722L530 722L530 0M390 262L390 274Q390 341 360 381.50Q330 422 285 422Q240 422 210 381.50Q180 341 180 274L180 262Q180 195 210 154.50Q240 114 285 114Q330 114 360 154.50Q390 195 390 262Z"  horiz-adv-x="587" vert-adv-y="1000"  />

      
      <glyph glyph-name="uni65" unicode="&#x65;" d="M498 261Q498 234 496 214L176 214Q195 107 292 107Q355 107 411 157L475 71Q401-11 287-11Q178-11 106.50 64Q35 139 35 261L35 271Q35 390 101.50 467.50Q168 545 270 545Q380 545 439 465.50Q498 386 498 261M361 309Q356 365 332.50 397Q309 429 270 429Q231 429 206.50 398Q182 367 175 309L361 309Z"  horiz-adv-x="534" vert-adv-y="1000"  />

      
      <glyph glyph-name="uni66" unicode="&#x66;" d="M324 416L221 416L221 0L80 0L80 416L26 416L26 533L80 533L80 568Q80 728 236 728Q286 728 325 716L325 599Q300 608 273 608Q220 608 220 553L220 533L324 533L324 416Z"  horiz-adv-x="336" vert-adv-y="1000"  />

      
      <glyph glyph-name="uni67" unicode="&#x67;" d="M530 99Q530-34 464-93.50Q398-153 264-153Q157-153 64-109L100 4Q180-37 257-37Q390-37 390 90L390 124Q359 83 324 61.50Q289 40 239 40Q153 40 95.50 106Q38 172 38 295Q38 416 96 481Q154 546 239 546Q323 546 388 468L388 536L530 536L530 99M390 292Q390 352 360 388Q330 424 284 424Q238 424 209 388Q180 352 180 292Q180 233 209 197.50Q238 162 284 162Q330 162 360 197.50Q390 233 390 292Z"  horiz-adv-x="587" vert-adv-y="1000"  />

      
      <glyph glyph-name="uni68" unicode="&#x68;" d="M496 0L354 0L354 323Q354 369 334 393.50Q314 418 278 418Q241 418 220 393.50Q199 369 199 323L199 0L57 0L57 722L199 722L199 464Q258 546 337 546Q413 546 454.50 497.50Q496 449 496 365L496 0Z"  horiz-adv-x="550" vert-adv-y="1000"  />

      
      <glyph glyph-name="uni69" unicode="&#x69;" d="M208 593L60 593L60 722L208 722L208 593M204 0L62 0L62 536L204 536L204 0Z"  horiz-adv-x="267" vert-adv-y="1000"  />

      
      <glyph glyph-name="uni6a" unicode="&#x6a;" d="M208 593L60 593L60 722L208 722L208 593M205 5Q205-154 47-154Q19-154-13-149L-13-37Q-4-39 12-39Q63-39 63 17L63 536L205 536L205 5Z"  horiz-adv-x="268" vert-adv-y="1000"  />

      
      <glyph glyph-name="uni6b" unicode="&#x6b;" d="M516 0L355 0L243 214L199 158L199 0L57 0L57 722L199 722L199 338L346 536L512 536L342 323L516 0Z"  horiz-adv-x="521" vert-adv-y="1000"  />

      
      <glyph glyph-name="uni6c" unicode="&#x6c;" d="M204 0L62 0L62 722L204 722L204 0Z"  horiz-adv-x="267" vert-adv-y="1000"  />

      
      <glyph glyph-name="uni6d" unicode="&#x6d;" d="M783 0L641 0L641 323Q641 369 622 393.50Q603 418 568 418Q532 418 511.50 393.50Q491 369 491 323L491 0L349 0L349 323Q349 418 275 418Q240 418 219.50 393.50Q199 369 199 323L199 0L57 0L57 536L199 536L199 464Q257 546 338 546Q430 546 471 468Q536 546 623 546Q697 546 740 499.50Q783 453 783 366L783 0Z"  horiz-adv-x="838" vert-adv-y="1000"  />

      
      <glyph glyph-name="uni6e" unicode="&#x6e;" d="M496 0L354 0L354 323Q354 369 334 393.50Q314 418 278 418Q241 418 220 393.50Q199 369 199 323L199 0L57 0L57 536L199 536L199 464Q258 546 337 546Q413 546 454.50 497.50Q496 449 496 365L496 0Z"  horiz-adv-x="550" vert-adv-y="1000"  />

      
      <glyph glyph-name="uni6f" unicode="&#x6f;" d="M542 262Q542 143 470 66Q398-11 288-11Q179-11 107.50 65.50Q36 142 36 261L36 272Q36 391 108 468Q180 545 290 545Q399 545 470.50 468.50Q542 392 542 273L542 262M401 260L401 272Q401 338 370 380Q339 422 288 422Q236 422 206 381Q176 340 176 274L176 262Q176 196 207.50 154Q239 112 290 112Q341 112 371 153Q401 194 401 260Z"  horiz-adv-x="578" vert-adv-y="1000"  />

      
      <glyph glyph-name="uni70" unicode="&#x70;" d="M549 260Q549 130 490 60Q431-10 344-10Q261-10 199 68L199-151L57-151L57 536L199 536L199 462Q257 546 344 546Q430 546 489.50 476Q549 406 549 276L549 260M408 262L408 274Q408 341 377.50 381.50Q347 422 302 422Q257 422 227.50 381.50Q198 341 198 274L198 262Q198 195 227.50 154.50Q257 114 302 114Q348 114 378 154.50Q408 195 408 262Z"  horiz-adv-x="587" vert-adv-y="1000"  />

      
      <glyph glyph-name="uni71" unicode="&#x71;" d="M530-151L388-151L388 74Q330-10 243-10Q157-10 97.50 60Q38 130 38 260L38 276Q38 406 97 476Q156 546 243 546Q328 546 388 468L388 536L530 536L530-151M390 262L390 274Q390 341 360 381.50Q330 422 285 422Q240 422 210 381.50Q180 341 180 274L180 262Q180 195 210 154.50Q240 114 285 114Q330 114 360 154.50Q390 195 390 262Z"  horiz-adv-x="587" vert-adv-y="1000"  />

      
      <glyph glyph-name="uni72" unicode="&#x72;" d="M345 391L339 391Q272 391 235.50 349Q199 307 199 224L199 0L57 0L57 536L199 536L199 441Q244 549 345 545L345 391Z"  horiz-adv-x="368" vert-adv-y="1000"  />

      
      <glyph glyph-name="uni73" unicode="&#x73;" d="M405 156Q405 76 352.50 33Q300-10 217-10Q110-10 23 54L69 159Q148 104 217 104Q275 104 275 146Q275 152 273 157.50Q271 163 265.50 168Q260 173 255 177Q250 181 240 186Q230 191 223 194.50Q216 198 202 204.50Q188 211 179 215Q113 245 76.50 281.50Q40 318 40 382Q40 457 91.50 500.50Q143 544 223 544Q313 544 390 496L349 388Q276 430 223 430Q171 430 171 392Q171 386 173 381Q175 376 180 371Q185 366 190 362Q195 358 205 352.50Q215 347 222 343.50Q229 340 243 333Q257 326 266 321Q300 303 319.50 291Q339 279 361.50 259Q384 239 394.50 213.50Q405 188 405 156Z"  horiz-adv-x="437" vert-adv-y="1000"  />

      
      <glyph glyph-name="uni74" unicode="&#x74;" d="M326 18Q282-8 221-8Q154-8 116.50 24Q79 56 79 134L79 416L25 416L25 536L79 536L79 673L221 673L221 536L328 536L328 416L221 416L221 163Q221 117 265 117Q299 117 326 132L326 18Z"  horiz-adv-x="363" vert-adv-y="1000"  />

      
      <glyph glyph-name="uni75" unicode="&#x75;" d="M492 0L350 0L350 72Q291-10 212-10Q137-10 95.50 38.50Q54 87 54 171L54 536L196 536L196 213Q196 167 215.50 142.50Q235 118 271 118Q308 118 329 142.50Q350 167 350 213L350 536L492 536L492 0Z"  horiz-adv-x="550" vert-adv-y="1000"  />

      
      <glyph glyph-name="uni76" unicode="&#x76;" d="M512 536L331-3L198-3L17 536L165 536L265 181L366 536L512 536Z"  horiz-adv-x="529" vert-adv-y="1000"  />

      
      <glyph glyph-name="uni77" unicode="&#x77;" d="M740 536L596-3L465-3L380 314L293-3L163-3L20 536L164 536L236 219L320 537L441 537L525 218L599 536L740 536Z"  horiz-adv-x="760" vert-adv-y="1000"  />

      
      <glyph glyph-name="uni78" unicode="&#x78;" d="M497 0L346 0L256 168L166 0L18 0L179 273L24 536L174 536L259 379L344 536L491 536L335 275L497 0Z"  horiz-adv-x="516" vert-adv-y="1000"  />

      
      <glyph glyph-name="uni79" unicode="&#x79;" d="M512 536L332-5Q305-85 268-119.50Q231-154 166-154Q99-154 44-123L86-17Q119-36 148-36Q182-36 198-1L17 536L165 536L266 178L366 536L512 536Z"  horiz-adv-x="529" vert-adv-y="1000"  />

      
      <glyph glyph-name="uni7a" unicode="&#x7a;" d="M445 0L39 0L39 100L275 420L46 420L46 536L445 536L445 436L208 116L445 116L445 0Z"  horiz-adv-x="481" vert-adv-y="1000"  />

      
      <glyph glyph-name="uni7b" unicode="&#x7b;" d="M394-47L375-141Q256-124 206-78Q156-32 156 46Q156 59 161 90.50Q166 122 166 137Q166 188 142 210Q118 232 65 232L41 232L41 342L65 342Q118 342 142 364Q166 386 166 437Q166 452 161 483.50Q156 515 156 528Q156 606 206 652Q256 698 375 715L394 621Q331 605 307.50 581.50Q284 558 284 514Q284 497 289.50 465Q295 433 295 418Q295 316 187 287Q295 258 295 156Q295 141 289.50 109Q284 77 284 60Q284 16 307.50-7.50Q331-31 394-47Z"  horiz-adv-x="434" vert-adv-y="1000"  />

      
      <glyph glyph-name="uni7c" unicode="&#x7c;" d="M216-119L104-119L104 789L216 789L216-119Z"  horiz-adv-x="319" vert-adv-y="1000"  />

      
      <glyph glyph-name="uni7d" unicode="&#x7d;" d="M395 232L371 232Q318 232 294 210Q270 188 270 137Q270 122 275 90.50Q280 59 280 46Q280-32 230-78Q180-124 61-141L42-47Q105-31 128.50-7.50Q152 16 152 60Q152 77 146.50 109Q141 141 141 156Q141 258 249 287Q141 316 141 418Q141 433 146.50 465Q152 497 152 514Q152 558 128.50 581.50Q105 605 42 621L61 715Q180 698 230 652Q280 606 280 528Q280 515 275 483.50Q270 452 270 437Q270 386 294 364Q318 342 371 342L395 342L395 232Z"  horiz-adv-x="436" vert-adv-y="1000"  />

      
      <glyph glyph-name="uni7e" unicode="&#x7e;" d="M422 369Q394 240 309 240Q275 240 231 260Q187 280 170 280Q152 280 141.50 268.50Q131 257 121 231L45 254Q74 384 158 384Q190 384 236 363Q280 343 296 343Q315 343 325.50 354.50Q336 366 346 392L422 369Z"  horiz-adv-x="467" vert-adv-y="1000"  />

      
      <glyph glyph-name="unia1" unicode="&#xa1;" d="M224 546L69 546L69 700L224 700L224 546M231 0L63 0L63 20L108 468L185 468L231 20L231 0Z"  horiz-adv-x="293" vert-adv-y="1000"  />

      
      <glyph glyph-name="unia2" unicode="&#xa2;" d="M379 705L368 621Q415 607 459 565L396 460Q369 486 339 497L297 201Q348 202 399 248L459 153Q383 77 292 75L282-6L185-6L198 90Q126 117 83 186.50Q40 256 40 348L40 358Q40 473 105.50 550Q171 627 274 632L283 705L379 705M176 349Q176 254 228 219L269 504Q226 497 201 457Q176 417 176 360L176 349Z"  horiz-adv-x="496" vert-adv-y="1000"  />

      
      <glyph glyph-name="unia3" unicode="&#xa3;" d="M517 0L48 0L48 95L116 119L116 270L49 270L49 392L116 392L116 482Q116 593 174 651Q232 709 332 709Q444 709 513 626L431 524Q388 573 340 573Q307 573 286 552Q262 528 262 480L262 392L450 392L450 270L262 270L262 126L517 126L517 0Z"  horiz-adv-x="555" vert-adv-y="1000"  />

      
      <glyph glyph-name="unia4" unicode="&#xa4;" d="M584 91Q502-11 385-11Q284-11 215.50 49.50Q147 110 121 220L39 220L39 317L107 317L107 387L39 387L39 484L123 484Q150 591 219 651Q288 711 386 711Q454 711 499.50 687Q545 663 582 617L501 518Q448 580 387 580Q305 580 273 484L432 484L432 387L254 387Q253 377 253 355L253 346Q253 327 254 317L432 317L432 220L271 220Q302 120 392 120Q425 120 450.50 135Q476 150 507 184L584 91Z"  horiz-adv-x="617" vert-adv-y="1000"  />

      
      <glyph glyph-name="unia5" unicode="&#xa5;" d="M369 257L369 196L524 196L524 93L369 93L369 0L230 0L230 93L76 93L76 196L230 196L230 257L76 257L76 361L195 361L12 700L173 700L301 433L431 700L588 700L403 361L524 361L524 257L369 257Z"  horiz-adv-x="600" vert-adv-y="1000"  />

      
      <glyph glyph-name="unia6" unicode="&#xa6;" d="M0 0L0 700L500 700L500 0L0 0M81 49L420 49L250 304L81 49M49 96L220 350L49 604L49 96M450 96L450 604L279 350L450 96M250 395L420 650L81 650L250 395Z"  horiz-adv-x="500" vert-adv-y="1000"  />

      
      <glyph glyph-name="unia7" unicode="&#xa7;" d="M522 350Q522 265 436 234Q473 201 473 145L473 144Q473 73 422.50 32Q372-9 285-9Q163-9 86 65L143 157Q215 101 280 101Q339 101 339 138L339 139Q339 159 318.50 170.50Q298 182 229 203Q126 234 84.50 265Q43 296 43 349L43 350Q43 435 130 467Q92 502 92 557L92 558Q92 628 142.50 668.50Q193 709 282 709Q399 709 473 638L416 546Q352 600 287 600Q227 600 227 564L227 563Q227 545 249.50 530.50Q272 516 336 497Q439 466 480.50 435Q522 404 522 351L522 350M394 330L394 332Q394 352 372 366.50Q350 381 291 401Q244 417 219 417Q198 417 184.50 403Q171 389 171 370L171 368Q171 348 193 333.50Q215 319 274 299Q321 283 346 283Q367 283 380.50 297Q394 311 394 330Z"  horiz-adv-x="565" vert-adv-y="1000"  />

      
      <glyph glyph-name="unia8" unicode="&#xa8;" d="M417 596L283 596L283 721L417 721L417 596M217 596L83 596L83 721L217 721L217 596Z"  horiz-adv-x="500" vert-adv-y="1000"  />

      
      <glyph glyph-name="unia9" unicode="&#xa9;" d="M693 355L693 345Q693 194 598.50 91.50Q504-11 367-11Q230-11 137 91Q44 193 44 344L44 354Q44 505 138 608Q232 711 369 711Q506 711 599.50 608.50Q693 506 693 355M652 345L652 355Q652 490 571.50 581Q491 672 369 672Q246 672 165 580.50Q84 489 84 354L84 343Q84 208 164.50 117.50Q245 27 367 27Q490 27 571 118.50Q652 210 652 345M500 206Q448 154 374 154Q300 154 252 208.50Q204 263 204 350L204 355Q204 442 253 497Q302 552 378 552Q448 552 497 508L459 442Q418 476 380 476Q339 476 313.50 443.50Q288 411 288 356L288 350Q288 295 313.50 262.50Q339 230 380 230Q418 230 461 266L500 206Z"  horiz-adv-x="737" vert-adv-y="1000"  />

      
      <glyph glyph-name="uniaa" unicode="&#xaa;" d="M288 406L211 406L211 438Q183 400 135 400Q97 400 72 424Q47 448 47 489L47 492Q47 540 75 563.50Q103 587 150 587Q181 587 212 575L212 584Q212 636 155 636Q127 636 84 620L69 683Q116 704 168 704Q288 704 288 584L288 406M294 285L44 285L44 345L294 345L294 285M213 502L213 528Q186 537 169 537Q123 537 123 496L123 495Q123 457 161 457Q184 457 198.50 469.50Q213 482 213 502Z"  horiz-adv-x="348" vert-adv-y="1000"  />

      
      <glyph glyph-name="uniab" unicode="&#xab;" d="M554 97L444 40L287 264L287 272L444 496L553 441L430 269L554 97M303 97L193 40L36 264L36 272L193 496L302 441L179 269L303 97Z"  horiz-adv-x="593" vert-adv-y="1000"  />

      
      <glyph glyph-name="uniac" unicode="&#xac;" d="M359 411L54 411L54 544L501 544L501 241L359 241L359 411Z"  horiz-adv-x="555" vert-adv-y="1000"  />

      
      <glyph glyph-name="uniad" unicode="&#xad;" d="M339 241L46 241L46 379L339 379L339 241Z"  horiz-adv-x="386" vert-adv-y="1000"  />

      
      <glyph glyph-name="uniae" unicode="&#xae;" d="M693 355L693 345Q693 194 598.50 91.50Q504-11 367-11Q230-11 137 91Q44 193 44 344L44 354Q44 505 138 608Q232 711 369 711Q506 711 599.50 608.50Q693 506 693 355M652 345L652 355Q652 490 571.50 581Q491 672 369 672Q246 672 165 580.50Q84 489 84 354L84 343Q84 208 164.50 117.50Q245 27 367 27Q490 27 571 118.50Q652 210 652 345M519 426L519 424Q519 342 447 310L528 166L438 166L367 293L316 293L316 166L237 166L237 551L378 551Q442 551 480.50 518.50Q519 486 519 426M439 421L439 422Q439 480 375 480L316 480L316 363L377 363Q406 363 422.50 378.50Q439 394 439 421Z"  horiz-adv-x="737" vert-adv-y="1000"  />

      
      <glyph glyph-name="uniaf" unicode="&#xaf;" d="M416 602L84 602L84 700L416 700L416 602Z"  horiz-adv-x="500" vert-adv-y="1000"  />

      
      <glyph glyph-name="unib0" unicode="&#xb0;" d="M363 534Q363 465 317 415.50Q271 366 208 366Q145 366 99.50 415.50Q54 465 54 534L54 537Q54 606 99.50 656Q145 706 208 706Q271 706 317 656Q363 606 363 537L363 534M284 534L284 537Q284 578 262 604Q240 630 208 630Q176 630 155 604Q134 578 134 537L134 534Q134 493 155 467Q176 441 208 441Q240 441 262 467Q284 493 284 534Z"  horiz-adv-x="418" vert-adv-y="1000"  />

      
      <glyph glyph-name="unib1" unicode="&#xb1;" d="M0 0L0 700L500 700L500 0L0 0M81 49L420 49L250 304L81 49M49 96L220 350L49 604L49 96M450 96L450 604L279 350L450 96M250 395L420 650L81 650L250 395Z"  horiz-adv-x="500" vert-adv-y="1000"  />

      
      <glyph glyph-name="unib2" unicode="&#xb2;" d="M0 0L0 700L500 700L500 0L0 0M81 49L420 49L250 304L81 49M49 96L220 350L49 604L49 96M450 96L450 604L279 350L450 96M250 395L420 650L81 650L250 395Z"  horiz-adv-x="500" vert-adv-y="1000"  />

      
      <glyph glyph-name="unib3" unicode="&#xb3;" d="M0 0L0 700L500 700L500 0L0 0M81 49L420 49L250 304L81 49M49 96L220 350L49 604L49 96M450 96L450 604L279 350L450 96M250 395L420 650L81 650L250 395Z"  horiz-adv-x="500" vert-adv-y="1000"  />

      
      <glyph glyph-name="unib4" unicode="&#xb4;" d="M375 715L251 593L149 593L257 769L375 715Z"  horiz-adv-x="500" vert-adv-y="1000"  />

      
      <glyph glyph-name="unib5" unicode="&#xb5;" d="M495 0L353 0L353 60Q328 25 306 9.50Q284-6 251-6Q223-6 199 7L199-151L57-151L57 536L199 536L199 213Q199 167 218.50 142.50Q238 118 274 118Q311 118 332 142.50Q353 167 353 213L353 536L495 536L495 0Z"  horiz-adv-x="552" vert-adv-y="1000"  />

      
      <glyph glyph-name="unib6" unicode="&#xb6;" d="M291 700L450 700L450 0L305 0L305 228L288 228Q174 230 101 290.50Q28 351 28 463L28 464Q28 577 100.50 638.50Q173 700 291 700Z"  horiz-adv-x="521" vert-adv-y="1000"  />

      
      <glyph glyph-name="unib7" unicode="&#xb7;" d="M213 233L58 233L58 386L213 386L213 233Z"  horiz-adv-x="272" vert-adv-y="1000"  />

      
      <glyph glyph-name="unib8" unicode="&#xb8;" d="M313 13L241-163L122-115L214 13L313 13Z"  horiz-adv-x="500" vert-adv-y="1000"  />

      
      <glyph glyph-name="unib9" unicode="&#xb9;" d="M0 0L0 700L500 700L500 0L0 0M81 49L420 49L250 304L81 49M49 96L220 350L49 604L49 96M450 96L450 604L279 350L450 96M250 395L420 650L81 650L250 395Z"  horiz-adv-x="500" vert-adv-y="1000"  />

      
      <glyph glyph-name="uniba" unicode="&#xba;" d="M309 550Q309 484 270.50 441.50Q232 399 173 399Q115 399 77 441Q39 483 39 549L39 555Q39 621 77.50 663Q116 705 174 705Q233 705 271 663Q309 621 309 555L309 550M302 285L46 285L46 345L302 345L302 285M232 549L232 555Q232 591 216 614.50Q200 638 173 638Q146 638 131 615.50Q116 593 116 556L116 549Q116 513 132 489.50Q148 466 174 466Q201 466 216.50 489Q232 512 232 549Z"  horiz-adv-x="348" vert-adv-y="1000"  />

      
      <glyph glyph-name="unibb" unicode="&#xbb;" d="M558 264L400 40L291 96L415 268L291 439L400 496L558 272L558 264M307 264L149 40L39 96L164 268L40 439L149 496L307 272L307 264Z"  horiz-adv-x="593" vert-adv-y="1000"  />

      
      <glyph glyph-name="unibc" unicode="&#xbc;" d="M0 0L0 700L500 700L500 0L0 0M81 49L420 49L250 304L81 49M49 96L220 350L49 604L49 96M450 96L450 604L279 350L450 96M250 395L420 650L81 650L250 395Z"  horiz-adv-x="500" vert-adv-y="1000"  />

      
      <glyph glyph-name="unibd" unicode="&#xbd;" d="M0 0L0 700L500 700L500 0L0 0M81 49L420 49L250 304L81 49M49 96L220 350L49 604L49 96M450 96L450 604L279 350L450 96M250 395L420 650L81 650L250 395Z"  horiz-adv-x="500" vert-adv-y="1000"  />

      
      <glyph glyph-name="unibe" unicode="&#xbe;" d="M0 0L0 700L500 700L500 0L0 0M81 49L420 49L250 304L81 49M49 96L220 350L49 604L49 96M450 96L450 604L279 350L450 96M250 395L420 650L81 650L250 395Z"  horiz-adv-x="500" vert-adv-y="1000"  />

      
      <glyph glyph-name="unibf" unicode="&#xbf;" d="M186 700L341 700L341 547L186 547L186 700M31 195Q31 346 204 389L215 468L310 468L329 302L325 297Q173 284 173 199L173 197Q173 163 197 143.50Q221 124 262 124Q333 124 393 179L457 76Q373-8 253-8Q152-8 91.50 45.50Q31 99 31 191L31 195Z"  horiz-adv-x="477" vert-adv-y="1000"  />

      
      <glyph glyph-name="unic0" unicode="&#xc0;" d="M655 0L506 0L454 152L214 152L162 0L17 0L267 704L405 704L655 0M410 280L334 508L257 280L410 280M396 750L294 750L170 872L288 926L396 750Z"  horiz-adv-x="672" vert-adv-y="1000"  />

      
      <glyph glyph-name="unic1" unicode="&#xc1;" d="M655 0L506 0L454 152L214 152L162 0L17 0L267 704L405 704L655 0M410 280L334 508L257 280L410 280M500 872L376 750L274 750L382 926L500 872Z"  horiz-adv-x="672" vert-adv-y="1000"  />

      
      <glyph glyph-name="unic2" unicode="&#xc2;" d="M655 0L506 0L454 152L214 152L162 0L17 0L267 704L405 704L655 0M410 280L334 508L257 280L410 280M509 750L406 750L335 829L264 750L163 750L271 907L401 907L509 750Z"  horiz-adv-x="672" vert-adv-y="1000"  />

      
      <glyph glyph-name="unic3" unicode="&#xc3;" d="M655 0L506 0L454 152L214 152L162 0L17 0L267 704L405 704L655 0M410 280L334 508L257 280L410 280M523 877Q495 748 410 748Q378 748 323 772Q287 789 272 789Q253 789 243 778Q233 767 222 740L146 763Q176 892 259 892Q295 892 345 869Q377 852 398 852Q417 852 427 863.50Q437 875 447 901L523 877Z"  horiz-adv-x="672" vert-adv-y="1000"  />

      
      <glyph glyph-name="unic4" unicode="&#xc4;" d="M655 0L506 0L454 152L214 152L162 0L17 0L267 704L405 704L655 0M410 280L334 508L257 280L410 280M503 753L369 753L369 878L503 878L503 753M303 753L169 753L169 878L303 878L303 753Z"  horiz-adv-x="672" vert-adv-y="1000"  />

      
      <glyph glyph-name="unic5" unicode="&#xc5;" d="M655 0L506 0L454 151L213 151L162 0L16 0L259 682Q219 717 219 770L219 773Q219 820 254 854.50Q289 889 336 889Q383 889 418 854.50Q453 820 453 773L453 770Q453 718 412 682L655 0M392 770L392 772Q392 796 375.50 814Q359 832 336 832Q312 832 295.50 814Q279 796 279 772L279 770Q279 747 296 729Q313 711 336 711Q359 711 375.50 728.50Q392 746 392 770M410 279L334 508L257 279L410 279Z"  horiz-adv-x="672" vert-adv-y="1000"  />

      
      <glyph glyph-name="unic6" unicode="&#xc6;" d="M854 0L417 0L417 151L219 151L151 0L6 0L325 700L849 700L849 569L560 569L560 417L813 417L813 287L560 287L560 130L854 130L854 0M417 279L417 568L401 568L277 279L417 279Z"  horiz-adv-x="898" vert-adv-y="1000"  />

      
      <glyph glyph-name="unic7" unicode="&#xc7;" d="M280-1Q174 25 109 117.50Q44 210 44 345L44 354Q44 513 133 611.50Q222 710 361 710Q490 710 578 630L510 513Q437 575 364 575Q289 575 241.50 516Q194 457 194 356L194 346Q194 243 241 184Q288 125 365 125Q440 125 514 189L583 84Q496-3 380-9L317-163L198-115L280-1Z"  horiz-adv-x="617" vert-adv-y="1000"  />

      
      <glyph glyph-name="unic8" unicode="&#xc8;" d="M524 0L70 0L70 700L520 700L520 570L213 570L213 417L483 417L483 287L213 287L213 130L524 130L524 0M369 750L267 750L143 872L261 926L369 750Z"  horiz-adv-x="568" vert-adv-y="1000"  />

      
      <glyph glyph-name="unic9" unicode="&#xc9;" d="M524 0L70 0L70 700L520 700L520 570L213 570L213 417L483 417L483 287L213 287L213 130L524 130L524 0M444 872L320 750L218 750L326 926L444 872Z"  horiz-adv-x="568" vert-adv-y="1000"  />

      
      <glyph glyph-name="unica" unicode="&#xca;" d="M524 0L70 0L70 700L520 700L520 570L213 570L213 417L483 417L483 287L213 287L213 130L524 130L524 0M465 750L362 750L291 829L220 750L119 750L227 907L357 907L465 750Z"  horiz-adv-x="568" vert-adv-y="1000"  />

      
      <glyph glyph-name="unicb" unicode="&#xcb;" d="M524 0L70 0L70 700L520 700L520 570L213 570L213 417L483 417L483 287L213 287L213 130L524 130L524 0M460 753L326 753L326 878L460 878L460 753M260 753L126 753L126 878L260 878L260 753Z"  horiz-adv-x="568" vert-adv-y="1000"  />

      
      <glyph glyph-name="unicc" unicode="&#xcc;" d="M219 0L75 0L75 700L219 700L219 0M203 750L101 750L-23 872L95 926L203 750Z"  horiz-adv-x="295" vert-adv-y="1000"  />

      
      <glyph glyph-name="unicd" unicode="&#xcd;" d="M219 0L75 0L75 700L219 700L219 0M315 872L191 750L89 750L197 926L315 872Z"  horiz-adv-x="295" vert-adv-y="1000"  />

      
      <glyph glyph-name="unice" unicode="&#xce;" d="M219 0L75 0L75 700L219 700L219 0M320 750L217 750L146 829L75 750L-26 750L82 907L212 907L320 750Z"  horiz-adv-x="295" vert-adv-y="1000"  />

      
      <glyph glyph-name="unicf" unicode="&#xcf;" d="M219 0L75 0L75 700L219 700L219 0M314 753L180 753L180 878L314 878L314 753M114 753L-20 753L-20 878L114 878L114 753Z"  horiz-adv-x="295" vert-adv-y="1000"  />

      
      <glyph glyph-name="unid0" unicode="&#xd0;" d="M657 346Q657 192 565.50 96Q474 0 324 0L99 0L99 285L31 285L31 417L99 417L99 700L324 700Q474 700 565.50 604Q657 508 657 354L657 346M508 345L508 352Q508 454 458 511Q408 568 327 568L241 568L241 417L365 417L365 285L241 285L241 130L327 130Q408 130 458 186.50Q508 243 508 345Z"  horiz-adv-x="702" vert-adv-y="1000"  />

      
      <glyph glyph-name="unid1" unicode="&#xd1;" d="M612 0L487 0L211 423L211 0L70 0L70 700L203 700L469 292L469 700L612 700L612 0M531 877Q503 748 418 748Q386 748 331 772Q295 789 280 789Q261 789 251 778Q241 767 230 740L154 763Q184 892 267 892Q303 892 353 869Q385 852 406 852Q425 852 435 863.50Q445 875 455 901L531 877Z"  horiz-adv-x="681" vert-adv-y="1000"  />

      
      <glyph glyph-name="unid2" unicode="&#xd2;" d="M676 345Q676 189 587 89Q498-11 360-11Q221-11 132.50 88Q44 187 44 343L44 355Q44 512 133 611.50Q222 711 361 711Q499 711 587.50 612Q676 513 676 357L676 345M527 343L527 355Q527 457 480.50 517.50Q434 578 360 578Q285 578 239.50 518.50Q194 459 194 357L194 345Q194 243 240.50 182.50Q287 122 361 122Q436 122 481.50 181.50Q527 241 527 343M409 750L307 750L183 872L301 926L409 750Z"  horiz-adv-x="721" vert-adv-y="1000"  />

      
      <glyph glyph-name="unid3" unicode="&#xd3;" d="M676 345Q676 189 587 89Q498-11 360-11Q221-11 132.50 88Q44 187 44 343L44 355Q44 512 133 611.50Q222 711 361 711Q499 711 587.50 612Q676 513 676 357L676 345M527 343L527 355Q527 457 480.50 517.50Q434 578 360 578Q285 578 239.50 518.50Q194 459 194 357L194 345Q194 243 240.50 182.50Q287 122 361 122Q436 122 481.50 181.50Q527 241 527 343M531 872L407 750L305 750L413 926L531 872Z"  horiz-adv-x="721" vert-adv-y="1000"  />

      
      <glyph glyph-name="unid4" unicode="&#xd4;" d="M676 345Q676 189 587 89Q498-11 360-11Q221-11 132.50 88Q44 187 44 343L44 355Q44 512 133 611.50Q222 711 361 711Q499 711 587.50 612Q676 513 676 357L676 345M527 343L527 355Q527 457 480.50 517.50Q434 578 360 578Q285 578 239.50 518.50Q194 459 194 357L194 345Q194 243 240.50 182.50Q287 122 361 122Q436 122 481.50 181.50Q527 241 527 343M533 750L430 750L359 829L288 750L187 750L295 907L425 907L533 750Z"  horiz-adv-x="721" vert-adv-y="1000"  />

      
      <glyph glyph-name="unid5" unicode="&#xd5;" d="M676 345Q676 189 587 89Q498-11 360-11Q221-11 132.50 88Q44 187 44 343L44 355Q44 512 133 611.50Q222 711 361 711Q499 711 587.50 612Q676 513 676 357L676 345M527 343L527 355Q527 457 480.50 517.50Q434 578 360 578Q285 578 239.50 518.50Q194 459 194 357L194 345Q194 243 240.50 182.50Q287 122 361 122Q436 122 481.50 181.50Q527 241 527 343M548 877Q520 748 435 748Q403 748 348 772Q312 789 297 789Q278 789 268 778Q258 767 247 740L171 763Q201 892 284 892Q320 892 370 869Q402 852 423 852Q442 852 452 863.50Q462 875 472 901L548 877Z"  horiz-adv-x="721" vert-adv-y="1000"  />

      
      <glyph glyph-name="unid6" unicode="&#xd6;" d="M676 345Q676 189 587 89Q498-11 360-11Q221-11 132.50 88Q44 187 44 343L44 355Q44 512 133 611.50Q222 711 361 711Q499 711 587.50 612Q676 513 676 357L676 345M527 343L527 355Q527 457 480.50 517.50Q434 578 360 578Q285 578 239.50 518.50Q194 459 194 357L194 345Q194 243 240.50 182.50Q287 122 361 122Q436 122 481.50 181.50Q527 241 527 343M527 753L393 753L393 878L527 878L527 753M327 753L193 753L193 878L327 878L327 753Z"  horiz-adv-x="721" vert-adv-y="1000"  />

      
      <glyph glyph-name="unid7" unicode="&#xd7;" d="M0 0L0 700L500 700L500 0L0 0M81 49L420 49L250 304L81 49M49 96L220 350L49 604L49 96M450 96L450 604L279 350L450 96M250 395L420 650L81 650L250 395Z"  horiz-adv-x="500" vert-adv-y="1000"  />

      
      <glyph glyph-name="unid8" unicode="&#xd8;" d="M676 355L676 345Q676 189 586.50 89Q497-11 359-11Q266-11 196 33L165-5L42-5L121 100Q44 198 44 343L44 354Q44 510 133.50 610.50Q223 711 361 711Q452 711 526 663L558 705L682 705L600 595Q676 500 676 355M443 544Q408 580 359 580Q284 580 237.50 518.50Q191 457 191 355L191 345Q191 286 216 238L443 544M529 343L529 354Q529 409 504 454L277 150Q312 118 361 118Q436 118 482.50 179.50Q529 241 529 343Z"  horiz-adv-x="721" vert-adv-y="1000"  />

      
      <glyph glyph-name="unid9" unicode="&#xd9;" d="M592 274Q592 134 521 62Q450-10 326-10Q202-10 131.50 61.50Q61 133 61 271L61 700L205 700L205 270Q205 197 237 160Q269 123 327 123Q385 123 417 159.50Q449 196 449 267L449 700L592 700L592 274M385 747L283 747L159 869L277 923L385 747Z"  horiz-adv-x="654" vert-adv-y="1000"  />

      
      <glyph glyph-name="unida" unicode="&#xda;" d="M592 274Q592 134 521 62Q450-10 326-10Q202-10 131.50 61.50Q61 133 61 271L61 700L205 700L205 270Q205 197 237 160Q269 123 327 123Q385 123 417 159.50Q449 196 449 267L449 700L592 700L592 274M494 869L370 747L268 747L376 923L494 869Z"  horiz-adv-x="654" vert-adv-y="1000"  />

      
      <glyph glyph-name="unidb" unicode="&#xdb;" d="M592 274Q592 134 521 62Q450-10 326-10Q202-10 131.50 61.50Q61 133 61 271L61 700L205 700L205 270Q205 197 237 160Q269 123 327 123Q385 123 417 159.50Q449 196 449 267L449 700L592 700L592 274M500 750L397 750L326 829L255 750L154 750L262 907L392 907L500 750Z"  horiz-adv-x="654" vert-adv-y="1000"  />

      
      <glyph glyph-name="unidc" unicode="&#xdc;" d="M592 274Q592 134 521 62Q450-10 326-10Q202-10 131.50 61.50Q61 133 61 271L61 700L205 700L205 270Q205 197 237 160Q269 123 327 123Q385 123 417 159.50Q449 196 449 267L449 700L592 700L592 274M494 753L360 753L360 878L494 878L494 753M294 753L160 753L160 878L294 878L294 753Z"  horiz-adv-x="654" vert-adv-y="1000"  />

      
      <glyph glyph-name="unidd" unicode="&#xdd;" d="M607 700L380 278L380 0L235 0L235 276L8 700L172 700L309 425L448 700L607 700M478 869L354 747L252 747L360 923L478 869Z"  horiz-adv-x="616" vert-adv-y="1000"  />

      
      <glyph glyph-name="unide" unicode="&#xde;" d="M557 358Q557 242 484 178Q411 114 296 112L214 112L214 0L69 0L69 700L214 700L214 599L306 599Q419 599 488 535Q557 471 557 358M411 355Q411 410 381 439Q351 468 298 468L214 468L214 242L299 242Q350 242 380.50 273Q411 304 411 355Z"  horiz-adv-x="586" vert-adv-y="1000"  />

      
      <glyph glyph-name="unidf" unicode="&#xdf;" d="M518 200Q518 103 451.50 49.50Q385-4 269-2L269 107Q322 110 350 135.50Q378 161 378 205Q378 246 348.50 272.50Q319 299 269 307L269 403Q346 453 346 525L346 527Q346 564 327 585.50Q308 607 275 607Q240 607 219 579.50Q198 552 198 506L198 0L57 0L57 501Q57 606 117 667Q177 728 281 728Q376 728 430 675Q484 622 484 542L484 539Q484 435 398 376Q518 323 518 202L518 200Z"  horiz-adv-x="554" vert-adv-y="1000"  />

      
      <glyph glyph-name="unie0" unicode="&#xe0;" d="M467 0L328 0L328 57Q276-9 189-9Q120-9 74.50 34Q29 77 29 152L29 159Q29 244 79.50 287Q130 330 216 330Q276 330 329 309L329 324Q329 418 226 418Q167 418 96 390L69 505Q153 542 249 542Q358 542 412.50 486Q467 430 467 325L467 0M330 175L330 221Q296 238 251 238Q211 238 188.50 219.50Q166 201 166 166L166 159Q166 127 185 110Q204 93 235 93Q277 93 303.50 115.50Q330 138 330 175M320 593L218 593L94 715L212 769L320 593Z"  horiz-adv-x="519" vert-adv-y="1000"  />

      
      <glyph glyph-name="unie1" unicode="&#xe1;" d="M467 0L328 0L328 57Q276-9 189-9Q120-9 74.50 34Q29 77 29 152L29 159Q29 244 79.50 287Q130 330 216 330Q276 330 329 309L329 324Q329 418 226 418Q167 418 96 390L69 505Q153 542 249 542Q358 542 412.50 486Q467 430 467 325L467 0M330 175L330 221Q296 238 251 238Q211 238 188.50 219.50Q166 201 166 166L166 159Q166 127 185 110Q204 93 235 93Q277 93 303.50 115.50Q330 138 330 175M417 715L293 593L191 593L299 769L417 715Z"  horiz-adv-x="519" vert-adv-y="1000"  />

      
      <glyph glyph-name="unie2" unicode="&#xe2;" d="M467 0L328 0L328 57Q276-9 189-9Q120-9 74.50 34Q29 77 29 152L29 159Q29 244 79.50 287Q130 330 216 330Q276 330 329 309L329 324Q329 418 226 418Q167 418 96 390L69 505Q153 542 249 542Q358 542 412.50 486Q467 430 467 325L467 0M330 175L330 221Q296 238 251 238Q211 238 188.50 219.50Q166 201 166 166L166 159Q166 127 185 110Q204 93 235 93Q277 93 303.50 115.50Q330 138 330 175M429 593L326 593L255 672L184 593L83 593L191 750L321 750L429 593Z"  horiz-adv-x="519" vert-adv-y="1000"  />

      
      <glyph glyph-name="unie3" unicode="&#xe3;" d="M467 0L328 0L328 57Q276-9 189-9Q120-9 74.50 34Q29 77 29 152L29 159Q29 244 79.50 287Q130 330 216 330Q276 330 329 309L329 324Q329 418 226 418Q167 418 96 390L69 505Q153 542 249 542Q358 542 412.50 486Q467 430 467 325L467 0M330 175L330 221Q296 238 251 238Q211 238 188.50 219.50Q166 201 166 166L166 159Q166 127 185 110Q204 93 235 93Q277 93 303.50 115.50Q330 138 330 175M447 720Q419 591 334 591Q302 591 247 615Q211 632 196 632Q177 632 167 621Q157 610 146 583L70 606Q100 735 183 735Q219 735 269 712Q301 695 322 695Q341 695 351 706.50Q361 718 371 744L447 720Z"  horiz-adv-x="519" vert-adv-y="1000"  />

      
      <glyph glyph-name="unie4" unicode="&#xe4;" d="M467 0L328 0L328 57Q276-9 189-9Q120-9 74.50 34Q29 77 29 152L29 159Q29 244 79.50 287Q130 330 216 330Q276 330 329 309L329 324Q329 418 226 418Q167 418 96 390L69 505Q153 542 249 542Q358 542 412.50 486Q467 430 467 325L467 0M330 175L330 221Q296 238 251 238Q211 238 188.50 219.50Q166 201 166 166L166 159Q166 127 185 110Q204 93 235 93Q277 93 303.50 115.50Q330 138 330 175M423 596L289 596L289 721L423 721L423 596M223 596L89 596L89 721L223 721L223 596Z"  horiz-adv-x="519" vert-adv-y="1000"  />

      
      <glyph glyph-name="unie5" unicode="&#xe5;" d="M467 0L328 0L328 57Q276-9 189-9Q120-9 74.50 34Q29 77 29 152L29 159Q29 244 79.50 287Q130 330 216 330Q276 330 329 309L329 324Q329 418 226 418Q167 418 96 390L69 505Q153 542 249 542Q358 542 412.50 486Q467 430 467 325L467 0M330 175L330 221Q296 238 251 238Q211 238 188.50 219.50Q166 201 166 166L166 159Q166 127 185 110Q204 93 235 93Q277 93 303.50 115.50Q330 138 330 175M370 705L370 702Q370 656 335.50 621.50Q301 587 254 587Q207 587 172 621.50Q137 656 137 702L137 705Q137 752 172 786.50Q207 821 254 821Q301 821 335.50 786.50Q370 752 370 705M310 703L310 705Q310 729 293.50 747Q277 765 254 765Q230 765 213 747Q196 729 196 705L196 703Q196 680 213.50 661.50Q231 643 254 643Q277 643 293.50 661Q310 679 310 703Z"  horiz-adv-x="519" vert-adv-y="1000"  />

      
      <glyph glyph-name="unie6" unicode="&#xe6;" d="M206-9Q125-9 77 34.50Q29 78 29 155L29 160Q29 245 79.50 287.50Q130 330 216 330Q276 330 329 309L329 324Q329 418 226 418Q167 418 96 390L69 505Q153 542 249 542Q361 542 411 477Q470 545 563 545Q672 545 730.50 465.50Q789 386 789 261L788 214L467 214Q486 107 583 107Q644 107 703 157L766 71Q692-11 577-11Q460-11 392 76Q310-9 206-9M237 95Q299 95 350 152Q339 182 334 221Q295 238 251 238Q166 238 166 166L166 162Q166 129 185 112Q204 95 237 95M465 309L652 309Q647 365 623.50 397Q600 429 560 429Q521 429 496.50 398Q472 367 465 309Z"  horiz-adv-x="825" vert-adv-y="1000"  />

      
      <glyph glyph-name="unie7" unicode="&#xe7;" d="M208 0Q130 23 83 93.50Q36 164 36 261L36 272Q36 391 106 468Q176 545 283 545Q390 545 455 478L391 372Q342 419 287 419Q239 419 208 379Q177 339 177 274L177 262Q177 195 208.50 155Q240 115 292 115Q344 115 396 162L458 64Q393-3 307-10L244-163L125-115L208 0Z"  horiz-adv-x="485" vert-adv-y="1000"  />

      
      <glyph glyph-name="unie8" unicode="&#xe8;" d="M498 261Q498 234 496 214L176 214Q195 107 292 107Q355 107 411 157L475 71Q401-11 287-11Q178-11 106.50 64Q35 139 35 261L35 271Q35 390 101.50 467.50Q168 545 270 545Q380 545 439 465.50Q498 386 498 261M361 309Q356 365 332.50 397Q309 429 270 429Q231 429 206.50 398Q182 367 175 309L361 309M321 593L219 593L95 715L213 769L321 593Z"  horiz-adv-x="534" vert-adv-y="1000"  />

      
      <glyph glyph-name="unie9" unicode="&#xe9;" d="M498 261Q498 234 496 214L176 214Q195 107 292 107Q355 107 411 157L475 71Q401-11 287-11Q178-11 106.50 64Q35 139 35 261L35 271Q35 390 101.50 467.50Q168 545 270 545Q380 545 439 465.50Q498 386 498 261M361 309Q356 365 332.50 397Q309 429 270 429Q231 429 206.50 398Q182 367 175 309L361 309M438 715L314 593L212 593L320 769L438 715Z"  horiz-adv-x="534" vert-adv-y="1000"  />

      
      <glyph glyph-name="uniea" unicode="&#xea;" d="M498 261Q498 234 496 214L176 214Q195 107 292 107Q355 107 411 157L475 71Q401-11 287-11Q178-11 106.50 64Q35 139 35 261L35 271Q35 390 101.50 467.50Q168 545 270 545Q380 545 439 465.50Q498 386 498 261M361 309Q356 365 332.50 397Q309 429 270 429Q231 429 206.50 398Q182 367 175 309L361 309M442 593L339 593L268 672L197 593L96 593L204 750L334 750L442 593Z"  horiz-adv-x="534" vert-adv-y="1000"  />

      
      <glyph glyph-name="unieb" unicode="&#xeb;" d="M498 261Q498 234 496 214L176 214Q195 107 292 107Q355 107 411 157L475 71Q401-11 287-11Q178-11 106.50 64Q35 139 35 261L35 271Q35 390 101.50 467.50Q168 545 270 545Q380 545 439 465.50Q498 386 498 261M361 309Q356 365 332.50 397Q309 429 270 429Q231 429 206.50 398Q182 367 175 309L361 309M436 596L302 596L302 721L436 721L436 596M236 596L102 596L102 721L236 721L236 596Z"  horiz-adv-x="534" vert-adv-y="1000"  />

      
      <glyph glyph-name="uniec" unicode="&#xec;" d="M204 0L62 0L62 536L204 536L204 0M190 593L88 593L-36 715L82 769L190 593Z"  horiz-adv-x="267" vert-adv-y="1000"  />

      
      <glyph glyph-name="unied" unicode="&#xed;" d="M204 0L62 0L62 536L204 536L204 0M300 715L176 593L74 593L182 769L300 715Z"  horiz-adv-x="267" vert-adv-y="1000"  />

      
      <glyph glyph-name="uniee" unicode="&#xee;" d="M204 0L62 0L62 536L204 536L204 0M307 593L204 593L133 672L62 593L-39 593L69 750L199 750L307 593Z"  horiz-adv-x="267" vert-adv-y="1000"  />

      
      <glyph glyph-name="unief" unicode="&#xef;" d="M204 0L62 0L62 536L204 536L204 0M301 596L167 596L167 721L301 721L301 596M101 596L-33 596L-33 721L101 721L101 596Z"  horiz-adv-x="267" vert-adv-y="1000"  />

      
      <glyph glyph-name="unif0" unicode="&#xf0;" d="M527 251Q527 135 458.50 62Q390-11 277-11Q172-11 104 59.50Q36 130 36 241L36 246Q36 351 90.50 414Q145 477 230 477Q290 477 342 440L266 556L165 511L113 586L218 633L161 722L314 722L335 685L423 724L475 648L383 608L448 507Q527 380 527 256L527 251M388 239L388 243Q388 303 358.50 338Q329 373 281 373Q233 373 204 338.50Q175 304 175 243L175 239Q175 179 204.50 144Q234 109 282 109Q331 109 359.50 143.50Q388 178 388 239Z"  horiz-adv-x="565" vert-adv-y="1000"  />

      
      <glyph glyph-name="unif1" unicode="&#xf1;" d="M496 0L354 0L354 323Q354 369 334 393.50Q314 418 278 418Q241 418 220 393.50Q199 369 199 323L199 0L57 0L57 536L199 536L199 464Q258 546 337 546Q413 546 454.50 497.50Q496 449 496 365L496 0M468 720Q440 591 355 591Q323 591 268 615Q232 632 217 632Q198 632 188 621Q178 610 167 583L91 606Q121 735 204 735Q240 735 290 712Q322 695 343 695Q362 695 372 706.50Q382 718 392 744L468 720Z"  horiz-adv-x="550" vert-adv-y="1000"  />

      
      <glyph glyph-name="unif2" unicode="&#xf2;" d="M542 262Q542 143 470 66Q398-11 288-11Q179-11 107.50 65.50Q36 142 36 261L36 272Q36 391 108 468Q180 545 290 545Q399 545 470.50 468.50Q542 392 542 273L542 262M401 260L401 272Q401 338 370 380Q339 422 288 422Q236 422 206 381Q176 340 176 274L176 262Q176 196 207.50 154Q239 112 290 112Q341 112 371 153Q401 194 401 260M342 593L240 593L116 715L234 769L342 593Z"  horiz-adv-x="578" vert-adv-y="1000"  />

      
      <glyph glyph-name="unif3" unicode="&#xf3;" d="M542 262Q542 143 470 66Q398-11 288-11Q179-11 107.50 65.50Q36 142 36 261L36 272Q36 391 108 468Q180 545 290 545Q399 545 470.50 468.50Q542 392 542 273L542 262M401 260L401 272Q401 338 370 380Q339 422 288 422Q236 422 206 381Q176 340 176 274L176 262Q176 196 207.50 154Q239 112 290 112Q341 112 371 153Q401 194 401 260M461 715L337 593L235 593L343 769L461 715Z"  horiz-adv-x="578" vert-adv-y="1000"  />

      
      <glyph glyph-name="unif4" unicode="&#xf4;" d="M542 262Q542 143 470 66Q398-11 288-11Q179-11 107.50 65.50Q36 142 36 261L36 272Q36 391 108 468Q180 545 290 545Q399 545 470.50 468.50Q542 392 542 273L542 262M401 260L401 272Q401 338 370 380Q339 422 288 422Q236 422 206 381Q176 340 176 274L176 262Q176 196 207.50 154Q239 112 290 112Q341 112 371 153Q401 194 401 260M462 593L359 593L288 672L217 593L116 593L224 750L354 750L462 593Z"  horiz-adv-x="578" vert-adv-y="1000"  />

      
      <glyph glyph-name="unif5" unicode="&#xf5;" d="M542 262Q542 143 470 66Q398-11 288-11Q179-11 107.50 65.50Q36 142 36 261L36 272Q36 391 108 468Q180 545 290 545Q399 545 470.50 468.50Q542 392 542 273L542 262M401 260L401 272Q401 338 370 380Q339 422 288 422Q236 422 206 381Q176 340 176 274L176 262Q176 196 207.50 154Q239 112 290 112Q341 112 371 153Q401 194 401 260M477 720Q449 591 364 591Q332 591 277 615Q241 632 226 632Q207 632 197 621Q187 610 176 583L100 606Q130 735 213 735Q249 735 299 712Q331 695 352 695Q371 695 381 706.50Q391 718 401 744L477 720Z"  horiz-adv-x="578" vert-adv-y="1000"  />

      
      <glyph glyph-name="unif6" unicode="&#xf6;" d="M542 262Q542 143 470 66Q398-11 288-11Q179-11 107.50 65.50Q36 142 36 261L36 272Q36 391 108 468Q180 545 290 545Q399 545 470.50 468.50Q542 392 542 273L542 262M401 260L401 272Q401 338 370 380Q339 422 288 422Q236 422 206 381Q176 340 176 274L176 262Q176 196 207.50 154Q239 112 290 112Q341 112 371 153Q401 194 401 260M456 596L322 596L322 721L456 721L456 596M256 596L122 596L122 721L256 721L256 596Z"  horiz-adv-x="578" vert-adv-y="1000"  />

      
      <glyph glyph-name="unif7" unicode="&#xf7;" d="M54 288L54 421L501 421L501 288L54 288M200 500L200 649L349 649L349 500L200 500M200 60L200 209L349 209L349 60L200 60Z"  horiz-adv-x="555" vert-adv-y="1000"  />

      
      <glyph glyph-name="unif8" unicode="&#xf8;" d="M541 272L541 262Q541 143 469 66Q397-11 288-11Q217-11 160 23L136-5L22-5L91 84Q36 156 36 261L36 270Q36 389 108 467Q180 545 289 545Q358 545 416 511L441 542L554 542L484 451Q541 377 541 272M339 406Q317 425 288 425Q236 425 203.50 382Q171 339 171 272L171 262Q171 233 183 206L339 406M406 260L406 271Q406 300 394 329L238 127Q258 108 289 108Q341 108 373.50 150.50Q406 193 406 260Z"  horiz-adv-x="578" vert-adv-y="1000"  />

      
      <glyph glyph-name="unif9" unicode="&#xf9;" d="M492 0L350 0L350 72Q291-10 212-10Q137-10 95.50 38.50Q54 87 54 171L54 536L196 536L196 213Q196 167 215.50 142.50Q235 118 271 118Q308 118 329 142.50Q350 167 350 213L350 536L492 536L492 0M336 593L234 593L110 715L228 769L336 593Z"  horiz-adv-x="550" vert-adv-y="1000"  />

      
      <glyph glyph-name="unifa" unicode="&#xfa;" d="M492 0L350 0L350 72Q291-10 212-10Q137-10 95.50 38.50Q54 87 54 171L54 536L196 536L196 213Q196 167 215.50 142.50Q235 118 271 118Q308 118 329 142.50Q350 167 350 213L350 536L492 536L492 0M437 715L313 593L211 593L319 769L437 715Z"  horiz-adv-x="550" vert-adv-y="1000"  />

      
      <glyph glyph-name="unifb" unicode="&#xfb;" d="M492 0L350 0L350 72Q291-10 212-10Q137-10 95.50 38.50Q54 87 54 171L54 536L196 536L196 213Q196 167 215.50 142.50Q235 118 271 118Q308 118 329 142.50Q350 167 350 213L350 536L492 536L492 0M447 593L344 593L273 672L202 593L101 593L209 750L339 750L447 593Z"  horiz-adv-x="550" vert-adv-y="1000"  />

      
      <glyph glyph-name="unifc" unicode="&#xfc;" d="M492 0L350 0L350 72Q291-10 212-10Q137-10 95.50 38.50Q54 87 54 171L54 536L196 536L196 213Q196 167 215.50 142.50Q235 118 271 118Q308 118 329 142.50Q350 167 350 213L350 536L492 536L492 0M441 596L307 596L307 721L441 721L441 596M241 596L107 596L107 721L241 721L241 596Z"  horiz-adv-x="550" vert-adv-y="1000"  />

      
      <glyph glyph-name="unifd" unicode="&#xfd;" d="M512 536L332-5Q305-85 268-119.50Q231-154 166-154Q99-154 44-123L86-17Q119-36 148-36Q182-36 198-1L17 536L165 536L266 178L366 536L512 536M423 715L299 593L197 593L305 769L423 715Z"  horiz-adv-x="529" vert-adv-y="1000"  />

      
      <glyph glyph-name="unife" unicode="&#xfe;" d="M549 260Q549 130 489.50 60Q430-10 344-10Q259-10 199 68L199-151L57-151L57 722L199 722L199 462Q258 546 344 546Q430 546 489.50 475.50Q549 405 549 275L549 260M407 262L407 273Q407 340 377 380.50Q347 421 302 421Q257 421 227 380.50Q197 340 197 273L197 262Q197 195 227 154.50Q257 114 302 114Q347 114 377 154.50Q407 195 407 262Z"  horiz-adv-x="587" vert-adv-y="1000"  />

      
      <glyph glyph-name="uniff" unicode="&#xff;" d="M512 536L332-5Q305-85 268-119.50Q231-154 166-154Q99-154 44-123L86-17Q119-36 148-36Q182-36 198-1L17 536L165 536L266 178L366 536L512 536M431 596L297 596L297 721L431 721L431 596M231 596L97 596L97 721L231 721L231 596Z"  horiz-adv-x="529" vert-adv-y="1000"  />

      
      <glyph glyph-name="uni0131" unicode="&#x0131;" d="M204 0L62 0L62 536L204 536L204 0Z"  horiz-adv-x="267" vert-adv-y="1000"  />

      
      <glyph glyph-name="uni0141" unicode="&#x0141;" d="M525 0L99 0L99 267L33 247L33 381L99 401L99 700L241 700L241 445L405 494L405 360L241 311L241 132L525 132L525 0Z"  horiz-adv-x="552" vert-adv-y="1000"  />

      
      <glyph glyph-name="uni0142" unicode="&#x0142;" d="M236 326L236 0L95 0L95 278L24 253L24 387L95 412L95 722L236 722L236 461L308 485L308 351L236 326Z"  horiz-adv-x="332" vert-adv-y="1000"  />

      
      <glyph glyph-name="uni0152" unicode="&#x0152;" d="M875 0L378 0Q228 0 136 95.50Q44 191 44 345L44 352Q44 506 136.50 603Q229 700 378 700L870 700L870 569L581 569L581 417L834 417L834 287L581 287L581 130L875 130L875 0M437 130L437 568L374 568Q293 568 243.50 512Q194 456 194 354L194 346Q194 243 243.50 186.50Q293 130 374 130L437 130Z"  horiz-adv-x="919" vert-adv-y="1000"  />

      
      <glyph glyph-name="uni0153" unicode="&#x0153;" d="M282-11Q178-11 107 66Q36 143 36 261L36 271Q36 390 108 467.50Q180 545 286 545Q398 545 465 459Q527 545 634 545Q743 545 801.50 465.50Q860 386 860 261L859 214L539 214Q558 107 655 107Q717 107 774 157L837 71Q763-11 648-11Q529-11 464 77Q396-11 282-11M286 112Q336 112 365 153Q394 194 394 261L394 272Q394 339 364 380.50Q334 422 285 422Q235 422 205.50 381Q176 340 176 273L176 262Q176 196 206.50 154Q237 112 286 112M537 309L723 309Q718 365 694.50 397Q671 429 632 429Q551 429 537 309Z"  horiz-adv-x="896" vert-adv-y="1000"  />

      
      <glyph glyph-name="uni0160" unicode="&#x0160;" d="M508 198Q508 102 444 47Q380-8 277-8Q136-8 31 79L95 193Q187 122 274 122Q316 122 340 139Q364 156 364 188Q364 217 341 237Q318 257 246 288Q203 306 177 319Q151 332 123.50 351.50Q96 371 81.50 391Q67 411 57.50 440Q48 469 48 506Q48 597 110.50 652.50Q173 708 271 708Q394 708 485 640L429 521Q342 578 273 578Q235 578 213.50 561Q192 544 192 516Q192 485 214.50 468Q237 451 317 415Q420 369 464 323Q508 277 508 198M445 907L337 750L207 750L99 907L202 907L272 829L343 907L445 907Z"  horiz-adv-x="545" vert-adv-y="1000"  />

      
      <glyph glyph-name="uni0161" unicode="&#x0161;" d="M405 156Q405 76 352.50 33Q300-10 217-10Q110-10 23 54L69 159Q148 104 217 104Q275 104 275 144L275 146Q275 152 273 157.50Q271 163 266 168Q261 173 255.50 177Q250 181 240.50 186Q231 191 223.50 195Q216 199 202 205Q188 211 179 216Q114 245 77 281Q40 317 40 380L40 382Q40 457 91.50 500.50Q143 544 223 544Q313 544 390 496L349 388Q276 430 223 430Q198 430 184.50 420Q171 410 171 394L171 392Q171 386 173 381Q175 376 180 371Q185 366 190 362Q195 358 205 352.50Q215 347 222.50 343Q230 339 243.50 332Q257 325 266 320Q300 303 319.50 291Q339 279 361.50 259Q384 239 394.50 214.50Q405 190 405 158L405 156M394 750L286 593L156 593L48 750L151 750L221 672L292 750L394 750Z"  horiz-adv-x="437" vert-adv-y="1000"  />

      
      <glyph glyph-name="uni0178" unicode="&#x0178;" d="M607 700L380 278L380 0L235 0L235 276L8 700L172 700L309 425L448 700L607 700M475 753L341 753L341 878L475 878L475 753M275 753L141 753L141 878L275 878L275 753Z"  horiz-adv-x="616" vert-adv-y="1000"  />

      
      <glyph glyph-name="uni017D" unicode="&#x017D;" d="M548 0L51 0L51 111L369 571L61 571L61 700L548 700L548 589L230 129L548 129L548 0M475 907L367 750L237 750L129 907L232 907L302 829L373 907L475 907Z"  horiz-adv-x="598" vert-adv-y="1000"  />

      
      <glyph glyph-name="uni017E" unicode="&#x017E;" d="M445 0L39 0L39 100L275 420L46 420L46 536L445 536L445 436L208 116L445 116L445 0M421 750L313 593L183 593L75 750L178 750L248 672L319 750L421 750Z"  horiz-adv-x="481" vert-adv-y="1000"  />

      
      <glyph glyph-name="uni0192" unicode="&#x0192;" d="M446 573Q403 582 387 582Q326 582 317 516L311 465L415 465L415 349L293 349L265 151Q253 68 210.50 31.50Q168-5 89-5Q59-5 32 0L32 118Q48 115 65 115Q119 115 127 173L151 349L91 349L91 465L169 465L180 546Q204 705 355 705Q406 705 446 694L446 573Z"  horiz-adv-x="474" vert-adv-y="1000"  />

      
      <glyph glyph-name="uni02C6" unicode="&#x02C6;" d="M423 593L320 593L249 672L178 593L77 593L185 750L315 750L423 593Z"  horiz-adv-x="500" vert-adv-y="1000"  />

      
      <glyph glyph-name="uni02C7" unicode="&#x02C7;" d="M423 750L315 593L185 593L77 750L180 750L250 672L321 750L423 750Z"  horiz-adv-x="500" vert-adv-y="1000"  />

      
      <glyph glyph-name="uni02D8" unicode="&#x02D8;" d="M420 742Q414 669 367.50 628.50Q321 588 250 588Q179 588 132.50 628.50Q86 669 80 742L175 742Q191 681 250 681Q309 681 325 742L420 742Z"  horiz-adv-x="500" vert-adv-y="1000"  />

      
      <glyph glyph-name="uni02D9" unicode="&#x02D9;" d="M321 587L179 587L179 719L321 719L321 587Z"  horiz-adv-x="500" vert-adv-y="1000"  />

      
      <glyph glyph-name="uni02DA" unicode="&#x02DA;" d="M366 705L366 702Q366 656 331.50 621.50Q297 587 250 587Q203 587 168 621.50Q133 656 133 702L133 705Q133 752 168 786.50Q203 821 250 821Q297 821 331.50 786.50Q366 752 366 705M306 703L306 705Q306 729 289.50 747Q273 765 250 765Q226 765 209 747Q192 729 192 705L192 703Q192 680 209.50 661.50Q227 643 250 643Q273 643 289.50 661Q306 679 306 703Z"  horiz-adv-x="500" vert-adv-y="1000"  />

      
      <glyph glyph-name="uni02DB" unicode="&#x02DB;" d="M369-161Q274-165 224.50-137.50Q175-110 175-53Q175-19 191 13L286 13Q280-8 280-29Q280-59 300-76Q320-93 369-97L369-161Z"  horiz-adv-x="500" vert-adv-y="1000"  />

      
      <glyph glyph-name="uni02DC" unicode="&#x02DC;" d="M438 720Q410 591 325 591Q293 591 238 615Q202 632 187 632Q168 632 158 621Q148 610 137 583L61 606Q91 735 174 735Q210 735 260 712Q292 695 313 695Q332 695 342 706.50Q352 718 362 744L438 720Z"  horiz-adv-x="500" vert-adv-y="1000"  />

      
      <glyph glyph-name="uni02DD" unicode="&#x02DD;" d="M457 715L331 593L233 593L340 769L457 715M271 715L148 593L49 593L155 769L271 715Z"  horiz-adv-x="500" vert-adv-y="1000"  />

      
      <glyph glyph-name="uni03A9" unicode="&#x03A9;" d="M621 0L362 0L362 208Q419 222 448.50 272Q478 322 478 393Q478 474 442.50 527.50Q407 581 340 581Q272 581 235 526.50Q198 472 198 389Q198 319 227 270.50Q256 222 312 208L312 0L53 0L53 126L213 126L213 153Q140 177 96.50 248Q53 319 53 406Q53 545 135.50 628.50Q218 712 340 712Q459 712 540 629Q621 546 621 408Q621 320 577.50 246.50Q534 173 461 153L461 126L621 126L621 0Z"  horiz-adv-x="674" vert-adv-y="1000"  />

      
      <glyph glyph-name="uni03C0" unicode="&#x03C0;" d="M0 0L0 700L500 700L500 0L0 0M81 49L420 49L250 304L81 49M49 96L220 350L49 604L49 96M450 96L450 604L279 350L450 96M250 395L420 650L81 650L250 395Z"  horiz-adv-x="500" vert-adv-y="1000"  />

      
      <glyph glyph-name="uni0401" unicode="&#x0401;" d="M524 0L70 0L70 700L520 700L520 570L213 570L213 417L483 417L483 287L213 287L213 130L524 130L524 0M461 753L327 753L327 878L461 878L461 753M261 753L127 753L127 878L261 878L261 753Z"  horiz-adv-x="568" vert-adv-y="1000"  />

      
      <glyph glyph-name="uni0402" unicode="&#x0402;" d="M686 230Q686 116 620.50 55.50Q555-5 462-5Q406-5 368 12L389 137Q419 132 429 132Q470 132 502.50 156.50Q535 181 535 227Q535 274 510.50 300Q486 326 438 326Q364 326 318 289L318 0L173 0L173 568L28 568L28 700L522 700L522 568L318 568L318 407Q406 452 473 452Q560 452 623 395Q686 338 686 230Z"  horiz-adv-x="737" vert-adv-y="1000"  />

      
      <glyph glyph-name="uni0403" unicode="&#x0403;" d="M214 568L214 0L70 0L70 700L487 700L487 568L214 568M438 872L314 750L212 750L320 926L438 872Z"  horiz-adv-x="509" vert-adv-y="1000"  />

      
      <glyph glyph-name="uni0404" unicode="&#x0404;" d="M356-11Q221-11 133 87Q45 185 45 344L45 355Q45 509 130.50 609.50Q216 710 350 710Q425 710 476 690Q527 670 573 631L514 522Q445 579 366 579Q304 579 259 534.50Q214 490 199 414L434 414L434 290L198 290Q212 211 259 167.50Q306 124 374 124Q446 124 520 184L587 77Q499-11 356-11Z"  horiz-adv-x="617" vert-adv-y="1000"  />

      
      <glyph glyph-name="uni0405" unicode="&#x0405;" d="M508 198Q508 102 444 47Q380-8 277-8Q136-8 31 79L95 193Q187 122 274 122Q316 122 340 139Q364 156 364 188Q364 217 341 237Q318 257 246 288Q203 306 177 319Q151 332 123.50 351.50Q96 371 81.50 391Q67 411 57.50 440Q48 469 48 506Q48 597 110.50 652.50Q173 708 271 708Q394 708 485 640L429 521Q342 578 273 578Q235 578 213.50 561Q192 544 192 516Q192 485 214.50 468Q237 451 317 415Q420 369 464 323Q508 277 508 198Z"  horiz-adv-x="545" vert-adv-y="1000"  />

      
      <glyph glyph-name="uni0406" unicode="&#x0406;" d="M219 0L75 0L75 700L219 700L219 0Z"  horiz-adv-x="295" vert-adv-y="1000"  />

      
      <glyph glyph-name="uni0407" unicode="&#x0407;" d="M219 0L75 0L75 700L219 700L219 0M315 753L181 753L181 878L315 878L315 753M115 753L-19 753L-19 878L115 878L115 753Z"  horiz-adv-x="295" vert-adv-y="1000"  />

      
      <glyph glyph-name="uni0408" unicode="&#x0408;" d="M422 222Q422 108 362 49.50Q302-9 198-9Q89-9 15 67L82 180Q135 127 189 127Q274 127 274 230L274 700L422 700L422 222Z"  horiz-adv-x="483" vert-adv-y="1000"  />

      
      <glyph glyph-name="uni0409" unicode="&#x0409;" d="M445 0L445 568L284 568L284 487Q284 286 262.50 178.50Q241 71 198 32Q155-7 76-7Q47-7-1 2L14 124Q24 121 38 121Q61 121 76 128Q91 135 106 160Q121 185 129.50 231Q138 277 143 357Q148 437 148 553L148 700L589 700L589 467L690 467Q804 467 870 405Q936 343 936 235Q936 123 865 61.50Q794 0 684 0L445 0M589 130L689 130Q737 130 764.50 157.50Q792 185 792 232Q792 283 764.50 309.50Q737 336 688 336L589 336L589 130Z"  horiz-adv-x="964" vert-adv-y="1000"  />

      
      <glyph glyph-name="uni040A" unicode="&#x040A;" d="M589 700L589 445L719 445Q827 445 890.50 386Q954 327 954 224Q954 117 886.50 58.50Q819 0 713 0L445 0L445 311L214 311L214 0L70 0L70 700L214 700L214 445L445 445L445 700L589 700M589 130L718 130Q760 130 785 155Q810 180 810 221Q810 267 785.50 290.50Q761 314 717 314L589 314L589 130Z"  horiz-adv-x="982" vert-adv-y="1000"  />

      
      <glyph glyph-name="uni040B" unicode="&#x040B;" d="M318 568L318 407Q406 452 473 452Q567 452 622 397.50Q677 343 677 227L677 0L533 0L533 197Q533 326 438 326Q364 326 318 289L318 0L173 0L173 568L28 568L28 700L522 700L522 568L318 568Z"  horiz-adv-x="737" vert-adv-y="1000"  />

      
      <glyph glyph-name="uni040C" unicode="&#x040C;" d="M624 0L453 0L279 288L214 206L214 0L70 0L70 700L214 700L214 398L442 700L614 700L379 404L624 0M479 872L355 750L253 750L361 926L479 872Z"  horiz-adv-x="632" vert-adv-y="1000"  />

      
      <glyph glyph-name="uni040E" unicode="&#x040E;" d="M167-6Q100-6 53 25L98 130Q134 115 159 115Q210 115 243 180L10 700L168 700L319 351L457 700L610 700L387 171Q347 75 298.50 34.50Q250-6 167-6M321 743Q257 743 216.50 779.50Q176 816 167 885L249 900Q264 836 321 836Q376 836 392 900L473 885Q464 816 424 779.50Q384 743 321 743Z"  horiz-adv-x="620" vert-adv-y="1000"  />

      
      <glyph glyph-name="uni040F" unicode="&#x040F;" d="M70 0L70 700L213 700L213 133L440 133L440 700L583 700L583 0L395 0L395-131L257-131L257 0L70 0Z"  horiz-adv-x="653" vert-adv-y="1000"  />

      
      <glyph glyph-name="uni0410" unicode="&#x0410;" d="M655 0L506 0L454 152L214 152L162 0L17 0L267 704L405 704L655 0M410 280L334 508L257 280L410 280Z"  horiz-adv-x="672" vert-adv-y="1000"  />

      
      <glyph glyph-name="uni0411" unicode="&#x0411;" d="M70 0L70 700L531 700L531 568L214 568L214 445L344 445Q452 445 515.50 386Q579 327 579 224Q579 117 511.50 58.50Q444 0 338 0L70 0M214 130L343 130Q386 130 410.50 155Q435 180 435 221Q435 267 410.50 290.50Q386 314 342 314L214 314L214 130Z"  horiz-adv-x="614" vert-adv-y="1000"  />

      
      <glyph glyph-name="uni0412" unicode="&#x0412;" d="M589 193Q589 100 520.50 50Q452 0 336 0L70 0L70 700L329 700Q433 700 496 652Q559 604 559 517Q559 413 464 364Q525 339 557 300.50Q589 262 589 197L589 193M416 493Q416 572 318 572L211 572L211 413L311 413Q416 413 416 493M445 209Q445 293 336 293L211 293L211 128L340 128Q390 128 417.50 148.50Q445 169 445 209Z"  horiz-adv-x="624" vert-adv-y="1000"  />

      
      <glyph glyph-name="uni0413" unicode="&#x0413;" d="M214 568L214 0L70 0L70 700L487 700L487 568L214 568Z"  horiz-adv-x="509" vert-adv-y="1000"  />

      
      <glyph glyph-name="uni0414" unicode="&#x0414;" d="M434 568L271 568L271 557Q271 410 257.50 312.50Q244 215 211 132L434 132L434 568M511 0L145 0L131-131L7-131L7 132L62 132Q99 223 115.50 332.50Q132 442 132 613L132 700L578 700L578 132L650 132L632-131L511-131L511 0Z"  horiz-adv-x="668" vert-adv-y="1000"  />

      
      <glyph glyph-name="uni0415" unicode="&#x0415;" d="M524 0L70 0L70 700L520 700L520 570L213 570L213 417L483 417L483 287L213 287L213 130L524 130L524 0Z"  horiz-adv-x="568" vert-adv-y="1000"  />

      
      <glyph glyph-name="uni0416" unicode="&#x0416;" d="M411 0L411 176L346 293L177 0L8 0L241 390L15 700L185 700L411 380L411 700L555 700L555 380L781 700L948 700L725 390L958 0L789 0L619 293L555 176L555 0L411 0Z"  horiz-adv-x="967" vert-adv-y="1000"  />

      
      <glyph glyph-name="uni0417" unicode="&#x0417;" d="M274-10Q128-10 22 77L79 186Q156 123 243 123Q369 123 369 204Q369 248 334.50 271.50Q300 295 239 295L181 295L181 415L237 415Q288 415 323.50 441Q359 467 359 504Q359 541 328.50 560Q298 579 247 579Q165 579 99 518L42 621Q89 666 145 687.50Q201 709 286 709Q381 709 441 657.50Q501 606 501 525Q501 413 392 365Q515 323 515 198Q515 105 448.50 47.50Q382-10 274-10Z"  horiz-adv-x="556" vert-adv-y="1000"  />

      
      <glyph glyph-name="uni0418" unicode="&#x0418;" d="M598 700L598 0L456 0L456 439L203 0L70 0L70 700L212 700L212 267L464 700L598 700Z"  horiz-adv-x="668" vert-adv-y="1000"  />

      
      <glyph glyph-name="uni0419" unicode="&#x0419;" d="M598 700L598 0L456 0L456 439L203 0L70 0L70 700L212 700L212 267L464 700L598 700M338 743Q274 743 233.50 779.50Q193 816 184 885L266 900Q281 836 338 836Q393 836 409 900L490 885Q481 816 441 779.50Q401 743 338 743Z"  horiz-adv-x="668" vert-adv-y="1000"  />

      
      <glyph glyph-name="uni041A" unicode="&#x041A;" d="M624 0L453 0L279 288L214 206L214 0L70 0L70 700L214 700L214 398L442 700L614 700L379 404L624 0Z"  horiz-adv-x="632" vert-adv-y="1000"  />

      
      <glyph glyph-name="uni041B" unicode="&#x041B;" d="M38 121Q61 121 76 128Q91 135 106 160Q121 185 129.50 231Q138 277 143 357Q148 437 148 553L148 700L589 700L589 0L445 0L445 568L284 568L284 487Q284 286 262.50 178.50Q241 71 198 32Q155-7 76-7Q47-7-1 2L14 124Q24 121 38 121Z"  horiz-adv-x="659" vert-adv-y="1000"  />

      
      <glyph glyph-name="uni041C" unicode="&#x041C;" d="M684 0L542 0L542 447L377 158L374 158L210 444L210 0L70 0L70 700L222 700L376 416L531 700L684 700L684 0Z"  horiz-adv-x="753" vert-adv-y="1000"  />

      
      <glyph glyph-name="uni041D" unicode="&#x041D;" d="M589 0L445 0L445 285L214 285L214 0L70 0L70 700L214 700L214 419L445 419L445 700L589 700L589 0Z"  horiz-adv-x="659" vert-adv-y="1000"  />

      
      <glyph glyph-name="uni041E" unicode="&#x041E;" d="M676 345Q676 189 587 89Q498-11 360-11Q221-11 132.50 88Q44 187 44 343L44 355Q44 512 133 611.50Q222 711 361 711Q499 711 587.50 612Q676 513 676 357L676 345M527 343L527 355Q527 457 480.50 517.50Q434 578 360 578Q285 578 239.50 518.50Q194 459 194 357L194 345Q194 243 240.50 182.50Q287 122 361 122Q436 122 481.50 181.50Q527 241 527 343Z"  horiz-adv-x="721" vert-adv-y="1000"  />

      
      <glyph glyph-name="uni041F" unicode="&#x041F;" d="M70 0L70 700L583 700L583 0L439 0L439 568L214 568L214 0L70 0Z"  horiz-adv-x="653" vert-adv-y="1000"  />

      
      <glyph glyph-name="uni0420" unicode="&#x0420;" d="M558 458Q558 341 484.50 277Q411 213 296 213L214 213L214 0L70 0L70 700L302 700Q420 700 489 635.50Q558 571 558 458M412 455Q412 511 382 540Q352 569 298 569L214 569L214 343L299 343Q351 343 381.50 373.50Q412 404 412 455Z"  horiz-adv-x="583" vert-adv-y="1000"  />

      
      <glyph glyph-name="uni0421" unicode="&#x0421;" d="M583 84Q536 37 482.50 13.50Q429-10 354-10Q219-10 131.50 88Q44 186 44 345L44 354Q44 513 133 611.50Q222 710 361 710Q490 710 578 630L510 513Q437 575 364 575Q289 575 241.50 516Q194 457 194 356L194 346Q194 243 241 184Q288 125 365 125Q440 125 514 189L583 84Z"  horiz-adv-x="617" vert-adv-y="1000"  />

      
      <glyph glyph-name="uni0422" unicode="&#x0422;" d="M522 566L348 566L348 0L203 0L203 566L28 566L28 700L522 700L522 566Z"  horiz-adv-x="551" vert-adv-y="1000"  />

      
      <glyph glyph-name="uni0423" unicode="&#x0423;" d="M167-6Q100-6 53 25L98 130Q134 115 159 115Q210 115 243 180L10 700L168 700L319 351L457 700L610 700L387 171Q347 75 298.50 34.50Q250-6 167-6Z"  horiz-adv-x="620" vert-adv-y="1000"  />

      
      <glyph glyph-name="uni0424" unicode="&#x0424;" d="M340-22L340 55Q201 55 117 138Q33 221 33 351Q33 491 117.50 572.50Q202 654 340 654L340 721L484 721L484 654Q622 654 706.50 572.50Q791 491 791 351Q791 221 707 138Q623 55 484 55L484-22L340-22M340 185L340 524Q267 524 224 480Q181 436 181 355Q181 276 224.50 230.50Q268 185 340 185M484 185Q556 185 599.50 230.50Q643 276 643 355Q643 436 600 480Q557 524 484 524L484 185Z"  horiz-adv-x="825" vert-adv-y="1000"  />

      
      <glyph glyph-name="uni0425" unicode="&#x0425;" d="M606 0L441 0L313 232L184 0L24 0L229 357L32 700L197 700L316 481L437 700L597 700L401 357L606 0Z"  horiz-adv-x="630" vert-adv-y="1000"  />

      
      <glyph glyph-name="uni0426" unicode="&#x0426;" d="M69 0L69 700L214 700L214 132L439 132L439 700L583 700L583 132L653 132L635-131L516-131L516 0L69 0Z"  horiz-adv-x="672" vert-adv-y="1000"  />

      
      <glyph glyph-name="uni0427" unicode="&#x0427;" d="M409 0L409 259Q321 214 254 214Q160 214 105 268.50Q50 323 50 439L50 700L194 700L194 479Q194 350 289 350Q363 350 409 387L409 700L553 700L553 0L409 0Z"  horiz-adv-x="623" vert-adv-y="1000"  />

      
      <glyph glyph-name="uni0428" unicode="&#x0428;" d="M905 700L905 0L70 0L70 700L214 700L214 132L415 132L415 700L559 700L559 132L761 132L761 700L905 700Z"  horiz-adv-x="975" vert-adv-y="1000"  />

      
      <glyph glyph-name="uni0429" unicode="&#x0429;" d="M838-131L838 0L70 0L70 700L214 700L214 132L415 132L415 700L559 700L559 132L761 132L761 700L905 700L905 132L976 132L958-131L838-131Z"  horiz-adv-x="994" vert-adv-y="1000"  />

      
      <glyph glyph-name="uni042A" unicode="&#x042A;" d="M163 0L163 568L24 568L24 700L306 700L306 467L408 467Q522 467 588 405Q654 343 654 235Q654 123 583 61.50Q512 0 402 0L163 0M306 130L407 130Q455 130 482.50 157.50Q510 185 510 232Q510 283 482.50 309.50Q455 336 406 336L306 336L306 130Z"  horiz-adv-x="683" vert-adv-y="1000"  />

      
      <glyph glyph-name="uni042B" unicode="&#x042B;" d="M69 0L69 700L213 700L213 467L315 467Q429 467 495 405Q561 343 561 235Q561 123 490 61.50Q419 0 309 0L69 0M213 130L314 130Q362 130 389.50 157.50Q417 185 417 232Q417 283 389.50 309.50Q362 336 313 336L213 336L213 130M626 0L626 700L770 700L770 0L626 0Z"  horiz-adv-x="840" vert-adv-y="1000"  />

      
      <glyph glyph-name="uni042C" unicode="&#x042C;" d="M309 0L69 0L69 700L213 700L213 467L315 467Q429 467 495 405Q561 343 561 235Q561 123 490 61.50Q419 0 309 0M213 130L314 130Q362 130 389.50 157.50Q417 185 417 232Q417 283 389.50 309.50Q362 336 313 336L213 336L213 130Z"  horiz-adv-x="589" vert-adv-y="1000"  />

      
      <glyph glyph-name="uni042D" unicode="&#x042D;" d="M261-11Q118-11 30 77L97 184Q171 124 243 124Q311 124 358 167.50Q405 211 419 290L183 290L183 414L418 414Q403 490 358 534.50Q313 579 251 579Q172 579 103 522L44 631Q90 670 141 690Q192 710 267 710Q401 710 486.50 609.50Q572 509 572 355L572 344Q572 185 484 87Q396-11 261-11Z"  horiz-adv-x="617" vert-adv-y="1000"  />

      
      <glyph glyph-name="uni042E" unicode="&#x042E;" d="M586-11Q468-11 389.50 69.50Q311 150 295 286L214 286L214 0L69 0L69 700L214 700L214 417L296 417Q313 550 392 630.50Q471 711 587 711Q717 711 799 612Q881 513 881 355L881 344Q881 187 799 88Q717-11 586-11M587 120Q650 120 691 180.50Q732 241 732 350Q732 457 690 518Q648 579 586 579Q523 579 481.50 518.50Q440 458 440 350Q440 241 481.50 180.50Q523 120 587 120Z"  horiz-adv-x="925" vert-adv-y="1000"  />

      
      <glyph glyph-name="uni042F" unicode="&#x042F;" d="M555 700L555 0L410 0L410 230L319 230L190 0L25 0L173 260Q43 316 43 471Q43 574 104 633Q165 692 272 697Q338 700 405 700L555 700M299 358L410 358L410 568L383 568Q348 568 330.50 567.50Q313 567 285.50 564Q258 561 244.50 554.50Q231 548 216 536.50Q201 525 195 506Q189 487 189 461Q189 412 218.50 385Q248 358 299 358Z"  horiz-adv-x="625" vert-adv-y="1000"  />

      
      <glyph glyph-name="uni0430" unicode="&#x0430;" d="M467 0L328 0L328 57Q276-9 189-9Q120-9 74.50 34Q29 77 29 152L29 159Q29 244 79.50 287Q130 330 216 330Q276 330 329 309L329 324Q329 418 226 418Q167 418 96 390L69 505Q153 542 249 542Q358 542 412.50 486Q467 430 467 325L467 0M330 175L330 221Q296 238 251 238Q211 238 188.50 219.50Q166 201 166 166L166 159Q166 127 185 110Q204 93 235 93Q277 93 303.50 115.50Q330 138 330 175Z"  horiz-adv-x="519" vert-adv-y="1000"  />

      
      <glyph glyph-name="uni0431" unicode="&#x0431;" d="M314 519Q405 519 470.50 446Q536 373 536 260L536 256Q536 138 466.50 63.50Q397-11 289-11Q172-11 108 67Q44 145 44 290L44 304Q44 421 59.50 496.50Q75 572 123 620Q150 647 197.50 665Q245 683 285.50 690.50Q326 698 392.50 708Q459 718 490 724L509 607Q430 591 366 581Q242 563 197 531Q152 499 148 437Q165 467 207.50 493Q250 519 314 519M395 252L395 264Q395 326 366 365Q337 404 289 404Q240 404 212 366Q184 328 184 266L184 254Q184 193 213.50 153.50Q243 114 291 114Q339 114 367 152Q395 190 395 252Z"  horiz-adv-x="571" vert-adv-y="1000"  />

      
      <glyph glyph-name="uni0432" unicode="&#x0432;" d="M57 536L295 536Q375 536 423 499.50Q471 463 471 396Q471 317 399 279Q445 260 469.50 229.50Q494 199 494 148Q494 77 441.50 38.50Q389 0 301 0L57 0L57 536M339 374Q339 428 272 428L199 428L199 319L268 319Q339 319 339 374M351 167Q351 225 276 225L199 225L199 112L279 112Q351 112 351 167Z"  horiz-adv-x="530" vert-adv-y="1000"  />

      
      <glyph glyph-name="uni0433" unicode="&#x0433;" d="M57 0L57 536L401 536L401 414L199 414L199 0L57 0Z"  horiz-adv-x="415" vert-adv-y="1000"  />

      
      <glyph glyph-name="uni0434" unicode="&#x0434;" d="M353 416L238 416Q238 222 199 123L353 123L353 416M421 0L132 0L120-113L2-113L2 123L55 123Q104 233 104 480L104 536L495 536L495 123L556 123Q554 79 547.50-2Q541-83 539-113L421-113L421 0Z"  horiz-adv-x="570" vert-adv-y="1000"  />

      
      <glyph glyph-name="uni0435" unicode="&#x0435;" d="M498 261Q498 234 496 214L176 214Q195 107 292 107Q355 107 411 157L475 71Q401-11 287-11Q178-11 106.50 64Q35 139 35 261L35 271Q35 390 101.50 467.50Q168 545 270 545Q380 545 439 465.50Q498 386 498 261M361 309Q356 365 332.50 397Q309 429 270 429Q231 429 206.50 398Q182 367 175 309L361 309Z"  horiz-adv-x="534" vert-adv-y="1000"  />

      
      <glyph glyph-name="uni0436" unicode="&#x0436;" d="M462 0L320 0L320 132L275 220L157 0L2 0L174 303L6 536L166 536L320 308L320 536L462 536L462 308L616 536L776 536L608 303L780 0L625 0L507 220L462 132L462 0Z"  horiz-adv-x="783" vert-adv-y="1000"  />

      
      <glyph glyph-name="uni0437" unicode="&#x0437;" d="M219-11Q94-11 16 53L65 154Q130 107 201 107Q233 107 254.50 123Q276 139 276 164Q276 190 252 207Q228 224 186 224L141 224L141 316L185 316Q221 316 243.50 333.50Q266 351 266 376Q266 399 245.50 412Q225 425 193 425Q130 425 76 380Q68 397 30 477Q108 543 223 543Q301 543 353 503.50Q405 464 405 400Q405 315 325 279Q415 245 415 152Q415 80 359.50 34.50Q304-11 219-11Z"  horiz-adv-x="452" vert-adv-y="1000"  />

      
      <glyph glyph-name="uni0438" unicode="&#x0438;" d="M503 536L503 0L366 0L366 305L192 0L57 0L57 536L195 536L195 234L368 536L503 536Z"  horiz-adv-x="561" vert-adv-y="1000"  />

      
      <glyph glyph-name="uni0439" unicode="&#x0439;" d="M503 536L503 0L366 0L366 305L192 0L57 0L57 536L195 536L195 234L368 536L503 536M382.50 621.50Q382.50 621.50 362.75 603.25Q343 585 281 585Q219 585 179 621.50Q139 658 130 725L211 739Q226 677 281 677Q334 677 351 739L431 725Q422 658 382.50 621.50Z"  horiz-adv-x="561" vert-adv-y="1000"  />

      
      <glyph glyph-name="uni043A" unicode="&#x043A;" d="M57 0L57 536L199 536L199 317L356 536L516 536L350 314L533 0L369 0L254 204L199 134L199 0L57 0Z"  horiz-adv-x="535" vert-adv-y="1000"  />

      
      <glyph glyph-name="uni043B" unicode="&#x043B;" d="M45 118Q66 118 78 131Q90 144 101 185.50Q112 227 116.50 312.50Q121 398 121 536L508 536L508 0L366 0L366 416L254 416Q254 250 235.50 158Q217 66 180.50 30.50Q144-5 80-5Q31-5-8 8L11 123Q19 118 45 118Z"  horiz-adv-x="566" vert-adv-y="1000"  />

      
      <glyph glyph-name="uni043C" unicode="&#x043C;" d="M57 0L57 536L200 536L321 322L444 536L587 536L587 0L445 0L445 319L320 107L196 317L196 0L57 0Z"  horiz-adv-x="644" vert-adv-y="1000"  />

      
      <glyph glyph-name="uni043D" unicode="&#x043D;" d="M496 536L496 0L354 0L354 208L199 208L199 0L57 0L57 536L199 536L199 328L354 328L354 536L496 536Z"  horiz-adv-x="553" vert-adv-y="1000"  />

      
      <glyph glyph-name="uni043E" unicode="&#x043E;" d="M542 262Q542 143 470 66Q398-11 288-11Q179-11 107.50 65.50Q36 142 36 261L36 272Q36 391 108 468Q180 545 290 545Q399 545 470.50 468.50Q542 392 542 273L542 262M401 260L401 272Q401 338 370 380Q339 422 288 422Q236 422 206 381Q176 340 176 274L176 262Q176 196 207.50 154Q239 112 290 112Q341 112 371 153Q401 194 401 260Z"  horiz-adv-x="578" vert-adv-y="1000"  />

      
      <glyph glyph-name="uni043F" unicode="&#x043F;" d="M493 536L493 0L351 0L351 416L199 416L199 0L57 0L57 536L493 536Z"  horiz-adv-x="551" vert-adv-y="1000"  />

      
      <glyph glyph-name="uni0440" unicode="&#x0440;" d="M549 260Q549 130 490 60Q431-10 344-10Q261-10 199 68L199-151L57-151L57 536L199 536L199 462Q257 546 344 546Q430 546 489.50 476Q549 406 549 276L549 260M408 262L408 274Q408 341 377.50 381.50Q347 422 302 422Q257 422 227.50 381.50Q198 341 198 274L198 262Q198 195 227.50 154.50Q257 114 302 114Q348 114 378 154.50Q408 195 408 262Z"  horiz-adv-x="587" vert-adv-y="1000"  />

      
      <glyph glyph-name="uni0441" unicode="&#x0441;" d="M458 64Q422 27 381.50 8Q341-11 281-11Q174-11 105 65.50Q36 142 36 261L36 272Q36 391 106 468Q176 545 283 545Q390 545 455 478L391 372Q342 419 287 419Q239 419 208 379Q177 339 177 274L177 262Q177 195 208.50 155Q240 115 292 115Q344 115 396 162L458 64Z"  horiz-adv-x="485" vert-adv-y="1000"  />

      
      <glyph glyph-name="uni0442" unicode="&#x0442;" d="M148 0L148 414L13 414L13 536L426 536L426 414L292 414L292 0L148 0Z"  horiz-adv-x="440" vert-adv-y="1000"  />

      
      <glyph glyph-name="uni0443" unicode="&#x0443;" d="M512 536L332-5Q305-85 268-119.50Q231-154 166-154Q99-154 44-123L86-17Q119-36 148-36Q182-36 198-1L17 536L165 536L266 178L366 536L512 536Z"  horiz-adv-x="529" vert-adv-y="1000"  />

      
      <glyph glyph-name="uni0444" unicode="&#x0444;" d="M471 393L471 141Q496 114 526 114Q571 114 595 152.50Q619 191 619 261L619 272Q619 341 595 380.50Q571 420 526 420Q498 420 471 393M328 141L328 393Q301 420 273 420Q228 420 204 380.50Q180 341 180 272L180 261Q180 191 203.50 152.50Q227 114 273 114Q303 114 328 141M471-151L328-151L328 38Q292-7 224-7Q140-7 89 64Q38 135 38 274Q38 404 89 473.50Q140 543 225 543Q287 543 328 492L328 700L471 700L471 492Q510 543 574 543Q659 543 710 473.50Q761 404 761 274L761 260Q761 130 710 61.50Q659-7 575-7Q505-7 471 38L471-151Z"  horiz-adv-x="799" vert-adv-y="1000"  />

      
      <glyph glyph-name="uni0445" unicode="&#x0445;" d="M497 0L346 0L256 168L166 0L18 0L179 273L24 536L174 536L259 379L344 536L491 536L335 275L497 0Z"  horiz-adv-x="516" vert-adv-y="1000"  />

      
      <glyph glyph-name="uni0446" unicode="&#x0446;" d="M419-113L419 0L57 0L57 536L199 536L199 123L351 123L351 536L493 536L493 123L554 123L538-113L419-113Z"  horiz-adv-x="567" vert-adv-y="1000"  />

      
      <glyph glyph-name="uni0447" unicode="&#x0447;" d="M334 0L334 187Q276 157 205 157Q133 157 88.50 199Q44 241 44 324L44 536L187 536L187 366Q187 280 252 280Q294 280 334 301L334 536L476 536L476 0L334 0Z"  horiz-adv-x="533" vert-adv-y="1000"  />

      
      <glyph glyph-name="uni0448" unicode="&#x0448;" d="M767 536L767 0L57 0L57 536L199 536L199 123L341 123L341 536L483 536L483 123L625 123L625 536L767 536Z"  horiz-adv-x="824" vert-adv-y="1000"  />

      
      <glyph glyph-name="uni0449" unicode="&#x0449;" d="M693-113L693 0L57 0L57 536L199 536L199 123L341 123L341 536L483 536L483 123L624 123L624 536L767 536L767 123L828 123L812-113L693-113Z"  horiz-adv-x="841" vert-adv-y="1000"  />

      
      <glyph glyph-name="uni044A" unicode="&#x044A;" d="M128 0L128 414L13 414L13 536L270 536L270 358L363 358Q450 358 501 310.50Q552 263 552 180Q552 94 497.50 47Q443 0 359 0L128 0M270 111L339 111Q372 111 390.50 130Q409 149 409 181Q409 252 338 252L270 252L270 111Z"  horiz-adv-x="569" vert-adv-y="1000"  />

      
      <glyph glyph-name="uni044B" unicode="&#x044B;" d="M57 0L57 536L199 536L199 358L292 358Q379 358 430 310.50Q481 263 481 180Q481 94 426.50 47Q372 0 288 0L57 0M199 111L268 111Q301 111 319.50 130Q338 149 338 181Q338 252 267 252L199 252L199 111M541 0L541 536L683 536L683 0L541 0Z"  horiz-adv-x="740" vert-adv-y="1000"  />

      
      <glyph glyph-name="uni044C" unicode="&#x044C;" d="M57 0L57 536L199 536L199 358L292 358Q379 358 430 310.50Q481 263 481 180Q481 94 426.50 47Q372 0 288 0L57 0M199 111L268 111Q301 111 319.50 130Q338 149 338 181Q338 252 267 252L199 252L199 111Z"  horiz-adv-x="498" vert-adv-y="1000"  />

      
      <glyph glyph-name="uni044D" unicode="&#x044D;" d="M206-11Q93-11 22 60L84 158Q133 115 185 115Q232 115 264 141.50Q296 168 308 216L151 216L151 319L308 319Q284 421 191 421Q135 421 88 381L33 479Q106 544 199 544Q309 544 380 468Q451 392 451 272L451 263Q451 143 382 66Q313-11 206-11Z"  horiz-adv-x="488" vert-adv-y="1000"  />

      
      <glyph glyph-name="uni044E" unicode="&#x044E;" d="M500-11Q407-11 341.50 48.50Q276 108 262 207L199 207L199 0L57 0L57 536L199 536L199 328L262 328Q278 425 343.50 485Q409 545 501 545Q607 545 675 468.50Q743 392 743 271L743 262Q743 142 675 65.50Q607-11 500-11M501 111Q549 111 576 153.50Q603 196 603 267Q603 337 574.50 379.50Q546 422 500 422Q452 422 425 380Q398 338 398 267Q398 197 426.50 154Q455 111 501 111Z"  horiz-adv-x="779" vert-adv-y="1000"  />

      
      <glyph glyph-name="uni044F" unicode="&#x044F;" d="M14 0L133 202Q36 245 36 358Q36 451 93 493.50Q150 536 245 536L477 536L477 0L335 0L335 175L272 175L175 0L14 0M253 280L335 280L335 424L310 424Q281 424 267 423.50Q253 423 232.50 419.50Q212 416 202.50 408.50Q193 401 185.50 386.50Q178 372 178 351Q178 317 198 298.50Q218 280 253 280Z"  horiz-adv-x="534" vert-adv-y="1000"  />

      
      <glyph glyph-name="uni0451" unicode="&#x0451;" d="M498 261Q498 234 496 214L176 214Q195 107 292 107Q355 107 411 157L475 71Q401-11 287-11Q178-11 106.50 64Q35 139 35 261L35 271Q35 390 101.50 467.50Q168 545 270 545Q380 545 439 465.50Q498 386 498 261M361 309Q356 365 332.50 397Q309 429 270 429Q231 429 206.50 398Q182 367 175 309L361 309M440 596L306 596L306 721L440 721L440 596M240 596L106 596L106 721L240 721L240 596Z"  horiz-adv-x="534" vert-adv-y="1000"  />

      
      <glyph glyph-name="uni0452" unicode="&#x0452;" d="M338-5Q310-5 278 0L278 112Q287 110 303 110Q354 110 354 166L354 293Q354 339 334 363.50Q314 388 278 388Q241 388 220 363.50Q199 339 199 293L199 0L57 0L57 550L3 550L3 657L57 657L57 722L199 722L199 657L351 657L351 550L199 550L199 434Q258 516 337 516Q413 516 454.50 467.50Q496 419 496 335L496 154Q496-5 338-5Z"  horiz-adv-x="550" vert-adv-y="1000"  />

      
      <glyph glyph-name="uni0453" unicode="&#x0453;" d="M57 0L57 536L401 536L401 414L199 414L199 0L57 0M381 715L257 593L155 593L263 769L381 715Z"  horiz-adv-x="415" vert-adv-y="1000"  />

      
      <glyph glyph-name="uni0454" unicode="&#x0454;" d="M282-11Q175-11 106 66Q37 143 37 263L37 272Q37 392 108 468Q179 544 289 544Q382 544 455 479L400 381Q353 421 297 421Q204 421 180 319L337 319L337 216L180 216Q192 168 224 141.50Q256 115 303 115Q355 115 404 158L466 60Q395-11 282-11Z"  horiz-adv-x="488" vert-adv-y="1000"  />

      
      <glyph glyph-name="uni0455" unicode="&#x0455;" d="M405 156Q405 76 352.50 33Q300-10 217-10Q110-10 23 54L69 159Q148 104 217 104Q275 104 275 144L275 146Q275 152 273 157.50Q271 163 266 168Q261 173 255.50 177Q250 181 240.50 186Q231 191 223.50 195Q216 199 202 205Q188 211 179 216Q114 245 77 281Q40 317 40 380L40 382Q40 457 91.50 500.50Q143 544 223 544Q313 544 390 496L349 388Q276 430 223 430Q198 430 184.50 420Q171 410 171 394L171 392Q171 386 173 381Q175 376 180 371Q185 366 190 362Q195 358 205 352.50Q215 347 222.50 343Q230 339 243.50 332Q257 325 266 320Q300 303 319.50 291Q339 279 361.50 259Q384 239 394.50 214.50Q405 190 405 158L405 156Z"  horiz-adv-x="437" vert-adv-y="1000"  />

      
      <glyph glyph-name="uni0456" unicode="&#x0456;" d="M208 593L60 593L60 722L208 722L208 593M204 0L62 0L62 536L204 536L204 0Z"  horiz-adv-x="267" vert-adv-y="1000"  />

      
      <glyph glyph-name="uni0457" unicode="&#x0457;" d="M301 596L167 596L167 721L301 721L301 596M101 596L-33 596L-33 721L101 721L101 596M204 0L62 0L62 536L204 536L204 0Z"  horiz-adv-x="267" vert-adv-y="1000"  />

      
      <glyph glyph-name="uni0458" unicode="&#x0458;" d="M208 593L60 593L60 722L208 722L208 593M205 5Q205-154 47-154Q19-154-13-149L-13-37Q-4-39 12-39Q63-39 63 17L63 536L205 536L205 5Z"  horiz-adv-x="268" vert-adv-y="1000"  />

      
      <glyph glyph-name="uni0459" unicode="&#x0459;" d="M366 0L366 416L254 416Q254 250 235.50 158Q217 66 180.50 30.50Q144-5 80-5Q31-5-8 8L11 123Q19 118 45 118Q66 118 78 131Q90 144 101 185.50Q112 227 116.50 312.50Q121 398 121 536L508 536L508 358L601 358Q688 358 739 310.50Q790 263 790 180Q790 94 735.50 47Q681 0 597 0L366 0M508 111L577 111Q610 111 628.50 130Q647 149 647 181Q647 252 576 252L508 252L508 111Z"  horiz-adv-x="807" vert-adv-y="1000"  />

      
      <glyph glyph-name="uni045A" unicode="&#x045A;" d="M354 0L354 238L199 238L199 0L57 0L57 536L199 536L199 358L354 358L354 536L496 536L496 358L589 358Q676 358 727 310.50Q778 263 778 180Q778 94 723.50 47Q669 0 585 0L354 0M496 111L565 111Q598 111 616.50 130Q635 149 635 181Q635 252 564 252L496 252L496 111Z"  horiz-adv-x="795" vert-adv-y="1000"  />

      
      <glyph glyph-name="uni045B" unicode="&#x045B;" d="M3 657L57 657L57 722L199 722L199 657L351 657L351 550L199 550L199 434Q258 516 337 516Q413 516 454.50 467.50Q496 419 496 335L496 0L354 0L354 293Q354 339 334 363.50Q314 388 278 388Q241 388 220 363.50Q199 339 199 293L199 0L57 0L57 550L3 550L3 657Z"  horiz-adv-x="550" vert-adv-y="1000"  />

      
      <glyph glyph-name="uni045C" unicode="&#x045C;" d="M57 0L57 536L199 536L199 317L356 536L516 536L350 314L533 0L369 0L254 204L199 134L199 0L57 0M430 715L306 593L204 593L312 769L430 715Z"  horiz-adv-x="535" vert-adv-y="1000"  />

      
      <glyph glyph-name="uni045E" unicode="&#x045E;" d="M512 536L332-5Q305-85 268-119.50Q231-154 166-154Q99-154 44-123L86-17Q119-36 148-36Q182-36 198-1L17 536L165 536L266 178L366 536L512 536M367.50 621.50Q367.50 621.50 347.75 603.25Q328 585 266 585Q204 585 164 621.50Q124 658 115 725L196 739Q211 677 266 677Q319 677 336 739L416 725Q407 658 367.50 621.50Z"  horiz-adv-x="529" vert-adv-y="1000"  />

      
      <glyph glyph-name="uni045F" unicode="&#x045F;" d="M342-113L210-113L210 0L57 0L57 536L199 536L199 123L351 123L351 536L493 536L493 0L342 0L342-113Z"  horiz-adv-x="551" vert-adv-y="1000"  />

      
      <glyph glyph-name="uni0490" unicode="&#x0490;" d="M70 700L350 700L350 831L469 831L487 568L214 568L214 0L70 0L70 700Z"  horiz-adv-x="509" vert-adv-y="1000"  />

      
      <glyph glyph-name="uni0491" unicode="&#x0491;" d="M401 414L199 414L199 0L57 0L57 536L266 536L266 650L385 650L401 414Z"  horiz-adv-x="415" vert-adv-y="1000"  />

      
      <glyph glyph-name="uni2013" unicode="&#x2013;" d="M459 243L46 243L46 377L459 377L459 243Z"  horiz-adv-x="506" vert-adv-y="1000"  />

      
      <glyph glyph-name="uni2014" unicode="&#x2014;" d="M784 243L46 243L46 377L784 377L784 243Z"  horiz-adv-x="831" vert-adv-y="1000"  />

      
      <glyph glyph-name="uni2018" unicode="&#x2018;" d="M238 646Q187 639 163.50 611Q140 583 144 542L206 542L206 389L52 389L52 517Q52 696 226 704L238 646Z"  horiz-adv-x="267" vert-adv-y="1000"  />

      
      <glyph glyph-name="uni2019" unicode="&#x2019;" d="M216 572Q216 393 41 385L29 443Q131 458 123 547L61 547L61 700L216 700L216 572Z"  horiz-adv-x="267" vert-adv-y="1000"  />

      
      <glyph glyph-name="uni201A" unicode="&#x201A;" d="M217 25Q217-153 38-162L27-103Q80-96 104-68.50Q128-41 124 0L62 0L62 153L217 153L217 25Z"  horiz-adv-x="275" vert-adv-y="1000"  />

      
      <glyph glyph-name="uni201C" unicode="&#x201C;" d="M473 646Q422 639 398.50 611Q375 583 379 542L441 542L441 389L286 389L286 517Q286 696 461 704L473 646M238 646Q187 639 163.50 611Q140 583 144 542L206 542L206 389L52 389L52 517Q52 696 226 704L238 646Z"  horiz-adv-x="502" vert-adv-y="1000"  />

      
      <glyph glyph-name="uni201D" unicode="&#x201D;" d="M451 572Q451 393 276 385L264 443Q366 458 358 547L296 547L296 700L451 700L451 572M216 572Q216 393 41 385L29 443Q131 458 123 547L61 547L61 700L216 700L216 572Z"  horiz-adv-x="502" vert-adv-y="1000"  />

      
      <glyph glyph-name="uni201E" unicode="&#x201E;" d="M455 25Q455-153 276-162L264-103Q370-89 362 0L300 0L300 153L455 153L455 25M217 25Q217-153 38-162L27-103Q80-96 104-68.50Q128-41 124 0L62 0L62 153L217 153L217 25Z"  horiz-adv-x="513" vert-adv-y="1000"  />

      
      <glyph glyph-name="uni2020" unicode="&#x2020;" d="M209 508L220 238L137 238L148 508L42 498L42 580L147 569L133 700L224 700L210 569L315 580L315 498L209 508Z"  horiz-adv-x="358" vert-adv-y="1000"  />

      
      <glyph glyph-name="uni2021" unicode="&#x2021;" d="M325 119L220 129L234 0L143 0L157 129L52 119L52 201L157 190L146 350L157 508L52 498L52 580L157 569L143 700L234 700L220 569L325 580L325 498L219 508L230 350L219 190L325 201L325 119Z"  horiz-adv-x="377" vert-adv-y="1000"  />

      
      <glyph glyph-name="uni2022" unicode="&#x2022;" d="M325 244.50Q325 244.50 305 223.75Q285 203 227 203Q169 203 129.50 244.50Q90 286 90 350L90 356Q90 419 129.50 460.50Q169 502 227 502Q285 502 325 460.50Q365 419 365 356L365 350Q365 286 325 244.50Z"  horiz-adv-x="455" vert-adv-y="1000"  />

      
      <glyph glyph-name="uni2026" unicode="&#x2026;" d="M750 0L598 0L598 151L750 151L750 0M480 0L328 0L328 151L480 151L480 0M210 0L58 0L58 151L210 151L210 0Z"  horiz-adv-x="808" vert-adv-y="1000"  />

      
      </font>
</defs>
</svg>
