<?xml version="1.0" standalone="no"?>
  <!DOCTYPE svg PUBLIC "-//W3C//DTD SVG 1.1//EN" "http://www.w3.org/Graphics/SVG/1.1/DTD/svg11.dtd" >
  <svg>
  <metadata>
  Created by font-carrier
  </metadata>
  <defs>
  <font id="GothamPro-BlackItalic" horiz-adv-x="1349" vert-adv-y="1349" >
    <font-face
      
      font-family="Gotham Pro Black"
      
      font-weight="400"
      
      font-stretch="normal"
      
      units-per-em="1000"
      
      ascent="730"
      
      descent="-180"
      
    />
      <missing-glyph />

      

      
      <glyph glyph-name="uni21" unicode="&#x21;" d="M-10 0L35 170L233 170L187 0L-10 0M100 228L145 615L168 700L385 700L361 615L199 228L100 228Z"  horiz-adv-x="322" vert-adv-y="1000"  />

      
      <glyph glyph-name="uni22" unicode="&#x22;" d="M67 341L162 700L366 700L365 695L167 341L67 341M326 341L422 700L626 700L625 695L427 341L326 341Z"  horiz-adv-x="540" vert-adv-y="1000"  />

      
      <glyph glyph-name="uni23" unicode="&#x23;" d="M38 0L85 135L3 135L39 296L142 296L181 408L87 408L123 569L238 569L284 700L429 700L383 569L509 569L555 700L700 700L654 569L736 569L700 408L598 408L558 296L653 296L617 135L502 135L454 0L309 0L357 135L230 135L183 0L38 0M281 292L416 292L458 412L323 412L281 292Z"  horiz-adv-x="697" vert-adv-y="1000"  />

      
      <glyph glyph-name="uni24" unicode="&#x24;" d="M177-98L208 9Q66 35-19 122L97 243Q175 178 257 161L294 283Q197 313 149.50 355.50Q102 398 102 473Q102 570 185.50 635Q269 700 404 700L413 700L430 758L534 758L514 689Q619 665 692 601L585 471Q533 514 466 535L431 420Q525 389 571.50 346.50Q618 304 618 230Q618 128 533.50 64Q449 0 314 0L309 0L281-98L177-98M348 152Q429 155 429 209Q429 225 418.50 236Q408 247 380 258L348 152M345 446L375 549Q334 549 313 533.50Q292 518 292 494Q292 477 303.50 466.50Q315 456 345 446Z"  horiz-adv-x="656" vert-adv-y="1000"  />

      
      <glyph glyph-name="uni25" unicode="&#x25;" d="M68 0L757 700L898 700L208 0L68 0M683-10Q605-10 560.50 35.50Q516 81 516 153Q516 238 573.50 304Q631 370 719 370Q797 370 841.50 324.50Q886 279 886 207Q886 122 828.50 56Q771-10 683-10M688 95Q724 95 747 128Q770 161 770 202Q770 230 754.50 247.50Q739 265 714 265Q678 265 655 232Q632 199 632 158Q632 130 647.50 112.50Q663 95 688 95M247 330Q169 330 124 375.50Q79 421 79 493Q79 578 136.50 644Q194 710 282 710Q360 710 404.50 664.50Q449 619 449 547Q449 462 391.50 396Q334 330 247 330M252 435Q287 435 310 468Q333 501 333 542Q333 570 318 587.50Q303 605 277 605Q242 605 219 572Q196 539 196 498Q196 470 211 452.50Q226 435 252 435Z"  horiz-adv-x="923" vert-adv-y="1000"  />

      
      <glyph glyph-name="uni26" unicode="&#x26;" d="M517-14L468 55Q364-11 254-11Q142-11 77.50 41Q13 93 13 182Q13 260 66 316.50Q119 373 214 404Q182 466 182 520Q182 602 243.50 657.50Q305 713 404 713Q496 713 554 663Q612 613 612 536Q612 406 439 344L500 261Q536 300 572 353L685 274Q642 208 587 150L644 73L517-14M278 133Q326 133 381 166L286 301Q196 264 196 197Q196 169 218 151Q240 133 278 133M363 442Q414 461 435.50 481Q457 501 457 529Q457 551 442.50 566Q428 581 405 581Q376 581 358 561Q340 541 340 513Q340 479 363 442Z"  horiz-adv-x="700" vert-adv-y="1000"  />

      
      <glyph glyph-name="uni27" unicode="&#x27;" d="M67 341L162 700L369 700L368 695L170 341L67 341Z"  horiz-adv-x="282" vert-adv-y="1000"  />

      
      <glyph glyph-name="uni28" unicode="&#x28;" d="M242-143Q45 7 45 217Q45 391 157.50 521Q270 651 457 713L513 584Q374 523 301.50 425.50Q229 328 229 222Q229 97 350-33L242-143Z"  horiz-adv-x="455" vert-adv-y="1000"  />

      
      <glyph glyph-name="uni29" unicode="&#x29;" d="M7-140L-50-11Q90 50 162 147.50Q234 245 234 351Q234 476 113 606L222 716Q418 566 418 356Q418 183 305.50 52.50Q193-78 7-140Z"  horiz-adv-x="455" vert-adv-y="1000"  />

      
      <glyph glyph-name="uni2a" unicode="&#x2a;" d="M285 329L183 356L241 477L119 419L91 522L226 532L114 609L191 685L267 573L277 707L379 680L321 558L443 617L471 513L336 503L448 426L371 351L295 463L285 329Z"  horiz-adv-x="436" vert-adv-y="1000"  />

      
      <glyph glyph-name="uni2b" unicode="&#x2b;" d="M191 96L237 268L69 268L114 436L282 436L328 608L503 608L457 436L625 436L580 268L412 268L366 96L191 96Z"  horiz-adv-x="650" vert-adv-y="1000"  />

      
      <glyph glyph-name="uni2c" unicode="&#x2c;" d="M-66-165L-74-92Q39-81 57 2L-20 2L33 197L230 197L185 29Q159-69 101.50-115Q44-161-66-165Z"  horiz-adv-x="302" vert-adv-y="1000"  />

      
      <glyph glyph-name="uni2d" unicode="&#x2d;" d="M33 229L78 396L406 396L362 229L33 229Z"  horiz-adv-x="417" vert-adv-y="1000"  />

      
      <glyph glyph-name="uni2e" unicode="&#x2e;" d="M-20 0L32 195L230 195L177 0L-20 0Z"  horiz-adv-x="302" vert-adv-y="1000"  />

      
      <glyph glyph-name="uni2f" unicode="&#x2f;" d="M-145-128L537 798L703 798L21-128L-145-128Z"  horiz-adv-x="535" vert-adv-y="1000"  />

      
      <glyph glyph-name="uni30" unicode="&#x30;" d="M330-14Q202-14 126 66Q50 146 50 270Q50 382 97 483Q144 584 234 649Q324 714 437 714Q566 714 642 634Q718 554 718 430Q718 317 671 216.50Q624 116 533.50 51Q443-14 330-14M347 157Q422 157 471.50 241Q521 325 521 419Q521 479 493.50 510.50Q466 542 420 542Q345 542 296 458Q247 374 247 280Q247 220 274 188.50Q301 157 347 157Z"  horiz-adv-x="726" vert-adv-y="1000"  />

      
      <glyph glyph-name="uni31" unicode="&#x31;" d="M84 0L222 517L105 489L101 646L323 705L464 705L275 0L84 0Z"  horiz-adv-x="430" vert-adv-y="1000"  />

      
      <glyph glyph-name="uni32" unicode="&#x32;" d="M-33 0L8 150L364 382Q445 434 445 486Q445 513 427.50 528Q410 543 377 543Q307 543 218 456L105 575Q229 711 395 711Q508 711 574.50 655.50Q641 600 641 511Q641 445 600 389Q559 333 457 267L286 158L565 158L522 0L-33 0Z"  horiz-adv-x="627" vert-adv-y="1000"  />

      
      <glyph glyph-name="uni33" unicode="&#x33;" d="M256-14Q67-14-24 121L108 230Q167 152 256 152Q307 152 340 177Q373 202 373 235Q373 299 264 299L197 299L193 399L389 543L127 543L169 700L675 700L637 561L423 412Q565 373 565 242Q565 128 479 57Q393-14 256-14Z"  horiz-adv-x="611" vert-adv-y="1000"  />

      
      <glyph glyph-name="uni34" unicode="&#x34;" d="M313 0L349 136L28 136L7 278L483 705L688 705L575 281L664 281L624 136L536 136L499 0L313 0M223 280L388 280L441 479L223 280Z"  horiz-adv-x="679" vert-adv-y="1000"  />

      
      <glyph glyph-name="uni35" unicode="&#x35;" d="M261-13Q177-13 98.50 23Q20 59-22 111L100 225Q176 151 267 151Q321 151 355 178.50Q389 206 389 246Q389 279 362.50 300Q336 321 285 321Q234 321 186 292L87 361L198 700L660 700L617 540L311 540L279 443Q320 457 368 457Q465 457 524.50 404.50Q584 352 584 263Q584 145 494.50 66Q405-13 261-13Z"  horiz-adv-x="612" vert-adv-y="1000"  />

      
      <glyph glyph-name="uni36" unicode="&#x36;" d="M317-13Q191-13 121 57Q49 129 49 250Q49 348 84.50 441.50Q120 535 186 601Q298 713 461 713Q598 713 687 637L590 500Q529 554 453 554Q372 554 317 499Q278 460 258 403Q322 458 418 458Q503 458 561 407Q619 356 619 268Q619 152 530.50 69.50Q442-13 317-13M317 134Q365 134 396.50 167.50Q428 201 428 245Q428 280 404.50 301.50Q381 323 344 323Q294 323 262 290.50Q230 258 230 213Q230 179 252 159Q277 134 317 134Z"  horiz-adv-x="654" vert-adv-y="1000"  />

      
      <glyph glyph-name="uni37" unicode="&#x37;" d="M-4 0L418 537L102 537L146 700L686 700L646 554L218 0L-4 0Z"  horiz-adv-x="614" vert-adv-y="1000"  />

      
      <glyph glyph-name="uni38" unicode="&#x38;" d="M305-10Q187-10 105.50 44Q24 98 24 186Q24 258 69 306Q114 354 195 376Q119 421 119 508Q119 588 194 649Q269 710 398 710Q513 710 585 655.50Q657 601 657 519Q657 456 617.50 411.50Q578 367 507 346Q610 303 610 202Q610 112 525.50 51Q441-10 305-10M316 133Q362 133 393 156.50Q424 180 424 217Q424 250 395 270.50Q366 291 324 291Q277 291 246.50 267.50Q216 244 216 207Q216 174 245 153.50Q274 133 316 133M380 417Q417 417 447 439Q477 461 477 498Q477 529 451.50 548Q426 567 387 567Q350 567 320 545Q290 523 290 486Q290 455 316 436Q342 417 380 417Z"  horiz-adv-x="664" vert-adv-y="1000"  />

      
      <glyph glyph-name="uni39" unicode="&#x39;" d="M238-13Q100-13 5 68L102 204Q172 146 243 146Q323 146 380 203Q418 240 437 294Q374 240 278 240Q192 240 134.50 290.50Q77 341 77 430Q77 549 165 631.50Q253 714 379 714Q505 714 575 644Q648 571 648 444Q648 350 612 258Q576 166 509 99Q397-13 238-13M354 374Q402 374 434 407.50Q466 441 466 487Q466 519 445 542Q421 566 380 566Q331 566 299.50 532.50Q268 499 268 453Q268 417 292 395.50Q316 374 354 374Z"  horiz-adv-x="654" vert-adv-y="1000"  />

      
      <glyph glyph-name="uni3a" unicode="&#x3a;" d="M-18 0L35 195L232 195L180 0L-18 0M75 346L127 541L325 541L272 346L75 346Z"  horiz-adv-x="307" vert-adv-y="1000"  />

      
      <glyph glyph-name="uni3b" unicode="&#x3b;" d="M-64-167L-72-94Q41-83 59 0L-18 0L35 195L232 195L187 27Q161-71 103.50-117Q46-163-64-167M75 346L127 541L325 541L272 346L75 346Z"  horiz-adv-x="307" vert-adv-y="1000"  />

      
      <glyph glyph-name="uni3c" unicode="&#x3c;" d="M513 65L68 263L116 440L666 638L616 453L260 343L558 234L513 65Z"  horiz-adv-x="640" vert-adv-y="1000"  />

      
      <glyph glyph-name="uni3d" unicode="&#x3d;" d="M38 134L83 301L574 301L530 134L38 134M110 403L155 570L647 570L602 403L110 403Z"  horiz-adv-x="640" vert-adv-y="1000"  />

      
      <glyph glyph-name="uni3e" unicode="&#x3e;" d="M20 65L70 250L426 360L128 469L173 638L618 440L570 263L20 65Z"  horiz-adv-x="640" vert-adv-y="1000"  />

      
      <glyph glyph-name="uni3f" unicode="&#x3f;" d="M67 0L113 170L310 170L264 0L67 0M168 228L186 396L195 404Q377 419 377 491Q377 541 310 541Q245 541 175 487L97 622Q199 710 344 710Q446 710 508 658Q570 606 570 528Q570 440 507.50 381Q445 322 319 302L289 228L168 228Z"  horiz-adv-x="540" vert-adv-y="1000"  />

      
      <glyph glyph-name="uni40" unicode="&#x40;" d="M462-154Q277-154 162-46.50Q47 61 47 234Q47 362 111 472.50Q175 583 288 649Q401 715 537 715Q721 715 830 616.50Q939 518 939 372Q939 218 867 137.50Q795 57 696 57Q643 57 603 79.50Q563 102 544 139Q472 59 385 59Q318 59 274 105.50Q230 152 230 231Q230 352 303 435.50Q376 519 474 519Q560 519 603 447L624 514L771 474L691 220Q684 199 684 179Q684 120 749 120Q803 120 850.50 189.50Q898 259 898 375Q898 502 800 588.50Q702 675 537 675Q348 675 218 544.50Q88 414 88 234Q88 78 192-18.50Q296-115 463-115Q566-115 668-70L684-107Q580-154 462-154M460 191Q503 191 536 228.50Q569 266 569 318Q569 349 549.50 368Q530 387 499 387Q455 387 423 350Q391 313 391 261Q391 229 409.50 210Q428 191 460 191Z"  horiz-adv-x="965" vert-adv-y="1000"  />

      
      <glyph glyph-name="uni41" unicode="&#x41;" d="M-74 0L413 705L603 705L712 0L508 0L491 125L221 125L137 0L-74 0M319 276L475 276L450 477L319 276Z"  horiz-adv-x="775" vert-adv-y="1000"  />

      
      <glyph glyph-name="uni42" unicode="&#x42;" d="M-12 0L176 700L467 700Q601 700 660.50 653Q720 606 720 532Q720 465 678.50 418Q637 371 563 353Q669 315 669 213Q669 118 588 59Q507 0 351 0L-12 0M219 156L366 156Q416 156 445 176.50Q474 197 474 230Q474 285 388 285L254 285L219 156M291 421L422 421Q473 421 500.50 440Q528 459 528 492Q528 544 444 544L323 544L291 421Z"  horiz-adv-x="714" vert-adv-y="1000"  />

      
      <glyph glyph-name="uni43" unicode="&#x43;" d="M382-14Q235-14 143 69.50Q51 153 51 292Q51 397 103 492.50Q155 588 257 651Q359 714 488 714Q593 714 666.50 667Q740 620 772 537L604 447Q560 537 463 537Q377 537 315.50 468Q254 399 254 306Q254 240 293 201Q332 162 394 162Q473 162 544 233L675 117Q559-14 382-14Z"  horiz-adv-x="727" vert-adv-y="1000"  />

      
      <glyph glyph-name="uni44" unicode="&#x44;" d="M-12 0L176 700L402 700Q586 700 676 610Q752 534 752 405Q752 244 637 129Q508 0 270 0L-12 0M229 172L293 172Q422 172 493 243Q553 303 553 389Q553 450 518 485Q477 528 381 528L325 528L229 172Z"  horiz-adv-x="761" vert-adv-y="1000"  />

      
      <glyph glyph-name="uni45" unicode="&#x45;" d="M-12 0L176 700L737 700L692 535L324 535L295 429L629 429L588 276L254 276L224 165L598 165L554 0L-12 0Z"  horiz-adv-x="669" vert-adv-y="1000"  />

      
      <glyph glyph-name="uni46" unicode="&#x46;" d="M-12 0L176 700L736 700L690 530L325 530L293 411L623 411L580 250L250 250L183 0L-12 0Z"  horiz-adv-x="652" vert-adv-y="1000"  />

      
      <glyph glyph-name="uni47" unicode="&#x47;" d="M387-14Q322-14 263.50 4.50Q205 23 156.50 59.50Q108 96 79 156.50Q50 217 50 295Q50 467 177 590.50Q304 714 499 714Q598 714 674 680Q750 646 789 595L659 469Q587 541 486 541Q382 541 315 471.50Q248 402 248 303Q248 232 292.50 193Q337 154 405 154Q457 154 498 173L526 267L391 267L428 409L749 409L649 56Q528-14 387-14Z"  horiz-adv-x="762" vert-adv-y="1000"  />

      
      <glyph glyph-name="uni48" unicode="&#x48;" d="M-12 0L176 700L371 700L300 438L547 438L617 700L812 700L624 0L429 0L501 266L254 266L183 0L-12 0Z"  horiz-adv-x="757" vert-adv-y="1000"  />

      
      <glyph glyph-name="uni49" unicode="&#x49;" d="M-7 0L181 700L375 700L187 0L-7 0Z"  horiz-adv-x="325" vert-adv-y="1000"  />

      
      <glyph glyph-name="uni4a" unicode="&#x4a;" d="M197-12Q123-12 59.50 20Q-4 52-41 111L91 226Q141 158 203 158Q246 158 278 190Q306 218 331 309L436 700L629 700L515 272Q477 130 411 64Q333-12 197-12Z"  horiz-adv-x="568" vert-adv-y="1000"  />

      
      <glyph glyph-name="uni4b" unicode="&#x4b;" d="M-12 0L176 700L371 700L295 420L584 700L831 700L501 393L657 0L447 0L346 270L225 159L183 0L-12 0Z"  horiz-adv-x="722" vert-adv-y="1000"  />

      
      <glyph glyph-name="uni4c" unicode="&#x4c;" d="M-12 0L176 700L371 700L229 170L563 170L517 0L-12 0Z"  horiz-adv-x="617" vert-adv-y="1000"  />

      
      <glyph glyph-name="uni4d" unicode="&#x4d;" d="M-12 0L176 700L372 700L465 429L703 700L921 700L733 0L538 0L645 402L394 128L390 128L287 400L180 0L-12 0Z"  horiz-adv-x="866" vert-adv-y="1000"  />

      
      <glyph glyph-name="uni4e" unicode="&#x4e;" d="M-12 0L176 700L357 700L538 311L643 700L836 700L648 0L478 0L289 403L181 0L-12 0Z"  horiz-adv-x="781" vert-adv-y="1000"  />

      
      <glyph glyph-name="uni4f" unicode="&#x4f;" d="M386-13Q238-13 145 76.50Q52 166 52 301Q52 380 83.50 455Q115 530 169 587Q223 644 301.50 678.50Q380 713 469 713Q617 713 710 623.50Q803 534 803 399Q803 320 771.50 245Q740 170 686 113Q632 56 553.50 21.50Q475-13 386-13M403 161Q491 161 548 230.50Q605 300 605 384Q605 453 564.50 496Q524 539 452 539Q365 539 307.50 469Q250 399 250 316Q250 247 290.50 204Q331 161 403 161Z"  horiz-adv-x="813" vert-adv-y="1000"  />

      
      <glyph glyph-name="uni50" unicode="&#x50;" d="M-12 0L176 700L405 700Q571 700 645 626Q700 571 700 483Q700 354 604.50 277.50Q509 201 352 201L237 201L183 0L-12 0M277 352L350 352Q421 352 461 381.50Q501 411 501 461Q501 490 481 510Q454 537 398 537L326 537L277 352Z"  horiz-adv-x="672" vert-adv-y="1000"  />

      
      <glyph glyph-name="uni51" unicode="&#x51;" d="M603-45L558 24Q478-13 386-13Q238-13 145 76.50Q52 166 52 301Q52 380 83.50 455Q115 530 169 587Q223 644 301.50 678.50Q380 713 469 713Q617 713 710 623.50Q803 534 803 399Q803 239 688 118L741 46L603-45M402 157Q425 157 452 166L375 270L514 362L574 268Q605 322 605 382Q605 452 564.50 495.50Q524 539 452 539Q364 539 306.50 469Q249 399 249 314Q249 244 289.50 200.50Q330 157 402 157Z"  horiz-adv-x="813" vert-adv-y="1000"  />

      
      <glyph glyph-name="uni52" unicode="&#x52;" d="M-12 0L176 700L440 700Q608 700 681 627Q735 573 735 484Q735 394 682.50 329.50Q630 265 525 236L633 0L419 0L326 212L240 212L183 0L-12 0M280 364L391 364Q457 364 496 390Q535 416 535 461Q535 488 517 508Q493 532 431 532L326 532L280 364Z"  horiz-adv-x="720" vert-adv-y="1000"  />

      
      <glyph glyph-name="uni53" unicode="&#x53;" d="M302-12Q96-12-23 116L102 245Q205 150 318 150Q353 150 375 164Q397 178 397 202Q397 223 375 238Q353 253 280 281Q188 316 143 359Q98 402 98 474Q98 578 182 645Q266 712 395 712Q573 712 682 608L562 474Q473 551 377 551Q343 551 322 537Q301 523 301 501Q301 481 322 468Q343 455 418 425Q508 391 554 347Q600 303 600 230Q600 122 516.50 55Q433-12 302-12Z"  horiz-adv-x="645" vert-adv-y="1000"  />

      
      <glyph glyph-name="uni54" unicode="&#x54;" d="M151 0L294 530L84 530L130 700L743 700L698 530L488 530L346 0L151 0Z"  horiz-adv-x="645" vert-adv-y="1000"  />

      
      <glyph glyph-name="uni55" unicode="&#x55;" d="M342-13Q207-13 133 51.50Q59 116 59 232Q59 283 75 344L171 700L367 700L268 330Q258 293 258 264Q258 216 286.50 189Q315 162 367 162Q424 162 461 199Q499 235 520 315L624 700L820 700L709 286Q672 149 600 77Q510-13 342-13Z"  horiz-adv-x="760" vert-adv-y="1000"  />

      
      <glyph glyph-name="uni56" unicode="&#x56;" d="M202-5L109 700L321 700L360 260L635 700L854 700L383-5L202-5Z"  horiz-adv-x="739" vert-adv-y="1000"  />

      
      <glyph glyph-name="uni57" unicode="&#x57;" d="M162-5L117 700L318 700L331 295L573 702L741 702L768 295L998 700L1209 700L786-5L612-5L580 393L335-5L162-5Z"  horiz-adv-x="1102" vert-adv-y="1000"  />

      
      <glyph glyph-name="uni58" unicode="&#x58;" d="M-75 0L266 366L121 700L334 700L411 503L584 700L818 700L494 352L648 0L434 0L350 216L160 0L-75 0Z"  horiz-adv-x="713" vert-adv-y="1000"  />

      
      <glyph glyph-name="uni59" unicode="&#x59;" d="M159 0L232 271L91 700L300 700L369 438L580 700L812 700L421 250L354 0L159 0Z"  horiz-adv-x="677" vert-adv-y="1000"  />

      
      <glyph glyph-name="uni5a" unicode="&#x5a;" d="M-36 0L1 141L447 536L119 536L164 700L759 700L721 559L275 164L616 164L572 0L-36 0Z"  horiz-adv-x="681" vert-adv-y="1000"  />

      
      <glyph glyph-name="uni5b" unicode="&#x5b;" d="M-26-130L197 700L543 700L508 571L332 571L178-1L354-1L320-130L-26-130Z"  horiz-adv-x="468" vert-adv-y="1000"  />

      
      <glyph glyph-name="uni5c" unicode="&#x5c;" d="M316-128L109 798L262 798L469-128L316-128Z"  horiz-adv-x="535" vert-adv-y="1000"  />

      
      <glyph glyph-name="uni5d" unicode="&#x5d;" d="M-67-130L-32-1L144-1L297 571L121 571L156 700L502 700L279-130L-67-130Z"  horiz-adv-x="468" vert-adv-y="1000"  />

      
      <glyph glyph-name="uni5e" unicode="&#x5e;" d="M89 493L288 699L416 699L505 493L382 493L332 590L230 493L89 493Z"  horiz-adv-x="500" vert-adv-y="1000"  />

      
      <glyph glyph-name="uni5f" unicode="&#x5f;" d="M-117-160L-86-44L518-44L487-160L-117-160Z"  horiz-adv-x="600" vert-adv-y="1000"  />

      
      <glyph glyph-name="uni60" unicode="&#x60;" d="M333 587L222 715L401 772L456 587L333 587Z"  horiz-adv-x="500" vert-adv-y="1000"  />

      
      <glyph glyph-name="uni61" unicode="&#x61;" d="M152-11Q85-11 43 29Q1 69 1 136Q1 224 66 275.50Q131 327 239 327Q307 327 376 306L378 313Q383 335 383 346Q383 404 290 404Q212 404 144 377L117 515Q211 548 330 548Q450 548 510.50 503Q571 458 571 376Q571 340 560 298L480 0L293 0L308 58Q234-11 152-11M240 106Q276 106 308 134Q340 162 351 204L356 222Q320 234 285 234Q240 234 213 213Q186 192 186 156Q186 133 201 119.50Q216 106 240 106Z"  horiz-adv-x="597" vert-adv-y="1000"  />

      
      <glyph glyph-name="uni62" unicode="&#x62;" d="M353-12Q245-12 189 74L169 0L-21 0L174 730L364 730L298 484Q369 553 452 553Q535 553 589.50 493Q644 433 644 331Q644 187 557.50 87.50Q471-12 353-12M320 146Q374 146 413 191.50Q452 237 452 301Q452 344 426.50 370Q401 396 360 396Q306 396 266 350Q226 304 226 242Q226 199 252 172.50Q278 146 320 146Z"  horiz-adv-x="672" vert-adv-y="1000"  />

      
      <glyph glyph-name="uni63" unicode="&#x63;" d="M281-13Q170-13 99 51.50Q28 116 28 224Q28 360 123 456Q218 552 353 552Q443 552 501.50 511Q560 470 583 404L434 327Q405 395 341 395Q288 395 249.50 346Q211 297 211 234Q211 193 234.50 168.50Q258 144 294 144Q346 144 396 194L512 93Q421-13 281-13Z"  horiz-adv-x="563" vert-adv-y="1000"  />

      
      <glyph glyph-name="uni64" unicode="&#x64;" d="M220-12Q137-12 82.50 48Q28 108 28 210Q28 354 114.50 453.50Q201 553 319 553Q427 553 483 467L553 730L743 730L548 0L358 0L374 57Q302-12 220-12M312 145Q366 145 406 191Q446 237 446 299Q446 342 420 368.50Q394 395 352 395Q298 395 259 349.50Q220 304 220 240Q220 197 245.50 171Q271 145 312 145Z"  horiz-adv-x="672" vert-adv-y="1000"  />

      
      <glyph glyph-name="uni65" unicode="&#x65;" d="M286-13Q167-13 97.50 52Q28 117 28 227Q28 354 119 453.50Q210 553 353 553Q466 553 524.50 488.50Q583 424 583 329Q583 275 562 218L203 218Q210 129 304 129Q360 129 419 172L507 68Q414-13 286-13M216 315L409 315Q414 330 414 344Q414 374 395 393.50Q376 413 340 413Q300 413 266.50 387.50Q233 362 216 315Z"  horiz-adv-x="601" vert-adv-y="1000"  />

      
      <glyph glyph-name="uni66" unicode="&#x66;" d="M13 0L118 388L54 388L95 541L158 541L161 552Q186 650 242.50 693.50Q299 737 393 737Q460 737 514 719L479 586Q445 598 415 598Q360 598 347 547L344 538L466 538L426 388L308 388L203 0L13 0Z"  horiz-adv-x="418" vert-adv-y="1000"  />

      
      <glyph glyph-name="uni67" unicode="&#x67;" d="M238-162Q161-162 83.50-141.50Q6-121-47-88L38 31Q130-25 230-25Q302-25 342 15Q370 44 387 102L390 114Q316 48 226 48Q148 48 90.50 98.50Q33 149 33 235Q33 363 115.50 457.50Q198 552 317 552Q426 552 481 464L501 541L691 541L576 111Q541-21 480-83Q402-162 238-162M310 185Q364 185 401 224.50Q438 264 438 316Q438 354 413.50 378Q389 402 348 402Q295 402 258.50 361.50Q222 321 222 268Q222 230 246 207.50Q270 185 310 185Z"  horiz-adv-x="668" vert-adv-y="1000"  />

      
      <glyph glyph-name="uni68" unicode="&#x68;" d="M-21 0L174 730L364 730L297 479Q367 553 452 553Q525 553 567 509.50Q609 466 609 391Q609 354 593 294L515 0L325 0L401 283Q407 304 407 327Q407 384 347 384Q273 384 246 286L169 0L-21 0Z"  horiz-adv-x="632" vert-adv-y="1000"  />

      
      <glyph glyph-name="uni69" unicode="&#x69;" d="M-17 0L128 541L318 541L173 0L-17 0M138 590L176 730L374 730L336 590L138 590Z"  horiz-adv-x="301" vert-adv-y="1000"  />

      
      <glyph glyph-name="uni6a" unicode="&#x6a;" d="M-53-163Q-96-163-134-156L-101-30Q-89-33-77-33Q-48-33-31-15.50Q-14 2-3 45L130 541L320 541L180 21Q152-82 97-122.50Q42-163-53-163M139 590L177 730L375 730L337 590L139 590Z"  horiz-adv-x="303" vert-adv-y="1000"  />

      
      <glyph glyph-name="uni6b" unicode="&#x6b;" d="M-21 0L175 730L365 730L269 373L450 541L679 541L430 319L536 0L333 0L275 192L204 129L169 0L-21 0Z"  horiz-adv-x="599" vert-adv-y="1000"  />

      
      <glyph glyph-name="uni6c" unicode="&#x6c;" d="M-17 0L179 730L369 730L173 0L-17 0Z"  horiz-adv-x="301" vert-adv-y="1000"  />

      
      <glyph glyph-name="uni6d" unicode="&#x6d;" d="M-21 0L124 541L314 541L298 481Q368 553 449 553Q556 553 590 459Q673 553 786 553Q862 553 904 510Q946 467 946 392Q946 354 930 294L851 0L662 0L737 283Q744 308 744 327Q744 384 686 384Q614 384 587 286L510 0L320 0L396 283Q403 307 403 327Q403 384 345 384Q273 384 246 286L169 0L-21 0Z"  horiz-adv-x="968" vert-adv-y="1000"  />

      
      <glyph glyph-name="uni6e" unicode="&#x6e;" d="M-21 0L124 541L314 541L297 479Q367 553 452 553Q525 553 567 509.50Q609 466 609 391Q609 354 593 294L515 0L325 0L401 283Q407 304 407 327Q407 384 347 384Q273 384 246 286L169 0L-21 0Z"  horiz-adv-x="630" vert-adv-y="1000"  />

      
      <glyph glyph-name="uni6f" unicode="&#x6f;" d="M295-13Q174-13 102 58Q30 129 30 239Q30 364 122.50 458.50Q215 553 348 553Q470 553 542 482Q614 411 614 302Q614 176 521.50 81.50Q429-13 295-13M306 145Q360 145 396 191.50Q432 238 432 295Q432 340 406 367.50Q380 395 338 395Q284 395 248 348.50Q212 302 212 246Q212 200 238 172.50Q264 145 306 145Z"  horiz-adv-x="644" vert-adv-y="1000"  />

      
      <glyph glyph-name="uni70" unicode="&#x70;" d="M-64-160L124 541L314 541L298 484Q369 553 452 553Q535 553 589.50 493Q644 433 644 331Q644 187 557.50 87.50Q471-12 353-12Q245-12 189 74L126-160L-64-160M320 146Q374 146 413 191.50Q452 237 452 301Q452 344 426.50 370Q401 396 360 396Q306 396 266 350Q226 304 226 242Q226 199 252 172.50Q278 146 320 146Z"  horiz-adv-x="672" vert-adv-y="1000"  />

      
      <glyph glyph-name="uni71" unicode="&#x71;" d="M310-180L374 57Q302-12 220-12Q137-12 82.50 48Q28 108 28 210Q28 354 114.50 453.50Q201 553 319 553Q427 553 483 467L503 541L693 541L500-180L310-180M312 145Q366 145 406 191Q446 237 446 299Q446 342 420 368.50Q394 395 352 395Q298 395 259 349.50Q220 304 220 240Q220 197 245.50 171Q271 145 312 145Z"  horiz-adv-x="672" vert-adv-y="1000"  />

      
      <glyph glyph-name="uni72" unicode="&#x72;" d="M-21 0L124 541L314 541L285 432Q370 558 488 550L434 350L418 350Q262 350 213 163L169 0L-21 0Z"  horiz-adv-x="430" vert-adv-y="1000"  />

      
      <glyph glyph-name="uni73" unicode="&#x73;" d="M230-13Q153-13 82.50 12Q12 37-37 81L57 192Q95 158 144.50 138.50Q194 119 237 119Q285 119 285 152Q285 166 269 176Q253 186 211 203Q136 233 97.50 267.50Q59 302 59 361Q59 444 122.50 498.50Q186 553 295 553Q364 553 426.50 531Q489 509 529 477L438 363Q360 421 285 421Q238 421 238 390Q238 377 254 366.50Q270 356 313 339Q386 310 425 276Q464 242 464 181Q464 98 403 42.50Q342-13 230-13Z"  horiz-adv-x="511" vert-adv-y="1000"  />

      
      <glyph glyph-name="uni74" unicode="&#x74;" d="M214-11Q133-11 91.50 22.50Q50 56 50 117Q50 151 60 188L114 388L50 388L91 541L155 541L192 678L382 678L345 541L471 541L430 388L304 388L258 218Q253 196 253 185Q253 151 296 151Q326 151 368 166L326 8Q272-11 214-11Z"  horiz-adv-x="430" vert-adv-y="1000"  />

      
      <glyph glyph-name="uni75" unicode="&#x75;" d="M183-12Q110-12 68 31.50Q26 75 26 150Q26 190 41 247L120 541L310 541L234 258Q227 234 227 214Q227 157 288 157Q363 157 388 255L465 541L655 541L511 0L321 0L337 62Q267-12 183-12Z"  horiz-adv-x="632" vert-adv-y="1000"  />

      
      <glyph glyph-name="uni76" unicode="&#x76;" d="M151-4L81 541L276 541L296 226L483 541L685 541L324-4L151-4Z"  horiz-adv-x="621" vert-adv-y="1000"  />

      
      <glyph glyph-name="uni77" unicode="&#x77;" d="M103-4L84 541L267 541L265 269L422 543L578 543L589 267L735 541L920 541L607-4L445-4L432 277L267-4L103-4Z"  horiz-adv-x="859" vert-adv-y="1000"  />

      
      <glyph glyph-name="uni78" unicode="&#x78;" d="M-62 0L197 281L85 541L282 541L329 410L438 541L652 541L400 267L514 0L317 0L268 137L152 0L-62 0Z"  horiz-adv-x="589" vert-adv-y="1000"  />

      
      <glyph glyph-name="uni79" unicode="&#x79;" d="M94-163Q10-163-50-124L35 15Q72-12 110-12Q137-12 157 8L87 541L280 541L302 216L484 541L684 541L349 3Q292-88 233.50-125.50Q175-163 94-163Z"  horiz-adv-x="622" vert-adv-y="1000"  />

      
      <glyph glyph-name="uni7a" unicode="&#x7a;" d="M-40 0L-6 125L312 390L74 390L114 541L600 541L567 416L248 151L497 151L457 0L-40 0Z"  horiz-adv-x="558" vert-adv-y="1000"  />

      
      <glyph glyph-name="uni7b" unicode="&#x7b;" d="M322-141Q205-128 157-91.50Q109-55 109 5Q109 37 125 87Q141 139 141 163Q141 194 123 209Q105 224 53 224L27 224L60 350L87 350Q165 350 194 382Q223 414 236 503Q244 557 260.50 594Q277 631 311.50 659.50Q346 688 403.50 701.50Q461 715 546 715L558 603Q467 596 435 561.50Q403 527 394 452Q384 365 349 325Q314 285 227 275Q313 258 313 180Q313 153 299 109Q284 66 284 41Q284 10 303-7.50Q322-25 375-38L322-141Z"  horiz-adv-x="497" vert-adv-y="1000"  />

      
      <glyph glyph-name="uni7c" unicode="&#x7c;" d="M122-128L122 798L267 798L267-128L122-128Z"  horiz-adv-x="356" vert-adv-y="1000"  />

      
      <glyph glyph-name="uni7d" unicode="&#x7d;" d="M-40-141L-52-29Q39-22 70.50 12.50Q102 47 112 122Q123 209 157.50 249Q192 289 279 299Q193 316 193 394Q193 421 207 465Q222 508 222 533Q222 564 203 581.50Q184 599 131 612L184 715Q301 702 349 665.50Q397 629 397 569Q397 537 381 487Q365 435 365 411Q365 380 383 365Q401 350 453 350L479 350L446 224L419 224Q341 224 311.50 192Q282 160 270 71Q262 17 245.50-20Q229-57 194.50-85.50Q160-114 102.50-127.50Q45-141-40-141Z"  horiz-adv-x="497" vert-adv-y="1000"  />

      
      <glyph glyph-name="uni7e" unicode="&#x7e;" d="M129 216L41 257Q69 326 111 363.50Q153 401 201 401Q243 401 285 370Q320 346 337 346Q371 346 403 403L492 362Q463 293 421 255.50Q379 218 331 218Q289 218 247 249Q213 273 195 273Q161 273 129 216Z"  horiz-adv-x="505" vert-adv-y="1000"  />

      
      <glyph glyph-name="unia1" unicode="&#xa1;" d="M-20 0L4 85L166 472L265 472L220 85L197 0L-20 0M132 530L178 700L375 700L330 530L132 530Z"  horiz-adv-x="322" vert-adv-y="1000"  />

      
      <glyph glyph-name="unia2" unicode="&#xa2;" d="M258-6L148-6L190 101Q125 131 89.50 187Q54 243 54 319Q54 454 147.50 547Q241 640 380 640L401 640L427 706L537 706L502 617Q588 578 619 490L482 419Q468 456 440 475L342 221Q396 225 445 274L553 178Q465 75 325 75Q302 75 290 77L258-6M253 247L350 494Q293 489 256.50 438.50Q220 388 220 327Q220 273 253 247Z"  horiz-adv-x="585" vert-adv-y="1000"  />

      
      <glyph glyph-name="unia3" unicode="&#xa3;" d="M-22 0L9 116L91 144L124 265L49 265L85 400L160 400L175 457Q205 573 267 635Q344 712 473 712Q544 712 600.50 683Q657 654 688 608L557 490Q519 541 465 541Q428 541 401 514Q378 493 365 445L352 400L561 400L525 265L317 265L287 154L572 154L531 0L-22 0Z"  horiz-adv-x="631" vert-adv-y="1000"  />

      
      <glyph glyph-name="unia4" unicode="&#xa4;" d="M385-14Q271-14 195.50 50.50Q120 115 109 223L19 223L47 327L114 327Q120 361 125 377L60 377L88 481L153 481Q198 587 284 650.50Q370 714 489 714Q667 714 735 567L593 472Q553 547 474 547Q397 547 351 479L520 479L493 378L313 378Q305 352 301 326L479 326L452 225L298 225Q314 153 393 153Q460 153 519 212L630 93Q529-14 385-14Z"  horiz-adv-x="677" vert-adv-y="1000"  />

      
      <glyph glyph-name="unia5" unicode="&#xa5;" d="M190 0L215 93L31 93L63 213L247 213L260 263L76 263L108 383L248 383L126 700L331 700L404 470L592 700L821 700L530 383L668 383L636 263L452 263L439 213L622 213L590 93L406 93L381 0L190 0Z"  horiz-adv-x="718" vert-adv-y="1000"  />

      
      <glyph glyph-name="unia6" unicode="&#xa6;" d="M33-89L33 161L190 161L190-89L33-89M33 411L33 661L190 661L190 411L33 411Z"  horiz-adv-x="222" vert-adv-y="1000"  />

      
      <glyph glyph-name="unia7" unicode="&#xa7;" d="M280-12Q201-12 132.50 13.50Q64 39 23 82L122 187Q154 158 199 138Q244 118 284 118Q337 118 337 148Q337 162 317.50 171.50Q298 181 239 199Q154 224 108 255.50Q62 287 62 339Q62 440 188 469Q155 504 155 551Q155 620 218.50 667Q282 714 388 714Q467 714 536 688.50Q605 663 645 620L547 515Q516 544 470 563.50Q424 583 384 583Q332 583 332 554Q332 540 351.50 530Q371 520 429 503Q515 477 560.50 445.50Q606 414 606 362Q606 263 481 232Q513 197 513 151Q513 81 450 34.50Q387-12 280-12M404 292Q426 292 440.50 302Q455 312 455 328Q455 345 435.50 356.50Q416 368 368 384Q292 410 265 410Q243 410 228 400Q213 390 213 373Q213 357 232.50 345.50Q252 334 300 317Q374 292 404 292Z"  horiz-adv-x="625" vert-adv-y="1000"  />

      
      <glyph glyph-name="unia8" unicode="&#xa8;" d="M142 587L181 730L347 730L308 587L142 587M361 587L400 730L566 730L527 587L361 587Z"  horiz-adv-x="500" vert-adv-y="1000"  />

      
      <glyph glyph-name="unia9" unicode="&#xa9;" d="M694 93.50Q694 93.50 641 39.75Q588-14 437-14Q286-14 181 93Q76 200 76 350Q76 499 182 606.50Q288 714 439 714Q590 714 695 607Q800 500 800 350Q800 201 694 93.50M437 26Q573 26 665.50 121.50Q758 217 758 352Q758 486 666 580Q574 674 439 674Q303 674 210.50 578.50Q118 483 118 348Q118 214 210 120Q302 26 437 26M443 156Q356 156 298.50 213Q241 270 241 355Q241 438 298.50 496Q356 554 445 554Q550 554 607 475L526 411Q491 456 443 456Q404 456 378 426.50Q352 397 352 354Q352 312 378 283Q404 254 443 254Q490 254 529 300L610 242Q548 156 443 156Z"  horiz-adv-x="830" vert-adv-y="1000"  />

      
      <glyph glyph-name="uniaa" unicode="&#xaa;" d="M45 270L66 347L354 347L333 270L45 270M182 398Q145 398 122 420Q99 442 99 478Q99 527 135 555.50Q171 584 230 584Q267 584 305 571L307 577Q310 584 310 593Q310 626 259 626Q217 626 180 612L165 687Q216 706 281 706Q346 706 379.50 681Q413 656 413 611Q413 590 407 568L363 404L259 404L268 436Q228 398 182 398M231 462Q251 462 268.50 477.50Q286 493 291 515L294 526Q271 533 254 533Q231 533 216 521Q201 509 201 490Q201 478 209.50 470Q218 462 231 462Z"  horiz-adv-x="395" vert-adv-y="1000"  />

      
      <glyph glyph-name="uniab" unicode="&#xab;" d="M138 28L30 252L43 301L258 513L363 417L197 256L279 91L138 28M401 25L288 260L290 268L531 505L636 409L465 243L542 88L401 25Z"  horiz-adv-x="630" vert-adv-y="1000"  />

      
      <glyph glyph-name="uniac" unicode="&#xac;" d="M382 231L428 403L111 403L156 570L647 570L556 231L382 231Z"  horiz-adv-x="640" vert-adv-y="1000"  />

      
      <glyph glyph-name="uniad" unicode="&#xad;" d="M33 229L78 396L406 396L362 229L33 229Z"  horiz-adv-x="417" vert-adv-y="1000"  />

      
      <glyph glyph-name="uniae" unicode="&#xae;" d="M694 93.50Q694 93.50 641 39.75Q588-14 437-14Q286-14 181 93Q76 200 76 350Q76 499 182 606.50Q288 714 439 714Q590 714 695 607Q800 500 800 350Q800 201 694 93.50M437 26Q573 26 665.50 121.50Q758 217 758 352Q758 486 666 580Q574 674 439 674Q303 674 210.50 578.50Q118 483 118 348Q118 214 210 120Q302 26 437 26M278 168L278 553L458 553Q544 553 587 510Q621 476 621 420Q621 335 541 302L633 168L510 168L430 285L386 285L386 168L278 168M386 368L455 368Q513 368 513 415Q513 461 455 461L386 461L386 368Z"  horiz-adv-x="830" vert-adv-y="1000"  />

      
      <glyph glyph-name="uniaf" unicode="&#xaf;" d="M149 592L179 708L555 708L524 592L149 592Z"  horiz-adv-x="500" vert-adv-y="1000"  />

      
      <glyph glyph-name="unib0" unicode="&#xb0;" d="M260 346Q183 346 136.50 392Q90 438 90 508Q90 591 148 650Q206 709 289 709Q366 709 412.50 662.50Q459 616 459 547Q459 464 401 405Q343 346 260 346M265 440Q304 440 329 471.50Q354 503 354 542Q354 574 335 594.50Q316 615 285 615Q245 615 220.50 583.50Q196 552 196 513Q196 481 215 460.50Q234 440 265 440Z"  horiz-adv-x="452" vert-adv-y="1000"  />

      
      <glyph glyph-name="unib1" unicode="&#xb1;" d="M-8-16L34 141L525 141L483-16L-8-16M209 206L244 338L75 338L120 506L289 506L325 638L499 638L463 506L632 506L587 338L418 338L383 206L209 206Z"  horiz-adv-x="640" vert-adv-y="1000"  />

      
      <glyph glyph-name="unib2" unicode="&#xb2;" d="M0 0L0 700L500 700L500 0L0 0M81 49L421 49L250 304L81 49M50 95L220 349L50 605L50 95M451 95L451 605L279 349L451 95M250 395L421 650L81 650L250 395Z"  horiz-adv-x="500" vert-adv-y="1000"  />

      
      <glyph glyph-name="unib3" unicode="&#xb3;" d="M0 0L0 700L500 700L500 0L0 0M81 49L421 49L250 304L81 49M50 95L220 349L50 605L50 95M451 95L451 605L279 349L451 95M250 395L421 650L81 650L250 395Z"  horiz-adv-x="500" vert-adv-y="1000"  />

      
      <glyph glyph-name="unib4" unicode="&#xb4;" d="M200 587L355 772L528 715L347 587L200 587Z"  horiz-adv-x="500" vert-adv-y="1000"  />

      
      <glyph glyph-name="unib5" unicode="&#xb5;" d="M-64-160L124 541L314 541L235 248Q223 205 238 181Q253 157 288 157Q323 157 351 181Q379 205 391 248L470 541L660 541L515 0L325 0L344 74Q266-2 191-2Q183-2 169 0L126-160L-64-160Z"  horiz-adv-x="634" vert-adv-y="1000"  />

      
      <glyph glyph-name="unib6" unicode="&#xb6;" d="M270 0L326 212Q69 225 69 421Q69 547 160.50 623.50Q252 700 422 700L652 700L464 0L270 0Z"  horiz-adv-x="597" vert-adv-y="1000"  />

      
      <glyph glyph-name="unib7" unicode="&#xb7;" d="M35 215L87 410L285 410L232 215L35 215Z"  horiz-adv-x="302" vert-adv-y="1000"  />

      
      <glyph glyph-name="unib8" unicode="&#xb8;" d="M160-173L21-109L146 15L275 15L160-173Z"  horiz-adv-x="500" vert-adv-y="1000"  />

      
      <glyph glyph-name="unib9" unicode="&#xb9;" d="M0 0L0 700L500 700L500 0L0 0M81 49L421 49L250 304L81 49M50 95L220 349L50 605L50 95M451 95L451 605L279 349L451 95M250 395L421 650L81 650L250 395Z"  horiz-adv-x="500" vert-adv-y="1000"  />

      
      <glyph glyph-name="uniba" unicode="&#xba;" d="M48 270L69 347L352 347L332 270L48 270M249 395Q182 395 142 434.50Q102 474 102 535Q102 603 153 654.50Q204 706 278 706Q344 706 384 666.50Q424 627 424 566Q424 498 373 446.50Q322 395 249 395M254 482Q284 482 303.50 507Q323 532 323 563Q323 588 309 603.50Q295 619 272 619Q242 619 222.50 594Q203 569 203 537Q203 513 217 497.50Q231 482 254 482Z"  horiz-adv-x="402" vert-adv-y="1000"  />

      
      <glyph glyph-name="unibb" unicode="&#xbb;" d="M99 37L-6 132L165 298L88 453L230 516L342 282L340 274L99 37M372 28L267 124L433 285L351 450L493 513L601 289L587 240L372 28Z"  horiz-adv-x="630" vert-adv-y="1000"  />

      
      <glyph glyph-name="unibc" unicode="&#xbc;" d="M0 0L0 700L500 700L500 0L0 0M81 49L421 49L250 304L81 49M50 95L220 349L50 605L50 95M451 95L451 605L279 349L451 95M250 395L421 650L81 650L250 395Z"  horiz-adv-x="500" vert-adv-y="1000"  />

      
      <glyph glyph-name="unibd" unicode="&#xbd;" d="M0 0L0 700L500 700L500 0L0 0M81 49L421 49L250 304L81 49M50 95L220 349L50 605L50 95M451 95L451 605L279 349L451 95M250 395L421 650L81 650L250 395Z"  horiz-adv-x="500" vert-adv-y="1000"  />

      
      <glyph glyph-name="unibe" unicode="&#xbe;" d="M0 0L0 700L500 700L500 0L0 0M81 49L421 49L250 304L81 49M50 95L220 349L50 605L50 95M451 95L451 605L279 349L451 95M250 395L421 650L81 650L250 395Z"  horiz-adv-x="500" vert-adv-y="1000"  />

      
      <glyph glyph-name="unibf" unicode="&#xbf;" d="M240-10Q137-10 75 42Q13 94 13 172Q13 259 76 318.50Q139 378 265 398L295 472L415 472L398 304L388 296Q207 281 207 209Q207 159 273 159Q339 159 408 213L486 78Q386-10 240-10M273 530L319 700L517 700L471 530L273 530Z"  horiz-adv-x="540" vert-adv-y="1000"  />

      
      <glyph glyph-name="unic0" unicode="&#xc0;" d="M-74 0L413 705L603 705L712 0L508 0L491 125L221 125L137 0L-74 0M319 276L475 276L450 477L319 276M458 747L347 875L526 932L581 747L458 747Z"  horiz-adv-x="775" vert-adv-y="1000"  />

      
      <glyph glyph-name="unic1" unicode="&#xc1;" d="M-74 0L413 705L603 705L712 0L508 0L491 125L221 125L137 0L-74 0M319 276L475 276L450 477L319 276M425 747L580 932L753 875L572 747L425 747Z"  horiz-adv-x="775" vert-adv-y="1000"  />

      
      <glyph glyph-name="unic2" unicode="&#xc2;" d="M-74 0L413 705L603 705L712 0L508 0L491 125L221 125L137 0L-74 0M319 276L475 276L450 477L319 276M299 747L471 912L625 912L709 747L596 747L528 808L427 747L299 747Z"  horiz-adv-x="775" vert-adv-y="1000"  />

      
      <glyph glyph-name="unic3" unicode="&#xc3;" d="M-74 0L413 705L603 705L712 0L508 0L491 125L221 125L137 0L-74 0M319 276L475 276L450 477L319 276M390 744L301 784Q329 853 371.50 890.50Q414 928 462 928Q503 928 546 898Q580 873 597 873Q631 873 663 930L752 890Q723 820 681 783Q639 746 591 746Q550 746 507 776Q471 801 455 801Q422 801 390 744Z"  horiz-adv-x="775" vert-adv-y="1000"  />

      
      <glyph glyph-name="unic4" unicode="&#xc4;" d="M-74 0L413 705L603 705L712 0L508 0L491 125L221 125L137 0L-74 0M319 276L475 276L450 477L319 276M319 747L358 890L524 890L485 747L319 747M538 747L577 890L743 890L704 747L538 747Z"  horiz-adv-x="775" vert-adv-y="1000"  />

      
      <glyph glyph-name="unic5" unicode="&#xc5;" d="M-74 0Q-44 44 5.50 115Q55 186 159 337Q263 488 332 588L402 688Q383 716 383 749Q383 809 426 851.50Q469 894 530 894Q584 894 617.50 862Q651 830 651 782Q651 723 607 682L712 0L508 0L491 125L221 125L137 0L-74 0M319 276L475 276L450 477L319 276M506 698Q538 698 558.50 723Q579 748 579 781Q579 804 565 819Q551 834 527 834Q496 834 475.50 808.50Q455 783 455 751Q455 728 469 713Q483 698 506 698Z"  horiz-adv-x="775" vert-adv-y="1000"  />

      
      <glyph glyph-name="unic6" unicode="&#xc6;" d="M-76 0L474 700L1147 700L1103 535L754 535L726 429L1039 429L998 276L685 276L654 165L1008 165L964 0L421 0L455 125L232 125L135 0L-76 0M348 276L496 276L567 544L554 544L348 276Z"  horiz-adv-x="1080" vert-adv-y="1000"  />

      
      <glyph glyph-name="unic7" unicode="&#xc7;" d="M291-173L152-109L265 3Q166 33 108.50 108.50Q51 184 51 292Q51 370 82 445Q113 520 167.50 579.50Q222 639 305 676Q388 713 483 713Q590 713 665.50 665.50Q741 618 772 536L605 446Q561 536 463 536Q377 536 315.50 467Q254 398 254 306Q254 241 293 202Q332 163 394 163Q473 163 544 234L675 118Q560-10 390-13L291-173Z"  horiz-adv-x="727" vert-adv-y="1000"  />

      
      <glyph glyph-name="unic8" unicode="&#xc8;" d="M-12 0L176 700L737 700L692 535L324 535L295 429L629 429L588 276L254 276L224 165L598 165L554 0L-12 0M428 747L317 875L496 932L551 747L428 747Z"  horiz-adv-x="669" vert-adv-y="1000"  />

      
      <glyph glyph-name="unic9" unicode="&#xc9;" d="M-12 0L176 700L737 700L692 535L324 535L295 429L629 429L588 276L254 276L224 165L598 165L554 0L-12 0M370 747L525 932L698 875L517 747L370 747Z"  horiz-adv-x="669" vert-adv-y="1000"  />

      
      <glyph glyph-name="unica" unicode="&#xca;" d="M-12 0L176 700L737 700L692 535L324 535L295 429L629 429L588 276L254 276L224 165L598 165L554 0L-12 0M260 747L432 912L586 912L670 747L557 747L489 808L388 747L260 747Z"  horiz-adv-x="669" vert-adv-y="1000"  />

      
      <glyph glyph-name="unicb" unicode="&#xcb;" d="M-12 0L176 700L737 700L692 535L324 535L295 429L629 429L588 276L254 276L224 165L598 165L554 0L-12 0M273 747L312 890L478 890L439 747L273 747M492 747L531 890L697 890L658 747L492 747Z"  horiz-adv-x="669" vert-adv-y="1000"  />

      
      <glyph glyph-name="unicc" unicode="&#xcc;" d="M-7 0L181 700L375 700L187 0L-7 0M240 747L129 875L308 932L363 747L240 747Z"  horiz-adv-x="325" vert-adv-y="1000"  />

      
      <glyph glyph-name="unicd" unicode="&#xcd;" d="M-7 0L181 700L375 700L187 0L-7 0M199 747L354 932L527 875L346 747L199 747Z"  horiz-adv-x="325" vert-adv-y="1000"  />

      
      <glyph glyph-name="unice" unicode="&#xce;" d="M-7 0L181 700L375 700L187 0L-7 0M76 747L248 912L402 912L486 747L373 747L305 808L204 747L76 747Z"  horiz-adv-x="325" vert-adv-y="1000"  />

      
      <glyph glyph-name="unicf" unicode="&#xcf;" d="M-7 0L181 700L375 700L187 0L-7 0M97 747L136 890L302 890L263 747L97 747M316 747L355 890L521 890L482 747L316 747Z"  horiz-adv-x="325" vert-adv-y="1000"  />

      
      <glyph glyph-name="unid0" unicode="&#xd0;" d="M34 0L107 276L23 276L65 429L149 429L222 700L443 700Q627 700 710 619Q793 538 793 405Q793 232 663 116Q533 0 311 0L34 0M267 166L333 166Q450 166 525.50 228.50Q601 291 601 390Q601 533 424 533L366 533L338 429L452 429L411 276L297 276L267 166Z"  horiz-adv-x="800" vert-adv-y="1000"  />

      
      <glyph glyph-name="unid1" unicode="&#xd1;" d="M-12 0L176 700L357 700L538 311L643 700L836 700L648 0L478 0L289 403L181 0L-12 0M388 744L299 784Q327 853 369.50 890.50Q412 928 460 928Q501 928 544 898Q578 873 595 873Q629 873 661 930L750 890Q721 820 679 783Q637 746 589 746Q548 746 505 776Q469 801 453 801Q420 801 388 744Z"  horiz-adv-x="781" vert-adv-y="1000"  />

      
      <glyph glyph-name="unid2" unicode="&#xd2;" d="M386-13Q238-13 145 76.50Q52 166 52 301Q52 380 83.50 455Q115 530 169 587Q223 644 301.50 678.50Q380 713 469 713Q617 713 710 623.50Q803 534 803 399Q803 320 771.50 245Q740 170 686 113Q632 56 553.50 21.50Q475-13 386-13M403 161Q491 161 548 230.50Q605 300 605 384Q605 453 564.50 496Q524 539 452 539Q365 539 307.50 469Q250 399 250 316Q250 247 290.50 204Q331 161 403 161M455 747L344 875L523 932L578 747L455 747Z"  horiz-adv-x="813" vert-adv-y="1000"  />

      
      <glyph glyph-name="unid3" unicode="&#xd3;" d="M386-13Q238-13 145 76.50Q52 166 52 301Q52 380 83.50 455Q115 530 169 587Q223 644 301.50 678.50Q380 713 469 713Q617 713 710 623.50Q803 534 803 399Q803 320 771.50 245Q740 170 686 113Q632 56 553.50 21.50Q475-13 386-13M403 161Q491 161 548 230.50Q605 300 605 384Q605 453 564.50 496Q524 539 452 539Q365 539 307.50 469Q250 399 250 316Q250 247 290.50 204Q331 161 403 161M394 747L549 932L722 875L541 747L394 747Z"  horiz-adv-x="813" vert-adv-y="1000"  />

      
      <glyph glyph-name="unid4" unicode="&#xd4;" d="M386-13Q238-13 145 76.50Q52 166 52 301Q52 380 83.50 455Q115 530 169 587Q223 644 301.50 678.50Q380 713 469 713Q617 713 710 623.50Q803 534 803 399Q803 320 771.50 245Q740 170 686 113Q632 56 553.50 21.50Q475-13 386-13M403 161Q491 161 548 230.50Q605 300 605 384Q605 453 564.50 496Q524 539 452 539Q365 539 307.50 469Q250 399 250 316Q250 247 290.50 204Q331 161 403 161M296 747L468 912L622 912L706 747L593 747L525 808L424 747L296 747Z"  horiz-adv-x="813" vert-adv-y="1000"  />

      
      <glyph glyph-name="unid5" unicode="&#xd5;" d="M386-13Q238-13 145 76.50Q52 166 52 301Q52 380 83.50 455Q115 530 169 587Q223 644 301.50 678.50Q380 713 469 713Q617 713 710 623.50Q803 534 803 399Q803 320 771.50 245Q740 170 686 113Q632 56 553.50 21.50Q475-13 386-13M403 161Q491 161 548 230.50Q605 300 605 384Q605 453 564.50 496Q524 539 452 539Q365 539 307.50 469Q250 399 250 316Q250 247 290.50 204Q331 161 403 161M390 744L301 784Q329 853 371.50 890.50Q414 928 462 928Q503 928 546 898Q580 873 597 873Q631 873 663 930L752 890Q723 820 681 783Q639 746 591 746Q550 746 507 776Q471 801 455 801Q422 801 390 744Z"  horiz-adv-x="813" vert-adv-y="1000"  />

      
      <glyph glyph-name="unid6" unicode="&#xd6;" d="M386-13Q238-13 145 76.50Q52 166 52 301Q52 380 83.50 455Q115 530 169 587Q223 644 301.50 678.50Q380 713 469 713Q617 713 710 623.50Q803 534 803 399Q803 320 771.50 245Q740 170 686 113Q632 56 553.50 21.50Q475-13 386-13M403 161Q491 161 548 230.50Q605 300 605 384Q605 453 564.50 496Q524 539 452 539Q365 539 307.50 469Q250 399 250 316Q250 247 290.50 204Q331 161 403 161M318 747L357 890L523 890L484 747L318 747M537 747L576 890L742 890L703 747L537 747Z"  horiz-adv-x="813" vert-adv-y="1000"  />

      
      <glyph glyph-name="unid7" unicode="&#xd7;" d="M161 6L53 115L211 273L53 431L161 540L319 381L478 540L586 431L428 273L586 115L478 6L319 164L161 6Z"  horiz-adv-x="640" vert-adv-y="1000"  />

      
      <glyph glyph-name="unid8" unicode="&#xd8;" d="M386-13Q260-13 174 53L111-5L-36-5L105 123Q52 201 52 301Q52 380 83.50 455Q115 530 169 587Q223 644 301.50 678.50Q380 713 469 713Q597 713 688 643L756 705L903 705L754 570Q803 496 803 399Q803 320 771.50 245Q740 170 686 113Q632 56 553.50 21.50Q475-13 386-13M403 155Q492 155 551.50 227Q611 299 611 385Q611 412 603 438L316 176Q355 155 403 155M255 253L547 518Q509 545 452 545Q363 545 304 473Q245 401 245 315Q245 280 255 253Z"  horiz-adv-x="813" vert-adv-y="1000"  />

      
      <glyph glyph-name="unid9" unicode="&#xd9;" d="M342-13Q207-13 133 51.50Q59 116 59 232Q59 283 75 344L171 700L367 700L268 330Q258 293 258 264Q258 216 286.50 189Q315 162 367 162Q424 162 461 199Q499 235 520 315L624 700L820 700L709 286Q672 149 600 77Q510-13 342-13M453 745L342 873L521 930L576 745L453 745Z"  horiz-adv-x="760" vert-adv-y="1000"  />

      
      <glyph glyph-name="unida" unicode="&#xda;" d="M342-13Q207-13 133 51.50Q59 116 59 232Q59 283 75 344L171 700L367 700L268 330Q258 293 258 264Q258 216 286.50 189Q315 162 367 162Q424 162 461 199Q499 235 520 315L624 700L820 700L709 286Q672 149 600 77Q510-13 342-13M406 745L561 930L734 873L553 745L406 745Z"  horiz-adv-x="760" vert-adv-y="1000"  />

      
      <glyph glyph-name="unidb" unicode="&#xdb;" d="M342-13Q207-13 133 51.50Q59 116 59 232Q59 283 75 344L171 700L367 700L268 330Q258 293 258 264Q258 216 286.50 189Q315 162 367 162Q424 162 461 199Q499 235 520 315L624 700L820 700L709 286Q672 149 600 77Q510-13 342-13M294 747L466 912L620 912L704 747L591 747L523 808L422 747L294 747Z"  horiz-adv-x="760" vert-adv-y="1000"  />

      
      <glyph glyph-name="unidc" unicode="&#xdc;" d="M342-13Q207-13 133 51.50Q59 116 59 232Q59 283 75 344L171 700L367 700L268 330Q258 293 258 264Q258 216 286.50 189Q315 162 367 162Q424 162 461 199Q499 235 520 315L624 700L820 700L709 286Q672 149 600 77Q510-13 342-13M314 747L353 890L519 890L480 747L314 747M533 747L572 890L738 890L699 747L533 747Z"  horiz-adv-x="760" vert-adv-y="1000"  />

      
      <glyph glyph-name="unidd" unicode="&#xdd;" d="M159 0L232 271L91 700L300 700L369 438L580 700L812 700L421 250L354 0L159 0M357 747L512 932L685 875L504 747L357 747Z"  horiz-adv-x="677" vert-adv-y="1000"  />

      
      <glyph glyph-name="unide" unicode="&#xde;" d="M-12 0L176 700L371 700L345 600L382 600Q547 600 620 527Q674 472 674 386Q674 257 579.50 181.50Q485 106 330 106L211 106L183 0L-12 0M253 260L326 260Q396 260 436 289.50Q476 319 476 368Q476 398 456 418Q430 444 373 444L302 444L253 260Z"  horiz-adv-x="682" vert-adv-y="1000"  />

      
      <glyph glyph-name="unidf" unicode="&#xdf;" d="M235-3L271 135Q342 135 375.50 161Q409 187 409 227Q409 290 315 298L342 399Q463 424 463 514Q463 545 444.50 563Q426 581 399 581Q327 581 297 471L171 0L-19 0L110 479Q142 599 204 663Q279 738 406 738Q512 738 576 684Q640 630 640 542Q640 469 600 417Q560 365 483 343Q589 304 589 209Q589 110 498.50 48.50Q408-13 235-3Z"  horiz-adv-x="639" vert-adv-y="1000"  />

      
      <glyph glyph-name="unie0" unicode="&#xe0;" d="M152-11Q85-11 43 29Q1 69 1 136Q1 224 66 275.50Q131 327 239 327Q307 327 376 306L378 313Q383 335 383 346Q383 404 290 404Q212 404 144 377L117 515Q211 548 330 548Q450 548 510.50 503Q571 458 571 376Q571 340 560 298L480 0L293 0L308 58Q234-11 152-11M240 106Q276 106 308 134Q340 162 351 204L356 222Q320 234 285 234Q240 234 213 213Q186 192 186 156Q186 133 201 119.50Q216 106 240 106M334 587L223 715L402 772L457 587L334 587Z"  horiz-adv-x="597" vert-adv-y="1000"  />

      
      <glyph glyph-name="unie1" unicode="&#xe1;" d="M152-11Q85-11 43 29Q1 69 1 136Q1 224 66 275.50Q131 327 239 327Q307 327 376 306L378 313Q383 335 383 346Q383 404 290 404Q212 404 144 377L117 515Q211 548 330 548Q450 548 510.50 503Q571 458 571 376Q571 340 560 298L480 0L293 0L308 58Q234-11 152-11M240 106Q276 106 308 134Q340 162 351 204L356 222Q320 234 285 234Q240 234 213 213Q186 192 186 156Q186 133 201 119.50Q216 106 240 106M279 587L434 772L607 715L426 587L279 587Z"  horiz-adv-x="597" vert-adv-y="1000"  />

      
      <glyph glyph-name="unie2" unicode="&#xe2;" d="M152-11Q85-11 43 29Q1 69 1 136Q1 224 66 275.50Q131 327 239 327Q307 327 376 306L378 313Q383 335 383 346Q383 404 290 404Q212 404 144 377L117 515Q211 548 330 548Q450 548 510.50 503Q571 458 571 376Q571 340 560 298L480 0L293 0L308 58Q234-11 152-11M240 106Q276 106 308 134Q340 162 351 204L356 222Q320 234 285 234Q240 234 213 213Q186 192 186 156Q186 133 201 119.50Q216 106 240 106M176 587L348 752L502 752L586 587L473 587L405 648L304 587L176 587Z"  horiz-adv-x="597" vert-adv-y="1000"  />

      
      <glyph glyph-name="unie3" unicode="&#xe3;" d="M152-11Q85-11 43 29Q1 69 1 136Q1 224 66 275.50Q131 327 239 327Q307 327 376 306L378 313Q383 335 383 346Q383 404 290 404Q212 404 144 377L117 515Q211 548 330 548Q450 548 510.50 503Q571 458 571 376Q571 340 560 298L480 0L293 0L308 58Q234-11 152-11M240 106Q276 106 308 134Q340 162 351 204L356 222Q320 234 285 234Q240 234 213 213Q186 192 186 156Q186 133 201 119.50Q216 106 240 106M257 584L168 624Q196 693 238.50 730.50Q281 768 329 768Q370 768 413 738Q447 713 464 713Q498 713 530 770L619 730Q590 660 548 623Q506 586 458 586Q417 586 374 616Q338 641 322 641Q289 641 257 584Z"  horiz-adv-x="597" vert-adv-y="1000"  />

      
      <glyph glyph-name="unie4" unicode="&#xe4;" d="M152-11Q85-11 43 29Q1 69 1 136Q1 224 66 275.50Q131 327 239 327Q307 327 376 306L378 313Q383 335 383 346Q383 404 290 404Q212 404 144 377L117 515Q211 548 330 548Q450 548 510.50 503Q571 458 571 376Q571 340 560 298L480 0L293 0L308 58Q234-11 152-11M240 106Q276 106 308 134Q340 162 351 204L356 222Q320 234 285 234Q240 234 213 213Q186 192 186 156Q186 133 201 119.50Q216 106 240 106M190 588L229 731L395 731L356 588L190 588M409 588L448 731L614 731L575 588L409 588Z"  horiz-adv-x="597" vert-adv-y="1000"  />

      
      <glyph glyph-name="unie5" unicode="&#xe5;" d="M152-11Q85-11 43 29Q1 69 1 136Q1 224 66 275.50Q131 327 239 327Q307 327 376 306L378 313Q383 335 383 346Q383 404 290 404Q212 404 144 377L117 515Q211 548 330 548Q450 548 510.50 503Q571 458 571 376Q571 340 560 298L480 0L293 0L308 58Q234-11 152-11M240 106Q276 106 308 134Q340 162 351 204L356 222Q320 234 285 234Q240 234 213 213Q186 192 186 156Q186 133 201 119.50Q216 106 240 106M402 592Q348 592 315 624Q282 656 282 704Q282 764 325 806.50Q368 849 429 849Q483 849 516 817Q549 785 549 737Q549 678 506 635Q463 592 402 592M405 653Q437 653 457.50 678Q478 703 478 736Q478 758 463.50 773.50Q449 789 426 789Q394 789 373.50 763.50Q353 738 353 706Q353 683 367 668Q381 653 405 653Z"  horiz-adv-x="597" vert-adv-y="1000"  />

      
      <glyph glyph-name="unie6" unicode="&#xe6;" d="M174-11Q94-11 47.50 28.50Q1 68 1 136Q1 224 66 275.50Q131 327 239 327Q307 327 376 306L378 313Q383 335 383 346Q383 404 290 404Q212 404 144 377L117 515Q211 548 330 548Q454 548 506 484Q590 553 691 553Q799 553 856 488.50Q913 424 913 329Q913 275 892 218L533 218Q540 129 634 129Q690 129 749 172L837 68Q746-13 613-13Q475-13 407 85Q310-11 174-11M250 105Q316 105 373 159Q366 186 364 218Q327 234 285 234Q240 234 213 213Q186 192 186 156Q186 133 203 119Q220 105 250 105M546 315L739 315Q744 330 744 344Q744 374 725 393.50Q706 413 670 413Q630 413 596.50 387.50Q563 362 546 315Z"  horiz-adv-x="931" vert-adv-y="1000"  />

      
      <glyph glyph-name="unie7" unicode="&#xe7;" d="M195-173L56-109L172 6Q105 33 66.50 89.50Q28 146 28 224Q28 360 123 456Q218 552 353 552Q443 552 501.50 511Q560 470 583 404L434 327Q405 395 341 395Q288 395 249.50 346Q211 297 211 234Q211 194 234 169Q257 144 292 144Q347 144 396 194L512 93Q424-8 294-13L195-173Z"  horiz-adv-x="563" vert-adv-y="1000"  />

      
      <glyph glyph-name="unie8" unicode="&#xe8;" d="M286-13Q167-13 97.50 52Q28 117 28 227Q28 354 119 453.50Q210 553 353 553Q466 553 524.50 488.50Q583 424 583 329Q583 275 562 218L203 218Q210 129 304 129Q360 129 419 172L507 68Q414-13 286-13M216 315L409 315Q414 330 414 344Q414 374 395 393.50Q376 413 340 413Q300 413 266.50 387.50Q233 362 216 315M330 587L219 715L398 772L453 587L330 587Z"  horiz-adv-x="601" vert-adv-y="1000"  />

      
      <glyph glyph-name="unie9" unicode="&#xe9;" d="M286-13Q167-13 97.50 52Q28 117 28 227Q28 354 119 453.50Q210 553 353 553Q466 553 524.50 488.50Q583 424 583 329Q583 275 562 218L203 218Q210 129 304 129Q360 129 419 172L507 68Q414-13 286-13M216 315L409 315Q414 330 414 344Q414 374 395 393.50Q376 413 340 413Q300 413 266.50 387.50Q233 362 216 315M274 587L429 772L602 715L421 587L274 587Z"  horiz-adv-x="601" vert-adv-y="1000"  />

      
      <glyph glyph-name="uniea" unicode="&#xea;" d="M286-13Q167-13 97.50 52Q28 117 28 227Q28 354 119 453.50Q210 553 353 553Q466 553 524.50 488.50Q583 424 583 329Q583 275 562 218L203 218Q210 129 304 129Q360 129 419 172L507 68Q414-13 286-13M216 315L409 315Q414 330 414 344Q414 374 395 393.50Q376 413 340 413Q300 413 266.50 387.50Q233 362 216 315M168 587L340 752L494 752L578 587L465 587L397 648L296 587L168 587Z"  horiz-adv-x="601" vert-adv-y="1000"  />

      
      <glyph glyph-name="unieb" unicode="&#xeb;" d="M286-13Q167-13 97.50 52Q28 117 28 227Q28 354 119 453.50Q210 553 353 553Q466 553 524.50 488.50Q583 424 583 329Q583 275 562 218L203 218Q210 129 304 129Q360 129 419 172L507 68Q414-13 286-13M216 315L409 315Q414 330 414 344Q414 374 395 393.50Q376 413 340 413Q300 413 266.50 387.50Q233 362 216 315M185 587L224 730L390 730L351 587L185 587M404 587L443 730L609 730L570 587L404 587Z"  horiz-adv-x="601" vert-adv-y="1000"  />

      
      <glyph glyph-name="uniec" unicode="&#xec;" d="M-17 0L128 541L318 541L173 0L-17 0M198 587L87 715L266 772L321 587L198 587Z"  horiz-adv-x="301" vert-adv-y="1000"  />

      
      <glyph glyph-name="unied" unicode="&#xed;" d="M-17 0L128 541L318 541L173 0L-17 0M138 587L293 772L466 715L285 587L138 587Z"  horiz-adv-x="301" vert-adv-y="1000"  />

      
      <glyph glyph-name="uniee" unicode="&#xee;" d="M-17 0L128 541L318 541L173 0L-17 0M24 587L196 752L350 752L434 587L321 587L253 648L152 587L24 587Z"  horiz-adv-x="301" vert-adv-y="1000"  />

      
      <glyph glyph-name="unief" unicode="&#xef;" d="M-17 0L128 541L318 541L173 0L-17 0M41 587L80 730L246 730L207 587L41 587M260 587L299 730L465 730L426 587L260 587Z"  horiz-adv-x="301" vert-adv-y="1000"  />

      
      <glyph glyph-name="unif0" unicode="&#xf0;" d="M288-12Q171-12 98.50 53.50Q26 119 26 221Q26 328 103 404Q180 480 297 480Q373 480 428 439L373 558L242 513L201 602L334 644L295 730L476 730L491 696L612 737L653 648L529 609L568 520Q612 422 612 321Q612 176 524 82Q436-12 288-12M301 146Q353 146 387 181Q421 216 421 263Q421 302 395 327Q369 352 329 352Q278 352 243.50 318Q209 284 209 236Q209 196 235.50 171Q262 146 301 146Z"  horiz-adv-x="642" vert-adv-y="1000"  />

      
      <glyph glyph-name="unif1" unicode="&#xf1;" d="M-21 0L124 541L314 541L297 479Q367 553 452 553Q525 553 567 509.50Q609 466 609 391Q609 354 593 294L515 0L325 0L401 283Q407 304 407 327Q407 384 347 384Q273 384 246 286L169 0L-21 0M268 584L179 624Q207 693 249.50 730.50Q292 768 340 768Q381 768 424 738Q458 713 475 713Q509 713 541 770L630 730Q601 660 559 623Q517 586 469 586Q428 586 385 616Q349 641 333 641Q300 641 268 584Z"  horiz-adv-x="630" vert-adv-y="1000"  />

      
      <glyph glyph-name="unif2" unicode="&#xf2;" d="M295-13Q174-13 102 58Q30 129 30 239Q30 364 122.50 458.50Q215 553 348 553Q470 553 542 482Q614 411 614 302Q614 176 521.50 81.50Q429-13 295-13M306 145Q360 145 396 191.50Q432 238 432 295Q432 340 406 367.50Q380 395 338 395Q284 395 248 348.50Q212 302 212 246Q212 200 238 172.50Q264 145 306 145M339 587L228 715L407 772L462 587L339 587Z"  horiz-adv-x="644" vert-adv-y="1000"  />

      
      <glyph glyph-name="unif3" unicode="&#xf3;" d="M295-13Q174-13 102 58Q30 129 30 239Q30 364 122.50 458.50Q215 553 348 553Q470 553 542 482Q614 411 614 302Q614 176 521.50 81.50Q429-13 295-13M306 145Q360 145 396 191.50Q432 238 432 295Q432 340 406 367.50Q380 395 338 395Q284 395 248 348.50Q212 302 212 246Q212 200 238 172.50Q264 145 306 145M281 587L436 772L609 715L428 587L281 587Z"  horiz-adv-x="644" vert-adv-y="1000"  />

      
      <glyph glyph-name="unif4" unicode="&#xf4;" d="M295-13Q174-13 102 58Q30 129 30 239Q30 364 122.50 458.50Q215 553 348 553Q470 553 542 482Q614 411 614 302Q614 176 521.50 81.50Q429-13 295-13M306 145Q360 145 396 191.50Q432 238 432 295Q432 340 406 367.50Q380 395 338 395Q284 395 248 348.50Q212 302 212 246Q212 200 238 172.50Q264 145 306 145M172 587L344 752L498 752L582 587L469 587L401 648L300 587L172 587Z"  horiz-adv-x="644" vert-adv-y="1000"  />

      
      <glyph glyph-name="unif5" unicode="&#xf5;" d="M295-13Q174-13 102 58Q30 129 30 239Q30 364 122.50 458.50Q215 553 348 553Q470 553 542 482Q614 411 614 302Q614 176 521.50 81.50Q429-13 295-13M306 145Q360 145 396 191.50Q432 238 432 295Q432 340 406 367.50Q380 395 338 395Q284 395 248 348.50Q212 302 212 246Q212 200 238 172.50Q264 145 306 145M259 584L170 624Q198 693 240.50 730.50Q283 768 331 768Q372 768 415 738Q449 713 466 713Q500 713 532 770L621 730Q592 660 550 623Q508 586 460 586Q419 586 376 616Q340 641 324 641Q291 641 259 584Z"  horiz-adv-x="644" vert-adv-y="1000"  />

      
      <glyph glyph-name="unif6" unicode="&#xf6;" d="M295-13Q174-13 102 58Q30 129 30 239Q30 364 122.50 458.50Q215 553 348 553Q470 553 542 482Q614 411 614 302Q614 176 521.50 81.50Q429-13 295-13M306 145Q360 145 396 191.50Q432 238 432 295Q432 340 406 367.50Q380 395 338 395Q284 395 248 348.50Q212 302 212 246Q212 200 238 172.50Q264 145 306 145M187 587L226 730L392 730L353 587L187 587M406 587L445 730L611 730L572 587L406 587Z"  horiz-adv-x="644" vert-adv-y="1000"  />

      
      <glyph glyph-name="unif7" unicode="&#xf7;" d="M166 34L213 209L391 209L344 34L166 34M75 271L120 438L611 438L566 271L75 271M291 500L338 675L516 675L469 500L291 500Z"  horiz-adv-x="640" vert-adv-y="1000"  />

      
      <glyph glyph-name="unif8" unicode="&#xf8;" d="M295-12Q195-12 126 39L77-5L-56-5L66 104Q30 162 30 242Q30 365 122.50 459Q215 553 348 553Q451 553 520 501L570 546L703 546L579 435Q614 377 614 299Q614 176 521 82Q428-12 295-12M304 138Q362 138 401 187Q440 236 440 296Q440 305 438 319L251 151Q275 138 304 138M206 219L395 388Q373 402 340 402Q282 402 243 353.50Q204 305 204 245Q204 237 206 219Z"  horiz-adv-x="644" vert-adv-y="1000"  />

      
      <glyph glyph-name="unif9" unicode="&#xf9;" d="M183-12Q110-12 68 31.50Q26 75 26 150Q26 190 41 247L120 541L310 541L234 258Q227 234 227 214Q227 157 288 157Q363 157 388 255L465 541L655 541L511 0L321 0L337 62Q267-12 183-12M366 587L255 715L434 772L489 587L366 587Z"  horiz-adv-x="632" vert-adv-y="1000"  />

      
      <glyph glyph-name="unifa" unicode="&#xfa;" d="M183-12Q110-12 68 31.50Q26 75 26 150Q26 190 41 247L120 541L310 541L234 258Q227 234 227 214Q227 157 288 157Q363 157 388 255L465 541L655 541L511 0L321 0L337 62Q267-12 183-12M297 587L452 772L625 715L444 587L297 587Z"  horiz-adv-x="632" vert-adv-y="1000"  />

      
      <glyph glyph-name="unifb" unicode="&#xfb;" d="M183-12Q110-12 68 31.50Q26 75 26 150Q26 190 41 247L120 541L310 541L234 258Q227 234 227 214Q227 157 288 157Q363 157 388 255L465 541L655 541L511 0L321 0L337 62Q267-12 183-12M190 587L362 752L516 752L600 587L487 587L419 648L318 587L190 587Z"  horiz-adv-x="632" vert-adv-y="1000"  />

      
      <glyph glyph-name="unifc" unicode="&#xfc;" d="M183-12Q110-12 68 31.50Q26 75 26 150Q26 190 41 247L120 541L310 541L234 258Q227 234 227 214Q227 157 288 157Q363 157 388 255L465 541L655 541L511 0L321 0L337 62Q267-12 183-12M208 587L247 730L413 730L374 587L208 587M427 587L466 730L632 730L593 587L427 587Z"  horiz-adv-x="632" vert-adv-y="1000"  />

      
      <glyph glyph-name="unifd" unicode="&#xfd;" d="M94-163Q10-163-50-124L35 15Q72-12 110-12Q137-12 157 8L87 541L280 541L302 216L484 541L684 541L349 3Q292-88 233.50-125.50Q175-163 94-163M299 587L454 772L627 715L446 587L299 587Z"  horiz-adv-x="622" vert-adv-y="1000"  />

      
      <glyph glyph-name="unife" unicode="&#xfe;" d="M-64-160L174 730L364 730L298 484Q369 553 452 553Q535 553 589.50 493Q644 433 644 331Q644 187 557.50 87.50Q471-12 353-12Q245-12 189 74L126-160L-64-160M320 146Q374 146 413 191.50Q452 237 452 301Q452 344 426.50 370Q401 396 360 396Q306 396 266 350Q226 304 226 242Q226 199 252 172.50Q278 146 320 146Z"  horiz-adv-x="672" vert-adv-y="1000"  />

      
      <glyph glyph-name="uniff" unicode="&#xff;" d="M94-163Q10-163-50-124L35 15Q72-12 110-12Q137-12 157 8L87 541L280 541L302 216L484 541L684 541L349 3Q292-88 233.50-125.50Q175-163 94-163M195 587L234 730L400 730L361 587L195 587M414 587L453 730L619 730L580 587L414 587Z"  horiz-adv-x="622" vert-adv-y="1000"  />

      
      <glyph glyph-name="uni0131" unicode="&#x0131;" d="M-17 0L128 541L318 541L173 0L-17 0Z"  horiz-adv-x="301" vert-adv-y="1000"  />

      
      <glyph glyph-name="uni0141" unicode="&#x0141;" d="M35 0L101 245L19 223L66 396L148 418L223 700L415 700L355 475L547 528L501 354L309 302L273 170L607 170L561 0L35 0Z"  horiz-adv-x="662" vert-adv-y="1000"  />

      
      <glyph glyph-name="uni0142" unicode="&#x0142;" d="M32 0L103 263L15 240L61 410L149 434L228 730L418 730L353 488L441 512L395 341L307 317L222 0L32 0Z"  horiz-adv-x="398" vert-adv-y="1000"  />

      
      <glyph glyph-name="uni0152" unicode="&#x0152;" d="M401 0Q217 0 125 92Q51 166 51 295Q51 456 166 571Q295 700 533 700L1147 700L1103 535L754 535L726 429L1039 429L998 276L685 276L654 165L1008 165L964 0L401 0M422 172L464 172L560 528L511 528Q382 528 311 457Q251 397 251 311Q251 250 286 215Q327 172 422 172Z"  horiz-adv-x="1080" vert-adv-y="1000"  />

      
      <glyph glyph-name="uni0153" unicode="&#x0153;" d="M296-12Q174-12 102 59.50Q30 131 30 242Q30 366 122 459.50Q214 553 348 553Q479 553 544 463Q631 553 756 553Q867 553 925 488.50Q983 424 983 329Q983 275 962 218L603 218Q610 129 705 129Q760 129 819 172L907 68Q816-13 683-13Q560-13 497 72Q413-12 296-12M305 146Q360 146 396 191Q432 236 432 294Q432 339 406 367Q380 395 338 395Q284 395 248 349.50Q212 304 212 247Q212 202 237.50 174Q263 146 305 146M616 315L810 315Q814 327 814 344Q814 374 795 393.50Q776 413 741 413Q701 413 667 387.50Q633 362 616 315Z"  horiz-adv-x="1002" vert-adv-y="1000"  />

      
      <glyph glyph-name="uni0160" unicode="&#x0160;" d="M302-12Q96-12-23 116L102 245Q205 150 318 150Q353 150 375 164Q397 178 397 202Q397 223 375 238Q353 253 280 281Q188 316 143 359Q98 402 98 474Q98 578 182 645Q266 712 395 712Q573 712 682 608L562 474Q473 551 377 551Q343 551 322 537Q301 523 301 501Q301 481 322 468Q343 455 418 425Q508 391 554 347Q600 303 600 230Q600 122 516.50 55Q433-12 302-12M359 747L275 912L388 912L456 851L557 912L685 912L513 747L359 747Z"  horiz-adv-x="645" vert-adv-y="1000"  />

      
      <glyph glyph-name="uni0161" unicode="&#x0161;" d="M230-13Q153-13 82.50 12Q12 37-37 81L57 192Q95 158 144.50 138.50Q194 119 237 119Q285 119 285 152Q285 166 269 176Q253 186 211 203Q136 233 97.50 267.50Q59 302 59 361Q59 444 122.50 498.50Q186 553 295 553Q364 553 426.50 531Q489 509 529 477L438 363Q360 421 285 421Q238 421 238 390Q238 377 254 366.50Q270 356 313 339Q386 310 425 276Q464 242 464 181Q464 98 403 42.50Q342-13 230-13M266 587L182 752L295 752L363 691L464 752L592 752L420 587L266 587Z"  horiz-adv-x="511" vert-adv-y="1000"  />

      
      <glyph glyph-name="uni0178" unicode="&#x0178;" d="M159 0L232 271L91 700L300 700L369 438L580 700L812 700L421 250L354 0L159 0M256 747L295 890L461 890L422 747L256 747M475 747L514 890L680 890L641 747L475 747Z"  horiz-adv-x="677" vert-adv-y="1000"  />

      
      <glyph glyph-name="uni017D" unicode="&#x017D;" d="M-36 0L1 141L447 536L119 536L164 700L759 700L721 559L275 164L616 164L572 0L-36 0M384 747L300 912L413 912L481 851L582 912L710 912L538 747L384 747Z"  horiz-adv-x="681" vert-adv-y="1000"  />

      
      <glyph glyph-name="uni017E" unicode="&#x017E;" d="M-40 0L-6 125L312 390L74 390L114 541L600 541L567 416L248 151L497 151L457 0L-40 0M280 587L196 752L309 752L377 691L478 752L606 752L434 587L280 587Z"  horiz-adv-x="558" vert-adv-y="1000"  />

      
      <glyph glyph-name="uni0192" unicode="&#x0192;" d="M55-12Q4-12-44-2L-12 137Q15 130 38 130Q89 130 120 200L178 329L115 329L148 473L242 473L277 549Q314 634 373 673Q432 712 522 712Q594 712 642 696L610 556Q577 568 540 568Q475 568 447 502L434 473L551 473L519 329L370 329L292 155Q252 64 195.50 26Q139-12 55-12Z"  horiz-adv-x="559" vert-adv-y="1000"  />

      
      <glyph glyph-name="uni02C6" unicode="&#x02C6;" d="M130 587L302 752L456 752L540 587L427 587L359 648L258 587L130 587Z"  horiz-adv-x="500" vert-adv-y="1000"  />

      
      <glyph glyph-name="uni02C7" unicode="&#x02C7;" d="M256 587L172 752L285 752L353 691L454 752L582 752L410 587L256 587Z"  horiz-adv-x="500" vert-adv-y="1000"  />

      
      <glyph glyph-name="uni02D8" unicode="&#x02D8;" d="M359 586Q275 586 227.50 630.50Q180 675 180 748L180 752L293 752Q295 726 314.50 710Q334 694 367 694Q429 694 463 752L577 752Q555 675 495 630.50Q435 586 359 586Z"  horiz-adv-x="500" vert-adv-y="1000"  />

      
      <glyph glyph-name="uni02D9" unicode="&#x02D9;" d="M250 587L289 730L459 730L420 587L250 587Z"  horiz-adv-x="500" vert-adv-y="1000"  />

      
      <glyph glyph-name="uni02DA" unicode="&#x02DA;" d="M356 592Q302 592 269 624Q236 656 236 704Q236 764 279 806.50Q322 849 383 849Q437 849 470 817Q503 785 503 737Q503 678 460 635Q417 592 356 592M359 653Q391 653 411.50 678Q432 703 432 736Q432 758 417.50 773.50Q403 789 380 789Q348 789 327.50 763.50Q307 738 307 706Q307 683 321 668Q335 653 359 653Z"  horiz-adv-x="500" vert-adv-y="1000"  />

      
      <glyph glyph-name="uni02DB" unicode="&#x02DB;" d="M194-167Q54-167 54-85Q54-40 99 10L217 10Q198-20 198-43Q198-82 274-83L252-164Q220-167 194-167Z"  horiz-adv-x="500" vert-adv-y="1000"  />

      
      <glyph glyph-name="uni02DC" unicode="&#x02DC;" d="M222 584L133 624Q161 693 203.50 730.50Q246 768 294 768Q335 768 378 738Q412 713 429 713Q463 713 495 770L584 730Q555 660 513 623Q471 586 423 586Q382 586 339 616Q303 641 287 641Q254 641 222 584Z"  horiz-adv-x="500" vert-adv-y="1000"  />

      
      <glyph glyph-name="uni02DD" unicode="&#x02DD;" d="M116 588L265 772L413 718L456 772L612 715L442 588L311 588L397 697L247 588L116 588Z"  horiz-adv-x="500" vert-adv-y="1000"  />

      
      <glyph glyph-name="uni03A9" unicode="&#x03A9;" d="M-12 0L26 145L199 145L205 164Q148 180 117.50 233.50Q87 287 87 352Q87 439 123.50 509.50Q160 580 220 623.50Q280 667 354.50 690.50Q429 714 508 714Q626 714 706 648Q786 582 786 479Q786 379 715.50 282.50Q645 186 534 164L528 145L700 145L662 0L360 0L424 242Q502 253 552 319.50Q602 386 602 454Q602 504 570 535.50Q538 567 478 567Q389 567 327.50 500Q266 433 266 351Q266 309 288 279Q310 249 354 242L290 0L-12 0Z"  horiz-adv-x="778" vert-adv-y="1000"  />

      
      <glyph glyph-name="uni03C0" unicode="&#x03C0;" d="M0 0L0 700L500 700L500 0L0 0M81 49L421 49L250 304L81 49M50 95L220 349L50 605L50 95M451 95L451 605L279 349L451 95M250 395L421 650L81 650L250 395Z"  horiz-adv-x="500" vert-adv-y="1000"  />

      
      <glyph glyph-name="uni0401" unicode="&#x0401;" d="M-12 0L176 700L737 700L692 535L324 535L295 429L629 429L588 276L254 276L224 165L598 165L554 0L-12 0M263 747L302 890L468 890L429 747L263 747M482 747L521 890L687 890L648 747L482 747Z"  horiz-adv-x="669" vert-adv-y="1000"  />

      
      <glyph glyph-name="uni0402" unicode="&#x0402;" d="M497-67Q432-67 364-48L423 114Q435 112 462 112Q517 112 550 137Q583 162 583 212Q583 241 562 261Q541 281 504 281Q432 281 381 243L316 0L122 0L264 530L84 530L129 700L743 700L698 530L458 530L427 415Q515 460 608 460Q691 460 743.50 401Q796 342 796 255Q796 118 709 25.50Q622-67 497-67Z"  horiz-adv-x="854" vert-adv-y="1000"  />

      
      <glyph glyph-name="uni0403" unicode="&#x0403;" d="M-12 0L175 700L669 700L624 530L324 530L182 0L-12 0M312 747L467 932L640 875L459 747L312 747Z"  horiz-adv-x="572" vert-adv-y="1000"  />

      
      <glyph glyph-name="uni0404" unicode="&#x0404;" d="M392-14Q238-14 144.50 70.50Q51 155 51 301Q51 406 101 499.50Q151 593 248 653.50Q345 714 468 714Q567 714 645.50 673Q724 632 761 561L606 452Q555 542 461 542Q394 542 345 509.50Q296 477 270 422L498 422L463 285L250 285Q259 228 297.50 192.50Q336 157 394 157Q482 157 552 227L660 101Q547-14 392-14Z"  horiz-adv-x="721" vert-adv-y="1000"  />

      
      <glyph glyph-name="uni0405" unicode="&#x0405;" d="M302-12Q96-12-23 116L102 245Q205 150 318 150Q353 150 375 164Q397 178 397 202Q397 223 375 238Q353 253 280 281Q188 316 143 359Q98 402 98 474Q98 578 182 645Q266 712 395 712Q573 712 682 608L562 474Q473 551 377 551Q343 551 322 537Q301 523 301 501Q301 481 322 468Q343 455 418 425Q508 391 554 347Q600 303 600 230Q600 122 516.50 55Q433-12 302-12Z"  horiz-adv-x="645" vert-adv-y="1000"  />

      
      <glyph glyph-name="uni0406" unicode="&#x0406;" d="M-7 0L181 700L375 700L187 0L-7 0Z"  horiz-adv-x="325" vert-adv-y="1000"  />

      
      <glyph glyph-name="uni0407" unicode="&#x0407;" d="M-7 0L181 700L375 700L187 0L-7 0M86 747L125 890L291 890L252 747L86 747M305 747L344 890L510 890L471 747L305 747Z"  horiz-adv-x="325" vert-adv-y="1000"  />

      
      <glyph glyph-name="uni0408" unicode="&#x0408;" d="M197-12Q123-12 59.50 20Q-4 52-41 111L91 226Q141 158 203 158Q246 158 278 190Q306 218 331 309L436 700L629 700L515 272Q477 130 411 64Q333-12 197-12Z"  horiz-adv-x="568" vert-adv-y="1000"  />

      
      <glyph glyph-name="uni0409" unicode="&#x0409;" d="M40-10Q-32-10-74 6L-22 155Q-4 151 22 151Q43 151 55.50 154.50Q68 158 90.50 178.50Q113 199 132 240Q151 281 179 361Q207 441 238 557L276 700L814 700L755 480L842 480Q960 480 1029 423.50Q1098 367 1098 280Q1098 148 1004.50 74Q911 0 763 0L433 0L576 535L413 535L394 464Q360 339 325 251Q290 163 259 112.50Q228 62 189.50 34Q151 6 118.50-2Q86-10 40-10M670 163L771 163Q826 163 862.50 186.50Q899 210 899 259Q899 288 875.50 308Q852 328 811 328L715 328L670 163Z"  horiz-adv-x="1118" vert-adv-y="1000"  />

      
      <glyph glyph-name="uni040A" unicode="&#x040A;" d="M-12 0L176 700L371 700L305 454L552 454L617 700L812 700L746 454L853 454Q964 454 1029.50 400.50Q1095 347 1095 265Q1095 140 1006.50 70Q918 0 778 0L429 0L509 301L262 301L183 0L-12 0M666 163L784 163Q833 163 865 184Q897 205 897 248Q897 273 876.50 290.50Q856 308 820 308L705 308L666 163Z"  horiz-adv-x="1115" vert-adv-y="1000"  />

      
      <glyph glyph-name="uni040B" unicode="&#x040B;" d="M122 0L264 530L84 530L129 700L743 700L698 530L458 530L427 415Q515 460 608 460Q697 460 749 418Q801 376 801 300Q801 267 791 231L729 0L535 0L575 150Q585 190 585 213Q585 281 514 281Q433 281 381 243L316 0L122 0Z"  horiz-adv-x="854" vert-adv-y="1000"  />

      
      <glyph glyph-name="uni040C" unicode="&#x040C;" d="M-12 0L176 700L371 700L295 420L584 700L831 700L501 393L657 0L447 0L346 270L225 159L183 0L-12 0M367 747L522 932L695 875L514 747L367 747Z"  horiz-adv-x="722" vert-adv-y="1000"  />

      
      <glyph glyph-name="uni040E" unicode="&#x040E;" d="M153-10Q234-10 300 30.50Q366 71 437 166L838 700L619 700L379 368L308 700L102 700L237 183Q202 153 169 153Q125 153 96 177L-18 37Q49-10 153-10M468 745Q396 745 355 785Q314 825 313 898L422 917Q435 857 483 857Q533 857 563 917L666 898Q645 825 593 785Q541 745 468 745Z"  horiz-adv-x="713" vert-adv-y="1000"  />

      
      <glyph glyph-name="uni040F" unicode="&#x040F;" d="M168-140L206 0L-12 0L175 700L369 700L227 170L466 170L608 700L802 700L615 0L392 0L354-140L168-140Z"  horiz-adv-x="751" vert-adv-y="1000"  />

      
      <glyph glyph-name="uni0410" unicode="&#x0410;" d="M-74 0L413 705L603 705L712 0L508 0L491 125L221 125L137 0L-74 0M319 276L475 276L450 477L319 276Z"  horiz-adv-x="775" vert-adv-y="1000"  />

      
      <glyph glyph-name="uni0411" unicode="&#x0411;" d="M-12 0L175 700L728 700L684 535L325 535L303 454L426 454Q537 454 602.50 400.50Q668 347 668 265Q668 140 579.50 70Q491 0 351 0L-12 0M225 163L357 163Q406 163 438 184Q470 205 470 248Q470 273 449.50 290.50Q429 308 393 308L264 308L225 163Z"  horiz-adv-x="700" vert-adv-y="1000"  />

      
      <glyph glyph-name="uni0412" unicode="&#x0412;" d="M-12 0L176 700L467 700Q601 700 660.50 653Q720 606 720 532Q720 465 678.50 418Q637 371 563 353Q669 315 669 213Q669 118 588 59Q507 0 351 0L-12 0M219 156L366 156Q416 156 445 176.50Q474 197 474 230Q474 285 388 285L254 285L219 156M291 421L422 421Q473 421 500.50 440Q528 459 528 492Q528 544 444 544L323 544L291 421Z"  horiz-adv-x="714" vert-adv-y="1000"  />

      
      <glyph glyph-name="uni0413" unicode="&#x0413;" d="M-12 0L175 700L669 700L624 530L324 530L182 0L-12 0Z"  horiz-adv-x="572" vert-adv-y="1000"  />

      
      <glyph glyph-name="uni0414" unicode="&#x0414;" d="M-91-140L-9 170L48 170Q109 252 152 342.50Q195 433 243 613L266 700L809 700L667 170L746 170L641-140L477-140L515 0L133 0L82-140L-91-140M256 170L473 170L572 535L410 535L389 466Q334 284 256 170Z"  horiz-adv-x="776" vert-adv-y="1000"  />

      
      <glyph glyph-name="uni0415" unicode="&#x0415;" d="M-12 0L176 700L737 700L692 535L324 535L295 429L629 429L588 276L254 276L224 165L598 165L554 0L-12 0Z"  horiz-adv-x="669" vert-adv-y="1000"  />

      
      <glyph glyph-name="uni0416" unicode="&#x0416;" d="M-87 0L284 425L129 700L341 700L484 410L562 700L756 700L681 418L963 700L1204 700L879 398L1022 0L806 0L716 263L615 173L569 0L375 0L425 187L379 268L161 0L-87 0Z"  horiz-adv-x="1096" vert-adv-y="1000"  />

      
      <glyph glyph-name="uni0417" unicode="&#x0417;" d="M257-14Q60-14-30 119L99 231Q167 150 259 150Q308 150 337 172.50Q366 195 366 225Q366 280 279 280L207 280L246 426L314 426Q364 426 394 444.50Q424 463 424 496Q424 520 403.50 535Q383 550 353 550Q281 550 199 482L100 604Q215 714 377 714Q488 714 553.50 661Q619 608 619 533Q619 394 456 349Q560 311 560 208Q560 111 474.50 48.50Q389-14 257-14Z"  horiz-adv-x="616" vert-adv-y="1000"  />

      
      <glyph glyph-name="uni0418" unicode="&#x0418;" d="M-12 0L176 700L367 700L262 306L638 700L819 700L632 0L440 0L545 394L169 0L-12 0Z"  horiz-adv-x="764" vert-adv-y="1000"  />

      
      <glyph glyph-name="uni0419" unicode="&#x0419;" d="M-12 0L176 700L367 700L262 306L638 700L819 700L632 0L440 0L545 394L169 0L-12 0M497 745Q425 745 384 785Q343 825 342 898L451 917Q464 857 512 857Q562 857 592 917L695 898Q674 825 622 785Q570 745 497 745Z"  horiz-adv-x="764" vert-adv-y="1000"  />

      
      <glyph glyph-name="uni041A" unicode="&#x041A;" d="M-12 0L176 700L371 700L295 420L584 700L831 700L501 393L657 0L447 0L346 270L225 159L183 0L-12 0Z"  horiz-adv-x="722" vert-adv-y="1000"  />

      
      <glyph glyph-name="uni041B" unicode="&#x041B;" d="M40-10Q-32-10-74 6L-22 155Q-4 151 22 151Q43 151 55.50 154.50Q68 158 90.50 178.50Q113 199 132 240Q151 281 179 361Q207 441 238 557L276 700L814 700L627 0L433 0L576 535L413 535L394 464Q360 339 325 251Q290 163 259 112.50Q228 62 189.50 34Q151 6 118.50-2Q86-10 40-10Z"  horiz-adv-x="759" vert-adv-y="1000"  />

      
      <glyph glyph-name="uni041C" unicode="&#x041C;" d="M-12 0L176 700L372 700L465 429L703 700L921 700L733 0L538 0L645 402L394 128L390 128L287 400L180 0L-12 0Z"  horiz-adv-x="866" vert-adv-y="1000"  />

      
      <glyph glyph-name="uni041D" unicode="&#x041D;" d="M-12 0L176 700L371 700L300 438L547 438L617 700L812 700L624 0L429 0L501 266L254 266L183 0L-12 0Z"  horiz-adv-x="757" vert-adv-y="1000"  />

      
      <glyph glyph-name="uni041E" unicode="&#x041E;" d="M386-13Q238-13 145 76.50Q52 166 52 301Q52 380 83.50 455Q115 530 169 587Q223 644 301.50 678.50Q380 713 469 713Q617 713 710 623.50Q803 534 803 399Q803 320 771.50 245Q740 170 686 113Q632 56 553.50 21.50Q475-13 386-13M403 161Q491 161 548 230.50Q605 300 605 384Q605 453 564.50 496Q524 539 452 539Q365 539 307.50 469Q250 399 250 316Q250 247 290.50 204Q331 161 403 161Z"  horiz-adv-x="813" vert-adv-y="1000"  />

      
      <glyph glyph-name="uni041F" unicode="&#x041F;" d="M-12 0L176 700L802 700L614 0L419 0L562 530L325 530L183 0L-12 0Z"  horiz-adv-x="747" vert-adv-y="1000"  />

      
      <glyph glyph-name="uni0420" unicode="&#x0420;" d="M-12 0L176 700L405 700Q571 700 645 626Q700 571 700 483Q700 354 604.50 277.50Q509 201 352 201L237 201L183 0L-12 0M277 352L350 352Q421 352 461 381.50Q501 411 501 461Q501 490 481 510Q454 537 398 537L326 537L277 352Z"  horiz-adv-x="672" vert-adv-y="1000"  />

      
      <glyph glyph-name="uni0421" unicode="&#x0421;" d="M382-14Q235-14 143 69.50Q51 153 51 292Q51 397 103 492.50Q155 588 257 651Q359 714 488 714Q593 714 666.50 667Q740 620 772 537L604 447Q560 537 463 537Q377 537 315.50 468Q254 399 254 306Q254 240 293 201Q332 162 394 162Q473 162 544 233L675 117Q559-14 382-14Z"  horiz-adv-x="727" vert-adv-y="1000"  />

      
      <glyph glyph-name="uni0422" unicode="&#x0422;" d="M151 0L294 530L84 530L130 700L743 700L698 530L488 530L346 0L151 0Z"  horiz-adv-x="645" vert-adv-y="1000"  />

      
      <glyph glyph-name="uni0423" unicode="&#x0423;" d="M153-10Q49-10-18 37L96 177Q125 153 169 153Q202 153 237 183L102 700L308 700L379 368L619 700L838 700L437 166Q366 71 300 30.50Q234-10 153-10Z"  horiz-adv-x="713" vert-adv-y="1000"  />

      
      <glyph glyph-name="uni0424" unicode="&#x0424;" d="M291-30L312 50Q181 60 110.50 131Q40 202 40 313Q40 467 150.50 567.50Q261 668 442 668L479 668L496 730L691 730L674 666Q807 657 879.50 588Q952 519 952 410Q952 254 841 151Q730 48 550 48L507 48L486-30L291-30M358 220L433 496L418 496Q341 496 291 452.50Q241 409 241 334Q241 284 272.50 254.50Q304 225 358 220M553 220L574 220Q650 220 700.50 263Q751 306 751 381Q751 431 718 461Q685 491 628 495L553 220Z"  horiz-adv-x="957" vert-adv-y="1000"  />

      
      <glyph glyph-name="uni0425" unicode="&#x0425;" d="M-75 0L266 366L121 700L334 700L411 503L584 700L818 700L494 352L648 0L434 0L350 216L160 0L-75 0Z"  horiz-adv-x="713" vert-adv-y="1000"  />

      
      <glyph glyph-name="uni0426" unicode="&#x0426;" d="M470-140L508 0L-12 0L176 700L370 700L227 170L466 170L608 700L802 700L660 170L739 170L634-140L470-140Z"  horiz-adv-x="768" vert-adv-y="1000"  />

      
      <glyph glyph-name="uni0427" unicode="&#x0427;" d="M383 0L448 245Q369 205 257 205Q171 205 126.50 255.50Q82 306 82 386Q82 427 94 471L157 700L351 700L295 489Q287 459 287 439Q287 379 361 379Q438 379 494 417L570 700L764 700L577 0L383 0Z"  horiz-adv-x="709" vert-adv-y="1000"  />

      
      <glyph glyph-name="uni0428" unicode="&#x0428;" d="M-12 0L175 700L369 700L227 170L426 170L568 700L762 700L620 170L819 170L961 700L1155 700L968 0L-12 0Z"  horiz-adv-x="1100" vert-adv-y="1000"  />

      
      <glyph glyph-name="uni0429" unicode="&#x0429;" d="M823-140L861 0L-12 0L175 700L369 700L227 170L426 170L568 700L762 700L620 170L819 170L961 700L1155 700L1013 170L1092 170L987-140L823-140Z"  horiz-adv-x="1121" vert-adv-y="1000"  />

      
      <glyph glyph-name="uni042A" unicode="&#x042A;" d="M101 0L243 530L84 530L129 700L482 700L423 480L510 480Q628 480 697 423.50Q766 367 766 280Q766 148 672.50 74Q579 0 431 0L101 0M338 163L439 163Q494 163 530.50 186.50Q567 210 567 259Q567 288 543.50 308Q520 328 479 328L383 328L338 163Z"  horiz-adv-x="786" vert-adv-y="1000"  />

      
      <glyph glyph-name="uni042B" unicode="&#x042B;" d="M-12 0L175 700L369 700L310 480L397 480Q515 480 584 423.50Q653 367 653 280Q653 148 559.50 74Q466 0 318 0L-12 0M225 163L326 163Q381 163 417.50 186.50Q454 210 454 259Q454 288 430.50 308Q407 328 366 328L270 328L225 163M661 0L848 700L1042 700L855 0L661 0Z"  horiz-adv-x="987" vert-adv-y="1000"  />

      
      <glyph glyph-name="uni042C" unicode="&#x042C;" d="M-12 0L175 700L369 700L310 480L397 480Q515 480 584 423.50Q653 367 653 280Q653 148 559.50 74Q466 0 318 0L-12 0M225 163L326 163Q381 163 417.50 186.50Q454 210 454 259Q454 288 430.50 308Q407 328 366 328L270 328L225 163Z"  horiz-adv-x="673" vert-adv-y="1000"  />

      
      <glyph glyph-name="uni042D" unicode="&#x042D;" d="M284-14Q185-14 106.50 27Q28 68-9 139L146 248Q197 158 291 158Q360 158 410 192.50Q460 227 484 285L254 285L289 422L500 422Q490 476 452 509.50Q414 543 358 543Q270 543 200 473L92 599Q205 714 360 714Q509 714 605 628.50Q701 543 701 399Q701 294 651 200.50Q601 107 504 46.50Q407-14 284-14Z"  horiz-adv-x="721" vert-adv-y="1000"  />

      
      <glyph glyph-name="uni042E" unicode="&#x042E;" d="M665-14Q531-14 446 65Q361 144 353 268L253 268L182 0L-12 0L175 700L369 700L299 436L377 436Q422 557 527.50 635.50Q633 714 764 714Q903 714 987.50 627Q1072 540 1072 406Q1072 295 1018.50 198.50Q965 102 871 44Q777-14 665-14M686 160Q763 160 818 225.50Q873 291 873 383Q873 451 836 495.50Q799 540 737 540Q660 540 605.50 474Q551 408 551 315Q551 247 587.50 203.50Q624 160 686 160Z"  horiz-adv-x="1082" vert-adv-y="1000"  />

      
      <glyph glyph-name="uni042F" unicode="&#x042F;" d="M-42 0L194 248Q90 301 90 424Q90 550 183.50 625Q277 700 430 700L779 700L592 0L398 0L454 212L380 212L197 0L-42 0M388 361L494 361L541 535L433 535Q366 535 329 507.50Q292 480 292 433Q292 398 319 379.50Q346 361 388 361Z"  horiz-adv-x="724" vert-adv-y="1000"  />

      
      <glyph glyph-name="uni0430" unicode="&#x0430;" d="M152-11Q85-11 43 29Q1 69 1 136Q1 224 66 275.50Q131 327 239 327Q307 327 376 306L378 313Q383 335 383 346Q383 404 290 404Q212 404 144 377L117 515Q211 548 330 548Q450 548 510.50 503Q571 458 571 376Q571 340 560 298L480 0L293 0L308 58Q234-11 152-11M240 106Q276 106 308 134Q340 162 351 204L356 222Q320 234 285 234Q240 234 213 213Q186 192 186 156Q186 133 201 119.50Q216 106 240 106Z"  horiz-adv-x="597" vert-adv-y="1000"  />

      
      <glyph glyph-name="uni0431" unicode="&#x0431;" d="M302-13Q177-13 107.50 61Q38 135 38 262Q38 335 54.50 403Q71 471 104.50 532.50Q138 594 198.50 636Q259 678 338 691L627 736L627 589L331 537Q265 525 233 491.50Q201 458 195 428Q213 453 266.50 480.50Q320 508 392 508Q490 508 554 449.50Q618 391 618 289Q618 163 527 75Q436-13 302-13M311 148Q361 148 396 186.50Q431 225 431 278Q431 319 406.50 345.50Q382 372 341 372Q291 372 256 333.50Q221 295 221 242Q221 201 245.50 174.50Q270 148 311 148Z"  horiz-adv-x="644" vert-adv-y="1000"  />

      
      <glyph glyph-name="uni0432" unicode="&#x0432;" d="M-21 0L124 541L393 541Q497 541 543 505Q589 469 589 411Q589 359 556.50 323Q524 287 467 273Q549 244 549 165Q549 91 486.50 45.50Q424 0 304 0L-21 0M198 123L275 123Q314 123 336.50 139Q359 155 359 181Q359 224 292 224L225 224L198 123M253 325L315 325Q397 325 397 380Q397 420 332 420L278 420L253 325Z"  horiz-adv-x="605" vert-adv-y="1000"  />

      
      <glyph glyph-name="uni0433" unicode="&#x0433;" d="M-21 0L124 541L532 541L491 388L273 388L169 0L-21 0Z"  horiz-adv-x="465" vert-adv-y="1000"  />

      
      <glyph glyph-name="uni0434" unicode="&#x0434;" d="M-89-110L-19 153L30 153Q115 272 180 515L187 541L669 541L565 153L638 153L549-110L387-110L417 0L120 0L80-110L-89-110M229 153L374 153L437 390L327 390L321 366Q308 317 278.50 247.50Q249 178 229 153Z"  horiz-adv-x="659" vert-adv-y="1000"  />

      
      <glyph glyph-name="uni0435" unicode="&#x0435;" d="M286-13Q167-13 97.50 52Q28 117 28 227Q28 354 119 453.50Q210 553 353 553Q466 553 524.50 488.50Q583 424 583 329Q583 275 562 218L203 218Q210 129 304 129Q360 129 419 172L507 68Q414-13 286-13M216 315L409 315Q414 330 414 344Q414 374 395 393.50Q376 413 340 413Q300 413 266.50 387.50Q233 362 216 315Z"  horiz-adv-x="601" vert-adv-y="1000"  />

      
      <glyph glyph-name="uni0436" unicode="&#x0436;" d="M-86 0L206 339L94 541L289 541L382 340L436 541L626 541L572 340L773 541L988 541L744 314L843 0L649 0L588 186L512 117L481 0L291 0L325 127L293 185L143 0L-86 0Z"  horiz-adv-x="914" vert-adv-y="1000"  />

      
      <glyph glyph-name="uni0437" unicode="&#x0437;" d="M209-14Q128-14 71 5Q14 24-35 66L57 184Q139 125 206 125Q289 125 289 174Q289 213 220 213L152 213L183 332L242 332Q278 332 295 347Q312 362 312 381Q312 395 297 405Q282 415 252 415Q216 415 171.50 399.50Q127 384 98 361L37 465Q143 553 295 553Q396 553 450 517Q504 481 504 423Q504 329 393 283Q478 252 478 176Q478 90 412.50 38Q347-14 209-14Z"  horiz-adv-x="530" vert-adv-y="1000"  />

      
      <glyph glyph-name="uni0438" unicode="&#x0438;" d="M-21 0L124 541L308 541L235 270L488 541L663 541L518 0L334 0L406 271L154 0L-21 0Z"  horiz-adv-x="637" vert-adv-y="1000"  />

      
      <glyph glyph-name="uni0439" unicode="&#x0439;" d="M-21 0L124 541L308 541L235 270L488 541L663 541L518 0L334 0L406 271L154 0L-21 0M521.50 624Q521.50 624 497.25 604.50Q473 585 405 585Q337 585 299 624Q261 663 261 734L362 752Q374 694 420 694Q466 694 494 752L591 734Q570 663 521.50 624Z"  horiz-adv-x="637" vert-adv-y="1000"  />

      
      <glyph glyph-name="uni043A" unicode="&#x043A;" d="M-21 0L124 541L314 541L262 346L450 541L679 541L432 312L536 0L333 0L278 180L198 107L169 0L-21 0Z"  horiz-adv-x="599" vert-adv-y="1000"  />

      
      <glyph glyph-name="uni043B" unicode="&#x043B;" d="M26-7Q-27-7-60 7L-15 148Q5 145 15 145Q41 145 57.50 158.50Q74 172 101.50 238Q129 304 165 437L193 541L660 541L515 0L325 0L429 390L329 390L310 323Q293 263 276.50 215.50Q260 168 242.50 134Q225 100 210.50 75.50Q196 51 176.50 35.50Q157 20 142.50 11.50Q128 3 105.50-1Q83-5 68-6Q53-7 26-7Z"  horiz-adv-x="638" vert-adv-y="1000"  />

      
      <glyph glyph-name="uni043C" unicode="&#x043C;" d="M-21 0L124 541L301 541L382 354L552 541L761 541L616 0L426 0L497 267L316 83L236 263L166 0L-21 0Z"  horiz-adv-x="739" vert-adv-y="1000"  />

      
      <glyph glyph-name="uni043D" unicode="&#x043D;" d="M-21 0L124 541L314 541L262 349L418 349L470 541L660 541L515 0L325 0L377 196L221 196L169 0L-21 0Z"  horiz-adv-x="634" vert-adv-y="1000"  />

      
      <glyph glyph-name="uni043E" unicode="&#x043E;" d="M295-13Q174-13 102 58Q30 129 30 239Q30 364 122.50 458.50Q215 553 348 553Q470 553 542 482Q614 411 614 302Q614 176 521.50 81.50Q429-13 295-13M306 145Q360 145 396 191.50Q432 238 432 295Q432 340 406 367.50Q380 395 338 395Q284 395 248 348.50Q212 302 212 246Q212 200 238 172.50Q264 145 306 145Z"  horiz-adv-x="644" vert-adv-y="1000"  />

      
      <glyph glyph-name="uni043F" unicode="&#x043F;" d="M-21 0L124 541L652 541L507 0L317 0L421 388L273 388L169 0L-21 0Z"  horiz-adv-x="626" vert-adv-y="1000"  />

      
      <glyph glyph-name="uni0440" unicode="&#x0440;" d="M-64-160L124 541L314 541L298 484Q369 553 452 553Q535 553 589.50 493Q644 433 644 331Q644 187 557.50 87.50Q471-12 353-12Q245-12 189 74L126-160L-64-160M320 146Q374 146 413 191.50Q452 237 452 301Q452 344 426.50 370Q401 396 360 396Q306 396 266 350Q226 304 226 242Q226 199 252 172.50Q278 146 320 146Z"  horiz-adv-x="672" vert-adv-y="1000"  />

      
      <glyph glyph-name="uni0441" unicode="&#x0441;" d="M281-13Q170-13 99 51.50Q28 116 28 224Q28 360 123 456Q218 552 353 552Q443 552 501.50 511Q560 470 583 404L434 327Q405 395 341 395Q288 395 249.50 346Q211 297 211 234Q211 193 234.50 168.50Q258 144 294 144Q346 144 396 194L512 93Q421-13 281-13Z"  horiz-adv-x="563" vert-adv-y="1000"  />

      
      <glyph glyph-name="uni0442" unicode="&#x0442;" d="M101 0L205 388L42 388L83 541L589 541L548 388L395 388L291 0L101 0Z"  horiz-adv-x="522" vert-adv-y="1000"  />

      
      <glyph glyph-name="uni0443" unicode="&#x0443;" d="M94-163Q10-163-50-124L35 15Q72-12 110-12Q137-12 157 8L87 541L280 541L302 216L484 541L684 541L349 3Q291-88 232.50-125.50Q174-163 94-163Z"  horiz-adv-x="622" vert-adv-y="1000"  />

      
      <glyph glyph-name="uni0444" unicode="&#x0444;" d="M251-160L300 25Q244-9 186-9Q111-9 70.50 45Q30 99 30 203Q30 265 48 325.50Q66 386 100 436.50Q134 487 190.50 518.50Q247 550 317 550Q379 550 429 505L481 700L671 700L620 511Q678 550 735 550Q811 550 851.50 495.50Q892 441 892 337Q892 275 874 215Q856 155 821.50 104Q787 53 731 22Q675-9 606-9Q542-9 492 30L441-160L251-160M286 144Q312 144 335 154L397 386Q373 397 344 397Q291 397 257.50 348Q224 299 224 225Q224 190 239 167Q254 144 286 144M578 144Q630 144 664.50 192Q699 240 699 314Q699 350 683.50 373.50Q668 397 636 397Q612 397 587 386L525 155Q549 144 578 144Z"  horiz-adv-x="922" vert-adv-y="1000"  />

      
      <glyph glyph-name="uni0445" unicode="&#x0445;" d="M-62 0L197 281L85 541L282 541L329 410L438 541L652 541L400 267L514 0L317 0L268 137L152 0L-62 0Z"  horiz-adv-x="589" vert-adv-y="1000"  />

      
      <glyph glyph-name="uni0446" unicode="&#x0446;" d="M370-110L400 0L-21 0L124 541L314 541L210 153L358 153L462 541L652 541L548 153L621 153L532-110L370-110Z"  horiz-adv-x="642" vert-adv-y="1000"  />

      
      <glyph glyph-name="uni0447" unicode="&#x0447;" d="M300 0L346 174Q287 150 206 150Q137 150 97.50 188.50Q58 227 58 290Q58 314 66 346L119 541L310 541L269 388Q262 360 262 348Q262 305 303 305Q354 305 387 326L445 541L635 541L490 0L300 0Z"  horiz-adv-x="609" vert-adv-y="1000"  />

      
      <glyph glyph-name="uni0448" unicode="&#x0448;" d="M-21 0L124 541L314 541L210 153L343 153L447 541L637 541L533 153L666 153L770 541L960 541L815 0L-21 0Z"  horiz-adv-x="934" vert-adv-y="1000"  />

      
      <glyph glyph-name="uni0449" unicode="&#x0449;" d="M678-110L708 0L-21 0L124 541L314 541L210 153L343 153L447 541L637 541L533 153L666 153L770 541L960 541L856 153L929 153L840-110L678-110Z"  horiz-adv-x="950" vert-adv-y="1000"  />

      
      <glyph glyph-name="uni044A" unicode="&#x044A;" d="M66 0L170 388L39 388L80 541L401 541L355 371L432 371Q524 371 577 327.50Q630 284 630 216Q630 114 557.50 57Q485 0 371 0L66 0M292 136L353 136Q392 136 417 152.50Q442 169 442 203Q442 223 426 237Q410 251 381 251L323 251L292 136Z"  horiz-adv-x="661" vert-adv-y="1000"  />

      
      <glyph glyph-name="uni044B" unicode="&#x044B;" d="M-21 0L124 541L314 541L268 371L345 371Q437 371 490 327.50Q543 284 543 216Q543 114 470.50 57Q398 0 284 0L-21 0M205 136L266 136Q305 136 330 152.50Q355 169 355 203Q355 223 339 237Q323 251 294 251L236 251L205 136M545 0L690 541L880 541L735 0L545 0Z"  horiz-adv-x="854" vert-adv-y="1000"  />

      
      <glyph glyph-name="uni044C" unicode="&#x044C;" d="M-21 0L124 541L314 541L268 371L345 371Q437 371 490 327.50Q543 284 543 216Q543 114 470.50 57Q398 0 284 0L-21 0M205 136L266 136Q305 136 330 152.50Q355 169 355 203Q355 223 339 237Q323 251 294 251L236 251L205 136Z"  horiz-adv-x="574" vert-adv-y="1000"  />

      
      <glyph glyph-name="uni044D" unicode="&#x044D;" d="M221-13Q130-13 69 24.50Q8 62-22 123L122 212Q152 141 220 141Q258 141 288.50 162Q319 183 336 219L180 219L209 324L350 324Q342 360 317.50 380Q293 400 262 400Q200 400 153 353L47 462Q131 552 278 552Q387 552 459 479Q531 406 531 296Q531 161 441 74Q351-13 221-13Z"  horiz-adv-x="563" vert-adv-y="1000"  />

      
      <glyph glyph-name="uni044E" unicode="&#x044E;" d="M565-13Q456-13 386.50 44.50Q317 102 303 196L221 196L169 0L-21 0L124 541L314 541L262 349L321 349Q356 438 436.50 495.50Q517 553 618 553Q739 553 806 482.50Q873 412 873 302Q873 175 785.50 81Q698-13 565-13M571 145Q624 145 657.50 191.50Q691 238 691 295Q691 341 668 368Q645 395 603 395Q550 395 516 349Q482 303 482 246Q482 199 505.50 172Q529 145 571 145Z"  horiz-adv-x="903" vert-adv-y="1000"  />

      
      <glyph glyph-name="uni044F" unicode="&#x044F;" d="M-44 0L126 189Q109 200 98 212Q55 256 55 323Q55 423 129 482Q203 541 323 541L641 541L496 0L305 0L346 156L311 156L183 0L-44 0M314 283L383 283L414 398L343 398Q298 398 274 380Q250 362 250 330Q250 311 261 300Q279 283 314 283Z"  horiz-adv-x="619" vert-adv-y="1000"  />

      
      <glyph glyph-name="uni0451" unicode="&#x0451;" d="M286-13Q167-13 97.50 52Q28 117 28 227Q28 354 119 453.50Q210 553 353 553Q466 553 524.50 488.50Q583 424 583 329Q583 275 562 218L203 218Q210 129 304 129Q360 129 419 172L507 68Q414-13 286-13M216 315L409 315Q414 330 414 344Q414 374 395 393.50Q376 413 340 413Q300 413 266.50 387.50Q233 362 216 315M182 587L221 730L387 730L348 587L182 587M401 587L440 730L606 730L567 587L401 587Z"  horiz-adv-x="601" vert-adv-y="1000"  />

      
      <glyph glyph-name="uni0452" unicode="&#x0452;" d="M326-14Q265-14 223 0L274 153Q278 152 301 152Q338 152 366 186.50Q394 221 394 271Q394 341 335 341Q261 341 234 243L169 0L-21 0L123 541L61 541L95 669L157 669L174 730L364 730L347 669L505 669L471 541L313 541L286 436Q365 510 440 510Q519 510 557.50 465Q596 420 596 347Q596 308 585 264L553 145Q529 57 473.50 21.50Q418-14 326-14Z"  horiz-adv-x="632" vert-adv-y="1000"  />

      
      <glyph glyph-name="uni0453" unicode="&#x0453;" d="M-21 0L124 541L532 541L491 388L273 388L169 0L-21 0M199 587L354 772L527 715L346 587L199 587Z"  horiz-adv-x="465" vert-adv-y="1000"  />

      
      <glyph glyph-name="uni0454" unicode="&#x0454;" d="M280-13Q170-13 98.50 55.50Q27 124 27 233Q27 368 117.50 460Q208 552 337 552Q508 552 575 416L438 332Q409 400 338 400Q301 400 271 379Q241 358 224 324L378 324L349 219L207 219Q213 181 238.50 160Q264 139 296 139Q354 139 407 192L513 83Q424-13 280-13Z"  horiz-adv-x="563" vert-adv-y="1000"  />

      
      <glyph glyph-name="uni0455" unicode="&#x0455;" d="M230-13Q153-13 82.50 12Q12 37-37 81L57 192Q95 158 144.50 138.50Q194 119 237 119Q285 119 285 152Q285 166 269 176Q253 186 211 203Q136 233 97.50 267.50Q59 302 59 361Q59 444 122.50 498.50Q186 553 295 553Q364 553 426.50 531Q489 509 529 477L438 363Q360 421 285 421Q238 421 238 390Q238 377 254 366.50Q270 356 313 339Q386 310 425 276Q464 242 464 181Q464 98 403 42.50Q342-13 230-13Z"  horiz-adv-x="511" vert-adv-y="1000"  />

      
      <glyph glyph-name="uni0456" unicode="&#x0456;" d="M-17 0L128 541L318 541L173 0L-17 0M138 590L176 730L374 730L336 590L138 590Z"  horiz-adv-x="301" vert-adv-y="1000"  />

      
      <glyph glyph-name="uni0457" unicode="&#x0457;" d="M29 587L68 730L234 730L195 587L29 587M248 587L287 730L453 730L414 587L248 587M-17 0L128 541L318 541L173 0L-17 0Z"  horiz-adv-x="301" vert-adv-y="1000"  />

      
      <glyph glyph-name="uni0458" unicode="&#x0458;" d="M-53-163Q-96-163-134-156L-101-30Q-89-33-77-33Q-48-33-31-15.50Q-14 2-3 45L130 541L320 541L180 21Q152-82 97-122.50Q42-163-53-163M139 590L177 730L375 730L337 590L139 590Z"  horiz-adv-x="303" vert-adv-y="1000"  />

      
      <glyph glyph-name="uni0459" unicode="&#x0459;" d="M26-7Q-27-7-60 7L-15 148Q5 145 15 145Q41 145 57.50 158.50Q74 172 101.50 238Q129 304 165 437L193 541L660 541L614 371L691 371Q783 371 836 327.50Q889 284 889 216Q889 114 816.50 57Q744 0 630 0L325 0L429 390L329 390L310 323Q293 263 276.50 215.50Q260 168 242.50 134Q225 100 210.50 75.50Q196 51 176.50 35.50Q157 20 142.50 11.50Q128 3 105.50-1Q83-5 68-6Q53-7 26-7M551 136L612 136Q651 136 676 152.50Q701 169 701 203Q701 223 685 237Q669 251 640 251L582 251L551 136Z"  horiz-adv-x="920" vert-adv-y="1000"  />

      
      <glyph glyph-name="uni045A" unicode="&#x045A;" d="M-21 0L124 541L314 541L265 362L421 362L470 541L660 541L611 362L688 362Q780 362 834.50 320Q889 278 889 211Q889 110 817 55Q745 0 630 0L325 0L383 221L227 221L169 0L-21 0M551 136L612 136Q701 136 701 198Q701 217 683.50 229.50Q666 242 637 242L579 242L551 136Z"  horiz-adv-x="920" vert-adv-y="1000"  />

      
      <glyph glyph-name="uni045B" unicode="&#x045B;" d="M-21 0L123 541L61 541L95 669L157 669L174 730L364 730L347 669L505 669L471 541L313 541L285 436Q355 510 440 510Q513 510 555 466.50Q597 423 597 348Q597 311 581 251L515 0L325 0L389 240Q395 261 395 284Q395 341 335 341Q261 341 234 243L169 0L-21 0Z"  horiz-adv-x="632" vert-adv-y="1000"  />

      
      <glyph glyph-name="uni045C" unicode="&#x045C;" d="M-21 0L124 541L314 541L262 346L450 541L679 541L432 312L536 0L333 0L278 180L198 107L169 0L-21 0M266 587L421 772L594 715L413 587L266 587Z"  horiz-adv-x="599" vert-adv-y="1000"  />

      
      <glyph glyph-name="uni045E" unicode="&#x045E;" d="M94-163Q10-163-50-124L35 15Q72-12 110-12Q137-12 157 8L87 541L280 541L302 216L484 541L684 541L349 3Q291-88 232.50-125.50Q174-163 94-163M501.50 624Q501.50 624 477.25 604.50Q453 585 385 585Q317 585 279 624Q241 663 241 734L342 752Q354 694 400 694Q446 694 474 752L571 734Q550 663 501.50 624Z"  horiz-adv-x="622" vert-adv-y="1000"  />

      
      <glyph glyph-name="uni045F" unicode="&#x045F;" d="M122-110L152 0L-21 0L124 541L314 541L210 153L358 153L462 541L652 541L507 0L332 0L302-110L122-110Z"  horiz-adv-x="626" vert-adv-y="1000"  />

      
      <glyph glyph-name="uni0490" unicode="&#x0490;" d="M-12 0L175 700L493 700L531 840L695 840L634 530L324 530L182 0L-12 0Z"  horiz-adv-x="592" vert-adv-y="1000"  />

      
      <glyph glyph-name="uni0491" unicode="&#x0491;" d="M-21 0L124 541L352 541L381 651L543 651L491 388L273 388L169 0L-21 0Z"  horiz-adv-x="465" vert-adv-y="1000"  />

      
      <glyph glyph-name="uni2013" unicode="&#x2013;" d="M33 231L77 394L515 394L471 231L33 231Z"  horiz-adv-x="526" vert-adv-y="1000"  />

      
      <glyph glyph-name="uni2014" unicode="&#x2014;" d="M33 231L77 394L885 394L841 231L33 231Z"  horiz-adv-x="896" vert-adv-y="1000"  />

      
      <glyph glyph-name="uni2018" unicode="&#x2018;" d="M63 344L108 513Q134 611 191.50 656.50Q249 702 359 707L367 633Q254 622 236 539L313 539L260 344L63 344Z"  horiz-adv-x="302" vert-adv-y="1000"  />

      
      <glyph glyph-name="uni2019" unicode="&#x2019;" d="M66 338L58 411Q171 422 189 505L112 505L165 700L362 700L317 531Q291 434 233.50 388Q176 342 66 338Z"  horiz-adv-x="302" vert-adv-y="1000"  />

      
      <glyph glyph-name="uni201A" unicode="&#x201A;" d="M-66-167L-74-94Q38-83 56 0L-20 0L32 195L230 195L185 27Q158-71 101-117Q44-163-66-167Z"  horiz-adv-x="302" vert-adv-y="1000"  />

      
      <glyph glyph-name="uni201C" unicode="&#x201C;" d="M64 343L109 512Q135 610 191 655.50Q247 701 357 706L365 632Q255 621 237 538L311 538L259 343L64 343M330 343L375 512Q401 610 457 655.50Q513 701 623 706L631 632Q521 621 503 538L577 538L525 343L330 343Z"  horiz-adv-x="565" vert-adv-y="1000"  />

      
      <glyph glyph-name="uni201D" unicode="&#x201D;" d="M67 338L59 411Q169 422 187 505L113 505L165 700L360 700L315 531Q289 433 232.50 387.50Q176 342 67 338M333 338L325 411Q435 422 453 505L379 505L431 700L626 700L581 531Q555 433 498.50 387.50Q442 342 333 338Z"  horiz-adv-x="565" vert-adv-y="1000"  />

      
      <glyph glyph-name="uni201E" unicode="&#x201E;" d="M-66-167L-74-94Q36-83 54 0L-20 0L32 195L227 195L182 27Q156-71 99.50-117Q43-163-66-167M200-167L192-94Q302-83 320 0L246 0L298 195L493 195L448 27Q422-71 365.50-117Q309-163 200-167Z"  horiz-adv-x="565" vert-adv-y="1000"  />

      
      <glyph glyph-name="uni2020" unicode="&#x2020;" d="M143 223L226 493L97 480L125 584L246 571L265 700L377 700L327 571L455 584L427 480L305 493L243 223L143 223Z"  horiz-adv-x="412" vert-adv-y="1000"  />

      
      <glyph glyph-name="uni2021" unicode="&#x2021;" d="M82 0L132 129L5 116L32 220L154 207L180 350L231 493L102 480L130 584L251 571L270 700L382 700L332 571L459 584L431 480L310 493L284 350L232 207L362 220L334 116L213 129L194 0L82 0Z"  horiz-adv-x="422" vert-adv-y="1000"  />

      
      <glyph glyph-name="uni2022" unicode="&#x2022;" d="M246 180Q183 180 147.50 217Q112 254 112 314Q112 395 165 460Q218 525 299 525Q361 525 397 488Q433 451 433 391Q433 310 379.50 245Q326 180 246 180Z"  horiz-adv-x="501" vert-adv-y="1000"  />

      
      <glyph glyph-name="uni2026" unicode="&#x2026;" d="M-20 0L31 192L226 192L174 0L-20 0M260 0L311 192L506 192L454 0L260 0M540 0L591 192L786 192L734 0L540 0Z"  horiz-adv-x="858" vert-adv-y="1000"  />

      
      </font>
</defs>
</svg>
