<svg><defs><font id="GothamPro-Light" horiz-adv-x="1200" vert-adv-y="1200"><font-face font-family="Gotham Pro Light" font-weight="400" ascent="730" descent="-160"/><glyph glyph-name="uni21" unicode="!" d="M93 0v85h66V0H93m19 183L97 630v70h58v-70l-15-447h-28Z" horiz-adv-x="252" vert-adv-y="1000"/><glyph glyph-name="uni22" unicode="&quot;" d="m68 446 35 254h65v-5L97 446H68m180 0 35 254h65v-5l-71-249h-29Z" horiz-adv-x="410" vert-adv-y="1000"/><glyph glyph-name="uni23" unicode="#" d="m138 0 32 187H49v47h129l41 236H89v47h138l31 183h48l-31-183h207l31 183h48l-31-183h120v-47H522l-41-236h129v-47H473L441 0h-48l32 187H218L186 0h-48m88 234h207l41 236H267l-41-236Z" horiz-adv-x="700" vert-adv-y="1000"/><glyph glyph-name="uni24" unicode="$" d="M297-98V1Q168 12 60 108l33 39q97-91 206-100v284q-113 25-162.5 69T87 520q0 75 59.5 126.5T297 700v58h48v-60q102-8 193-82l-33-39q-74 65-162 76V372q114-24 165-69t51-119q0-78-59.5-129T345 0v-98h-48m46 143q74 2 119.5 40.5T508 182q0 54-35 85.5T343 321V45m-44 337v273q-72-1-116.5-39T138 522q0-52 34-84.5T299 382Z" horiz-adv-x="632" vert-adv-y="1000"/><glyph glyph-name="uni25" unicode="%" d="m128 0 514 700h54L182 0h-54m486-8q-67 0-110 52.5T461 171q0 73 43.5 126T616 350q67 0 110-53t43-126q0-73-43.5-126T614-8m2 43q44 0 72.5 39t28.5 97q0 58-30 97t-73 39q-44 0-72.5-39.5T513 171q0-58 30-97t73-39M208 350q-67 0-110 52.5T55 529q0 73 43.5 126T210 708q67 0 110-53t43-126q0-73-43.5-126T208 350m2 43q44 0 72.5 39t28.5 97q0 58-30 97t-73 39q-44 0-72.5-39.5T107 529q0-58 30-97t73-39Z" horiz-adv-x="824" vert-adv-y="1000"/><glyph glyph-name="uni26" unicode="&amp;" d="M622-14 501 111Q397-10 264-10q-93 0-154 55T49 186q0 138 181 205-42 46-60 82.5T152 553q0 68 49.5 113.5T327 712q68 0 114.5-44.5T488 558q0-122-172-181l184-189q48 67 91 170l47-19q-51-115-104-186L663 20l-41-34M265 35q109 0 203 110L261 359q-80-28-120-73t-40-100q0-64 46.5-107.5T265 35m20 374q151 48 151 149 0 47-32 78.5T325 668q-53 0-87-33t-34-82q0-33 17.5-64t63.5-80Z" horiz-adv-x="696" vert-adv-y="1000"/><glyph glyph-name="uni27" unicode="'" d="m68 446 35 254h65v-5L97 446H68Z" horiz-adv-x="230" vert-adv-y="1000"/><glyph glyph-name="uni28" unicode="(" d="M348-141Q214-65 142.5 44T71 287q0 134 71.5 243T348 715l21-33Q123 531 123 287t246-395l-21-33Z" horiz-adv-x="430" vert-adv-y="1000"/><glyph glyph-name="uni29" unicode=")" d="m82-141-21 33Q307 43 307 287T61 682l21 33q134-76 205.5-185T359 287q0-134-71.5-243T82-141Z" horiz-adv-x="430" vert-adv-y="1000"/><glyph glyph-name="uni2a" unicode="*" d="m194 406 9 127-106-72-22 37 118 56-118 56 22 37 106-72-9 127h42l-9-127 106 72 22-37-118-56 118-56-22-37-106 72 9-127h-42Z" horiz-adv-x="430" vert-adv-y="1000"/><glyph glyph-name="uni2b" unicode="+" d="M295 113v215H78v48h217v215h50V376h217v-48H345V113h-50Z" horiz-adv-x="640" vert-adv-y="1000"/><glyph glyph-name="uni2c" unicode="," d="M65-107 53-82q56 28 56 73v9H82v85h66V11q0-47-19-74t-64-44Z" horiz-adv-x="230" vert-adv-y="1000"/><glyph glyph-name="uni2d" unicode="-" d="M70 269v56h268v-56H70Z" horiz-adv-x="408" vert-adv-y="1000"/><glyph glyph-name="uni2e" unicode="." d="M82 0v85h66V0H82Z" horiz-adv-x="230" vert-adv-y="1000"/><glyph glyph-name="uni2f" unicode="/" d="m-18-128 472 926h49L31-128h-49Z" horiz-adv-x="500" vert-adv-y="1000"/><glyph glyph-name="uni30" unicode="0" d="M354-12Q224-12 144.5 93.5T65 350q0 97 35 179t102.5 132.5Q270 712 356 712q130 0 209.5-105.5T645 350q0-97-35-179T507.5 38.5Q440-12 354-12M185 129l33-47q33-47 138-47t170 93.5Q591 222 591 350t-66 221.5Q459 665 354 665t-170-93q-65-93-65-222 0-127 66-221Z" horiz-adv-x="710" vert-adv-y="1000"/><glyph glyph-name="uni31" unicode="1" d="M179 0v651L44 605l-14 41 160 59h40V0h-51Z" horiz-adv-x="335" vert-adv-y="1000"/><glyph glyph-name="uni32" unicode="2" d="M48 0v39l261 236q87 79 121 131.5T464 514q0 66-46.5 108T306 664q-64 0-111.5-32T101 534l-39 26q50 76 106 113t143 37q89 0 148.5-55.5T519 516q0-69-38.5-126T344 244L130 50h396V0H48Z" horiz-adv-x="590" vert-adv-y="1000"/><glyph glyph-name="uni33" unicode="3" d="M311-12Q151-12 54 114l40 33Q182 35 312 35q73 0 123 44t50 113q0 72-60.5 112T267 344h-38l-13 29 241 278H90v49h438v-37L291 392q47-3 88.5-15.5t78.5-35q37-22.5 59-61t22-88.5q0-89-67.5-146.5T311-12Z" horiz-adv-x="610" vert-adv-y="1000"/><glyph glyph-name="uni34" unicode="4" d="M445 0v171H66l-18 39 400 495h47V216h114v-45H495V0h-50M111 216h334v414L111 216Z" horiz-adv-x="664" vert-adv-y="1000"/><glyph glyph-name="uni35" unicode="5" d="M302-12q-68 0-132 31.5T57 101l37 37Q197 35 304 35q82 0 135 51t53 127q0 73-53.5 119.5T300 379q-77 0-158-44l-40 26 20 339h393v-50H168l-17-262q78 38 155 38 103 0 171.5-59.5T546 213q0-99-69-162T302-12Z" horiz-adv-x="605" vert-adv-y="1000"/><glyph glyph-name="uni36" unicode="6" d="M331-12q-108 0-178 70-46 46-67.5 108T64 333q0 162 78.5 270.5T349 712q103 0 202-81l-33-40q-83 74-173 74-103 0-166-96t-63-250v-17q76 130 219 130 98 0 169.5-60.5T576 218q0-99-70.5-164.5T331-12m4 47q83 0 135 53t52 130q0 72-53.5 120T332 386q-83 0-139-53t-56-122q0-75 56.5-125.5T335 35Z" horiz-adv-x="642" vert-adv-y="1000"/><glyph glyph-name="uni37" unicode="7" d="m156 0 318 650H68v50h464v-38L213 0h-57Z" horiz-adv-x="587" vert-adv-y="1000"/><glyph glyph-name="uni38" unicode="8" d="M315-10q-112 0-186 55.5T55 189q0 59 43 104.5T210 362Q79 415 79 527q0 79 71 131t165 52q94 0 165-52t71-133q0-110-131-163 69-23 112-68.5T575 187q0-86-74.5-141.5T315-10M165 80l28-21.5Q221 37 315 37t150 43.5Q521 124 521 187q0 65-60 107.5T315 337q-87 0-146.5-43T109 185q0-62 56-105m21 341.5 26.5-20.25Q239 381 315 381t129 40.5Q497 462 497 527q0 59-52.5 97.5T315 663q-77 0-129.5-39T133 525q0-63 53-103.5Z" horiz-adv-x="630" vert-adv-y="1000"/><glyph glyph-name="uni39" unicode="9" d="M293-12Q185-12 82 75l33 40q89-80 179-80 102 0 167 94.5T526 372v24q-75-135-218-135-105 0-173.5 62T66 477q0 99 69 167t177 68q107 0 178-71 88-88 88-275 0-164-81-271T293-12m17 319q86 0 140.5 54.5T505 487q0 75-56.5 126.5T306 665q-83 0-134.5-55.5T120 477q0-74 53.5-122T310 307Z" horiz-adv-x="642" vert-adv-y="1000"/><glyph glyph-name="uni3a" unicode=":" d="M87 0v85h66V0H87m0 425v85h66v-85H87Z" horiz-adv-x="240" vert-adv-y="1000"/><glyph glyph-name="uni3b" unicode=";" d="M70-107 58-82q56 28 56 73v9H87v85h66V11q0-47-19-74t-64-44m17 532v85h66v-85H87Z" horiz-adv-x="240" vert-adv-y="1000"/><glyph glyph-name="uni3c" unicode="&lt;" d="M537 91 73 332v40l464 241v-54L134 353l403-208V91Z" horiz-adv-x="640" vert-adv-y="1000"/><glyph glyph-name="uni3d" unicode="=" d="M93 214v51h454v-51H93m0 225v51h454v-51H93Z" horiz-adv-x="640" vert-adv-y="1000"/><glyph glyph-name="uni3e" unicode="&gt;" d="M103 91v54l403 206-403 208v54l464-241v-40L103 91Z" horiz-adv-x="640" vert-adv-y="1000"/><glyph glyph-name="uni3f" unicode="?" d="M212 0v85h66V0h-66m17 183-13 162 5 5q99 2 153.5 45T429 512q0 63-46 107t-120 44q-109 0-193-103l-36 30q46 58 101 88.5T265 709q97 0 157-56.5T482 512q0-88-59.5-140.5T270 308l-9-125h-32Z" horiz-adv-x="534" vert-adv-y="1000"/><glyph glyph-name="uni40" unicode="@" d="M499-162q-190 0-318 127.5T53 274q0 180 127.5 309T491 712q182 0 309-118t127-278q0-119-55-181T745 73q-52 0-87.5 25T609 166q-75-93-171-93-74 0-125.5 50T261 251q0 103 72.5 176T494 500q102 0 149-89l14 75 48-6-37-211q-9-52-9-72 0-43 23.5-65.5T749 109q58 0 101 53t43 154q0 91-51.5 174.5T696 627q-94 53-205 53-172 0-288-118.5T87 274q0-170 116.5-287T499-130q134 0 250 68l15-25q-123-75-265-75m-53 282q70 0 125 59.5T626 313q0 59-37.5 99T494 452q-70 0-125.5-57.5T313 255q0-63 36.5-99t96.5-36Z" horiz-adv-x="980" vert-adv-y="1000"/><glyph glyph-name="uni41" unicode="A" d="m44 0 326 705h50L746 0h-57l-89 196H187L98 0H44m165 243h369L394 648 209 243Z" horiz-adv-x="790" vert-adv-y="1000"/><glyph glyph-name="uni42" unicode="B" d="M104 0v700h289q103 0 165-47.5T620 526q0-118-119-166 158-41 158-169 0-87-68.5-139T408 0H104m52 48h254q90 0 143 39t53 106q0 65-55 100.5T393 329H156V48m0 329h231q81 0 130.5 38T567 523q0 59-46 94t-129 35H156V377Z" horiz-adv-x="722" vert-adv-y="1000"/><glyph glyph-name="uni43" unicode="C" d="M421-12Q272-12 172.5 92.5T73 350q0 150 100 256t250 106q86 0 146.5-29T692 597l-34-35Q552 665 422 665q-126 0-210.5-90.5T127 350q0-133 85.5-224T423 35q73 0 129 27t112 82l35-34q-61-60-126-91T421-12Z" horiz-adv-x="738" vert-adv-y="1000"/><glyph glyph-name="uni44" unicode="D" d="M104 0v700h233q164 0 268-99.5T709 350q0-150-104.5-250T337 0H104m52 48h181q143 0 230.5 86T655 350q0 128-87.5 215T337 652H156V48Z" horiz-adv-x="782" vert-adv-y="1000"/><glyph glyph-name="uni45" unicode="E" d="M104 0v700h498v-48H156V377h401v-48H156V48h451V0H104Z" horiz-adv-x="670" vert-adv-y="1000"/><glyph glyph-name="uni46" unicode="F" d="M104 0v700h493v-48H156V365h396v-48H156V0h-52Z" horiz-adv-x="656" vert-adv-y="1000"/><glyph glyph-name="uni47" unicode="G" d="M425-12Q264-12 168.5 92T73 350q0 147 97 254.5T419 712q81 0 140.5-23T675 620l-34-39q-96 84-225 84-125 0-207-92t-82-223q0-139 81-227.5T427 34q63 0 122.5 22.5T650 114v201H416v48h284V93q-52-46-123.5-75.5T425-12Z" horiz-adv-x="784" vert-adv-y="1000"/><glyph glyph-name="uni48" unicode="H" d="M104 0v700h52V376h448v324h52V0h-52v328H156V0h-52Z" horiz-adv-x="760" vert-adv-y="1000"/><glyph glyph-name="uni49" unicode="I" d="M111 0v700h52V0h-52Z" horiz-adv-x="274" vert-adv-y="1000"/><glyph glyph-name="uni4a" unicode="J" d="M249-10Q110-10 37 121l43 27q34-57 73.5-84T252 37q67 0 109.5 49T404 224v476h52V228q0-118-64-182-56-56-143-56Z" horiz-adv-x="549" vert-adv-y="1000"/><glyph glyph-name="uni4b" unicode="K" d="M104 0v700h52V240l446 460h71L367 391 686 0h-68L330 354 156 178V0h-52Z" horiz-adv-x="715" vert-adv-y="1000"/><glyph glyph-name="uni4c" unicode="L" d="M104 0v700h52V48h411V0H104Z" horiz-adv-x="619" vert-adv-y="1000"/><glyph glyph-name="uni4d" unicode="M" d="M104 0v700h49l281-414 281 414h49V0h-52v608L435 205h-4L154 608V0h-50Z" horiz-adv-x="868" vert-adv-y="1000"/><glyph glyph-name="uni4e" unicode="N" d="M104 0v700h49L636 91v609h50V0h-39L154 622V0h-50Z" horiz-adv-x="790" vert-adv-y="1000"/><glyph glyph-name="uni4f" unicode="O" d="m678 95-49.5-53.5Q579-12 424-12T171 94.5Q73 201 73 350q0 148 99 255t254 107q155 0 253-106.5T777 350q0-148-99-255m-465.5 32 42.75-46Q298 35 426 35t212.5 91Q723 217 723 350q0 131-85.5 223T424 665q-128 0-212.5-91T127 350q0-131 85.5-223Z" horiz-adv-x="850" vert-adv-y="1000"/><glyph glyph-name="uni50" unicode="P" d="M104 0v700h254q117 0 188.5-57.5T618 484q0-106-78.5-164.5T345 261H156V0h-52m52 309h192q98 0 158 47.5T566 483q0 81-57.5 125T354 652H156V309Z" horiz-adv-x="668" vert-adv-y="1000"/><glyph glyph-name="uni51" unicode="Q" d="m748-21-98 89q-94-80-226-80-155 0-253 106.5T73 350q0 148 99 255t254 107q155 0 253-106.5T777 350q0-144-92-247l100-84-37-40M426 35q107 0 186 66L476 217l37 41 134-122q76 89 76 214 0 131-85.5 223T424 665q-128 0-212.5-91T127 350q0-131 85.5-223T426 35Z" horiz-adv-x="850" vert-adv-y="1000"/><glyph glyph-name="uni52" unicode="R" d="M104 0v700h294q128 0 197-69 53-53 53-132 0-85-56-136t-149-64L674 0h-66L385 290H156V0h-52m52 337h236q90 0 147 43.5T596 499q0 71-53 112t-148 41H156V337Z" horiz-adv-x="723" vert-adv-y="1000"/><glyph glyph-name="uni53" unicode="S" d="M341-10Q184-10 59 102l34 39q59-55 117-79.5T344 37q78 0 127.5 39.5T521 178q0 58-41.5 92T323 327q-126 26-181 72T87 526q0 78 64 131t161 53q74 0 129.5-20.5T552 625l-33-41q-91 79-209 79-76 0-123.5-38.5T139 529q0-59 42.5-94T343 376q121-25 175.5-71T573 181q0-84-65-137.5T341-10Z" horiz-adv-x="640" vert-adv-y="1000"/><glyph glyph-name="uni54" unicode="T" d="M298 0v652H54v48h540v-48H350V0h-52Z" horiz-adv-x="648" vert-adv-y="1000"/><glyph glyph-name="uni55" unicode="U" d="M380-11q-129 0-208 79T93 291v409h52V296q0-123 63-191.5T382 36q109 0 171 65.5T615 291v409h52V297q0-147-78-227.5T380-11Z" horiz-adv-x="760" vert-adv-y="1000"/><glyph glyph-name="uni56" unicode="V" d="M352-5 44 700h58L376 56l275 644h55L398-5h-46Z" horiz-adv-x="750" vert-adv-y="1000"/><glyph glyph-name="uni57" unicode="W" d="M304-5 50 700h58L328 77l205 625h40L778 77l220 623h54L798-5h-42L551 603 346-5h-42Z" horiz-adv-x="1102" vert-adv-y="1000"/><glyph glyph-name="uni58" unicode="X" d="m51 0 279 357L61 700h62l239-308 238 308h61L393 358 671 0h-62L360 323 112 0H51Z" horiz-adv-x="722" vert-adv-y="1000"/><glyph glyph-name="uni59" unicode="Y" d="M332 0v277L32 700h65l262-376 263 376h62L384 278V0h-52Z" horiz-adv-x="716" vert-adv-y="1000"/><glyph glyph-name="uni5a" unicode="Z" d="M68 0v29l479 624H85v47h536v-29L142 47h479V0H68Z" horiz-adv-x="688" vert-adv-y="1000"/><glyph glyph-name="uni5b" unicode="[" d="M98-130v830h273v-38H144V-92h227v-38H98Z" horiz-adv-x="430" vert-adv-y="1000"/><glyph glyph-name="uni5c" unicode="\" d="M469-128-3 798h49l472-926h-49Z" horiz-adv-x="500" vert-adv-y="1000"/><glyph glyph-name="uni5d" unicode="]" d="M59-130v38h227v754H59v38h273v-830H59Z" horiz-adv-x="430" vert-adv-y="1000"/><glyph glyph-name="uni5e" unicode="^" d="m70 493 158 210h44l158-210h-53L249 660 121 493H70Z" horiz-adv-x="500" vert-adv-y="1000"/><glyph glyph-name="uni5f" unicode="_" d="M-2-160v44h604v-44H-2Z" horiz-adv-x="600" vert-adv-y="1000"/><glyph glyph-name="uni60" unicode="`" d="M264 595 157 698l61 30 88-133h-42Z" horiz-adv-x="500" vert-adv-y="1000"/><glyph glyph-name="uni61" unicode="a" d="M248-12q-78 0-137.5 43T51 150q0 78 61 122t162 44q86 0 169-22v22q0 76-44 116t-124 40q-80 0-160-41l-18 43q95 44 181 44 105 0 161-56 52-52 52-144V0h-48v85q-69-97-195-97m3 46q80 0 136.5 44.5T444 191v58q-90 23-173 23-80 0-124-32.5T103 151q0-53 43.5-85T251 34Z" horiz-adv-x="574" vert-adv-y="1000"/><glyph glyph-name="uni62" unicode="b" d="M352-12q-130 0-210 122V0H93v730h49V396q83 126 210 126 98 0 173-73.5T600 255q0-119-75-193T352-12m-5 47q86 0 143 59.5T547 255q0 98-58.5 159T347 475q-83 0-145.5-62.5T139 254q0-95 62.5-157T347 35Z" horiz-adv-x="660" vert-adv-y="1000"/><glyph glyph-name="uni63" unicode="c" d="M318-12q-110 0-185 78T58 255q0 110 75.5 188.5T318 522q119 0 203-95l-34-35q-82 84-170 84-85 0-145.5-65T111 255q0-92 61-156.5T321 34q91 0 169 87l36-32Q437-12 318-12Z" horiz-adv-x="571" vert-adv-y="1000"/><glyph glyph-name="uni64" unicode="d" d="M308-12q-98 0-173 73.5T60 255q0 119 75 193t173 74q130 0 210-122v330h49V0h-49v114Q435-12 308-12M171.5 96l29.25-30.5Q230 35 313 35t145.5 62.5Q521 160 521 256q0 95-62.5 157T313 475q-86 0-143-59.5T113 255q0-98 58.5-159Z" horiz-adv-x="660" vert-adv-y="1000"/><glyph glyph-name="uni65" unicode="e" d="M308-12q-103 0-176.5 75T58 256q0 112 69.5 189T300 522q105 0 169.5-76T534 255q0-12-1-20H110q7-92 64.5-146.5T310 34q100 0 175 80l34-30q-89-96-211-96M110 279h371q-6 84-53 141t-130 57q-75 0-128-56.5T110 279Z" horiz-adv-x="584" vert-adv-y="1000"/><glyph glyph-name="uni66" unicode="f" d="M123 0v465H49v45h74v50q0 88 45 133 40 40 107 40 41 0 76-12v-46q-42 13-76 13-103 0-103-129v-49h178v-45H172V0h-49Z" horiz-adv-x="362" vert-adv-y="1000"/><glyph glyph-name="uni67" unicode="g" d="M317-162q-129 0-234 78l29 40q93-72 206-72 91 0 145.5 51T518 82v74Q436 38 305 38q-97 0-171 67.5T60 280q0 106 74 174t171 68q133 0 213-114v102h49V79q0-108-65-173-68-68-185-68m-7 247q83 0 147 55.5T521 281q0 85-63.5 139.5T310 475q-83 0-140-53.5T113 280q0-84 58-139.5T310 85Z" horiz-adv-x="660" vert-adv-y="1000"/><glyph glyph-name="uni68" unicode="h" d="M93 0v730h49V415q61 107 184 107 95 0 149.5-58.5T530 312V0h-49v303q0 80-43 127t-119 47q-76 0-126.5-51.5T142 295V0H93Z" horiz-adv-x="613" vert-adv-y="1000"/><glyph glyph-name="uni69" unicode="i" d="M100 0v510h49V0h-49m-6 643v67h61v-67H94Z" horiz-adv-x="249" vert-adv-y="1000"/><glyph glyph-name="uni6a" unicode="j" d="M40-163q-21 0-41 4v43q18-3 40-3 28 0 44.5 18T100-48v558h49V-45q0-58-29-88t-80-30m54 806v67h61v-67H94Z" horiz-adv-x="249" vert-adv-y="1000"/><glyph glyph-name="uni6b" unicode="k" d="M93 0v730h49V183l316 327h65L300 284 530 0h-62L266 249 142 124V0H93Z" horiz-adv-x="560" vert-adv-y="1000"/><glyph glyph-name="uni6c" unicode="l" d="M100 0v730h49V0h-49Z" horiz-adv-x="249" vert-adv-y="1000"/><glyph glyph-name="uni6d" unicode="m" d="M93 0v510h49v-91q30 48 69 75.5T312 522q120 0 172-110 64 110 184 110 90 0 143-58t53-155V0h-49v303q0 82-40 128t-111 46q-67 0-114-49t-47-131V0h-49v306q0 79-40.5 125T305 477q-68 0-115.5-53T142 294V0H93Z" horiz-adv-x="951" vert-adv-y="1000"/><glyph glyph-name="uni6e" unicode="n" d="M93 0v510h49v-95q61 107 184 107 95 0 149.5-58.5T530 312V0h-49v303q0 80-43 127t-119 47q-76 0-126.5-51.5T142 295V0H93Z" horiz-adv-x="613" vert-adv-y="1000"/><glyph glyph-name="uni6f" unicode="o" d="m506.5 67-37.75-39.5Q431-12 319-12T132.5 66.5Q58 145 58 255q0 109 75.5 188T321 522q112 0 186.5-78.5T582 255q0-109-75.5-188M321 34q85 0 146.5 65T529 255q0 92-61.5 156.5T319 476q-86 0-147-64.5T111 255q0-92 61-156.5T321 34Z" horiz-adv-x="640" vert-adv-y="1000"/><glyph glyph-name="uni70" unicode="p" d="M93-160v670h49V396q83 126 210 126 98 0 173-73.5T600 255q0-119-75-193T352-12q-130 0-210 122v-270H93M347 35q86 0 143 59.5T547 255q0 98-58.5 159T347 475q-83 0-145.5-62.5T139 254q0-95 62.5-157T347 35Z" horiz-adv-x="660" vert-adv-y="1000"/><glyph glyph-name="uni71" unicode="q" d="M518-160v274Q435-12 308-12q-98 0-173 73.5T60 255q0 119 75 193t173 74q130 0 210-122v110h49v-670h-49M171.5 96l29.25-30.5Q230 35 313 35t145.5 62.5Q521 160 521 256q0 95-62.5 157T313 475q-86 0-143-59.5T113 255q0-98 58.5-159Z" horiz-adv-x="660" vert-adv-y="1000"/><glyph glyph-name="uni72" unicode="r" d="M93 0v510h49V365q31 70 91.5 113T368 518v-54h-5q-93 0-157-68t-64-187V0H93Z" horiz-adv-x="400" vert-adv-y="1000"/><glyph glyph-name="uni73" unicode="s" d="M258-10q-55 0-111.5 20.5T49 64l29 39q87-67 183-67 53 0 88 27t35 72q0 41-34.5 62T249 237q-35 10-51 15t-45 18q-29 13-42.5 26t-25 34.5Q74 352 74 379q0 62 47 101.5T242 520q97 0 181-56l-26-41q-77 51-157 51-52 0-84-25.5T124 383q0-16 8.5-30t20-23q11.5-9 33-18.5t37-14.5q15.5-5 43.5-13 38-11 62-20t51.5-26q27.5-17 41-41.5T434 139q0-67-50.5-108T258-10Z" horiz-adv-x="497" vert-adv-y="1000"/><glyph glyph-name="uni74" unicode="t" d="M263-9q-63 0-103 35.5T120 131v334H46v45h74v163h49V510h179v-45H169V136q0-99 102-99 35 0 75 18V9Q307-9 263-9Z" horiz-adv-x="400" vert-adv-y="1000"/><glyph glyph-name="uni75" unicode="u" d="M287-12q-95 0-149.5 58.5T83 198v312h49V207q0-80 43-127t119-47q76 0 126.5 51.5T471 215v295h49V0h-49v95Q410-12 287-12Z" horiz-adv-x="613" vert-adv-y="1000"/><glyph glyph-name="uni76" unicode="v" d="M270-4 41 510h57L291 55l195 455h55L312-4h-42Z" horiz-adv-x="582" vert-adv-y="1000"/><glyph glyph-name="uni77" unicode="w" d="M236-4 49 510h55L258 62l154 450h39L605 62l154 448h53L625-4h-42L431 433 278-4h-42Z" horiz-adv-x="861" vert-adv-y="1000"/><glyph glyph-name="uni78" unicode="x" d="m45 0 209 260L53 510h61l172-216 172 216h59L316 261 525 0h-61L284 227 104 0H45Z" horiz-adv-x="570" vert-adv-y="1000"/><glyph glyph-name="uni79" unicode="y" d="M155-163q-51 0-101 22l17 43q39-19 87-19 40 0 69 27t57 93L39 510h57L308 54l184 456h54L325-18q-33-78-73.5-111.5T155-163Z" horiz-adv-x="588" vert-adv-y="1000"/><glyph glyph-name="uni7a" unicode="z" d="M58 0v28l368 438H72v44h427v-28L131 44h368V0H58Z" horiz-adv-x="554" vert-adv-y="1000"/><glyph glyph-name="uni7b" unicode="{" d="M416-141q-66 12-108.5 30.5t-64.5 45q-22 26.5-30 56T205 62v79q0 63-26.5 95T85 268H59v38h26q67 0 93.5 32t26.5 95v79q0 42 8 71.5t30 56q22 26.5 64.5 45T416 715l7-32q-58-15-91-29.5T281.5 617Q264 595 259 571.5t-5-65.5v-75q0-63-26.5-96T150 287q54-18 79-49.5t25-94.5V68q0-42 5-65.5T281.5-43Q299-65 332-79.5t91-29.5l-7-32Z" horiz-adv-x="480" vert-adv-y="1000"/><glyph glyph-name="uni7c" unicode="|" d="M121-128v926h44v-926h-44Z" horiz-adv-x="286" vert-adv-y="1000"/><glyph glyph-name="uni7d" unicode="}" d="m64-141-7 32q58 15 91 29.5T198.5-43Q216-21 221 2.5t5 65.5v75q0 63 26.5 96t77.5 48q-54 18-79 49.5T226 431v75q0 42-5 65.5T198.5 617Q181 639 148 653.5T57 683l7 32q66-12 108.5-30.5t64.5-45q22-26.5 30-56t8-71.5v-79q0-63 26.5-95t93.5-32h26v-38h-26q-67 0-93.5-32T275 141V62q0-42-8-71.5t-30-56q-22-26.5-64.5-45T64-141Z" horiz-adv-x="480" vert-adv-y="1000"/><glyph glyph-name="uni7e" unicode="~" d="m116 242-34 9q14 52 33.5 72.5T166 344q20 0 66-20.5t62-20.5q18 0 28.5 10.5T344 353l34-9q-14-52-33.5-72.5T294 251q-20 0-66 20.5T166 292q-18 0-28.5-10.5T116 242Z" horiz-adv-x="460" vert-adv-y="1000"/><glyph glyph-name="unia1" unicode="¡" d="M97 0v70l15 447h28l15-447V0H97m-4 615v85h66v-85H93Z" horiz-adv-x="252" vert-adv-y="1000"/><glyph glyph-name="unia2" unicode="¢" d="m214-6 22 109q-78 27-126 96.5T62 355q0 108 76 187.5T322 622h15l16 84h50l-18-91q74-18 141-87l-35-36q-61 63-118 77l-83-432q16-3 35-3 95 0 171 85l34-30Q441 88 322 88q-20 0-39 3L264-6h-50m34 155 82 427h-9q-87 0-146.5-64T115 355q0-70 37-126t96-80Z" horiz-adv-x="581" vert-adv-y="1000"/><glyph glyph-name="unia3" unicode="£" d="M70 0v25l86 20v260H70v48h86v118q0 116 65 181 58 58 150 58 129 0 210-106l-40-31q-35 44-74 67t-97 23q-70 0-113-43-50-50-50-148V353h298v-48H207V47h374V0H70Z" horiz-adv-x="644" vert-adv-y="1000"/><glyph glyph-name="unia4" unicode="¤" d="M428-12q-102 0-177.5 70.5T149 245H59v48h83q-3 27-3 57 0 34 5 66H59v48h94q28 110 100.5 179T421 712q147 0 240-140l-40-27q-43 63-88.5 92T419 666q-74 0-132-56t-83-146h284v-48H195q-5-30-5-66 0-28 3-57h295v-48H202q24-95 85-153t144-58q111 0 194 128l38-25Q566-12 428-12Z" horiz-adv-x="720" vert-adv-y="1000"/><glyph glyph-name="unia5" unicode="¥" d="M318 0v125H105v45h213v98H105v45h195L32 700h63l249-373 250 373h60L385 313h196v-45H368v-98h213v-45H368V0h-50Z" horiz-adv-x="686" vert-adv-y="1000"/><glyph glyph-name="unia6" unicode="¦" d="M138 411H84v250h54V411m0-500H84v250h54V-89Z" horiz-adv-x="222" vert-adv-y="1000"/><glyph glyph-name="unia7" unicode="§" d="M329-10q-65 0-124.5 26T102 85l38 36q80-82 194-82 57 0 86.5 22t29.5 57q0 33-41 57.5T267 224q-111 27-156.5 59T65 365q0 44 40 74.5T213 478q-86 38-86 107 0 56 48.5 90.5T303 710q65 0 124.5-26T530 615l-38-36q-80 82-194 82-57 0-86.5-22T182 582q0-33 41-57.5T365 476q111-27 156.5-59t45.5-82q0-44-40-74.5T419 222q86-38 86-107 0-56-48.5-90.5T329-10m57 263q57 0 93 23.5t36 56.5q0 29-34.5 52.5T358 431q-64 16-112 16-57 0-93-23.5T117 367q0-29 34.5-52.5T274 269q63-16 112-16Z" horiz-adv-x="632" vert-adv-y="1000"/><glyph glyph-name="unia8" unicode="¨" d="M134 595v80h69v-80h-69m163 0v80h69v-80h-69Z" horiz-adv-x="500" vert-adv-y="1000"/><glyph glyph-name="unia9" unicode="©" d="m671 94.5-53-53.25Q565-12 414-12T158 94Q53 200 53 350q0 149 106 255.5T416 712q151 0 256-106t105-256q0-149-106-255.5M178 113l47.5-48.5Q273 16 414 16t237 98q96 98 96 238 0 138-95 235t-236 97q-141 0-237-98T83 348q0-138 95-235m241 53q-77 0-129.5 55.5T237 356q0 77 53 133t130 56q77 0 141-61l-30-31q-54 52-112 52-59 0-98.5-43.5T281 355q0-61 40.5-105t98.5-44q60 0 115 52l28-28q-66-64-144-64Z" horiz-adv-x="830" vert-adv-y="1000"/><glyph glyph-name="uniaa" unicode="ª" d="M62 293v40h252v-40H62m112 118q-44 0-76.5 24.5T65 503q0 43 34 68t90 25q41 0 83-11v5q0 38-22 57.5T189 667q-37 0-88-24l-13 34q55 26 103 26 58 0 90-32 28-28 28-80V417h-37v41q-36-47-98-47m2 36q39 0 67.5 21.5T272 524v27q-36 11-85 11-31 0-56.5-14.5T105 503q0-26 20.5-41t50.5-15Z" horiz-adv-x="390" vert-adv-y="1000"/><glyph glyph-name="uniab" unicode="«" d="M211 42 51 251v8l160 209 37-24-137-188L248 66l-37-24m204 0L255 251v8l160 209 37-24-137-188L452 66l-37-24Z" horiz-adv-x="515" vert-adv-y="1000"/><glyph glyph-name="uniac" unicode="¬" d="M547 259h-50v180H93v51h454V259Z" horiz-adv-x="640" vert-adv-y="1000"/><glyph glyph-name="uniad" unicode="­" d="M70 269v56h268v-56H70Z" horiz-adv-x="408" vert-adv-y="1000"/><glyph glyph-name="uniae" unicode="®" d="m671 94.5-53-53.25Q565-12 414-12T158 94Q53 200 53 350q0 149 106 255.5T416 712q151 0 256-106t105-256q0-149-106-255.5M178 113l47.5-48.5Q273 16 414 16t237 98q96 98 96 238 0 138-95 235t-236 97q-141 0-237-98T83 348q0-138 95-235m98 64v366h164q70 0 107-37 28-28 28-70 0-43-27-69.5T475 331l122-154h-56L423 324H319V177h-43m43 187h114q43 0 70 18.5t27 53.5q0 30-24.5 48T438 502H319V364Z" horiz-adv-x="830" vert-adv-y="1000"/><glyph glyph-name="uniaf" unicode="¯" d="M100 600v53h300v-53H100Z" horiz-adv-x="500" vert-adv-y="1000"/><glyph glyph-name="unib0" unicode="°" d="m330.5 456-22.75-22Q285 412 225 412t-105.5 44Q74 500 74 560q0 58 45.5 102T225 706q60 0 105.5-44T376 558q0-58-45.5-102M153 486.5l14.5-15.25Q182 456 225 456t72 31q29 31 29 73 0 41-29 71.5T225 662q-43 0-72-31t-29-73q0-41 29-71.5Z" horiz-adv-x="450" vert-adv-y="1000"/><glyph glyph-name="unib1" unicode="±" d="M569 294H347V116h-53v178H72v48h222v177h53V342h222v-48m0-272H72v48h497V22Z" horiz-adv-x="640" vert-adv-y="1000"/><glyph glyph-name="unib2" unicode="²" d="M0 0v700h500V0H0m81 49h339L250 304 81 49M49 96l171 254L49 604V96m401 0v508L279 350 450 96M250 395l170 255H81l169-255Z" horiz-adv-x="500" vert-adv-y="1000"/><glyph glyph-name="unib3" unicode="³" d="M0 0v700h500V0H0m81 49h339L250 304 81 49M49 96l171 254L49 604V96m401 0v508L279 350 450 96M250 395l170 255H81l169-255Z" horiz-adv-x="500" vert-adv-y="1000"/><glyph glyph-name="unib4" unicode="´" d="m194 595 88 133 61-30-107-103h-42Z" horiz-adv-x="500" vert-adv-y="1000"/><glyph glyph-name="unib5" unicode="µ" d="M297-12q-99 0-155 85v-233H93v670h49V207q0-80 43-127t119-47q76 0 126.5 51.5T481 215v295h49V0h-49v95Q420-12 297-12Z" horiz-adv-x="623" vert-adv-y="1000"/><glyph glyph-name="uni03BC" unicode="μ" d="M297-12q-99 0-155 85v-233H93v670h49V207q0-80 43-127t119-47q76 0 126.5 51.5T481 215v295h49V0h-49v95Q420-12 297-12Z" horiz-adv-x="623" vert-adv-y="1000"/><glyph glyph-name="unib6" unicode="¶" d="M333 0v277h-6q-120 0-197 56.5T53 490q0 97 72 153.5T312 700h74V0h-53Z" horiz-adv-x="480" vert-adv-y="1000"/><glyph glyph-name="unib7" unicode="·" d="M82 255v85h66v-85H82Z" horiz-adv-x="230" vert-adv-y="1000"/><glyph glyph-name="unib8" unicode="¸" d="m217-148-55 26 90 132h43l-78-158Z" horiz-adv-x="500" vert-adv-y="1000"/><glyph glyph-name="unib9" unicode="¹" d="M0 0v700h500V0H0m81 49h339L250 304 81 49M49 96l171 254L49 604V96m401 0v508L279 350 450 96M250 395l170 255H81l169-255Z" horiz-adv-x="500" vert-adv-y="1000"/><glyph glyph-name="uniba" unicode="º" d="M51 293v40h288v-40H51m143 118q-61 0-102 43T51 558q0 60 41.5 103.5T196 705q61 0 102-43t41-104q0-60-41.5-103.5T194 411m2 39q44 0 72 31t28 77q0 45-29.5 76.5T194 666q-44 0-72-31t-28-77q0-45 29.5-76.5T196 450Z" horiz-adv-x="390" vert-adv-y="1000"/><glyph glyph-name="unibb" unicode="»" d="M100 42 63 66l137 188L63 444l37 24 160-209v-8L100 42m204 0-37 24 137 188-137 190 37 24 160-209v-8L304 42Z" horiz-adv-x="515" vert-adv-y="1000"/><glyph glyph-name="unibc" unicode="¼" d="M0 0v700h500V0H0m81 49h339L250 304 81 49M49 96l171 254L49 604V96m401 0v508L279 350 450 96M250 395l170 255H81l169-255Z" horiz-adv-x="500" vert-adv-y="1000"/><glyph glyph-name="unibd" unicode="½" d="M0 0v700h500V0H0m81 49h339L250 304 81 49M49 96l171 254L49 604V96m401 0v508L279 350 450 96M250 395l170 255H81l169-255Z" horiz-adv-x="500" vert-adv-y="1000"/><glyph glyph-name="unibe" unicode="¾" d="M0 0v700h500V0H0m81 49h339L250 304 81 49M49 96l171 254L49 604V96m401 0v508L279 350 450 96M250 395l170 255H81l169-255Z" horiz-adv-x="500" vert-adv-y="1000"/><glyph glyph-name="unibf" unicode="¿" d="M269-9q-97 0-157 56.5T52 188q0 88 59.5 140.5T264 392l9 125h32l13-162-5-5q-99-2-153.5-45T105 188q0-63 46-107t120-44q109 0 193 103l36-30q-46-58-101-88.5T269-9m-13 624v85h66v-85h-66Z" horiz-adv-x="534" vert-adv-y="1000"/><glyph glyph-name="unic0" unicode="À" d="m44 0 326 705h50L746 0h-57l-89 196H187L98 0H44m165 243h369L394 648 209 243m161 522L263 868l61 30 88-133h-42Z" horiz-adv-x="790" vert-adv-y="1000"/><glyph glyph-name="unic1" unicode="Á" d="m44 0 326 705h50L746 0h-57l-89 196H187L98 0H44m165 243h369L394 648 209 243m169 522 88 133 61-30-107-103h-42Z" horiz-adv-x="790" vert-adv-y="1000"/><glyph glyph-name="unic2" unicode="Â" d="m44 0 326 705h50L746 0h-57l-89 196H187L98 0H44m165 243h369L394 648 209 243m66 517 100 122h40l100-122h-47l-74 68-74-68h-45Z" horiz-adv-x="790" vert-adv-y="1000"/><glyph glyph-name="unic3" unicode="Ã" d="m44 0 326 705h50L746 0h-57l-89 196H187L98 0H44m165 243h369L394 648 209 243m72 513-34 9q14 52 33.5 72.5T331 858q19 0 65-20.5t63-20.5q18 0 28.5 10.5T509 867l34-9q-14-52-33.5-72.5T459 765q-19 0-65 20.5T331 806q-18 0-28.5-10.5T281 756Z" horiz-adv-x="790" vert-adv-y="1000"/><glyph glyph-name="unic4" unicode="Ä" d="m44 0 326 705h50L746 0h-57l-89 196H187L98 0H44m165 243h369L394 648 209 243m70 522v80h69v-80h-69m163 0v80h69v-80h-69Z" horiz-adv-x="790" vert-adv-y="1000"/><glyph glyph-name="unic5" unicode="Å" d="m44 0 313 677q-26 12-43 35.5T297 765q0 38 29.5 65.5T395 858q39 0 68.5-28t29.5-67q0-28-17-51t-43-34L746 0h-57l-89 196H187L98 0H44m165 243h369L394 648 209 243m142.5 477 9.25-9q9.25-9 34.25-9t43.5 18.5Q457 739 457 765q0 25-18.5 43T395 826q-26 0-44-18.5T333 763q0-25 18.5-43Z" horiz-adv-x="790" vert-adv-y="1000"/><glyph glyph-name="unic6" unicode="Æ" d="m20 0 424 700h533v-48H546V377h386v-48H546V48h436V0H494v196H194L76 0H20m202 243h272v410h-26L222 243Z" horiz-adv-x="1045" vert-adv-y="1000"/><glyph glyph-name="unic7" unicode="Ç" d="m367-148-55 26 76 111Q251 2 162 104T73 350q0 150 100 256t250 106q87 0 149.5-28.5T695 600l-37-38Q552 665 422 665q-126 0-210.5-90.5T127 350q0-133 85.5-224T423 35q73 0 129 27t112 82l35-34q-58-57-120.5-88T434-12l-67-136Z" horiz-adv-x="738" vert-adv-y="1000"/><glyph glyph-name="unic8" unicode="È" d="M104 0v700h498v-48H156V377h401v-48H156V48h451V0H104m245 765L242 868l61 30 88-133h-42Z" horiz-adv-x="670" vert-adv-y="1000"/><glyph glyph-name="unic9" unicode="É" d="M104 0v700h498v-48H156V377h401v-48H156V48h451V0H104m205 765 88 133 61-30-107-103h-42Z" horiz-adv-x="670" vert-adv-y="1000"/><glyph glyph-name="unica" unicode="Ê" d="M104 0v700h498v-48H156V377h401v-48H156V48h451V0H104m125 765 100 122h40l100-122h-47l-74 68-74-68h-45Z" horiz-adv-x="670" vert-adv-y="1000"/><glyph glyph-name="unicb" unicode="Ë" d="M104 0v700h498v-48H156V377h401v-48H156V48h451V0H104m129 765v80h69v-80h-69m163 0v80h69v-80h-69Z" horiz-adv-x="670" vert-adv-y="1000"/><glyph glyph-name="unicc" unicode="Ì" d="M111 0v700h52V0h-52m3 765L7 868l61 30 88-133h-42Z" horiz-adv-x="274" vert-adv-y="1000"/><glyph glyph-name="unicd" unicode="Í" d="M111 0v700h52V0h-52m7 765 88 133 61-30-107-103h-42Z" horiz-adv-x="274" vert-adv-y="1000"/><glyph glyph-name="unice" unicode="Î" d="M111 0v700h52V0h-52M18 765l100 122h40l100-122h-47l-74 68-74-68H18Z" horiz-adv-x="274" vert-adv-y="1000"/><glyph glyph-name="unicf" unicode="Ï" d="M111 0v700h52V0h-52M22 765v80h69v-80H22m163 0v80h69v-80h-69Z" horiz-adv-x="274" vert-adv-y="1000"/><glyph glyph-name="unid0" unicode="Ð" d="M134 0v328H59v48h75v324h233q164 0 268-99.5T739 350q0-150-104.5-250T367 0H134m52 48h181q143 0 230.5 86T685 350q0 128-87.5 215T367 652H186V376h232v-48H186V48Z" horiz-adv-x="812" vert-adv-y="1000"/><glyph glyph-name="unid1" unicode="Ñ" d="M104 0v700h49L636 91v609h50V0h-39L154 622V0h-50m177 756-34 9q14 52 33.5 72.5T331 858q19 0 65-20.5t63-20.5q18 0 28.5 10.5T509 867l34-9q-14-52-33.5-72.5T459 765q-19 0-65 20.5T331 806q-18 0-28.5-10.5T281 756Z" horiz-adv-x="790" vert-adv-y="1000"/><glyph glyph-name="unid2" unicode="Ò" d="m678 95-49.5-53.5Q579-12 424-12T171 94.5Q73 201 73 350q0 148 99 255t254 107q155 0 253-106.5T777 350q0-148-99-255m-465.5 32 42.75-46Q298 35 426 35t212.5 91Q723 217 723 350q0 131-85.5 223T424 665q-128 0-212.5-91T127 350q0-131 85.5-223M399 765 292 868l61 30 88-133h-42Z" horiz-adv-x="850" vert-adv-y="1000"/><glyph glyph-name="unid3" unicode="Ó" d="m678 95-49.5-53.5Q579-12 424-12T171 94.5Q73 201 73 350q0 148 99 255t254 107q155 0 253-106.5T777 350q0-148-99-255m-465.5 32 42.75-46Q298 35 426 35t212.5 91Q723 217 723 350q0 131-85.5 223T424 665q-128 0-212.5-91T127 350q0-131 85.5-223M409 765l88 133 61-30-107-103h-42Z" horiz-adv-x="850" vert-adv-y="1000"/><glyph glyph-name="unid4" unicode="Ô" d="m678 95-49.5-53.5Q579-12 424-12T171 94.5Q73 201 73 350q0 148 99 255t254 107q155 0 253-106.5T777 350q0-148-99-255m-465.5 32 42.75-46Q298 35 426 35t212.5 91Q723 217 723 350q0 131-85.5 223T424 665q-128 0-212.5-91T127 350q0-131 85.5-223M305 765l100 122h40l100-122h-47l-74 68-74-68h-45Z" horiz-adv-x="850" vert-adv-y="1000"/><glyph glyph-name="unid5" unicode="Õ" d="m678 95-49.5-53.5Q579-12 424-12T171 94.5Q73 201 73 350q0 148 99 255t254 107q155 0 253-106.5T777 350q0-148-99-255m-465.5 32 42.75-46Q298 35 426 35t212.5 91Q723 217 723 350q0 131-85.5 223T424 665q-128 0-212.5-91T127 350q0-131 85.5-223M311 756l-34 9q14 52 33.5 72.5T361 858q19 0 65-20.5t63-20.5q18 0 28.5 10.5T539 867l34-9q-14-52-33.5-72.5T489 765q-19 0-65 20.5T361 806q-18 0-28.5-10.5T311 756Z" horiz-adv-x="850" vert-adv-y="1000"/><glyph glyph-name="unid6" unicode="Ö" d="m678 95-49.5-53.5Q579-12 424-12T171 94.5Q73 201 73 350q0 148 99 255t254 107q155 0 253-106.5T777 350q0-148-99-255m-465.5 32 42.75-46Q298 35 426 35t212.5 91Q723 217 723 350q0 131-85.5 223T424 665q-128 0-212.5-91T127 350q0-131 85.5-223M309 765v80h69v-80h-69m163 0v80h69v-80h-69Z" horiz-adv-x="850" vert-adv-y="1000"/><glyph glyph-name="unid7" unicode="×" d="m553 154-37-37-197 198-196-198-37 37 197 197L86 548l37 37 196-198 197 198 37-37-197-197 197-197Z" horiz-adv-x="640" vert-adv-y="1000"/><glyph glyph-name="unid8" unicode="Ø" d="M424-12q-133 0-228 82L125-5H65l100 106Q73 204 73 350q0 148 99 255t254 107q134 0 228-83l71 76h60L685 599q92-103 92-249 0-148-99-255T424-12m2 47q128 0 212.5 91T723 350q0 122-74 210L230 110q81-75 196-75M201 140l419 450q-81 75-196 75-128 0-212.5-91T127 350q0-122 74-210Z" horiz-adv-x="850" vert-adv-y="1000"/><glyph glyph-name="unid9" unicode="Ù" d="M380-11q-129 0-208 79T93 291v409h52V296q0-123 63-191.5T382 36q109 0 171 65.5T615 291v409h52V297q0-147-78-227.5T380-11m-17 771L256 863l61 30 88-133h-42Z" horiz-adv-x="760" vert-adv-y="1000"/><glyph glyph-name="unida" unicode="Ú" d="M380-11q-129 0-208 79T93 291v409h52V296q0-123 63-191.5T382 36q109 0 171 65.5T615 291v409h52V297q0-147-78-227.5T380-11m-25 771 88 133 61-30-107-103h-42Z" horiz-adv-x="760" vert-adv-y="1000"/><glyph glyph-name="unidb" unicode="Û" d="M380-11q-129 0-208 79T93 291v409h52V296q0-123 63-191.5T382 36q109 0 171 65.5T615 291v409h52V297q0-147-78-227.5T380-11M260 760l100 122h40l100-122h-47l-74 68-74-68h-45Z" horiz-adv-x="760" vert-adv-y="1000"/><glyph glyph-name="unidc" unicode="Ü" d="M380-11q-129 0-208 79T93 291v409h52V296q0-123 63-191.5T382 36q109 0 171 65.5T615 291v409h52V297q0-147-78-227.5T380-11M264 760v80h69v-80h-69m163 0v80h69v-80h-69Z" horiz-adv-x="760" vert-adv-y="1000"/><glyph glyph-name="unidd" unicode="Ý" d="M332 0v277L32 700h65l262-376 263 376h62L384 278V0h-52m8 760 88 133 61-30-107-103h-42Z" horiz-adv-x="716" vert-adv-y="1000"/><glyph glyph-name="unide" unicode="Þ" d="M104 0v700h52V573h202q117 0 188.5-57.5T618 357q0-106-78.5-165T345 133H156V0h-52m52 181h192q98 0 158 48t60 127q0 81-57.5 125T354 525H156V181Z" horiz-adv-x="673" vert-adv-y="1000"/><glyph glyph-name="unidf" unicode="ß" d="M289-2v43q101 2 158 39.5T504 189q0 130-215 153v41q170 52 170 177 0 57-41.5 94T310 691q-74 0-121-52t-47-139V0H93v500q0 105 60 171t160 66q89 0 144-50.5T512 560q0-68-45.5-117T355 370q88-15 145-59.5T557 189q0-90-72-140.5T289-2Z" horiz-adv-x="620" vert-adv-y="1000"/><glyph glyph-name="unie0" unicode="à" d="M248-12q-78 0-137.5 43T51 150q0 78 61 122t162 44q86 0 169-22v22q0 76-44 116t-124 40q-80 0-160-41l-18 43q95 44 181 44 105 0 161-56 52-52 52-144V0h-48v85q-69-97-195-97m3 46q80 0 136.5 44.5T444 191v58q-90 23-173 23-80 0-124-32.5T103 151q0-53 43.5-85T251 34m13 561L157 698l61 30 88-133h-42Z" horiz-adv-x="574" vert-adv-y="1000"/><glyph glyph-name="unie1" unicode="á" d="M248-12q-78 0-137.5 43T51 150q0 78 61 122t162 44q86 0 169-22v22q0 76-44 116t-124 40q-80 0-160-41l-18 43q95 44 181 44 105 0 161-56 52-52 52-144V0h-48v85q-69-97-195-97m3 46q80 0 136.5 44.5T444 191v58q-90 23-173 23-80 0-124-32.5T103 151q0-53 43.5-85T251 34m5 561 88 133 61-30-107-103h-42Z" horiz-adv-x="574" vert-adv-y="1000"/><glyph glyph-name="unie2" unicode="â" d="M248-12q-78 0-137.5 43T51 150q0 78 61 122t162 44q86 0 169-22v22q0 76-44 116t-124 40q-80 0-160-41l-18 43q95 44 181 44 105 0 161-56 52-52 52-144V0h-48v85q-69-97-195-97m3 46q80 0 136.5 44.5T444 191v58q-90 23-173 23-80 0-124-32.5T103 151q0-53 43.5-85T251 34m-81 561 100 122h40l100-122h-47l-74 68-74-68h-45Z" horiz-adv-x="574" vert-adv-y="1000"/><glyph glyph-name="unie3" unicode="ã" d="M248-12q-78 0-137.5 43T51 150q0 78 61 122t162 44q86 0 169-22v22q0 76-44 116t-124 40q-80 0-160-41l-18 43q95 44 181 44 105 0 161-56 52-52 52-144V0h-48v85q-69-97-195-97m3 46q80 0 136.5 44.5T444 191v58q-90 23-173 23-80 0-124-32.5T103 151q0-53 43.5-85T251 34m-75 552-34 9q14 52 33.5 72.5T226 688q19 0 65.5-20.5T354 647q18 0 28.5 10.5T404 697l34-9q-14-52-33.5-72.5T354 595q-20 0-66 20.5T226 636q-18 0-28.5-10.5T176 586Z" horiz-adv-x="574" vert-adv-y="1000"/><glyph glyph-name="unie4" unicode="ä" d="M248-12q-78 0-137.5 43T51 150q0 78 61 122t162 44q86 0 169-22v22q0 76-44 116t-124 40q-80 0-160-41l-18 43q95 44 181 44 105 0 161-56 52-52 52-144V0h-48v85q-69-97-195-97m3 46q80 0 136.5 44.5T444 191v58q-90 23-173 23-80 0-124-32.5T103 151q0-53 43.5-85T251 34m-77 561v80h69v-80h-69m163 0v80h69v-80h-69Z" horiz-adv-x="574" vert-adv-y="1000"/><glyph glyph-name="unie5" unicode="å" d="M248-12q-78 0-137.5 43T51 150q0 78 61 122t162 44q86 0 169-22v22q0 76-44 116t-124 40q-80 0-160-41l-18 43q95 44 181 44 105 0 161-56 52-52 52-144V0h-48v85q-69-97-195-97m3 46q80 0 136.5 44.5T444 191v58q-90 23-173 23-80 0-124-32.5T103 151q0-53 43.5-85T251 34m107.5 586.5-14.75-13.75Q329 593 290 593t-68.5 28Q192 649 192 688q0 38 29.5 65.5T290 781q39 0 68.5-28t29.5-67q0-38-29.5-65.5m-112 22.5 9.25-9q9.25-9 34.25-9t43.5 18.5Q352 662 352 688q0 25-18.5 43T290 749q-26 0-44-18.5T228 686q0-25 18.5-43Z" horiz-adv-x="574" vert-adv-y="1000"/><glyph glyph-name="unie6" unicode="æ" d="M243-12q-77 0-134.5 43T51 150q0 78 60 122t158 44q77 0 160-22v22q0 76-42 116t-119 40q-73 0-153-41l-18 43q93 44 174 44 158 0 193-128 31 60 85.5 96T670 522q105 0 169.5-76T904 255q0-12-1-20H480q7-92 64.5-146.5T680 34q100 0 175 80l34-30q-89-96-211-96-63 0-117.5 29.5T472 100Q375-12 243-12m3 46q118 0 204 107-21 52-22 109-95 22-162 22-78 0-120.5-32.5T103 151q0-54 41-85.5T246 34m234 245h371q-6 84-53 141t-130 57q-75 0-128-56.5T480 279Z" horiz-adv-x="954" vert-adv-y="1000"/><glyph glyph-name="unie7" unicode="ç" d="m263-148-55 26 76 112Q187 3 122.5 78.5T58 255q0 108 76 187.5T318 522q114 0 204-94l-35-36q-82 84-170 84-87 0-146.5-64T111 255q0-92 61-156.5T321 34q95 0 171 85l34-30Q440-7 330-12l-67-136Z" horiz-adv-x="571" vert-adv-y="1000"/><glyph glyph-name="unie8" unicode="è" d="M308-12q-103 0-176.5 75T58 256q0 112 69.5 189T300 522q105 0 169.5-76T534 255q0-12-1-20H110q7-92 64.5-146.5T310 34q100 0 175 80l34-30q-89-96-211-96M110 279h371q-6 84-53 141t-130 57q-75 0-128-56.5T110 279m176 316L179 698l61 30 88-133h-42Z" horiz-adv-x="584" vert-adv-y="1000"/><glyph glyph-name="unie9" unicode="é" d="M308-12q-103 0-176.5 75T58 256q0 112 69.5 189T300 522q105 0 169.5-76T534 255q0-12-1-20H110q7-92 64.5-146.5T310 34q100 0 175 80l34-30q-89-96-211-96M110 279h371q-6 84-53 141t-130 57q-75 0-128-56.5T110 279m147 316 88 133 61-30-107-103h-42Z" horiz-adv-x="584" vert-adv-y="1000"/><glyph glyph-name="uniea" unicode="ê" d="M308-12q-103 0-176.5 75T58 256q0 112 69.5 189T300 522q105 0 169.5-76T534 255q0-12-1-20H110q7-92 64.5-146.5T310 34q100 0 175 80l34-30q-89-96-211-96M110 279h371q-6 84-53 141t-130 57q-75 0-128-56.5T110 279m67 316 100 122h40l100-122h-47l-74 68-74-68h-45Z" horiz-adv-x="584" vert-adv-y="1000"/><glyph glyph-name="unieb" unicode="ë" d="M308-12q-103 0-176.5 75T58 256q0 112 69.5 189T300 522q105 0 169.5-76T534 255q0-12-1-20H110q7-92 64.5-146.5T310 34q100 0 175 80l34-30q-89-96-211-96M110 279h371q-6 84-53 141t-130 57q-75 0-128-56.5T110 279m71 316v80h69v-80h-69m163 0v80h69v-80h-69Z" horiz-adv-x="584" vert-adv-y="1000"/><glyph glyph-name="uniec" unicode="ì" d="M100 0v510h49V0h-49m2 595L-5 698l61 30 88-133h-42Z" horiz-adv-x="249" vert-adv-y="1000"/><glyph glyph-name="unied" unicode="í" d="M100 0v510h49V0h-49m5 595 88 133 61-30-107-103h-42Z" horiz-adv-x="249" vert-adv-y="1000"/><glyph glyph-name="uniee" unicode="î" d="M100 0v510h49V0h-49M4 595l100 122h40l100-122h-47l-74 68-74-68H4Z" horiz-adv-x="249" vert-adv-y="1000"/><glyph glyph-name="unief" unicode="ï" d="M100 0v510h49V0h-49M8 595v80h69v-80H8m163 0v80h69v-80h-69Z" horiz-adv-x="249" vert-adv-y="1000"/><glyph glyph-name="unif0" unicode="ð" d="M309-12q-107 0-179 75.5T58 245q0 105 71 173t169 68q95 0 177-63L328 631l-133-68-29 36 137 67-45 64h63l27-41 98 50 28-36-102-50 109-161q43-63 65-120t22-125q0-106-72.5-182.5T309-12m5 46q88 0 144.5 62T515 244q0 82-61 140t-150 58q-87 0-140-57.5T111 240q0-81 58.5-143.5T314 34Z" horiz-adv-x="628" vert-adv-y="1000"/><glyph glyph-name="unif1" unicode="ñ" d="M93 0v510h49v-95q61 107 184 107 95 0 149.5-58.5T530 312V0h-49v303q0 80-43 127t-119 47q-76 0-126.5-51.5T142 295V0H93m104 586-34 9q14 52 33.5 72.5T247 688q19 0 65.5-20.5T375 647q18 0 28.5 10.5T425 697l34-9q-14-52-33.5-72.5T375 595q-19 0-65 20.5T247 636q-18 0-28.5-10.5T197 586Z" horiz-adv-x="613" vert-adv-y="1000"/><glyph glyph-name="unif2" unicode="ò" d="m506.5 67-37.75-39.5Q431-12 319-12T132.5 66.5Q58 145 58 255q0 109 75.5 188T321 522q112 0 186.5-78.5T582 255q0-109-75.5-188M321 34q85 0 146.5 65T529 255q0 92-61.5 156.5T319 476q-86 0-147-64.5T111 255q0-92 61-156.5T321 34m-23 561L191 698l61 30 88-133h-42Z" horiz-adv-x="640" vert-adv-y="1000"/><glyph glyph-name="unif3" unicode="ó" d="m506.5 67-37.75-39.5Q431-12 319-12T132.5 66.5Q58 145 58 255q0 109 75.5 188T321 522q112 0 186.5-78.5T582 255q0-109-75.5-188M321 34q85 0 146.5 65T529 255q0 92-61.5 156.5T319 476q-86 0-147-64.5T111 255q0-92 61-156.5T321 34m-21 561 88 133 61-30-107-103h-42Z" horiz-adv-x="640" vert-adv-y="1000"/><glyph glyph-name="unif4" unicode="ô" d="m506.5 67-37.75-39.5Q431-12 319-12T132.5 66.5Q58 145 58 255q0 109 75.5 188T321 522q112 0 186.5-78.5T582 255q0-109-75.5-188M321 34q85 0 146.5 65T529 255q0 92-61.5 156.5T319 476q-86 0-147-64.5T111 255q0-92 61-156.5T321 34M200 595l100 122h40l100-122h-47l-74 68-74-68h-45Z" horiz-adv-x="640" vert-adv-y="1000"/><glyph glyph-name="unif5" unicode="õ" d="m506.5 67-37.75-39.5Q431-12 319-12T132.5 66.5Q58 145 58 255q0 109 75.5 188T321 522q112 0 186.5-78.5T582 255q0-109-75.5-188M321 34q85 0 146.5 65T529 255q0 92-61.5 156.5T319 476q-86 0-147-64.5T111 255q0-92 61-156.5T321 34M206 586l-34 9q14 52 33.5 72.5T256 688q20 0 66-20.5t62-20.5q18 0 28.5 10.5T434 697l34-9q-14-52-33.5-72.5T384 595q-20 0-66 20.5T256 636q-18 0-28.5-10.5T206 586Z" horiz-adv-x="640" vert-adv-y="1000"/><glyph glyph-name="unif6" unicode="ö" d="m506.5 67-37.75-39.5Q431-12 319-12T132.5 66.5Q58 145 58 255q0 109 75.5 188T321 522q112 0 186.5-78.5T582 255q0-109-75.5-188M321 34q85 0 146.5 65T529 255q0 92-61.5 156.5T319 476q-86 0-147-64.5T111 255q0-92 61-156.5T321 34M204 595v80h69v-80h-69m163 0v80h69v-80h-69Z" horiz-adv-x="640" vert-adv-y="1000"/><glyph glyph-name="unif7" unicode="÷" d="M93 328v51h454v-51H93m194-199v85h66v-85h-66m0 364v85h66v-85h-66Z" horiz-adv-x="640" vert-adv-y="1000"/><glyph glyph-name="unif8" unicode="ø" d="M319-12q-96 0-167 60L100-5H43l79 82q-64 75-64 178 0 109 75.5 188T321 522q96 0 167-61l52 56h57l-80-84q65-75 65-178 0-109-75.5-188T319-12m2 46q90 0 149 64t59 157q0 79-47 141L184 86q58-52 137-52m-163 80 298 309q-59 53-137 53-90 0-149-64t-59-157q0-80 47-141Z" horiz-adv-x="640" vert-adv-y="1000"/><glyph glyph-name="unif9" unicode="ù" d="M287-12q-95 0-149.5 58.5T83 198v312h49V207q0-80 43-127t119-47q76 0 126.5 51.5T471 215v295h49V0h-49v95Q410-12 287-12m2 602L182 693l61 30 88-133h-42Z" horiz-adv-x="613" vert-adv-y="1000"/><glyph glyph-name="unifa" unicode="ú" d="M287-12q-95 0-149.5 58.5T83 198v312h49V207q0-80 43-127t119-47q76 0 126.5 51.5T471 215v295h49V0h-49v95Q410-12 287-12m-10 602 88 133 61-30-107-103h-42Z" horiz-adv-x="613" vert-adv-y="1000"/><glyph glyph-name="unifb" unicode="û" d="M287-12q-95 0-149.5 58.5T83 198v312h49V207q0-80 43-127t119-47q76 0 126.5 51.5T471 215v295h49V0h-49v95Q410-12 287-12m-99 607 100 122h40l100-122h-47l-74 68-74-68h-45Z" horiz-adv-x="613" vert-adv-y="1000"/><glyph glyph-name="unifc" unicode="ü" d="M287-12q-95 0-149.5 58.5T83 198v312h49V207q0-80 43-127t119-47q76 0 126.5 51.5T471 215v295h49V0h-49v95Q410-12 287-12m-95 607v80h69v-80h-69m163 0v80h69v-80h-69Z" horiz-adv-x="613" vert-adv-y="1000"/><glyph glyph-name="unifd" unicode="ý" d="M155-163q-51 0-101 22l17 43q39-19 87-19 40 0 69 27t57 93L39 510h57L308 54l184 456h54L325-18q-33-78-73.5-111.5T155-163m126 753 88 133 61-30-107-103h-42Z" horiz-adv-x="588" vert-adv-y="1000"/><glyph glyph-name="unife" unicode="þ" d="M93-160v890h49V396q83 126 210 126 98 0 173-73.5T600 255q0-119-75-193T352-12q-130 0-210 122v-270H93M347 35q86 0 143 59.5T547 255q0 98-58.5 159T347 475q-83 0-145.5-62.5T139 254q0-95 62.5-157T347 35Z" horiz-adv-x="660" vert-adv-y="1000"/><glyph glyph-name="uniff" unicode="ÿ" d="M155-163q-51 0-101 22l17 43q39-19 87-19 40 0 69 27t57 93L39 510h57L308 54l184 456h54L325-18q-33-78-73.5-111.5T155-163m23 758v80h69v-80h-69m163 0v80h69v-80h-69Z" horiz-adv-x="588" vert-adv-y="1000"/><glyph glyph-name="uni0131" unicode="ı" d="M100 0v510h49V0h-49Z" horiz-adv-x="249" vert-adv-y="1000"/><glyph glyph-name="uni0141" unicode="Ł" d="M134 0v316l-75-23v48l75 23v336h51V380l225 69v-48l-225-69V48h412V0H134Z" horiz-adv-x="649" vert-adv-y="1000"/><glyph glyph-name="uni0142" unicode="ł" d="M130 0v336l-76-24v50l76 23v345h49V400l76 24v-50l-76-24V0h-49Z" horiz-adv-x="309" vert-adv-y="1000"/><glyph glyph-name="uni0152" unicode="Œ" d="M445 0Q281 0 177 99.5T73 350q0 150 104.5 250T445 700h639v-48H653V377h386v-48H653V48h436V0H445m0 48h156v604H445q-143 0-230.5-86T127 350q0-128 87.5-215T445 48Z" horiz-adv-x="1152" vert-adv-y="1000"/><glyph glyph-name="uni0153" unicode="œ" d="M318-12q-110 0-185 78.5T58 255q0 109 75.5 188T320 522q79 0 141.5-43T554 366q28 71 86 113.5T772 522q105 0 169-76t64-191q0-12-1-20H581q7-92 64.5-146.5T781 34q100 0 175 80l34-30q-89-96-209-96-75 0-136.5 42.5T554 145q-30-70-93-113.5T318-12m3 46q90 0 149 64t59 157q0 92-61 156.5T319 476q-90 0-149-64t-59-157q0-92 61-156.5T321 34m260 245h371q-6 84-53 141t-130 57q-75 0-128-56.5T581 279Z" horiz-adv-x="1055" vert-adv-y="1000"/><glyph glyph-name="uni0160" unicode="Š" d="M341-10Q184-10 59 102l34 39q59-55 117-79.5T344 37q78 0 127.5 39.5T521 178q0 58-41.5 92T323 327q-126 26-181 72T87 526q0 78 64 131t161 53q74 0 129.5-20.5T552 625l-33-41q-91 79-209 79-76 0-123.5-38.5T139 529q0-59 42.5-94T343 376q121-25 175.5-71T573 181q0-84-65-137.5T341-10m-34 775L207 887h47l74-68 74 68h45L347 765h-40Z" horiz-adv-x="640" vert-adv-y="1000"/><glyph glyph-name="uni0161" unicode="š" d="M258-10q-55 0-111.5 20.5T49 64l29 39q87-67 183-67 53 0 88 27t35 72q0 41-34.5 62T249 237q-35 10-51 15t-45 18q-29 13-42.5 26t-25 34.5Q74 352 74 379q0 62 47 101.5T242 520q97 0 181-56l-26-41q-77 51-157 51-52 0-84-25.5T124 383q0-16 8.5-30t20-23q11.5-9 33-18.5t37-14.5q15.5-5 43.5-13 38-11 62-20t51.5-26q27.5-17 41-41.5T434 139q0-67-50.5-108T258-10m-27 605L131 717h47l74-68 74 68h45L271 595h-40Z" horiz-adv-x="497" vert-adv-y="1000"/><glyph glyph-name="uni0178" unicode="Ÿ" d="M332 0v277L32 700h65l262-376 263 376h62L384 278V0h-52m-90 760v80h69v-80h-69m163 0v80h69v-80h-69Z" horiz-adv-x="716" vert-adv-y="1000"/><glyph glyph-name="uni017D" unicode="Ž" d="M68 0v29l479 624H85v47h536v-29L142 47h479V0H68m261 765L229 887h47l74-68 74 68h45L369 765h-40Z" horiz-adv-x="688" vert-adv-y="1000"/><glyph glyph-name="uni017E" unicode="ž" d="M58 0v28l368 438H72v44h427v-28L131 44h368V0H58m208 595L166 717h47l74-68 74 68h45L306 595h-40Z" horiz-adv-x="554" vert-adv-y="1000"/><glyph glyph-name="uni0192" unicode="ƒ" d="M90-5Q67-5 41-1v44q20-4 46-4 67 0 82 82l49 263H109v45h117l26 136q14 74 48.5 107t94.5 33q41 0 75-10v-44q-40 10-70 10-41 0-63-23t-32-76l-25-133h155v-45H272l-50-266q-12-63-44-93T90-5Z" horiz-adv-x="506" vert-adv-y="1000"/><glyph glyph-name="uni02C6" unicode="ˆ" d="m130 595 100 122h40l100-122h-47l-74 68-74-68h-45Z" horiz-adv-x="500" vert-adv-y="1000"/><glyph glyph-name="uni02C7" unicode="ˇ" d="M230 595 130 717h47l74-68 74 68h45L270 595h-40Z" horiz-adv-x="500" vert-adv-y="1000"/><glyph glyph-name="uni02D8" unicode="˘" d="m342.5 626-18.25-16.5Q306 593 250 593t-92.5 33Q121 659 117 717h39q19-73 94-73t94 73h39q-4-58-40.5-91Z" horiz-adv-x="500" vert-adv-y="1000"/><glyph glyph-name="uni02D9" unicode="˙" d="M214 595v81h72v-81h-72Z" horiz-adv-x="500" vert-adv-y="1000"/><glyph glyph-name="uni02DA" unicode="˚" d="m318.5 620.5-14.75-13.75Q289 593 250 593t-68.5 28Q152 649 152 688q0 38 29.5 65.5T250 781q39 0 68.5-28t29.5-67q0-38-29.5-65.5m-112 22.5 9.25-9q9.25-9 34.25-9t43.5 18.5Q312 662 312 688q0 25-18.5 43T250 749q-26 0-44-18.5T188 686q0-25 18.5-43Z" horiz-adv-x="500" vert-adv-y="1000"/><glyph glyph-name="uni02DB" unicode="˛" d="M356-164h-13q-76 0-116 29.5T187-57q0 34 14 67h43q-6-27-6-56 0-81 118-87v-31Z" horiz-adv-x="500" vert-adv-y="1000"/><glyph glyph-name="uni02DC" unicode="˜" d="m136 586-34 9q14 52 33.5 72.5T186 688q19 0 65.5-20.5T314 647q18 0 28.5 10.5T364 697l34-9q-14-52-33.5-72.5T314 595q-19 0-65.5 20.5T186 636q-18 0-28.5-10.5T136 586Z" horiz-adv-x="500" vert-adv-y="1000"/><glyph glyph-name="uni02DD" unicode="˝" d="m102 595 89 133 55-29-101-104h-43m152 0 89 133 55-29-101-104h-43Z" horiz-adv-x="500" vert-adv-y="1000"/><glyph glyph-name="uni03A9" unicode="Ω" d="M707 0H467v176q90 15 138 77.5T653 410q0 108-74.5 178T395 658q-108 0-182.5-70T138 411q0-92 49.5-158.5T325 176V0H85v47h197v90q-91 24-144 100.5T85 410q0 128 91.5 212.5T397 707q127 0 218-84.5T706 412q0-98-52-173.5T510 137V47h197V0Z" horiz-adv-x="792" vert-adv-y="1000"/><glyph glyph-name="uni2126" unicode="Ω" d="M707 0H467v176q90 15 138 77.5T653 410q0 108-74.5 178T395 658q-108 0-182.5-70T138 411q0-92 49.5-158.5T325 176V0H85v47h197v90q-91 24-144 100.5T85 410q0 128 91.5 212.5T397 707q127 0 218-84.5T706 412q0-98-52-173.5T510 137V47h197V0Z" horiz-adv-x="792" vert-adv-y="1000"/><glyph glyph-name="uni03C0" unicode="π" d="M0 0v700h500V0H0m81 49h339L250 304 81 49M49 96l171 254L49 604V96m401 0v508L279 350 450 96M250 395l170 255H81l169-255Z" horiz-adv-x="500" vert-adv-y="1000"/><glyph glyph-name="uni0401" unicode="Ё" d="M104 0v700h498v-48H156V377h401v-48H156V48h451V0H104m135 765v80h69v-80h-69m163 0v80h69v-80h-69Z" horiz-adv-x="670" vert-adv-y="1000"/><glyph glyph-name="uni0402" unicode="Ђ" d="M564-12q-51 0-101 22l17 43q37-18 87-18 67 0 121 47t54 145q0 83-49 135t-128 52q-74 0-131-23.5T320 316V0h-52v652H54v48h540v-48H320V372q112 89 242 89 104 0 168-62t64-171q0-111-64-175.5T564-12Z" horiz-adv-x="856" vert-adv-y="1000"/><glyph glyph-name="uni0403" unicode="Ѓ" d="M104 0v700h437v-48H156V0h-52m166 765 88 133 61-30-107-103h-42Z" horiz-adv-x="590" vert-adv-y="1000"/><glyph glyph-name="uni0404" unicode="Є" d="M421-12Q272-12 172.5 92T73 348q0 152 100 258t250 106q86 0 146-28.5T691 598l-33-36Q552 665 422 665q-119 0-202.5-82T128 377h377v-48H127q8-126 92-210t204-84q73 0 129 27t112 82l35-36Q581-12 421-12Z" horiz-adv-x="738" vert-adv-y="1000"/><glyph glyph-name="uni0405" unicode="Ѕ" d="M341-10Q184-10 59 102l34 39q59-55 117-79.5T344 37q78 0 127.5 39.5T521 178q0 58-41.5 92T323 327q-126 26-181 72T87 526q0 78 64 131t161 53q74 0 129.5-20.5T552 625l-33-41q-91 79-209 79-76 0-123.5-38.5T139 529q0-59 42.5-94T343 376q121-25 175.5-71T573 181q0-84-65-137.5T341-10Z" horiz-adv-x="640" vert-adv-y="1000"/><glyph glyph-name="uni0406" unicode="І" d="M111 0v700h52V0h-52Z" horiz-adv-x="274" vert-adv-y="1000"/><glyph glyph-name="uni0407" unicode="Ї" d="M111 0v700h52V0h-52M21 765v80h69v-80H21m163 0v80h69v-80h-69Z" horiz-adv-x="274" vert-adv-y="1000"/><glyph glyph-name="uni0408" unicode="Ј" d="M249-10Q110-10 37 121l43 27q34-57 73.5-84T252 37q67 0 109.5 49T404 224v476h52V228q0-118-64-182-56-56-143-56Z" horiz-adv-x="549" vert-adv-y="1000"/><glyph glyph-name="uni0409" unicode="Љ" d="M84-7Q40-7 0 10l16 43q24-12 67-12 14 0 25.5 3t28 15.5Q153 72 166 93t27 60.5q14 39.5 23 93.5t15 135.5q6 81.5 6 183.5v134h429V419h207q109 0 182-50t73-151q0-100-68.5-159T878 0H614v652H287v-88q0-147-12-253.5t-30-167Q227 83 198.5 48T144 3Q118-7 84-7m582 55h203q97 0 151 42.5t54 125.5q0 76-55.5 115.5T863 371H666V48Z" horiz-adv-x="1178" vert-adv-y="1000"/><glyph glyph-name="uni040A" unicode="Њ" d="M104 0v700h52V399h448v301h52V399h217q107 0 176-48t69-143q0-94-64.5-151T878 0H604v351H156V0h-52m552 48h213q95 0 145 40.5t50 117.5q0 70-51.5 107.5T863 351H656V48Z" horiz-adv-x="1168" vert-adv-y="1000"/><glyph glyph-name="uni040B" unicode="Ћ" d="M268 0v652H54v48h540v-48H320V357q112 89 242 89 105 0 168.5-52T794 245V0h-52v250q0 67-49 108t-128 41q-74 0-131-23.5T320 301V0h-52Z" horiz-adv-x="877" vert-adv-y="1000"/><glyph glyph-name="uni040C" unicode="Ќ" d="M104 0v700h52V240l446 460h71L367 391 686 0h-68L330 354 156 178V0h-52m199 765 88 133 61-30-107-103h-42Z" horiz-adv-x="715" vert-adv-y="1000"/><glyph glyph-name="uni040E" unicode="Ў" d="M202-12q-60 0-112 24l20 45q41-20 92-20 97 0 158 122L44 700h61l281-487 240 487h57L405 142Q328-12 202-12m273 807.5-18.5-16.25Q438 763 386 763t-89 32.5Q260 828 251 878l41 9q19-73 94-73t94 73l41-9q-9-50-46-82.5Z" horiz-adv-x="727" vert-adv-y="1000"/><glyph glyph-name="uni040F" unicode="Џ" d="M353-160V0H104v700h52V48h438v652h52V0H407v-160h-54Z" horiz-adv-x="750" vert-adv-y="1000"/><glyph glyph-name="uni0410" unicode="А" d="m44 0 326 705h50L746 0h-57l-89 196H187L98 0H44m165 243h369L394 648 209 243Z" horiz-adv-x="790" vert-adv-y="1000"/><glyph glyph-name="uni0411" unicode="Б" d="M104 0v700h488v-48H156V404h236q116 0 184.5-48T645 208q0-100-64.5-154T400 0H104m52 48h234q201 0 201 160 0 73-53.5 110.5T385 356H156V48Z" horiz-adv-x="708" vert-adv-y="1000"/><glyph glyph-name="uni0412" unicode="В" d="M104 0v700h289q103 0 165-47.5T620 526q0-118-119-166 158-41 158-169 0-87-68.5-139T408 0H104m52 48h254q90 0 143 39t53 106q0 65-55 100.5T393 329H156V48m0 329h231q81 0 130.5 38T567 523q0 59-46 94t-129 35H156V377Z" horiz-adv-x="722" vert-adv-y="1000"/><glyph glyph-name="uni0413" unicode="Г" d="M104 0v700h437v-48H156V0h-52Z" horiz-adv-x="590" vert-adv-y="1000"/><glyph glyph-name="uni0414" unicode="Д" d="M10-160V48h75q54 75 83 207.5T197 552v148h429V48h95l-10-208h-44V0H64L54-160H10M145 48h429v604H248V514q0-142-27.5-269T145 48Z" horiz-adv-x="751" vert-adv-y="1000"/><glyph glyph-name="uni0415" unicode="Е" d="M104 0v700h498v-48H156V377h401v-48H156V48h451V0H104Z" horiz-adv-x="670" vert-adv-y="1000"/><glyph glyph-name="uni0416" unicode="Ж" d="m23 0 295 399L43 700h66l401-446v446h52V254l401 446h66L754 399 1049 0h-65L718 360 562 189V0h-52v189L353 360 88 0H23Z" horiz-adv-x="1072" vert-adv-y="1000"/><glyph glyph-name="uni0417" unicode="З" d="M325-12Q165-12 40 100l34 39q59-54 118.5-79T327 35q78 0 129.5 41.5T508 185q0 68-54.5 106.5T301 330h-76v46h77q82 0 134.5 39.5T489 524q0 61-49 100.5T315 664q-115 0-212-79l-31 40q107 86 245 86 100 0 163-52.5T543 524q0-121-133-166 69-20 110.5-63.5T562 184q0-82-67-139T325-12Z" horiz-adv-x="625" vert-adv-y="1000"/><glyph glyph-name="uni0418" unicode="И" d="M104 0v700h52V75l455 625h51V0h-52v625L156 0h-52Z" horiz-adv-x="766" vert-adv-y="1000"/><glyph glyph-name="uni0419" unicode="Й" d="M104 0v700h52V75l455 625h51V0h-52v625L156 0h-52m369 790.5-18.5-16.25Q436 758 384 758t-89 32.5Q258 823 249 873l41 9q19-73 94-73t94 73l41-9q-9-50-46-82.5Z" horiz-adv-x="766" vert-adv-y="1000"/><glyph glyph-name="uni041A" unicode="К" d="M104 0v700h52V240l446 460h71L367 391 686 0h-68L330 354 156 178V0h-52Z" horiz-adv-x="715" vert-adv-y="1000"/><glyph glyph-name="uni041B" unicode="Л" d="M84-7Q40-7 0 10l16 43q24-12 67-12 14 0 25.5 3t28 15.5Q153 72 166 93t27 60.5q14 39.5 23 93.5t15 135.5q6 81.5 6 183.5v134h429V0h-52v652H287v-88q0-147-12-253.5t-30-167Q227 83 198.5 48T144 3Q118-7 84-7Z" horiz-adv-x="770" vert-adv-y="1000"/><glyph glyph-name="uni041C" unicode="М" d="M104 0v700h49l281-414 281 414h49V0h-52v608L435 205h-4L154 608V0h-50Z" horiz-adv-x="868" vert-adv-y="1000"/><glyph glyph-name="uni041D" unicode="Н" d="M104 0v700h52V376h448v324h52V0h-52v328H156V0h-52Z" horiz-adv-x="760" vert-adv-y="1000"/><glyph glyph-name="uni041E" unicode="О" d="m678 95-49.5-53.5Q579-12 424-12T171 94.5Q73 201 73 350q0 148 99 255t254 107q155 0 253-106.5T777 350q0-148-99-255m-465.5 32 42.75-46Q298 35 426 35t212.5 91Q723 217 723 350q0 131-85.5 223T424 665q-128 0-212.5-91T127 350q0-131 85.5-223Z" horiz-adv-x="850" vert-adv-y="1000"/><glyph glyph-name="uni041F" unicode="П" d="M104 0v700h542V0h-52v652H156V0h-52Z" horiz-adv-x="750" vert-adv-y="1000"/><glyph glyph-name="uni0420" unicode="Р" d="M104 0v700h254q117 0 188.5-57.5T618 484q0-106-78.5-164.5T345 261H156V0h-52m52 309h192q98 0 158 47.5T566 483q0 81-57.5 125T354 652H156V309Z" horiz-adv-x="668" vert-adv-y="1000"/><glyph glyph-name="uni0421" unicode="С" d="M421-12Q272-12 172.5 92.5T73 350q0 150 100 256t250 106q86 0 146.5-29T692 597l-34-35Q552 665 422 665q-126 0-210.5-90.5T127 350q0-133 85.5-224T423 35q73 0 129 27t112 82l35-34q-61-60-126-91T421-12Z" horiz-adv-x="738" vert-adv-y="1000"/><glyph glyph-name="uni0422" unicode="Т" d="M298 0v652H54v48h540v-48H350V0h-52Z" horiz-adv-x="648" vert-adv-y="1000"/><glyph glyph-name="uni0423" unicode="У" d="M202-12q-60 0-112 24l20 45q41-20 92-20 97 0 158 122L44 700h61l281-487 240 487h57L405 142Q328-12 202-12Z" horiz-adv-x="727" vert-adv-y="1000"/><glyph glyph-name="uni0424" unicode="Ф" d="M405-26v78h-33q-149 0-235.5 85.5T50 351q0 128 86.5 214T372 651h33v71h52v-71h33q149 0 235.5-86T812 351q0-128-86.5-213.5T490 52h-33v-78h-52M372 99h33v505h-33q-127-2-197.5-71T104 351q0-112 70.5-181T372 99m85 0h33q127 2 197.5 71T758 351q0 113-70.5 182T490 604h-33V99Z" horiz-adv-x="862" vert-adv-y="1000"/><glyph glyph-name="uni0425" unicode="Х" d="m51 0 279 357L61 700h62l239-308 238 308h61L393 358 671 0h-62L360 323 112 0H51Z" horiz-adv-x="722" vert-adv-y="1000"/><glyph glyph-name="uni0426" unicode="Ц" d="M687-160V0H104v700h52V48h438v652h52V48h95l-10-208h-44Z" horiz-adv-x="771" vert-adv-y="1000"/><glyph glyph-name="uni0427" unicode="Ч" d="M534 0v312q-48-26-114-49.5T302 239q-103 0-162.5 51.5T80 440v260h52V435q0-68 44.5-108.5T299 286q105 0 235 75v339h52V0h-52Z" horiz-adv-x="690" vert-adv-y="1000"/><glyph glyph-name="uni0428" unicode="Ш" d="M104 0v700h52V48h368v652h52V48h368v652h52V0H104Z" horiz-adv-x="1100" vert-adv-y="1000"/><glyph glyph-name="uni0429" unicode="Щ" d="M1037-160V0H104v700h52V48h368v652h52V48h368v652h52V48h95l-10-208h-44Z" horiz-adv-x="1121" vert-adv-y="1000"/><glyph glyph-name="uni042A" unicode="Ъ" d="M240 0v652H50v48h242V419h207q109 0 182-50t73-151q0-100-68.5-159T504 0H240m52 48h203q97 0 151 42.5T700 216q0 76-55.5 115.5T489 371H292V48Z" horiz-adv-x="804" vert-adv-y="1000"/><glyph glyph-name="uni042B" unicode="Ы" d="M104 0v700h52V419h207q109 0 182-50t73-151q0-100-68.5-159T368 0H104m52 48h203q97 0 151 42.5T564 216q0 76-55.5 115.5T353 371H156V48M714 0v700h52V0h-52Z" horiz-adv-x="870" vert-adv-y="1000"/><glyph glyph-name="uni042C" unicode="Ь" d="M104 0v700h52V419h207q109 0 182-50t73-151q0-100-68.5-159T368 0H104m52 48h203q97 0 151 42.5T564 216q0 76-55.5 115.5T353 371H156V48Z" horiz-adv-x="668" vert-adv-y="1000"/><glyph glyph-name="uni042D" unicode="Э" d="M317-12Q157-12 39 108l35 36q56-55 112-82t129-27q120 0 203.5 84T610 329H233v48h377q-9 124-92 206t-202 82q-130 0-236-103l-33 36q62 57 122 85.5T315 712q150 0 250-106t100-258q0-152-99.5-256T317-12Z" horiz-adv-x="738" vert-adv-y="1000"/><glyph glyph-name="uni042E" unicode="Ю" d="M638-12q-139 0-228.5 96.5T313 328H156V0h-52v700h52V376h157q8 145 98.5 240.5T640 712q144 0 234.5-103T965 351q0-155-91.5-259T638-12m2 47q119 0 195 89.5T911 350q0 134-77.5 224.5T638 665q-119 0-195-89.5T367 350q0-134 77.5-224.5T640 35Z" horiz-adv-x="1038" vert-adv-y="1000"/><glyph glyph-name="uni042F" unicode="Я" d="m48 0 223 289q-91 12-144 66T74 496q0 88 68 146t182 58h294V0h-52v280H329L114 0H48m282 327h236v325H327q-94 0-147.5-43.5T126 492q0-75 57.5-120T330 327Z" horiz-adv-x="723" vert-adv-y="1000"/><glyph glyph-name="uni0430" unicode="а" d="M248-12q-84 0-140.5 42.5T51 150q0 78 61 122t162 44q86 0 169-22v22q0 76-44 116t-124 40q-80 0-160-41l-18 43q95 44 181 44 105 0 161-56 52-52 52-144V0h-48v85q-69-97-195-97m3 46q80 0 136.5 44.5T444 191v58q-90 23-173 23-80 0-123.5-32.5T104 151q0-55 40-86t107-31Z" horiz-adv-x="574" vert-adv-y="1000"/><glyph glyph-name="uni0431" unicode="б" d="M326-12q-112 0-184 77T70 268q0 51 1.5 84.5t7 76.5Q84 472 96 501.5t31.5 58.5q19.5 29 51 48.5T252 639l290 73 14-44-280-74q-81-21-115.5-66.5T118 392q72 120 221 120 101 0 173-77t72-183q0-108-74-186T326-12m2 46q87 0 145 63t58 153q0 90-59.5 153T326 466q-87 0-145-63t-58-153q0-90 59.5-153T328 34Z" horiz-adv-x="642" vert-adv-y="1000"/><glyph glyph-name="uni0432" unicode="в" d="M93 0v510h233q75 0 120-34.5t45-92.5q0-81-86-117 51-13 83-45t32-82q0-63-50-101T337 0H93m49 44h189q64 0 101 27.5t37 74.5q0 45-38.5 70T319 241H142V44m0 238h177q55 0 88.5 25.5T441 380q0 39-31 62.5T322 466H142V282Z" horiz-adv-x="580" vert-adv-y="1000"/><glyph glyph-name="uni0433" unicode="г" d="M93 0v510h337v-44H142V0H93Z" horiz-adv-x="460" vert-adv-y="1000"/><glyph glyph-name="uni0434" unicode="д" d="M14-144V44h67q75 123 75 358v108h342V44h82l-10-188h-40V0H65L55-144H14M135 44h314v422H203v-92q0-100-18.5-189T135 44Z" horiz-adv-x="610" vert-adv-y="1000"/><glyph glyph-name="uni0435" unicode="е" d="M308-12q-103 0-176.5 75T58 256q0 112 69.5 189T300 522q105 0 169.5-76T534 255q0-12-1-20H110q7-92 64.5-146.5T310 34q100 0 175 80l34-30q-89-96-211-96M110 279h371q-6 84-53 141t-130 57q-75 0-128-56.5T110 279Z" horiz-adv-x="584" vert-adv-y="1000"/><glyph glyph-name="uni0436" unicode="ж" d="m26 0 216 289L39 510h62l292-325v325h49V185l292 325h62L592 289 809 0h-60L561 254 442 125V0h-49v125L274 255 86 0H26Z" horiz-adv-x="835" vert-adv-y="1000"/><glyph glyph-name="uni0437" unicode="з" d="M253-10Q138-10 45 66l30 40q82-70 176-70 54 0 96.5 30.5T390 141q0 45-38 71.5T248 239h-70v44h71q55 0 91 27t36 73q0 40-35 65t-88 25q-93 0-159-52l-29 39q80 59 189 59 80 0 128-38t48-98q0-84-82-118 95-33 95-125 0-62-53.5-106T253-10Z" horiz-adv-x="500" vert-adv-y="1000"/><glyph glyph-name="uni0438" unicode="и" d="M93 0v510h49V65l346 445h49V0h-49v445L142 0H93Z" horiz-adv-x="630" vert-adv-y="1000"/><glyph glyph-name="uni0439" unicode="й" d="M93 0v510h49V65l346 445h49V0h-49v445L142 0H93m311 625.5-18.5-16.25Q367 593 315 593t-89 32.5Q189 658 180 708l41 9q19-73 94-73t94 73l41-9q-9-50-46-82.5Z" horiz-adv-x="630" vert-adv-y="1000"/><glyph glyph-name="uni043A" unicode="к" d="M93 0v510h49V183l316 327h65L300 284 530 0h-62L266 249 142 124V0H93Z" horiz-adv-x="556" vert-adv-y="1000"/><glyph glyph-name="uni043B" unicode="л" d="M60-8Q32-8 4 0l9 45q25-7 39-7 20 0 32.5 4.5T112 61q15 14 24 44t17.5 78q8.5 48 12.5 123t4 177v27h347V0h-49v466H217v-14q0-124-8-210t-20-134.5q-12-48.5-34-75T112.5-1Q92-8 60-8Z" horiz-adv-x="610" vert-adv-y="1000"/><glyph glyph-name="uni043C" unicode="м" d="M93 0v510h44l208-293 208 293h44V0h-49v425L343 143 140 425V0H93Z" horiz-adv-x="690" vert-adv-y="1000"/><glyph glyph-name="uni043D" unicode="н" d="M93 0v510h49V283h339v227h49V0h-49v239H142V0H93Z" horiz-adv-x="623" vert-adv-y="1000"/><glyph glyph-name="uni043E" unicode="о" d="m506.5 67-37.75-39.5Q431-12 319-12T132.5 66.5Q58 145 58 255q0 109 75.5 188T321 522q112 0 186.5-78.5T582 255q0-109-75.5-188M321 34q85 0 146.5 65T529 255q0 92-61.5 156.5T319 476q-86 0-147-64.5T111 255q0-92 61-156.5T321 34Z" horiz-adv-x="640" vert-adv-y="1000"/><glyph glyph-name="uni043F" unicode="п" d="M93 0v510h424V0h-49v466H142V0H93Z" horiz-adv-x="610" vert-adv-y="1000"/><glyph glyph-name="uni0440" unicode="р" d="M93-160v670h49V396q83 126 210 126 98 0 173-73.5T600 255q0-119-75-193T352-12q-130 0-210 122v-270H93M347 35q86 0 143 59.5T547 255q0 98-58.5 159T347 475q-83 0-145.5-62.5T139 254q0-95 62.5-157T347 35Z" horiz-adv-x="660" vert-adv-y="1000"/><glyph glyph-name="uni0441" unicode="с" d="M318-12q-110 0-185 78T58 255q0 110 75.5 188.5T318 522q119 0 203-95l-34-35q-82 84-170 84-85 0-145.5-65T111 255q0-92 61-156.5T321 34q91 0 169 87l36-32Q437-12 318-12Z" horiz-adv-x="571" vert-adv-y="1000"/><glyph glyph-name="uni0442" unicode="т" d="M221 0v466H30v44h431v-44H270V0h-49Z" horiz-adv-x="491" vert-adv-y="1000"/><glyph glyph-name="uni0443" unicode="у" d="M155-163q-51 0-101 22l17 43q39-19 87-19 40 0 69 27t57 93L39 510h57L308 54l184 456h54L325-18q-33-78-73.5-111.5T155-163Z" horiz-adv-x="588" vert-adv-y="1000"/><glyph glyph-name="uni0444" unicode="ф" d="M403-160V46q-67-58-135-58-94 0-151 72.5T60 257q0 123 57 194t151 71q70 0 135-60v238h49V462q31 29 61.5 44.5T587 522q94 0 151-71.5T795 255q0-123-57.5-195T587-12q-46 0-74 14t-61 44v-206h-49M273 35q74 0 130 61v318q-56 61-130 61-79 0-119.5-59T113 253q0-218 160-218m309 0q160 0 160 220 0 103-40.5 161.5T582 475q-74 0-130-61V96q56-61 130-61Z" horiz-adv-x="855" vert-adv-y="1000"/><glyph glyph-name="uni0445" unicode="х" d="m45 0 209 260L53 510h61l172-216 172 216h59L316 261 525 0h-61L284 227 104 0H45Z" horiz-adv-x="570" vert-adv-y="1000"/><glyph glyph-name="uni0446" unicode="ц" d="M549-144V0H93v510h49V44h326v466h49V44h82l-10-188h-40Z" horiz-adv-x="629" vert-adv-y="1000"/><glyph glyph-name="uni0447" unicode="ч" d="M418 0v223q-35-20-86-36t-97-16q-77 0-121.5 38T69 319v191h49V318q0-47 30.5-74.5T233 216q46 0 97.5 15.5T418 272v238h49V0h-49Z" horiz-adv-x="560" vert-adv-y="1000"/><glyph glyph-name="uni0448" unicode="ш" d="M93 0v510h49V44h282v466h49V44h282v466h49V0H93Z" horiz-adv-x="897" vert-adv-y="1000"/><glyph glyph-name="uni0449" unicode="щ" d="M836-144V0H93v510h49V44h282v466h49V44h282v466h49V44h82l-10-188h-40Z" horiz-adv-x="916" vert-adv-y="1000"/><glyph glyph-name="uni044A" unicode="ъ" d="M183 0v466H20v44h212V314h152q85 0 140-37.5T579 164q0-74-51-119T393 0H183m49 44h153q65 0 103 31t38 87q0 51-39 79.5T381 270H232V44Z" horiz-adv-x="619" vert-adv-y="1000"/><glyph glyph-name="uni044B" unicode="ы" d="M93 0v510h49V314h152q85 0 140-37.5T489 164q0-74-51-119T303 0H93m49 44h153q65 0 103 31t38 87q0 51-39 79.5T291 270H142V44M591 0v510h49V0h-49Z" horiz-adv-x="733" vert-adv-y="1000"/><glyph glyph-name="uni044C" unicode="ь" d="M93 0v510h49V314h152q85 0 140-37.5T489 164q0-74-51-119T303 0H93m49 44h153q65 0 103 31t38 87q0 51-39 79.5T291 270H142V44Z" horiz-adv-x="529" vert-adv-y="1000"/><glyph glyph-name="uni044D" unicode="э" d="M253-12Q128-12 45 89l36 31q77-86 169-86 83 0 143 58.5T459 239H191v44h267q-9 82-68 137.5T254 476q-91 0-170-84l-33 34q43 45 90 70.5T253 522q111 0 185.5-79T513 253q0-108-75.5-186.5T253-12Z" horiz-adv-x="571" vert-adv-y="1000"/><glyph glyph-name="uni044E" unicode="ю" d="M514-12q-106 0-172.5 70T268 234H142V0H93v510h49V279h126q8 103 75.5 173T516 522q110 0 178-77.5T762 255q0-111-68.5-189T514-12m2 46q88 0 140.5 63T709 255q0 94-54 157.5T514 476q-88 0-140.5-63T321 255q0-94 54-157.5T516 34Z" horiz-adv-x="820" vert-adv-y="1000"/><glyph glyph-name="uni044F" unicode="я" d="m52 0 161 203q-64 12-105.5 53T66 358q0 68 50 110t137 42h228V0h-49v196H264L112 0H52m210 240h170v226H260q-66 0-103.5-30T119 355q0-52 40-83.5T262 240Z" horiz-adv-x="574" vert-adv-y="1000"/><glyph glyph-name="uni0451" unicode="ё" d="M308-12q-103 0-176.5 75T58 256q0 112 69.5 189T300 522q105 0 169.5-76T534 255q0-12-1-20H110q7-92 64.5-146.5T310 34q100 0 175 80l34-30q-89-96-211-96M110 279h371q-6 84-53 141t-130 57q-75 0-128-56.5T110 279m71 316v80h69v-80h-69m163 0v80h69v-80h-69Z" horiz-adv-x="584" vert-adv-y="1000"/><glyph glyph-name="uni0452" unicode="ђ" d="M326-12q-51 0-101 22l17 43q39-19 87-19 66 0 109 47.5T481 207v96q0 80-43 127t-119 47q-76 0-126.5-51.5T142 295V0H93v580H10v45h83v105h49V625h229v-45H142V415q61 107 184 107 95 0 149.5-58.5T530 312V198q0-93-54.5-151.5T326-12Z" horiz-adv-x="613" vert-adv-y="1000"/><glyph glyph-name="uni0453" unicode="ѓ" d="M93 0v510h337v-44H142V0H93m113 595 88 133 61-30-107-103h-42Z" horiz-adv-x="460" vert-adv-y="1000"/><glyph glyph-name="uni0454" unicode="є" d="M318-12q-109 0-184.5 78.5T58 253q0 111 74.5 190T318 522q65 0 112-25.5t90-70.5l-33-34q-79 84-170 84-77 0-136-55.5T112 283h268v-44H111q7-88 66.5-146.5T321 34q92 0 169 86l36-31Q443-12 318-12Z" horiz-adv-x="571" vert-adv-y="1000"/><glyph glyph-name="uni0455" unicode="ѕ" d="M258-10q-55 0-111.5 20.5T49 64l29 39q87-67 183-67 53 0 88 27t35 72q0 41-34.5 62T249 237q-35 10-51 15t-45 18q-29 13-42.5 26t-25 34.5Q74 352 74 379q0 62 47 101.5T242 520q97 0 181-56l-26-41q-77 51-157 51-52 0-84-25.5T124 383q0-16 8.5-30t20-23q11.5-9 33-18.5t37-14.5q15.5-5 43.5-13 38-11 62-20t51.5-26q27.5-17 41-41.5T434 139q0-67-50.5-108T258-10Z" horiz-adv-x="497" vert-adv-y="1000"/><glyph glyph-name="uni0456" unicode="і" d="M100 0v510h49V0h-49m-6 643v67h61v-67H94Z" horiz-adv-x="249" vert-adv-y="1000"/><glyph glyph-name="uni0457" unicode="ї" d="M9 595v80h69v-80H9m163 0v80h69v-80h-69M100 0v510h49V0h-49Z" horiz-adv-x="249" vert-adv-y="1000"/><glyph glyph-name="uni0458" unicode="ј" d="M40-163q-21 0-41 4v43q18-3 40-3 28 0 44.5 18T100-48v558h49V-45q0-58-29-88t-80-30m54 806v67h61v-67H94Z" horiz-adv-x="249" vert-adv-y="1000"/><glyph glyph-name="uni0459" unicode="љ" d="M60-8Q32-8 4 0l9 45q25-7 39-7 20 0 32.5 4.5T112 61q15 14 24 44t17.5 78q8.5 48 12.5 123t4 177v27h347V314h152q85 0 140-37.5T864 164q0-74-51-119T678 0H468v466H217v-14q0-124-8-210t-20-134.5q-12-48.5-34-75T112.5-1Q92-8 60-8m457 52h153q65 0 103 31t38 87q0 51-39 79.5T666 270H517V44Z" horiz-adv-x="904" vert-adv-y="1000"/><glyph glyph-name="uni045A" unicode="њ" d="M93 0v510h49V300h339v210h49V300h152q87 0 141-34.5T877 157q0-73-50.5-115T691 0H481v256H142V0H93m437 44h153q66 0 103.5 28t37.5 83q0 50-38 75.5T679 256H530V44Z" horiz-adv-x="917" vert-adv-y="1000"/><glyph glyph-name="uni045B" unicode="ћ" d="M93 0v580H10v45h83v105h49V625h229v-45H142V415q61 107 184 107 95 0 149.5-58.5T530 312V0h-49v303q0 80-43 127t-119 47q-76 0-126.5-51.5T142 295V0H93Z" horiz-adv-x="613" vert-adv-y="1000"/><glyph glyph-name="uni045C" unicode="ќ" d="M93 0v510h49V183l316 327h65L300 284 530 0h-62L266 249 142 124V0H93m130 595 88 133 61-30-107-103h-42Z" horiz-adv-x="556" vert-adv-y="1000"/><glyph glyph-name="uni045E" unicode="ў" d="M155-163q-51 0-101 22l17 43q39-19 87-19 40 0 69 27t57 93L39 510h57L308 54l184 456h54L325-18q-33-78-73.5-111.5T155-163m242 788.5-18.5-16.25Q360 593 308 593t-89 32.5Q182 658 173 708l41 9q19-73 94-73t94 73l41-9q-9-50-46-82.5Z" horiz-adv-x="588" vert-adv-y="1000"/><glyph glyph-name="uni045F" unicode="џ" d="M284-144V0H93v510h49V45h326v465h49V0H334v-144h-50Z" horiz-adv-x="616" vert-adv-y="1000"/><glyph glyph-name="uni0490" unicode="Ґ" d="M104 0v700h383v160h44l10-208H156V0h-52Z" horiz-adv-x="590" vert-adv-y="1000"/><glyph glyph-name="uni0491" unicode="ґ" d="M93 0v510h287v144h40l10-188H142V0H93Z" horiz-adv-x="460" vert-adv-y="1000"/><glyph glyph-name="uni2013" unicode="–" d="M70 271v52h388v-52H70Z" horiz-adv-x="528" vert-adv-y="1000"/><glyph glyph-name="uni2014" unicode="—" d="M70 271v52h758v-52H70Z" horiz-adv-x="898" vert-adv-y="1000"/><glyph glyph-name="uni2018" unicode="‘" d="M77 513v74q0 47 19 74t64 44l12-25q-56-28-56-73v-9h27v-85H77Z" horiz-adv-x="230" vert-adv-y="1000"/><glyph glyph-name="uni2019" unicode="’" d="m70 508-12 25q56 28 56 73v9H87v85h66v-74q0-47-19-74t-64-44Z" horiz-adv-x="230" vert-adv-y="1000"/><glyph glyph-name="uni201A" unicode="‚" d="M65-107 53-82q56 28 56 73v9H82v85h66V11q0-47-19-74t-64-44Z" horiz-adv-x="230" vert-adv-y="1000"/><glyph glyph-name="uni201C" unicode="“" d="M77 513v74q0 47 19 74t64 44l12-25q-56-28-56-73v-9h27v-85H77m180 0v74q0 47 19 74t64 44l12-25q-56-28-56-73v-9h27v-85h-66Z" horiz-adv-x="410" vert-adv-y="1000"/><glyph glyph-name="uni201D" unicode="”" d="m70 508-12 25q56 28 56 73v9H87v85h66v-74q0-47-19-74t-64-44m180 0-12 25q56 28 56 73v9h-27v85h66v-74q0-47-19-74t-64-44Z" horiz-adv-x="410" vert-adv-y="1000"/><glyph glyph-name="uni201E" unicode="„" d="M65-107 53-82q56 28 56 73v9H82v85h66V11q0-47-19-74t-64-44m180 0-12 25q56 28 56 73v9h-27v85h66V11q0-47-19-74t-64-44Z" horiz-adv-x="410" vert-adv-y="1000"/><glyph glyph-name="uni2020" unicode="†" d="m183 238 5 286-125-7v45l124-7-7 145h50l-7-145 124 7v-45l-125 7 5-286h-44Z" horiz-adv-x="410" vert-adv-y="1000"/><glyph glyph-name="uni2021" unicode="‡" d="m190 0 7 145-124-7v45l125-7-5 174 5 174-125-7v45l124-7-7 145h50l-7-145 124 7v-45l-125 7 5-174-5-174 125 7v-45l-124 7 7-145h-50Z" horiz-adv-x="430" vert-adv-y="1000"/><glyph glyph-name="uni2022" unicode="•" d="m322.5 264-18.25-18Q286 228 235 228t-87.5 36.5Q111 301 111 353q0 50 37.5 86.5T235 476q49 0 86.5-36.5T359 351q0-51-36.5-87Z" horiz-adv-x="470" vert-adv-y="1000"/><glyph glyph-name="uni2026" unicode="…" d="M82 0v83h64V0H82m226 0v83h64V0h-64m226 0v83h64V0h-64Z" horiz-adv-x="680" vert-adv-y="1000"/><glyph glyph-name="uni2030" unicode="‰" d="m128 0 514 700h54L182 0h-54m486-8q-67 0-110 52.5T461 171q0 73 43.5 126T616 350q67 0 110-53t43-126q0-73-43.5-126T614-8m2 43q44 0 72.5 39t28.5 97q0 58-30 97t-73 39q-44 0-72.5-39.5T513 171q0-58 30-97t73-39M990-8q-67 0-110 52.5T837 171q0 73 43.5 126T992 350q67 0 110-53t43-126q0-73-43.5-126T990-8m2 43q44 0 72.5 39t28.5 97q0 58-30 97t-73 39q-44 0-72.5-39.5T889 171q0-58 30-97t73-39M208 350q-67 0-110 52.5T55 529q0 73 43.5 126T210 708q67 0 110-53t43-126q0-73-43.5-126T208 350m2 43q44 0 72.5 39t28.5 97q0 58-30 97t-73 39q-44 0-72.5-39.5T107 529q0-58 30-97t73-39Z" horiz-adv-x="1200" vert-adv-y="1000"/><glyph glyph-name="uni2039" unicode="‹" d="M211 42 51 251v8l160 209 37-24-137-188L248 66l-37-24Z" horiz-adv-x="311" vert-adv-y="1000"/><glyph glyph-name="uni203A" unicode="›" d="M100 42 63 66l137 188L63 444l37 24 160-209v-8L100 42Z" horiz-adv-x="311" vert-adv-y="1000"/><glyph glyph-name="uni2044" unicode="⁄" d="m-67-98 468 856h54L-13-98h-54Z" horiz-adv-x="410" vert-adv-y="1000"/><glyph glyph-name="uni20AC" unicode="€" d="M428-12q-102 0-177.5 70.5T149 245H59v48h83q-3 27-3 57 0 34 5 66H59v48h94q28 110 100.5 179T421 712q147 0 240-140l-40-27q-43 63-88.5 92T419 666q-74 0-132-56t-83-146h284v-48H195q-5-30-5-66 0-28 3-57h295v-48H202q24-95 85-153t144-58q111 0 194 128l38-25Q566-12 428-12Z" horiz-adv-x="720" vert-adv-y="1000"/><glyph glyph-name="uni2116" unicode="№" d="M65 0v700h59L527 91v609h50V0h-49L115 622V0H65m599 174v40h238v-40H664m211.5 157-18.75-19.5Q838 292 783 292t-92 38.5Q654 369 654 424q0 54 37.5 93t92.5 39q55 0 92-38.5t37-93.5q0-54-37.5-93m-91.5 0q38 0 62 26.5t24 66.5q0 39-25 66t-62 27q-38 0-62-26.5T697 424q0-39 25-66t62-27Z" horiz-adv-x="953" vert-adv-y="1000"/><glyph glyph-name="uni2117" unicode="℗" d="m671 94.5-53-53.25Q565-12 414-12T158 94Q53 200 53 350q0 149 106 255.5T416 712q151 0 256-106t105-256q0-149-106-255.5M178 113l47.5-48.5Q273 16 414 16t237 98q96 98 96 238 0 138-95 235t-236 97q-141 0-237-98T83 348q0-138 95-235m118 62v366h141q66 0 104.5-30.5T580 424q0-58-43-89.5T430 303h-90V175h-44m44 169h91q48 0 76 21t28 59q0 76-101 76h-94V344Z" horiz-adv-x="830" vert-adv-y="1000"/><glyph glyph-name="uni2122" unicode="™" d="M127 392v274H26v34h237v-34H162V392h-35m206 0v308h37l120-183 120 183h36V392h-35v246L492 460h-5L368 638V392h-35Z" horiz-adv-x="690" vert-adv-y="1000"/><glyph glyph-name="uni2202" unicode="∂" d="M0 0v700h500V0H0m81 49h339L250 304 81 49M49 96l171 254L49 604V96m401 0v508L279 350 450 96M250 395l170 255H81l169-255Z" horiz-adv-x="500" vert-adv-y="1000"/><glyph glyph-name="uni2206" unicode="∆" d="m54 0 316 705h50L736 0H54m75 48h529L394 648 129 48Z" horiz-adv-x="790" vert-adv-y="1000"/><glyph glyph-name="uni220F" unicode="∏" d="M0 0v700h500V0H0m81 49h339L250 304 81 49M49 96l171 254L49 604V96m401 0v508L279 350 450 96M250 395l170 255H81l169-255Z" horiz-adv-x="500" vert-adv-y="1000"/><glyph glyph-name="uni2211" unicode="∑" d="M0 0v700h500V0H0m81 49h339L250 304 81 49M49 96l171 254L49 604V96m401 0v508L279 350 450 96M250 395l170 255H81l169-255Z" horiz-adv-x="500" vert-adv-y="1000"/><glyph glyph-name="uni2212" unicode="−" d="M93 328v51h454v-51H93Z" horiz-adv-x="640" vert-adv-y="1000"/><glyph glyph-name="uni221A" unicode="√" d="M490 786 280-214h-55L57 132l-45-22-19 40 88 43 166-346 194 939h49Z" horiz-adv-x="481" vert-adv-y="1000"/><glyph glyph-name="uni221E" unicode="∞" d="M172 217q-59 0-95.5 39T40 354q0 59 36 100t94 41q16 0 31.5-3t31.5-11.5q16-8.5 27.5-14.5t28.5-19.5q17-13.5 24.5-20t25.5-23q18-16.5 23-20.5 11 9 40 36t44.5 39q15.5 12 44 24.5T547 495q59 0 97-40.5T682 354q0-61-35.5-99T550 217q-35 0-72 18t-60 36.5Q395 290 362 322q-5-4-32.5-27.5t-38-31q-10.5-7.5-33.5-22T215 222q-20-5-43-5m1 48q61 0 155 89-7 6-33 27t-41 32.5Q239 425 214.5 436T170 447q-37 0-59.5-27.5T88 354q0-40 23-64.5t62-24.5m379 0q38 0 60 25.5t22 63.5q0 41-22 67t-63 26q-56 0-154-93 2-2 18.5-16.5T435 319q5-4 20-15.5t23.5-16q8.5-4.5 22-11t26-9Q539 265 552 265Z" horiz-adv-x="722" vert-adv-y="1000"/><glyph glyph-name="uni222B" unicode="∫" d="M0 0v700h500V0H0m81 49h339L250 304 81 49M49 96l171 254L49 604V96m401 0v508L279 350 450 96M250 395l170 255H81l169-255Z" horiz-adv-x="500" vert-adv-y="1000"/><glyph glyph-name="uni2248" unicode="≈" d="M581 500q-6-55-35.5-92T463 371q-46 0-146.5 37T180 445q-34 0-56-24t-27-59H59q22 131 118 131 45 0 145.5-37T461 419q35 0 55.5 22.5T544 500h37m0-161q-6-54-36-91.5T463 210q-47 0-146.5 37T180 284q-34 0-56-24t-27-59H59q22 131 118 131 46 0 146-37t138-37q35 0 55.5 22.5T544 339h37Z" horiz-adv-x="640" vert-adv-y="1000"/><glyph glyph-name="uni2260" unicode="≠" d="M93 439v51h269l67 124 42-22-55-102h131v-51H389l-93-174h251v-51H268L206 97l-42 23 50 94H93v51h149l93 174H93Z" horiz-adv-x="640" vert-adv-y="1000"/><glyph glyph-name="uni2264" unicode="≤" d="M569 97 72 290v54l497 193v-54L138 317l431-166V97m0-92H72v48h497V5Z" horiz-adv-x="640" vert-adv-y="1000"/><glyph glyph-name="uni2265" unicode="≥" d="M568 290 71 97v54l430 166L71 483v54l497-193v-54m0-285H71v48h497V5Z" horiz-adv-x="640" vert-adv-y="1000"/><glyph glyph-name="uni25CA" unicode="◊" d="M515 356 346-35h-53L126 356l167 391h53l169-391m-53 0L320 691 180 356 320 21l142 335Z" horiz-adv-x="640" vert-adv-y="1000"/><glyph glyph-name="uniF6D1" unicode="" d="m339 625.5-18.5-16.25Q302 593 250 593t-89 32.5Q124 658 115 708l41 9q19-73 94-73t94 73l41-9q-9-50-46-82.5Z" horiz-adv-x="500" vert-adv-y="1000"/><glyph glyph-name="uniF6D4" unicode="" d="m339 625.5-18.5-16.25Q302 593 250 593t-89 32.5Q124 658 115 708l41 9q19-73 94-73t94 73l41-9q-9-50-46-82.5Z" horiz-adv-x="500" vert-adv-y="1000"/><glyph glyph-name="uniF8FF" unicode="" d="M0 0v700h500V0H0m81 49h339L250 304 81 49M49 96l171 254L49 604V96m401 0v508L279 350 450 96M250 395l170 255H81l169-255Z" horiz-adv-x="500" vert-adv-y="1000"/><glyph glyph-name="uniFB00" unicode="ﬀ" d="M123 0v465H49v45h74v50q0 88 45 133 40 40 107 40 41 0 76-12v-46q-42 13-76 13-103 0-103-129v-49h178v-45H172V0h-49m362 0v465h-74v45h74v50q0 88 45 133 40 40 107 40 41 0 76-12v-46q-42 13-76 13-103 0-103-129v-49h178v-45H534V0h-49Z" horiz-adv-x="724" vert-adv-y="1000"/><glyph glyph-name="uniFB01" unicode="ﬁ" d="M123 0v465H49v45h74v50q0 88 45 133 40 40 107 40 41 0 76-12v-46q-42 13-76 13-103 0-103-129v-49h178v-45H172V0h-49m339 0v510h49V0h-49m-6 643v67h61v-67h-61Z" horiz-adv-x="611" vert-adv-y="1000"/><glyph glyph-name="uniFB02" unicode="ﬂ" d="M123 0v465H49v45h74v50q0 88 45 133 40 40 107 40 41 0 76-12v-46q-42 13-76 13-103 0-103-129v-49h178v-45H172V0h-49m339 0v730h49V0h-49Z" horiz-adv-x="611" vert-adv-y="1000"/><glyph glyph-name="uniFB03" unicode="ﬃ" d="M123 0v465H49v45h74v50q0 88 45 133 40 40 107 40 41 0 76-12v-46q-42 13-76 13-103 0-103-129v-49h178v-45H172V0h-49m362 0v465h-74v45h74v50q0 88 45 133 40 40 107 40 41 0 76-12v-46q-42 13-76 13-103 0-103-129v-49h178v-45H534V0h-49m339 0v510h49V0h-49m-6 643v67h61v-67h-61Z" horiz-adv-x="973" vert-adv-y="1000"/><glyph glyph-name="uniFB04" unicode="ﬄ" d="M123 0v465H49v45h74v50q0 88 45 133 40 40 107 40 41 0 76-12v-46q-42 13-76 13-103 0-103-129v-49h178v-45H172V0h-49m362 0v465h-74v45h74v50q0 88 45 133 40 40 107 40 41 0 76-12v-46q-42 13-76 13-103 0-103-129v-49h178v-45H534V0h-49m339 0v730h49V0h-49Z" horiz-adv-x="973" vert-adv-y="1000"/></font>
</defs>
</svg>
