<?xml version="1.0" standalone="no"?>
  <!DOCTYPE svg PUBLIC "-//W3C//DTD SVG 1.1//EN" "http://www.w3.org/Graphics/SVG/1.1/DTD/svg11.dtd" >
  <svg>
  <metadata>
  Created by font-carrier
  </metadata>
  <defs>
  <font id="GothamPro-LightItalic" horiz-adv-x="1203" vert-adv-y="1203" >
    <font-face
      
      font-family="Gotham Pro Light"
      
      font-weight="400"
      
      font-stretch="normal"
      
      units-per-em="1000"
      
      ascent="730"
      
      descent="-200"
      
    />
      <missing-glyph />

      

      
      <glyph glyph-name="uni21" unicode="&#x21;" d="M24 0L47 85L113 85L90 0L24 0M92 183L197 630L216 700L274 700L255 630L120 183L92 183Z"  horiz-adv-x="251" vert-adv-y="1000"  />

      
      <glyph glyph-name="uni22" unicode="&#x22;" d="M101 446L194 700L257 700L257 695L130 446L101 446M281 446L374 700L437 700L437 695L310 446L281 446Z"  horiz-adv-x="410" vert-adv-y="1000"  />

      
      <glyph glyph-name="uni23" unicode="&#x23;" d="M91 0L156 187L35 187L47 234L172 234L255 470L122 470L134 517L271 517L335 700L383 700L319 517L526 517L590 700L638 700L574 517L695 517L683 470L558 470L475 234L608 234L596 187L459 187L394 0L346 0L411 187L204 187L139 0L91 0M221 234L427 234L510 470L303 470L221 234Z"  horiz-adv-x="678" vert-adv-y="1000"  />

      
      <glyph glyph-name="uni24" unicode="&#x24;" d="M190-98L218 5Q82 26-1 122L37 155Q111 69 235 51L312 339Q214 376 173.50 414.50Q133 453 133 513Q133 593 199.50 646.50Q266 700 365 700Q381 700 409 698L425 758L474 758L456 691Q557 672 628 602L592 566Q531 627 439 646L366 374Q458 341 498.50 300Q539 259 539 198Q539 106 463.50 53Q388 0 265 0L239-98L190-98M278 47L289 47Q375 47 430.50 87.50Q486 128 486 193Q486 235 456 265.50Q426 296 353 325L278 47M325 389L396 651Q384 653 360 653Q285 653 235.50 614Q186 575 186 518Q186 474 217.50 445.50Q249 417 325 389Z"  horiz-adv-x="618" vert-adv-y="1000"  />

      
      <glyph glyph-name="uni25" unicode="&#x25;" d="M65 0L747 700L807 700L125 0L65 0M588-7Q528-7 489.50 34.50Q451 76 451 136Q451 222 507 288.50Q563 355 642 355Q702 355 740.50 313.50Q779 272 779 212Q779 126 723 59.50Q667-7 588-7M592 36Q648 36 689 89.50Q730 143 730 207Q730 255 706 283.50Q682 312 638 312Q582 312 541 258.50Q500 205 500 141Q500 93 524 64.50Q548 36 592 36M230 346Q170 346 131.50 387.50Q93 429 93 489Q93 575 149 641.50Q205 708 284 708Q344 708 382.50 666.50Q421 625 421 565Q421 479 365 412.50Q309 346 230 346M234 389Q290 389 331 442.50Q372 496 372 560Q372 608 348 636.50Q324 665 280 665Q224 665 183 611.50Q142 558 142 494Q142 446 166 417.50Q190 389 234 389Z"  horiz-adv-x="821" vert-adv-y="1000"  />

      
      <glyph glyph-name="uni26" unicode="&#x26;" d="M572-14L487 107Q426 47 367 18.50Q308-10 231-10Q145-10 88 37Q31 84 31 165Q31 250 93.50 311.50Q156 373 276 403Q229 479 229 536Q229 611 283.50 661.50Q338 712 413 712Q487 712 532 672Q577 632 577 567Q577 436 351 375L493 174Q551 240 609 341L648 318Q580 206 521 140L611 12L572-14M237 36Q353 36 460 141L301 366Q192 340 138 288Q84 236 84 171Q84 109 125.50 72.50Q167 36 237 36M326 411Q526 463 526 565Q526 611 494.50 639.50Q463 668 411 668Q358 668 319 629.50Q280 591 280 537Q280 481 326 411Z"  horiz-adv-x="690" vert-adv-y="1000"  />

      
      <glyph glyph-name="uni27" unicode="&#x27;" d="M101 446L194 700L257 700L257 695L130 446L101 446Z"  horiz-adv-x="230" vert-adv-y="1000"  />

      
      <glyph glyph-name="uni28" unicode="&#x28;" d="M273-140Q99 15 99 218Q99 372 198.50 505.50Q298 639 495 719L512 682Q417 641 345.50 587Q274 533 232.50 472Q191 411 171 348Q151 285 151 219Q151 116 190 39.50Q229-37 301-111L273-140Z"  horiz-adv-x="430" vert-adv-y="1000"  />

      
      <glyph glyph-name="uni29" unicode="&#x29;" d="M-47-139L-64-102Q31-61 102.50-7Q174 47 215.50 108Q257 169 277 232Q297 295 297 361Q297 464 258 540.50Q219 617 147 691L175 720Q349 565 349 362Q349 208 249.50 74.50Q150-59-47-139Z"  horiz-adv-x="430" vert-adv-y="1000"  />

      
      <glyph glyph-name="uni2a" unicode="&#x2a;" d="M270 406L229 416L271 537L150 495L138 536L267 560L167 644L198 674L282 577L306 702L347 692L305 571L426 613L438 572L309 548L409 464L378 434L294 531L270 406Z"  horiz-adv-x="430" vert-adv-y="1000"  />

      
      <glyph glyph-name="uni2b" unicode="&#x2b;" d="M256 113L314 328L97 328L110 376L327 376L384 591L434 591L377 376L594 376L581 328L364 328L306 113L256 113Z"  horiz-adv-x="639" vert-adv-y="1000"  />

      
      <glyph glyph-name="uni2c" unicode="&#x2c;" d="M-32-106L-39-82Q30-58 41 0L14 0L37 85L103 85L83 11Q68-41 43-66.50Q18-92-32-106Z"  horiz-adv-x="231" vert-adv-y="1000"  />

      
      <glyph glyph-name="uni2d" unicode="&#x2d;" d="M74 269L89 325L357 325L342 269L74 269Z"  horiz-adv-x="409" vert-adv-y="1000"  />

      
      <glyph glyph-name="uni2e" unicode="&#x2e;" d="M14 0L37 85L103 85L80 0L14 0Z"  horiz-adv-x="231" vert-adv-y="1000"  />

      
      <glyph glyph-name="uni2f" unicode="&#x2f;" d="M-121-128L595 798L649 798L-67-128L-121-128Z"  horiz-adv-x="500" vert-adv-y="1000"  />

      
      <glyph glyph-name="uni30" unicode="&#x30;" d="M317-12Q205-12 143.50 60.50Q82 133 82 250Q82 364 128 470Q174 576 258 644Q342 712 442 712Q554 712 615.50 639.50Q677 567 677 450Q677 336 631 230Q585 124 501 56Q417-12 317-12M320 35Q399 35 470 96Q541 157 582 252.50Q623 348 623 450Q623 544 575 604.50Q527 665 439 665Q360 665 289 604Q218 543 177 447.50Q136 352 136 250Q136 156 184 95.50Q232 35 320 35Z"  horiz-adv-x="709" vert-adv-y="1000"  />

      
      <glyph glyph-name="uni31" unicode="&#x31;" d="M93 0L266 645L119 599L117 646L293 705L334 705L145 0L93 0Z"  horiz-adv-x="334" vert-adv-y="1000"  />

      
      <glyph glyph-name="uni32" unicode="&#x32;" d="M-19 0L-10 39L408 364Q472 414 501.50 454.50Q531 495 531 542Q531 595 491 629Q451 663 381 663Q275 663 181 563L144 595Q255 710 383 710Q472 710 528.50 663.50Q585 617 585 543Q585 485 549.50 436Q514 387 440 330L78 50L482 50L469 0L-19 0Z"  horiz-adv-x="588" vert-adv-y="1000"  />

      
      <glyph glyph-name="uni33" unicode="&#x33;" d="M250-12Q163-12 101.50 24.50Q40 61 10 125L53 149Q112 35 253 35Q346 35 407 84.50Q468 134 468 211Q468 277 415.50 310.50Q363 344 272 344L243 344L232 370L544 652L169 652L183 700L633 700L623 663L316 386Q405 382 464 337.50Q523 293 523 215Q523 117 443 52.50Q363-12 250-12Z"  horiz-adv-x="606" vert-adv-y="1000"  />

      
      <glyph glyph-name="uni34" unicode="&#x34;" d="M369 0L415 171L36 171L28 210L561 705L609 705L478 216L592 216L580 171L466 171L420 0L369 0M99 216L427 216L536 622L99 216Z"  horiz-adv-x="645" vert-adv-y="1000"  />

      
      <glyph glyph-name="uni35" unicode="&#x35;" d="M252-12Q99-12 16 113L59 140Q131 33 255 33Q354 33 417.50 91Q481 149 481 229Q481 299 434 339Q387 379 313 379Q231 379 152 335L119 361L230 700L608 700L594 652L262 652L176 393Q199 406 240.50 416Q282 426 313 426Q415 426 475 373.50Q535 321 535 231Q535 130 456 59Q377-12 252-12Z"  horiz-adv-x="601" vert-adv-y="1000"  />

      
      <glyph glyph-name="uni36" unicode="&#x36;" d="M317-12Q215-12 151 52Q83 120 83 245Q83 357 121.50 453Q160 549 223 612Q323 712 447 712Q573 712 651 619L613 586Q543 665 444 665Q345 665 263 583Q214 534 180 461.50Q146 389 141 317Q176 369 231.50 402Q287 435 359 435Q461 435 522 375Q583 315 583 231Q583 132 507 60Q431-12 317-12M320 34Q410 34 469.50 92Q529 150 529 231Q529 293 484 340Q439 387 356 387Q263 387 202.50 330.50Q142 274 142 201Q142 129 188 83Q237 34 320 34Z"  horiz-adv-x="640" vert-adv-y="1000"  />

      
      <glyph glyph-name="uni37" unicode="&#x37;" d="M80 0L551 650L148 650L162 700L626 700L615 662L140 0L80 0Z"  horiz-adv-x="578" vert-adv-y="1000"  />

      
      <glyph glyph-name="uni38" unicode="&#x38;" d="M295-10Q182-10 111 43Q40 96 40 173Q40 254 100 305.50Q160 357 254 371Q208 388 177.50 427Q147 466 147 520Q147 601 219 655.50Q291 710 396 710Q497 710 562.50 660Q628 610 628 531Q628 460 576 411.50Q524 363 447 349Q498 331 534 289Q570 247 570 191Q570 104 491.50 47Q413-10 295-10M298 37Q396 37 456 80.50Q516 124 516 193Q516 252 460.50 294.50Q405 337 314 337Q215 337 154.50 291Q94 245 94 179Q94 116 150 76.50Q206 37 298 37M375 380Q468 380 521 424.50Q574 469 574 528Q574 587 524.50 625Q475 663 396 663Q309 663 255 621Q201 579 201 516Q201 458 250 419Q299 380 375 380Z"  horiz-adv-x="641" vert-adv-y="1000"  />

      
      <glyph glyph-name="uni39" unicode="&#x39;" d="M243-13Q115-13 33 86L71 119Q146 34 246 34Q354 34 445.50 137.50Q537 241 548 379Q465 256 328 256Q226 256 165.50 316.50Q105 377 105 462Q105 564 182 637.50Q259 711 373 711Q479 711 542.50 644Q606 577 606 454Q606 352 574.50 263Q543 174 491.50 114.50Q440 55 375 21Q310-13 243-13M335 304Q425 304 486 363.50Q547 423 547 500Q547 575 495 620Q443 665 369 665Q280 665 219.50 605.50Q159 546 159 464Q159 399 203.50 351.50Q248 304 335 304Z"  horiz-adv-x="640" vert-adv-y="1000"  />

      
      <glyph glyph-name="uni3a" unicode="&#x3a;" d="M19 0L42 85L108 85L85 0L19 0M133 425L156 510L222 510L199 425L133 425Z"  horiz-adv-x="241" vert-adv-y="1000"  />

      
      <glyph glyph-name="uni3b" unicode="&#x3b;" d="M-27-106L-34-82Q35-58 46 0L19 0L42 85L108 85L88 11Q73-41 48-66.50Q23-92-27-106M133 425L156 510L222 510L199 425L133 425Z"  horiz-adv-x="241" vert-adv-y="1000"  />

      
      <glyph glyph-name="uni3c" unicode="&#x3c;" d="M478 91L78 332L89 372L618 613L603 554L145 348L492 140L478 91Z"  horiz-adv-x="640" vert-adv-y="1000"  />

      
      <glyph glyph-name="uni3d" unicode="&#x3d;" d="M81 214L95 265L549 265L535 214L81 214M142 439L155 490L609 490L596 439L142 439Z"  horiz-adv-x="640" vert-adv-y="1000"  />

      
      <glyph glyph-name="uni3e" unicode="&#x3e;" d="M51 91L66 150L524 356L177 564L191 613L591 372L580 332L51 91Z"  horiz-adv-x="640" vert-adv-y="1000"  />

      
      <glyph glyph-name="uni3f" unicode="&#x3f;" d="M128 0L151 85L217 85L194 0L128 0M194 183L224 345L231 350Q344 358 412.50 406.50Q481 455 481 533Q481 594 438 628Q395 662 329 662Q221 662 133 574L101 608Q202 709 333 709Q425 709 479.50 660Q534 611 534 534Q534 440 459 382Q384 324 269 308L226 183L194 183Z"  horiz-adv-x="534" vert-adv-y="1000"  />

      
      <glyph glyph-name="uni40" unicode="&#x40;" d="M486-161Q295-161 180.50-53.50Q66 54 66 231Q66 358 132 469Q198 580 311.50 646Q425 712 557 712Q738 712 843 612Q948 512 948 359Q948 227 883 150Q818 73 742 73Q690 73 659 99.50Q628 126 621 173Q542 71 435 71Q368 71 323 116.50Q278 162 278 237Q278 344 353 423Q428 502 521 502Q581 502 619.50 471.50Q658 441 675 394L705 492L752 479L677 237Q669 210 669 189Q669 153 689 131.50Q709 110 747 110Q806 110 859.50 176Q913 242 913 359Q913 497 817 588.50Q721 680 557 680Q371 680 236 546Q101 412 101 231Q101 69 206.50-30Q312-129 486-129Q594-129 693-84L707-113Q602-161 486-161M445 118Q521 118 586 182.50Q651 247 651 325Q651 382 616 418.50Q581 455 523 455Q445 455 389.50 391Q334 327 334 239Q334 183 365 150.50Q396 118 445 118Z"  horiz-adv-x="980" vert-adv-y="1000"  />

      
      <glyph glyph-name="uni41" unicode="&#x41;" d="M-34 0L481 705L531 705L668 0L615 0L579 196L166 196L24 0L-34 0M200 243L569 243L494 648L200 243Z"  horiz-adv-x="759" vert-adv-y="1000"  />

      
      <glyph glyph-name="uni42" unicode="&#x42;" d="M36 0L224 700L483 700Q579 700 636 657.50Q693 615 693 541Q693 467 641 417.50Q589 368 508 352Q568 336 605 300Q642 264 642 206Q642 115 563 57.50Q484 0 351 0L36 0M101 48L354 48Q463 48 526 90Q589 132 589 206Q589 265 538 297Q487 329 404 329L176 329L101 48M189 377L405 377Q511 377 575 421Q639 465 639 536Q639 593 596.50 622.50Q554 652 478 652L263 652L189 377Z"  horiz-adv-x="717" vert-adv-y="1000"  />

      
      <glyph glyph-name="uni43" unicode="&#x43;" d="M378-13Q258-13 175 64.50Q92 142 92 271Q92 383 147.50 485Q203 587 300.50 649.50Q398 712 510 712Q602 712 667.50 670.50Q733 629 767 561L722 537Q686 600 635.50 632.50Q585 665 507 665Q359 665 252.50 545Q146 425 146 273Q146 164 212.50 99.50Q279 35 383 35Q457 35 512.50 61.50Q568 88 620 140L655 108Q539-13 378-13Z"  horiz-adv-x="738" vert-adv-y="1000"  />

      
      <glyph glyph-name="uni44" unicode="&#x44;" d="M36 0L224 700L381 700Q559 700 653 606Q730 529 730 406Q730 244 621 135Q557 71 464.50 35.50Q372 0 265 0L36 0M101 48L272 48Q462 48 582 168Q676 262 676 402Q676 510 611 573Q532 652 378 652L263 652L101 48Z"  horiz-adv-x="771" vert-adv-y="1000"  />

      
      <glyph glyph-name="uni45" unicode="&#x45;" d="M36 0L224 700L717 700L704 652L263 652L189 377L585 377L572 329L176 329L101 48L547 48L534 0L36 0Z"  horiz-adv-x="649" vert-adv-y="1000"  />

      
      <glyph glyph-name="uni46" unicode="&#x46;" d="M36 0L224 700L717 700L704 652L263 652L186 365L582 365L569 317L173 317L88 0L36 0Z"  horiz-adv-x="656" vert-adv-y="1000"  />

      
      <glyph glyph-name="uni47" unicode="&#x47;" d="M643 62Q528-13 396-13Q264-13 179 68Q94 149 94 282Q94 390 149 488.50Q204 587 303.50 649.50Q403 712 521 712Q694 712 777 582L736 555Q701 608 651 636.50Q601 665 516 665Q414 665 328 609Q242 553 195 466Q148 379 148 284Q148 168 217 101Q286 34 399 34Q515 34 601 91L665 315L432 315L445 363L729 363L643 62Z"  horiz-adv-x="786" vert-adv-y="1000"  />

      
      <glyph glyph-name="uni48" unicode="&#x48;" d="M36 0L224 700L276 700L189 376L632 376L719 700L771 700L583 0L531 0L619 328L176 328L88 0L36 0Z"  horiz-adv-x="756" vert-adv-y="1000"  />

      
      <glyph glyph-name="uni49" unicode="&#x49;" d="M43 0L231 700L283 700L95 0L43 0Z"  horiz-adv-x="274" vert-adv-y="1000"  />

      
      <glyph glyph-name="uni4a" unicode="&#x4a;" d="M196-10Q113-10 63.50 34Q14 78-5 151L41 167Q81 37 194 37Q269 37 321 89Q371 139 399 242L522 700L574 700L449 235Q418 118 356 56Q290-10 196-10Z"  horiz-adv-x="538" vert-adv-y="1000"  />

      
      <glyph glyph-name="uni4b" unicode="&#x4b;" d="M36 0L224 700L276 700L154 245L714 700L791 700L402 387L614 0L554 0L359 357L135 175L88 0L36 0Z"  horiz-adv-x="714" vert-adv-y="1000"  />

      
      <glyph glyph-name="uni4c" unicode="&#x4c;" d="M36 0L224 700L276 700L101 48L512 48L499 0L36 0Z"  horiz-adv-x="600" vert-adv-y="1000"  />

      
      <glyph glyph-name="uni4d" unicode="&#x4d;" d="M36 0L224 700L267 700L437 286L829 700L884 700L696 0L644 0L807 608L422 205L418 205L249 608L86 0L36 0Z"  horiz-adv-x="869" vert-adv-y="1000"  />

      
      <glyph glyph-name="uni4e" unicode="&#x4e;" d="M36 0L224 700L272 700L587 87L752 700L802 700L614 0L576 0L254 626L86 0L36 0Z"  horiz-adv-x="786" vert-adv-y="1000"  />

      
      <glyph glyph-name="uni4f" unicode="&#x4f;" d="M398-13Q267-13 181.50 73.50Q96 160 96 288Q96 396 149.50 494Q203 592 296.50 652Q390 712 499 712Q630 712 715.50 625.50Q801 539 801 411Q801 303 747.50 205Q694 107 600.50 47Q507-13 398-13M398 34Q494 34 575 88Q656 142 701.50 228.50Q747 315 747 411Q747 520 678 592.50Q609 665 499 665Q403 665 322 611Q241 557 195.50 470.50Q150 384 150 288Q150 179 219 106.50Q288 34 398 34Z"  horiz-adv-x="846" vert-adv-y="1000"  />

      
      <glyph glyph-name="uni50" unicode="&#x50;" d="M36 0L224 700L442 700Q572 700 635 637Q683 589 683 512Q683 394 590 328Q497 262 337 262L159 262L88 0L36 0M171 309L339 309Q480 309 555.50 361.50Q631 414 631 510Q631 567 595 603Q546 652 441 652L263 652L171 309Z"  horiz-adv-x="663" vert-adv-y="1000"  />

      
      <glyph glyph-name="uni51" unicode="&#x51;" d="M692-24L620 61Q517-13 398-13Q267-13 181.50 73.50Q96 160 96 288Q96 396 149.50 494Q203 592 296.50 652Q390 712 499 712Q630 712 715.50 625.50Q801 539 801 411Q801 321 762 236Q723 151 655 90L730 8L692-24M398 34Q501 34 588 97L471 227L509 260L623 126Q681 180 714 255.50Q747 331 747 411Q747 520 678 592.50Q609 665 499 665Q403 665 322 611Q241 557 195.50 470.50Q150 384 150 288Q150 179 219 106.50Q288 34 398 34Z"  horiz-adv-x="846" vert-adv-y="1000"  />

      
      <glyph glyph-name="uni52" unicode="&#x52;" d="M36 0L224 700L475 700Q601 700 663 638Q707 594 707 524Q707 440 645 378Q577 310 439 295L593 0L533 0L383 290L166 290L88 0L36 0M178 337L388 337Q537 337 608 408Q655 455 655 521Q655 573 624 604Q576 652 473 652L263 652L178 337Z"  horiz-adv-x="713" vert-adv-y="1000"  />

      
      <glyph glyph-name="uni53" unicode="&#x53;" d="M299-10Q115-10 20 124L60 153Q106 94 164 65.50Q222 37 304 37Q390 37 448 80.50Q506 124 506 190Q506 236 472 267Q438 298 353 331Q242 374 197.50 414Q153 454 153 517Q153 598 223 654Q293 710 404 710Q480 710 543.50 680.50Q607 651 647 603L607 571Q527 663 399 663Q312 663 259 621Q206 579 206 521Q206 474 244 443.50Q282 413 373 378Q473 340 516 298.50Q559 257 559 194Q559 108 485 49Q411-10 299-10Z"  horiz-adv-x="638" vert-adv-y="1000"  />

      
      <glyph glyph-name="uni54" unicode="&#x54;" d="M209 0L384 652L140 652L153 700L693 700L680 652L436 652L261 0L209 0Z"  horiz-adv-x="615" vert-adv-y="1000"  />

      
      <glyph glyph-name="uni55" unicode="&#x55;" d="M348-11Q226-11 161 50Q96 111 96 209Q96 263 110 317L212 700L264 700L156 293Q147 257 147 213Q147 134 199 85Q251 36 352 36Q451 36 523 108Q588 173 621 294L730 700L782 700L670 283Q635 153 559 77Q471-11 348-11Z"  horiz-adv-x="756" vert-adv-y="1000"  />

      
      <glyph glyph-name="uni56" unicode="&#x56;" d="M259-5L142 700L196 700L295 56L741 700L800 700L305-5L259-5Z"  horiz-adv-x="714" vert-adv-y="1000"  />

      
      <glyph glyph-name="uni57" unicode="&#x57;" d="M215-5L150 700L204 700L257 77L629 702L669 702L707 77L1094 700L1152 700L709-5L667-5L625 603L257-5L215-5Z"  horiz-adv-x="1074" vert-adv-y="1000"  />

      
      <glyph glyph-name="uni58" unicode="&#x58;" d="M-23 0L343 362L157 700L213 700L380 392L690 700L757 700L405 353L597 0L541 0L368 323L44 0L-23 0Z"  horiz-adv-x="692" vert-adv-y="1000"  />

      
      <glyph glyph-name="uni59" unicode="&#x59;" d="M234 0L310 284L127 700L184 700L345 324L709 700L779 700L358 271L286 0L234 0Z"  horiz-adv-x="668" vert-adv-y="1000"  />

      
      <glyph glyph-name="uni5a" unicode="&#x5a;" d="M-19 0L-11 29L625 653L173 653L186 700L719 700L711 671L75 47L547 47L534 0L-19 0Z"  horiz-adv-x="662" vert-adv-y="1000"  />

      
      <glyph glyph-name="uni5b" unicode="&#x5b;" d="M16-130L239 700L512 700L501 662L274 662L72-92L299-92L289-130L16-130Z"  horiz-adv-x="430" vert-adv-y="1000"  />

      
      <glyph glyph-name="uni5c" unicode="&#x5c;" d="M368-128L147 798L191 798L412-128L368-128Z"  horiz-adv-x="500" vert-adv-y="1000"  />

      
      <glyph glyph-name="uni5d" unicode="&#x5d;" d="M-67-130L-56-92L171-92L373 662L146 662L156 700L429 700L206-130L-67-130Z"  horiz-adv-x="430" vert-adv-y="1000"  />

      
      <glyph glyph-name="uni5e" unicode="&#x5e;" d="M129 493L343 703L387 703L489 493L442 493L359 660L186 493L129 493Z"  horiz-adv-x="500" vert-adv-y="1000"  />

      
      <glyph glyph-name="uni5f" unicode="&#x5f;" d="M-114-160L-102-116L503-116L491-160L-114-160Z"  horiz-adv-x="600" vert-adv-y="1000"  />

      
      <glyph glyph-name="uni60" unicode="&#x60;" d="M368 595L289 698L351 728L403 595L368 595Z"  horiz-adv-x="500" vert-adv-y="1000"  />

      
      <glyph glyph-name="uni61" unicode="&#x61;" d="M190-12Q121-12 72 25.50Q23 63 23 131Q23 215 87 265.50Q151 316 253 316Q343 316 449 287L453 301Q460 327 460 352Q460 410 420.50 441Q381 472 306 472Q236 472 158 445L149 489Q230 518 310 518Q403 518 455.50 475.50Q508 433 508 359Q508 330 498 292L420 0L372 0L395 88Q311-12 190-12M199 33Q274 33 340.50 80.50Q407 128 427 203L439 248Q343 272 246 272Q170 272 122.50 234.50Q75 197 75 137Q75 90 108.50 61.50Q142 33 199 33Z"  horiz-adv-x="571" vert-adv-y="1000"  />

      
      <glyph glyph-name="uni62" unicode="&#x62;" d="M312-13Q233-13 182 27.50Q131 68 109 130L74 0L25 0L221 730L270 730L183 410Q277 522 395 522Q484 522 542 461.50Q600 401 600 307Q600 173 514 80Q428-13 312-13M310 33Q411 33 479 113Q547 193 547 301Q547 379 503 427.50Q459 476 389 476Q293 476 213.50 394Q134 312 134 211Q134 136 183.50 84.50Q233 33 310 33Z"  horiz-adv-x="654" vert-adv-y="1000"  />

      
      <glyph glyph-name="uni63" unicode="&#x63;" d="M272-12Q183-12 116.50 48Q50 108 50 208Q50 334 139.50 428Q229 522 350 522Q423 522 473.50 487Q524 452 550 399L509 376Q452 476 347 476Q250 476 176.50 396Q103 316 103 211Q103 129 153.50 81.50Q204 34 275 34Q362 34 440 107L473 75Q383-12 272-12Z"  horiz-adv-x="563" vert-adv-y="1000"  />

      
      <glyph glyph-name="uni64" unicode="&#x64;" d="M259-13Q170-13 112 47.50Q54 108 54 202Q54 336 140 429Q226 522 342 522Q421 522 472 481.50Q523 441 545 379L639 730L688 730L493 0L444 0L470 99Q376-13 259-13M265 33Q361 33 440.50 115Q520 197 520 298Q520 373 470.50 424.50Q421 476 344 476Q243 476 175 396Q107 316 107 208Q107 130 151 81.50Q195 33 265 33Z"  horiz-adv-x="654" vert-adv-y="1000"  />

      
      <glyph glyph-name="uni65" unicode="&#x65;" d="M272-12Q174-12 112 48Q50 108 50 202Q50 325 137 423.50Q224 522 345 522Q437 522 487.50 466Q538 410 538 327Q538 278 524 238L105 238Q103 216 103 204Q103 127 150 80.50Q197 34 272 34Q363 34 446 102L475 67Q380-12 272-12M114 282L484 282Q488 300 488 324Q488 390 451.50 433.50Q415 477 344 477Q262 477 199.50 421Q137 365 114 282Z"  horiz-adv-x="583" vert-adv-y="1000"  />

      
      <glyph glyph-name="uni66" unicode="&#x66;" d="M55 0L180 465L106 465L118 510L192 510L212 584Q251 730 375 730Q432 730 477 706L465 662Q414 686 373 686Q287 686 258 573L241 510L425 510L413 465L229 465L104 0L55 0Z"  horiz-adv-x="362" vert-adv-y="1000"  />

      
      <glyph glyph-name="uni67" unicode="&#x67;" d="M236-162Q169-162 105-136.50Q41-111-5-67L31-31Q121-116 238-116Q338-116 395-59Q440-14 465 75L483 139Q388 38 273 38Q187 38 123.50 92.50Q60 147 60 236Q60 359 148 440.50Q236 522 349 522Q489 522 548 386L581 510L630 510L511 63Q484-36 431-89Q358-162 236-162M282 84Q377 84 451.50 154.50Q526 225 526 312Q526 377 476.50 426Q427 475 347 475Q254 475 183.50 408Q113 341 113 239Q113 166 163 125Q213 84 282 84Z"  horiz-adv-x="654" vert-adv-y="1000"  />

      
      <glyph glyph-name="uni68" unicode="&#x68;" d="M25 0L221 730L270 730L185 415Q274 522 378 522Q454 522 499.50 477.50Q545 433 545 360Q545 332 534 288L458 0L409 0L487 292Q495 322 495 355Q495 412 460 445Q425 478 364 478Q297 478 235 424Q173 370 151 288L74 0L25 0Z"  horiz-adv-x="609" vert-adv-y="1000"  />

      
      <glyph glyph-name="uni69" unicode="&#x69;" d="M32 0L169 510L218 510L81 0L32 0M199 643L217 710L278 710L260 643L199 643Z"  horiz-adv-x="250" vert-adv-y="1000"  />

      
      <glyph glyph-name="uni6a" unicode="&#x6a;" d="M-52-163Q-85-163-115-153L-103-109Q-75-117-56-117Q0-117 19-48L169 510L218 510L67-52Q53-105 22-134Q-9-163-52-163M199 643L217 710L278 710L260 643L199 643Z"  horiz-adv-x="249" vert-adv-y="1000"  />

      
      <glyph glyph-name="uni6b" unicode="&#x6b;" d="M25 0L221 730L270 730L125 189L521 510L592 510L308 282L460 0L403 0L267 252L107 124L74 0L25 0Z"  horiz-adv-x="560" vert-adv-y="1000"  />

      
      <glyph glyph-name="uni6c" unicode="&#x6c;" d="M32 0L228 730L277 730L81 0L32 0Z"  horiz-adv-x="250" vert-adv-y="1000"  />

      
      <glyph glyph-name="uni6d" unicode="&#x6d;" d="M25 0L161 510L210 510L185 415Q228 468 269.50 495Q311 522 368 522Q432 522 470 485.50Q508 449 517 397Q593 522 731 522Q800 522 845 476.50Q890 431 890 360Q890 340 877 288L801 0L752 0L830 292Q838 322 838 355Q838 411 805 444.50Q772 478 717 478Q655 478 595 423.50Q535 369 514 288L438 0L389 0L467 292Q475 322 475 355Q475 411 442 444.50Q409 478 354 478Q292 478 232 423.50Q172 369 151 288L74 0L25 0Z"  horiz-adv-x="951" vert-adv-y="1000"  />

      
      <glyph glyph-name="uni6e" unicode="&#x6e;" d="M25 0L161 510L210 510L185 415Q274 522 378 522Q454 522 499.50 477.50Q545 433 545 360Q545 332 534 288L458 0L409 0L487 292Q495 322 495 355Q495 412 460 445Q425 478 364 478Q297 478 235 424Q173 370 151 288L74 0L25 0Z"  horiz-adv-x="611" vert-adv-y="1000"  />

      
      <glyph glyph-name="uni6f" unicode="&#x6f;" d="M278-12Q177-12 114 51.50Q51 115 51 214Q51 336 142 429Q233 522 354 522Q455 522 518 458.50Q581 395 581 296Q581 172 489 80Q397-12 278-12M283 34Q378 34 453 112Q528 190 528 294Q528 379 479 427.50Q430 476 349 476Q252 476 178 397Q104 318 104 216Q104 131 153 82.50Q202 34 283 34Z"  horiz-adv-x="633" vert-adv-y="1000"  />

      
      <glyph glyph-name="uni70" unicode="&#x70;" d="M-18-160L162 510L210 510L183 410Q277 522 395 522Q484 522 542 461.50Q600 401 600 307Q600 173 514 80Q428-13 312-13Q233-13 182 27.50Q131 68 109 130L31-160L-18-160M310 33Q411 33 479 113Q547 193 547 301Q547 379 503 427.50Q459 476 389 476Q293 476 213.50 394Q134 312 134 211Q134 136 183.50 84.50Q233 33 310 33Z"  horiz-adv-x="654" vert-adv-y="1000"  />

      
      <glyph glyph-name="uni71" unicode="&#x71;" d="M391-200L471 100Q377-13 259-13Q170-13 112 47.50Q54 108 54 202Q54 336 140 429Q226 522 342 522Q422 522 472.50 481.50Q523 441 545 380L580 510L629 510L440-200L391-200M265 33Q361 33 440.50 115.50Q520 198 520 299Q520 374 470.50 425Q421 476 344 476Q243 476 175 396Q107 316 107 208Q107 130 151 81.50Q195 33 265 33Z"  horiz-adv-x="654" vert-adv-y="1000"  />

      
      <glyph glyph-name="uni72" unicode="&#x72;" d="M25 0L161 510L210 510L172 365Q287 526 434 518L420 464L416 464Q324 464 242.50 395Q161 326 130 209L74 0L25 0Z"  horiz-adv-x="396" vert-adv-y="1000"  />

      
      <glyph glyph-name="uni73" unicode="&#x73;" d="M217-11Q89-11 1 77L36 112Q117 34 223 34Q274 34 314.50 62.50Q355 91 355 135Q355 166 331.50 189Q308 212 244 236Q168 264 134.50 294.50Q101 325 101 373Q101 435 153.50 478Q206 521 290 521Q393 521 474 453L442 416Q369 476 285 476Q224 476 188.50 448Q153 420 153 381Q153 350 176 329Q199 308 268 281Q344 251 375.50 220Q407 189 407 143Q407 77 351 33Q295-11 217-11Z"  horiz-adv-x="495" vert-adv-y="1000"  />

      
      <glyph glyph-name="uni74" unicode="&#x74;" d="M206-9Q152-9 118 16.50Q84 42 84 92Q84 115 90 141L177 465L103 465L115 510L189 510L233 673L282 673L238 510L414 510L402 465L226 465L139 140Q134 118 134 97Q134 36 217 36Q249 36 291 52L278 4Q243-9 206-9Z"  horiz-adv-x="396" vert-adv-y="1000"  />

      
      <glyph glyph-name="uni75" unicode="&#x75;" d="M231-12Q155-12 109.50 32.50Q64 77 64 150Q64 178 75 222L151 510L200 510L122 218Q114 188 114 155Q114 98 149 65Q184 32 245 32Q312 32 374 86Q436 140 458 222L535 510L584 510L448 0L399 0L424 95Q335-12 231-12Z"  horiz-adv-x="609" vert-adv-y="1000"  />

      
      <glyph glyph-name="uni76" unicode="&#x76;" d="M179-4L89 510L142 510L213 55L526 510L585 510L221-4L179-4Z"  horiz-adv-x="557" vert-adv-y="1000"  />

      
      <glyph glyph-name="uni77" unicode="&#x77;" d="M148-4L99 510L149 510L186 66L459 512L498 512L533 66L808 510L862 510L537-4L494-4L459 433L189-4L148-4Z"  horiz-adv-x="845" vert-adv-y="1000"  />

      
      <glyph glyph-name="uni78" unicode="&#x78;" d="M-29 0L255 264L120 510L176 510L288 295L512 510L578 510L310 260L451 0L395 0L277 229L37 0L-29 0Z"  horiz-adv-x="559" vert-adv-y="1000"  />

      
      <glyph glyph-name="uni79" unicode="&#x79;" d="M20-163Q-38-163-88-128L-61-88Q-25-117 26-117Q66-117 104.50-89.50Q143-62 189 3L85 510L137 510L226 54L533 510L592 510L229-18Q175-96 125.50-129.50Q76-163 20-163Z"  horiz-adv-x="568" vert-adv-y="1000"  />

      
      <glyph glyph-name="uni7a" unicode="&#x7a;" d="M-17 0L-9 28L466 466L122 466L134 510L558 510L550 482L75 44L436 44L424 0L-17 0Z"  horiz-adv-x="546" vert-adv-y="1000"  />

      
      <glyph glyph-name="uni7b" unicode="&#x7b;" d="M312-141Q230-123 192-78Q154-33 154 26Q154 62 177 146Q186 178 186 201Q186 268 91 268L65 268L75 306L101 306Q178 306 213.50 346.50Q249 387 270 490Q291 598 349.50 652.50Q408 707 541 715L538 678Q433 672 384.50 625Q336 578 318 485Q298 382 264.50 339Q231 296 165 285Q234 264 234 202Q234 175 225 145Q203 70 203 30Q203-76 326-110L312-141Z"  horiz-adv-x="480" vert-adv-y="1000"  />

      
      <glyph glyph-name="uni7c" unicode="&#x7c;" d="M141-128L141 798L185 798L185-128L141-128Z"  horiz-adv-x="286" vert-adv-y="1000"  />

      
      <glyph glyph-name="uni7d" unicode="&#x7d;" d="M-44-141L-41-104Q64-98 112.50-51Q161-4 179 89Q199 192 232.50 235Q266 278 332 289Q263 310 263 372Q263 399 272 429Q294 504 294 544Q294 650 171 684L185 715Q267 697 305 652Q343 607 343 548Q343 512 320 428Q311 396 311 373Q311 306 406 306L432 306L422 268L396 268Q319 268 283.50 227.50Q248 187 227 84Q205-24 147-78.50Q89-133-44-141Z"  horiz-adv-x="480" vert-adv-y="1000"  />

      
      <glyph glyph-name="uni7e" unicode="&#x7e;" d="M125 245L87 260Q112 310 136 333Q160 356 191 356Q211 356 224.50 348Q238 340 258 321Q289 291 306 291Q321 291 333.50 304.50Q346 318 365 351L403 336Q378 286 354 263Q330 240 299 240Q279 240 265.50 248Q252 256 232 275Q201 305 184 305Q169 305 156.50 291Q144 277 125 245Z"  horiz-adv-x="460" vert-adv-y="1000"  />

      
      <glyph glyph-name="unia1" unicode="&#xa1;" d="M28 0L47 70L182 517L210 517L105 70L86 0L28 0M189 615L212 700L278 700L255 615L189 615Z"  horiz-adv-x="251" vert-adv-y="1000"  />

      
      <glyph glyph-name="unia2" unicode="&#xa2;" d="M160-6L204 105Q145 130 110 183Q75 236 75 303Q75 433 165 527Q255 621 380 621Q398 621 407 620L441 706L491 706L453 612Q548 588 588 499L547 476Q505 552 433 569L263 136Q280 133 299 133Q397 133 478 206L511 174Q417 87 296 87Q274 87 249 92L210-6L160-6M223 148L391 575L377 575Q274 575 201 495Q128 415 128 304Q128 250 153 208.50Q178 167 223 148Z"  horiz-adv-x="558" vert-adv-y="1000"  />

      
      <glyph glyph-name="unia3" unicode="&#xa3;" d="M-2 0L5 25L96 45L166 305L80 305L93 353L179 353L214 484Q241 586 294 639Q362 707 457 707Q583 707 643 597L600 571Q545 660 454 660Q383 660 333 610Q287 564 263 475L230 353L528 353L515 305L217 305L148 47L522 47L509 0L-2 0Z"  horiz-adv-x="624" vert-adv-y="1000"  />

      
      <glyph glyph-name="unia4" unicode="&#xa4;" d="M372-12Q269-12 201.50 57.50Q134 127 129 245L37 245L50 293L130 293Q133 358 151 416L82 416L95 464L168 464Q213 575 298.50 643.50Q384 712 493 712Q576 712 632 668Q688 624 712 553L667 535Q640 599 597.50 632Q555 665 484 665Q402 665 332.50 610Q263 555 223 464L524 464L511 416L205 416Q186 354 183 293L479 293L466 245L183 245Q188 150 238 92.50Q288 35 373 35Q486 35 574 133L609 103Q506-12 372-12Z"  horiz-adv-x="684" vert-adv-y="1000"  />

      
      <glyph glyph-name="unia5" unicode="&#xa5;" d="M251 0L284 125L74 125L86 170L296 170L322 268L112 268L124 313L314 313L144 700L203 700L364 324L728 700L796 700L416 313L600 313L588 268L374 268L348 170L562 170L550 125L336 125L303 0L251 0Z"  horiz-adv-x="700" vert-adv-y="1000"  />

      
      <glyph glyph-name="unia6" unicode="&#xa6;" d="M138 411L84 411L84 661L138 661L138 411M138-89L84-89L84 161L138 161L138-89Z"  horiz-adv-x="222" vert-adv-y="1000"  />

      
      <glyph glyph-name="unia7" unicode="&#xa7;" d="M288-10Q222-10 162 13.50Q102 37 67 72L100 109Q133 78 185 56.50Q237 35 295 35Q347 35 382 56.50Q417 78 417 113Q417 144 385 167Q353 190 278 216Q178 251 134 283Q90 315 90 362Q90 420 146 455Q202 490 288 490Q211 524 211 586Q211 643 263 676.50Q315 710 392 710Q458 710 518 686.50Q578 663 613 628L580 591Q547 622 495 643.50Q443 665 385 665Q333 665 298 643.50Q263 622 263 587Q263 556 295 533Q327 510 402 484Q502 449 546 417Q590 385 590 338Q590 280 534 245Q478 210 392 210Q469 176 469 114Q469 57 417 23.50Q365-10 288-10M392 245Q454 245 496 271Q538 297 538 334Q538 363 507.50 386Q477 409 405 434Q343 455 288 455Q226 455 184 429Q142 403 142 366Q142 337 172.50 314Q203 291 275 266Q335 245 392 245Z"  horiz-adv-x="632" vert-adv-y="1000"  />

      
      <glyph glyph-name="unia8" unicode="&#xa8;" d="M213 595L235 675L304 675L282 595L213 595M376 595L398 675L467 675L445 595L376 595Z"  horiz-adv-x="500" vert-adv-y="1000"  />

      
      <glyph glyph-name="unia9" unicode="&#xa9;" d="M696 95Q696 95 643 41.50Q590-12 439-12Q288-12 183 94Q78 200 78 349Q78 498 184 605Q290 712 441 712Q592 712 697 606Q802 500 802 351Q802 202 696 95M203 113Q203 113 250.50 64.50Q298 16 439 16Q580 16 676 114Q772 212 772 351Q772 490 677 587Q582 684 441 684Q300 684 204 586Q108 488 108 349Q108 210 203 113M444 166Q367 166 314.50 221Q262 276 262 355Q262 433 314.50 489Q367 545 445 545Q522 545 586 484L556 453Q502 505 444 505Q384 505 345 461.50Q306 418 306 356Q306 294 346.50 250Q387 206 445 206Q505 206 560 258L588 230Q522 166 444 166Z"  horiz-adv-x="830" vert-adv-y="1000"  />

      
      <glyph glyph-name="uniaa" unicode="&#xaa;" d="M58 293L68 333L312 333L302 293L58 293M191 410Q155 410 130.50 430.50Q106 451 106 485Q106 533 142.50 562Q179 591 237 591Q276 591 334 576L336 582Q340 596 340 609Q340 667 262 667Q224 667 182 652L175 687Q223 704 269 704Q322 704 351 680.50Q380 657 380 616Q380 603 374 577L331 416L291 416L305 466Q254 410 191 410M201 442Q239 442 276 469.50Q313 497 323 534L327 548Q277 560 237 560Q198 560 173 540Q148 520 148 489Q148 468 162.50 455Q177 442 201 442Z"  horiz-adv-x="390" vert-adv-y="1000"  />

      
      <glyph glyph-name="uniab" unicode="&#xab;" d="M149 42L45 251L47 259L263 468L299 440L107 248L190 64L149 42M353 42L249 251L251 259L467 468L503 440L311 248L394 64L353 42Z"  horiz-adv-x="515" vert-adv-y="1000"  />

      
      <glyph glyph-name="uniac" unicode="&#xac;" d="M524 259L474 259L522 439L118 439L132 490L586 490L524 259Z"  horiz-adv-x="640" vert-adv-y="1000"  />

      
      <glyph glyph-name="uniad" unicode="&#xad;" d="M74 269L89 325L357 325L342 269L74 269Z"  horiz-adv-x="409" vert-adv-y="1000"  />

      
      <glyph glyph-name="uniae" unicode="&#xae;" d="M696 95Q696 95 643 41.50Q590-12 439-12Q288-12 183 94Q78 200 78 349Q78 498 184 605Q290 712 441 712Q592 712 697 606Q802 500 802 351Q802 202 696 95M203 113Q203 113 250.50 64.50Q298 16 439 16Q580 16 676 114Q772 212 772 351Q772 490 677 587Q582 684 441 684Q300 684 204 586Q108 488 108 349Q108 210 203 113M301 177L301 543L465 543Q524 543 562 514Q600 485 600 437Q600 394 573 367Q546 340 500 331L622 177L566 177L450 324L344 324L344 177L301 177M344 364L458 364Q501 364 528 382.50Q555 401 555 435Q555 466 530.50 484Q506 502 463 502L344 502L344 364Z"  horiz-adv-x="830" vert-adv-y="1000"  />

      
      <glyph glyph-name="uniaf" unicode="&#xaf;" d="M190 600L204 653L504 653L490 600L190 600Z"  horiz-adv-x="500" vert-adv-y="1000"  />

      
      <glyph glyph-name="unib0" unicode="&#xb0;" d="M214 411Q159 411 123.50 447Q88 483 88 537Q88 604 137.50 654.50Q187 705 254 705Q309 705 344.50 669Q380 633 380 579Q380 512 330.50 461.50Q281 411 214 411M219 453Q265 453 300 489.50Q335 526 335 574Q335 615 311 639Q287 663 249 663Q203 663 168 626.50Q133 590 133 542Q133 501 157 477Q181 453 219 453Z"  horiz-adv-x="366" vert-adv-y="1000"  />

      
      <glyph glyph-name="unib1" unicode="&#xb1;" d="M567 294L345 294L298 116L245 116L292 294L70 294L83 342L305 342L353 519L406 519L358 342L580 342L567 294M494 22L-3 22L10 70L507 70L494 22Z"  horiz-adv-x="640" vert-adv-y="1000"  />

      
      <glyph glyph-name="unib2" unicode="&#xb2;" d="M0 0L0 700L500 700L500 0L0 0M81 49L420 49L250 304L81 49M49 96L220 350L49 604L49 96M450 96L450 604L279 350L450 96M250 395L420 650L81 650L250 395Z"  horiz-adv-x="500" vert-adv-y="1000"  />

      
      <glyph glyph-name="unib3" unicode="&#xb3;" d="M0 0L0 700L500 700L500 0L0 0M81 49L420 49L250 304L81 49M49 96L220 350L49 604L49 96M450 96L450 604L279 350L450 96M250 395L420 650L81 650L250 395Z"  horiz-adv-x="500" vert-adv-y="1000"  />

      
      <glyph glyph-name="unib4" unicode="&#xb4;" d="M251 595L375 728L437 698L302 595L251 595Z"  horiz-adv-x="500" vert-adv-y="1000"  />

      
      <glyph glyph-name="unib5" unicode="&#xb5;" d="M226-12Q130-12 95 79L32-160L-17-160L162 510L211 510L130 207Q121 174 121 146Q121 93 152.50 63Q184 33 245 33Q321 33 385.50 84.50Q450 136 471 215L550 510L599 510L463 0L414 0L438 89Q354-12 226-12Z"  horiz-adv-x="623" vert-adv-y="1000"  />

      
      <glyph glyph-name="unib6" unicode="&#xb6;" d="M260 0L330 263Q229 269 165.50 313Q102 357 102 446Q102 565 189 632.50Q276 700 428 700L501 700L313 0L260 0Z"  horiz-adv-x="486" vert-adv-y="1000"  />

      
      <glyph glyph-name="unib7" unicode="&#xb7;" d="M82 255L105 340L171 340L148 255L82 255Z"  horiz-adv-x="231" vert-adv-y="1000"  />

      
      <glyph glyph-name="unib8" unicode="&#xb8;" d="M118-148L70-122L195 10L238 10L118-148Z"  horiz-adv-x="500" vert-adv-y="1000"  />

      
      <glyph glyph-name="unib9" unicode="&#xb9;" d="M0 0L0 700L500 700L500 0L0 0M81 49L420 49L250 304L81 49M49 96L220 350L49 604L49 96M450 96L450 604L279 350L450 96M250 395L420 650L81 650L250 395Z"  horiz-adv-x="500" vert-adv-y="1000"  />

      
      <glyph glyph-name="uniba" unicode="&#xba;" d="M60 293L70 333L338 333L328 293L60 293M245 407Q187 407 151 443.50Q115 480 115 536Q115 603 164.50 654Q214 705 282 705Q339 705 375.50 668.50Q412 632 412 576Q412 509 362.50 458Q313 407 245 407M248 444Q297 444 333 483Q369 522 369 574Q369 616 344 642Q319 668 279 668Q229 668 193 629Q157 590 157 538Q157 496 182.50 470Q208 444 248 444Z"  horiz-adv-x="390" vert-adv-y="1000"  />

      
      <glyph glyph-name="unibb" unicode="&#xbb;" d="M47 41L11 69L203 261L120 445L161 467L265 258L263 250L47 41M251 41L215 69L407 261L324 445L365 467L469 258L467 250L251 41Z"  horiz-adv-x="515" vert-adv-y="1000"  />

      
      <glyph glyph-name="unibc" unicode="&#xbc;" d="M0 0L0 700L500 700L500 0L0 0M81 49L420 49L250 304L81 49M49 96L220 350L49 604L49 96M450 96L450 604L279 350L450 96M250 395L420 650L81 650L250 395Z"  horiz-adv-x="500" vert-adv-y="1000"  />

      
      <glyph glyph-name="unibd" unicode="&#xbd;" d="M0 0L0 700L500 700L500 0L0 0M81 49L420 49L250 304L81 49M49 96L220 350L49 604L49 96M450 96L450 604L279 350L450 96M250 395L420 650L81 650L250 395Z"  horiz-adv-x="500" vert-adv-y="1000"  />

      
      <glyph glyph-name="unibe" unicode="&#xbe;" d="M0 0L0 700L500 700L500 0L0 0M81 49L420 49L250 304L81 49M49 96L220 350L49 604L49 96M450 96L450 604L279 350L450 96M250 395L420 650L81 650L250 395Z"  horiz-adv-x="500" vert-adv-y="1000"  />

      
      <glyph glyph-name="unibf" unicode="&#xbf;" d="M252-9Q160-9 105.50 40Q51 89 51 166Q51 260 126 318Q201 376 316 392L359 517L391 517L361 355L354 350Q241 342 172.50 293.50Q104 245 104 167Q104 106 147 72Q190 38 256 38Q364 38 452 126L484 92Q383-9 252-9M368 615L391 700L457 700L434 615L368 615Z"  horiz-adv-x="534" vert-adv-y="1000"  />

      
      <glyph glyph-name="unic0" unicode="&#xc0;" d="M-34 0L481 705L531 705L668 0L615 0L579 196L166 196L24 0L-34 0M200 243L569 243L494 648L200 243M517 765L438 868L500 898L552 765L517 765Z"  horiz-adv-x="759" vert-adv-y="1000"  />

      
      <glyph glyph-name="unic1" unicode="&#xc1;" d="M-34 0L481 705L531 705L668 0L615 0L579 196L166 196L24 0L-34 0M200 243L569 243L494 648L200 243M489 765L613 898L675 868L540 765L489 765Z"  horiz-adv-x="759" vert-adv-y="1000"  />

      
      <glyph glyph-name="unic2" unicode="&#xc2;" d="M-34 0L481 705L531 705L668 0L615 0L579 196L166 196L24 0L-34 0M200 243L569 243L494 648L200 243M401 765L534 887L574 887L641 765L597 765L545 833L449 765L401 765Z"  horiz-adv-x="759" vert-adv-y="1000"  />

      
      <glyph glyph-name="unic3" unicode="&#xc3;" d="M-34 0L481 705L531 705L668 0L615 0L579 196L166 196L24 0L-34 0M200 243L569 243L494 648L200 243M416 763L378 778Q403 828 427 851Q451 874 482 874Q502 874 515.50 866Q529 858 549 839Q580 809 597 809Q612 809 624.50 822.50Q637 836 656 869L694 854Q669 804 645 781Q621 758 590 758Q570 758 556.50 766Q543 774 523 793Q492 823 475 823Q460 823 447.50 809.50Q435 796 416 763Z"  horiz-adv-x="759" vert-adv-y="1000"  />

      
      <glyph glyph-name="unic4" unicode="&#xc4;" d="M-34 0L481 705L531 705L668 0L615 0L579 196L166 196L24 0L-34 0M200 243L569 243L494 648L200 243M412 765L434 845L503 845L481 765L412 765M575 765L597 845L666 845L644 765L575 765Z"  horiz-adv-x="759" vert-adv-y="1000"  />

      
      <glyph glyph-name="unic5" unicode="&#xc5;" d="M-24 0L474 681Q428 703 428 752Q428 794 459.50 824Q491 854 534 854Q576 854 603 831Q630 808 630 772Q630 736 606.50 708Q583 680 547 672L678 0L625 0L589 196L176 196L34 0L-24 0M210 243L579 243L504 648L210 243M479.50 716Q479.50 716 487.25 709Q495 702 524 702Q553 702 573.50 722.50Q594 743 594 772Q594 794 578.50 808Q563 822 534 822Q505 822 484.50 801.50Q464 781 464 752Q464 730 479.50 716Z"  horiz-adv-x="759" vert-adv-y="1000"  />

      
      <glyph glyph-name="unic6" unicode="&#xc6;" d="M-32 0L579 700L1120 700L1107 652L676 652L602 377L988 377L975 329L589 329L514 48L950 48L937 0L449 0L502 196L201 196L31 0L-32 0M242 243L514 243L624 653L597 653L242 243Z"  horiz-adv-x="1068" vert-adv-y="1000"  />

      
      <glyph glyph-name="unic7" unicode="&#xc7;" d="M271-148L223-122L330-9Q226 7 159 81.50Q92 156 92 271Q92 383 147.50 485Q203 587 300.50 649.50Q398 712 510 712Q602 712 667.50 670.50Q733 629 767 561L722 537Q686 600 635.50 632.50Q585 665 507 665Q359 665 252.50 545Q146 425 146 273Q146 164 212.50 99.50Q279 35 383 35Q457 35 512.50 61.50Q568 88 620 140L655 108Q539-13 378-13L374-13L271-148Z"  horiz-adv-x="738" vert-adv-y="1000"  />

      
      <glyph glyph-name="unic8" unicode="&#xc8;" d="M36 0L224 700L717 700L704 652L263 652L189 377L585 377L572 329L176 329L101 48L547 48L534 0L36 0M480 765L401 868L463 898L515 765L480 765Z"  horiz-adv-x="649" vert-adv-y="1000"  />

      
      <glyph glyph-name="unic9" unicode="&#xc9;" d="M36 0L224 700L717 700L704 652L263 652L189 377L585 377L572 329L176 329L101 48L547 48L534 0L36 0M413 765L537 898L599 868L464 765L413 765Z"  horiz-adv-x="649" vert-adv-y="1000"  />

      
      <glyph glyph-name="unica" unicode="&#xca;" d="M36 0L224 700L717 700L704 652L263 652L189 377L585 377L572 329L176 329L101 48L547 48L534 0L36 0M355 765L488 887L528 887L595 765L551 765L499 833L403 765L355 765Z"  horiz-adv-x="649" vert-adv-y="1000"  />

      
      <glyph glyph-name="unicb" unicode="&#xcb;" d="M36 0L224 700L717 700L704 652L263 652L189 377L585 377L572 329L176 329L101 48L547 48L534 0L36 0M365 765L387 845L456 845L434 765L365 765M528 765L550 845L619 845L597 765L528 765Z"  horiz-adv-x="649" vert-adv-y="1000"  />

      
      <glyph glyph-name="unicc" unicode="&#xcc;" d="M43 0L231 700L283 700L95 0L43 0M264 765L185 868L247 898L299 765L264 765Z"  horiz-adv-x="274" vert-adv-y="1000"  />

      
      <glyph glyph-name="unicd" unicode="&#xcd;" d="M43 0L231 700L283 700L95 0L43 0M232 765L356 898L418 868L283 765L232 765Z"  horiz-adv-x="274" vert-adv-y="1000"  />

      
      <glyph glyph-name="unice" unicode="&#xce;" d="M43 0L231 700L283 700L95 0L43 0M148 765L281 887L321 887L388 765L344 765L292 833L196 765L148 765Z"  horiz-adv-x="274" vert-adv-y="1000"  />

      
      <glyph glyph-name="unicf" unicode="&#xcf;" d="M43 0L231 700L283 700L95 0L43 0M159 765L181 845L250 845L228 765L159 765M322 765L344 845L413 845L391 765L322 765Z"  horiz-adv-x="274" vert-adv-y="1000"  />

      
      <glyph glyph-name="unid0" unicode="&#xd0;" d="M66 0L154 328L79 328L92 376L167 376L254 700L411 700Q589 700 683 606Q760 529 760 406Q760 244 651 135Q587 71 494.50 35.50Q402 0 295 0L66 0M131 48L302 48Q492 48 612 168Q706 262 706 402Q706 510 641 573Q562 652 408 652L293 652L219 376L451 376L438 328L206 328L131 48Z"  horiz-adv-x="801" vert-adv-y="1000"  />

      
      <glyph glyph-name="unid1" unicode="&#xd1;" d="M36 0L224 700L272 700L587 87L752 700L802 700L614 0L576 0L254 626L86 0L36 0M407 763L369 778Q394 828 418 851Q442 874 473 874Q493 874 506.50 866Q520 858 540 839Q571 809 588 809Q603 809 615.50 822.50Q628 836 647 869L685 854Q660 804 636 781Q612 758 581 758Q561 758 547.50 766Q534 774 514 793Q483 823 466 823Q451 823 438.50 809.50Q426 796 407 763Z"  horiz-adv-x="786" vert-adv-y="1000"  />

      
      <glyph glyph-name="unid2" unicode="&#xd2;" d="M398-13Q267-13 181.50 73.50Q96 160 96 288Q96 396 149.50 494Q203 592 296.50 652Q390 712 499 712Q630 712 715.50 625.50Q801 539 801 411Q801 303 747.50 205Q694 107 600.50 47Q507-13 398-13M398 34Q494 34 575 88Q656 142 701.50 228.50Q747 315 747 411Q747 520 678 592.50Q609 665 499 665Q403 665 322 611Q241 557 195.50 470.50Q150 384 150 288Q150 179 219 106.50Q288 34 398 34M546 765L467 868L529 898L581 765L546 765Z"  horiz-adv-x="846" vert-adv-y="1000"  />

      
      <glyph glyph-name="unid3" unicode="&#xd3;" d="M398-13Q267-13 181.50 73.50Q96 160 96 288Q96 396 149.50 494Q203 592 296.50 652Q390 712 499 712Q630 712 715.50 625.50Q801 539 801 411Q801 303 747.50 205Q694 107 600.50 47Q507-13 398-13M398 34Q494 34 575 88Q656 142 701.50 228.50Q747 315 747 411Q747 520 678 592.50Q609 665 499 665Q403 665 322 611Q241 557 195.50 470.50Q150 384 150 288Q150 179 219 106.50Q288 34 398 34M469 765L593 898L655 868L520 765L469 765Z"  horiz-adv-x="846" vert-adv-y="1000"  />

      
      <glyph glyph-name="unid4" unicode="&#xd4;" d="M398-13Q267-13 181.50 73.50Q96 160 96 288Q96 396 149.50 494Q203 592 296.50 652Q390 712 499 712Q630 712 715.50 625.50Q801 539 801 411Q801 303 747.50 205Q694 107 600.50 47Q507-13 398-13M398 34Q494 34 575 88Q656 142 701.50 228.50Q747 315 747 411Q747 520 678 592.50Q609 665 499 665Q403 665 322 611Q241 557 195.50 470.50Q150 384 150 288Q150 179 219 106.50Q288 34 398 34M420 765L553 887L593 887L660 765L616 765L564 833L468 765L420 765Z"  horiz-adv-x="846" vert-adv-y="1000"  />

      
      <glyph glyph-name="unid5" unicode="&#xd5;" d="M398-13Q267-13 181.50 73.50Q96 160 96 288Q96 396 149.50 494Q203 592 296.50 652Q390 712 499 712Q630 712 715.50 625.50Q801 539 801 411Q801 303 747.50 205Q694 107 600.50 47Q507-13 398-13M398 34Q494 34 575 88Q656 142 701.50 228.50Q747 315 747 411Q747 520 678 592.50Q609 665 499 665Q403 665 322 611Q241 557 195.50 470.50Q150 384 150 288Q150 179 219 106.50Q288 34 398 34M421 763L383 778Q408 828 432 851Q456 874 487 874Q507 874 520.50 866Q534 858 554 839Q585 809 602 809Q617 809 629.50 822.50Q642 836 661 869L699 854Q674 804 650 781Q626 758 595 758Q575 758 561.50 766Q548 774 528 793Q497 823 480 823Q465 823 452.50 809.50Q440 796 421 763Z"  horiz-adv-x="846" vert-adv-y="1000"  />

      
      <glyph glyph-name="unid6" unicode="&#xd6;" d="M398-13Q267-13 181.50 73.50Q96 160 96 288Q96 396 149.50 494Q203 592 296.50 652Q390 712 499 712Q630 712 715.50 625.50Q801 539 801 411Q801 303 747.50 205Q694 107 600.50 47Q507-13 398-13M398 34Q494 34 575 88Q656 142 701.50 228.50Q747 315 747 411Q747 520 678 592.50Q609 665 499 665Q403 665 322 611Q241 557 195.50 470.50Q150 384 150 288Q150 179 219 106.50Q288 34 398 34M421 765L443 845L512 845L490 765L421 765M584 765L606 845L675 845L653 765L584 765Z"  horiz-adv-x="846" vert-adv-y="1000"  />

      
      <glyph glyph-name="unid7" unicode="&#xd7;" d="M589 154L552 117L355 315L159 117L122 154L319 351L122 548L159 585L355 387L552 585L589 548L392 351L589 154Z"  horiz-adv-x="640" vert-adv-y="1000"  />

      
      <glyph glyph-name="unid8" unicode="&#xd8;" d="M398-13Q254-13 166 90L52-5L-17-5L140 126Q96 200 96 288Q96 396 149.50 494Q203 592 296.50 652Q390 712 499 712Q639 712 726 615L833 705L902 705L753 580Q801 503 801 411Q801 303 747.50 205Q694 107 600.50 47Q507-13 398-13M398 34Q494 34 575 88Q656 142 701.50 228.50Q747 315 747 411Q747 487 713 547L204 122Q273 34 398 34M180 159L688 583Q617 665 499 665Q403 665 322 611Q241 557 195.50 470.50Q150 384 150 288Q150 216 180 159Z"  horiz-adv-x="846" vert-adv-y="1000"  />

      
      <glyph glyph-name="unid9" unicode="&#xd9;" d="M348-11Q226-11 161 50Q96 111 96 209Q96 263 110 317L212 700L264 700L156 293Q147 257 147 213Q147 134 199 85Q251 36 352 36Q451 36 523 108Q588 173 621 294L730 700L782 700L670 283Q635 153 559 77Q471-11 348-11M506 765L427 868L489 898L541 765L506 765Z"  horiz-adv-x="756" vert-adv-y="1000"  />

      
      <glyph glyph-name="unida" unicode="&#xda;" d="M348-11Q226-11 161 50Q96 111 96 209Q96 263 110 317L212 700L264 700L156 293Q147 257 147 213Q147 134 199 85Q251 36 352 36Q451 36 523 108Q588 173 621 294L730 700L782 700L670 283Q635 153 559 77Q471-11 348-11M439 765L563 898L625 868L490 765L439 765Z"  horiz-adv-x="756" vert-adv-y="1000"  />

      
      <glyph glyph-name="unidb" unicode="&#xdb;" d="M348-11Q226-11 161 50Q96 111 96 209Q96 263 110 317L212 700L264 700L156 293Q147 257 147 213Q147 134 199 85Q251 36 352 36Q451 36 523 108Q588 173 621 294L730 700L782 700L670 283Q635 153 559 77Q471-11 348-11M387 765L520 887L560 887L627 765L583 765L531 833L435 765L387 765Z"  horiz-adv-x="756" vert-adv-y="1000"  />

      
      <glyph glyph-name="unidc" unicode="&#xdc;" d="M348-11Q226-11 161 50Q96 111 96 209Q96 263 110 317L212 700L264 700L156 293Q147 257 147 213Q147 134 199 85Q251 36 352 36Q451 36 523 108Q588 173 621 294L730 700L782 700L670 283Q635 153 559 77Q471-11 348-11M392 765L414 845L483 845L461 765L392 765M555 765L577 845L646 845L624 765L555 765Z"  horiz-adv-x="756" vert-adv-y="1000"  />

      
      <glyph glyph-name="unidd" unicode="&#xdd;" d="M234 0L310 284L127 700L184 700L345 324L709 700L779 700L358 271L286 0L234 0M395 765L519 898L581 868L446 765L395 765Z"  horiz-adv-x="668" vert-adv-y="1000"  />

      
      <glyph glyph-name="unide" unicode="&#xde;" d="M36 0L224 700L275 700L242 573L408 573Q538 573 601 510Q649 462 649 385Q649 267 556 201Q463 135 303 135L125 135L88 0L36 0M137 182L305 182Q446 182 521.50 234.50Q597 287 597 383Q597 440 561 476Q512 525 407 525L229 525L137 182Z"  horiz-adv-x="668" vert-adv-y="1000"  />

      
      <glyph glyph-name="unidf" unicode="&#xdf;" d="M220-2L232 42Q362 43 427.50 88.50Q493 134 493 202Q493 309 312 342L324 387Q546 439 546 574Q546 626 509 658.50Q472 691 408 691Q335 691 282.50 636.50Q230 582 204 485L74 0L25 0L159 500Q188 609 246 667Q316 737 412 737Q493 737 546 691.50Q599 646 599 576Q599 424 387 365Q546 323 546 201Q546 112 458 54.50Q370-3 220-2Z"  horiz-adv-x="620" vert-adv-y="1000"  />

      
      <glyph glyph-name="unie0" unicode="&#xe0;" d="M190-12Q121-12 72 25.50Q23 63 23 131Q23 215 87 265.50Q151 316 253 316Q343 316 449 287L453 301Q460 327 460 352Q460 410 420.50 441Q381 472 306 472Q236 472 158 445L149 489Q230 518 310 518Q403 518 455.50 475.50Q508 433 508 359Q508 330 498 292L420 0L372 0L395 88Q311-12 190-12M199 33Q274 33 340.50 80.50Q407 128 427 203L439 248Q343 272 246 272Q170 272 122.50 234.50Q75 197 75 137Q75 90 108.50 61.50Q142 33 199 33M363 595L284 698L346 728L398 595L363 595Z"  horiz-adv-x="571" vert-adv-y="1000"  />

      
      <glyph glyph-name="unie1" unicode="&#xe1;" d="M190-12Q121-12 72 25.50Q23 63 23 131Q23 215 87 265.50Q151 316 253 316Q343 316 449 287L453 301Q460 327 460 352Q460 410 420.50 441Q381 472 306 472Q236 472 158 445L149 489Q230 518 310 518Q403 518 455.50 475.50Q508 433 508 359Q508 330 498 292L420 0L372 0L395 88Q311-12 190-12M199 33Q274 33 340.50 80.50Q407 128 427 203L439 248Q343 272 246 272Q170 272 122.50 234.50Q75 197 75 137Q75 90 108.50 61.50Q142 33 199 33M301 595L425 728L487 698L352 595L301 595Z"  horiz-adv-x="571" vert-adv-y="1000"  />

      
      <glyph glyph-name="unie2" unicode="&#xe2;" d="M190-12Q121-12 72 25.50Q23 63 23 131Q23 215 87 265.50Q151 316 253 316Q343 316 449 287L453 301Q460 327 460 352Q460 410 420.50 441Q381 472 306 472Q236 472 158 445L149 489Q230 518 310 518Q403 518 455.50 475.50Q508 433 508 359Q508 330 498 292L420 0L372 0L395 88Q311-12 190-12M199 33Q274 33 340.50 80.50Q407 128 427 203L439 248Q343 272 246 272Q170 272 122.50 234.50Q75 197 75 137Q75 90 108.50 61.50Q142 33 199 33M246 595L379 717L419 717L486 595L442 595L390 663L294 595L246 595Z"  horiz-adv-x="571" vert-adv-y="1000"  />

      
      <glyph glyph-name="unie3" unicode="&#xe3;" d="M190-12Q121-12 72 25.50Q23 63 23 131Q23 215 87 265.50Q151 316 253 316Q343 316 449 287L453 301Q460 327 460 352Q460 410 420.50 441Q381 472 306 472Q236 472 158 445L149 489Q230 518 310 518Q403 518 455.50 475.50Q508 433 508 359Q508 330 498 292L420 0L372 0L395 88Q311-12 190-12M199 33Q274 33 340.50 80.50Q407 128 427 203L439 248Q343 272 246 272Q170 272 122.50 234.50Q75 197 75 137Q75 90 108.50 61.50Q142 33 199 33M258 593L220 608Q245 658 269 681Q293 704 324 704Q344 704 357.50 696Q371 688 391 669Q422 639 439 639Q454 639 466.50 653Q479 667 498 699L536 684Q511 634 487 611Q463 588 432 588Q412 588 398.50 596Q385 604 365 623Q334 653 317 653Q302 653 289.50 639Q277 625 258 593Z"  horiz-adv-x="571" vert-adv-y="1000"  />

      
      <glyph glyph-name="unie4" unicode="&#xe4;" d="M190-12Q121-12 72 25.50Q23 63 23 131Q23 215 87 265.50Q151 316 253 316Q343 316 449 287L453 301Q460 327 460 352Q460 410 420.50 441Q381 472 306 472Q236 472 158 445L149 489Q230 518 310 518Q403 518 455.50 475.50Q508 433 508 359Q508 330 498 292L420 0L372 0L395 88Q311-12 190-12M199 33Q274 33 340.50 80.50Q407 128 427 203L439 248Q343 272 246 272Q170 272 122.50 234.50Q75 197 75 137Q75 90 108.50 61.50Q142 33 199 33M248 595L270 675L339 675L317 595L248 595M411 595L433 675L502 675L480 595L411 595Z"  horiz-adv-x="571" vert-adv-y="1000"  />

      
      <glyph glyph-name="unie5" unicode="&#xe5;" d="M190-12Q121-12 72 25.50Q23 63 23 131Q23 215 87 265.50Q151 316 253 316Q343 316 449 287L453 301Q460 327 460 352Q460 410 420.50 441Q381 472 306 472Q236 472 158 445L149 489Q230 518 310 518Q403 518 455.50 475.50Q508 433 508 359Q508 330 498 292L420 0L372 0L395 88Q311-12 190-12M199 33Q274 33 340.50 80.50Q407 128 427 203L439 248Q343 272 246 272Q170 272 122.50 234.50Q75 197 75 137Q75 90 108.50 61.50Q142 33 199 33M384 595Q342 595 315 618Q288 641 288 677Q288 719 319.50 749Q351 779 394 779Q436 779 463 756Q490 733 490 697Q490 655 458.50 625Q427 595 384 595M339.50 641Q339.50 641 347.25 634Q355 627 384 627Q413 627 433.50 647.50Q454 668 454 697Q454 719 438.50 733Q423 747 394 747Q365 747 344.50 726.50Q324 706 324 677Q324 655 339.50 641Z"  horiz-adv-x="571" vert-adv-y="1000"  />

      
      <glyph glyph-name="unie6" unicode="&#xe6;" d="M200-12Q123-12 73 27Q23 66 23 136Q23 218 89 267Q155 316 257 316Q354 316 449 287L453 301Q460 327 460 352Q460 410 420.50 441Q381 472 306 472Q236 472 158 445L149 489Q230 518 310 518Q390 518 440.50 486Q491 454 504 397Q546 454 604.50 488Q663 522 729 522Q821 522 871.50 466Q922 410 922 327Q922 278 908 238L489 238Q487 216 487 204Q487 127 534 80.50Q581 34 656 34Q747 34 830 102L859 67Q764-12 659-12Q584-12 531.50 21.50Q479 55 455 113Q335-12 200-12M204 33Q327 33 442 158Q438 178 438 206Q438 228 441 249Q360 272 250 272Q174 272 124.50 235Q75 198 75 142Q75 92 109 62.50Q143 33 204 33M498 282L868 282Q872 300 872 324Q872 390 835.50 433.50Q799 477 728 477Q646 477 583.50 421Q521 365 498 282Z"  horiz-adv-x="965" vert-adv-y="1000"  />

      
      <glyph glyph-name="unie7" unicode="&#xe7;" d="M166-148L118-122L226-8Q151 7 100.50 64Q50 121 50 208Q50 334 139.50 428Q229 522 350 522Q423 522 473.50 487Q524 452 550 399L509 376Q452 476 347 476Q250 476 176.50 396Q103 316 103 211Q103 129 153.50 81.50Q204 34 275 34Q362 34 440 107L473 75Q383-12 272-12L269-12L166-148Z"  horiz-adv-x="563" vert-adv-y="1000"  />

      
      <glyph glyph-name="unie8" unicode="&#xe8;" d="M272-12Q174-12 112 48Q50 108 50 202Q50 325 137 423.50Q224 522 345 522Q437 522 487.50 466Q538 410 538 327Q538 278 524 238L105 238Q103 216 103 204Q103 127 150 80.50Q197 34 272 34Q363 34 446 102L475 67Q380-12 272-12M114 282L484 282Q488 300 488 324Q488 390 451.50 433.50Q415 477 344 477Q262 477 199.50 421Q137 365 114 282M367 595L288 698L350 728L402 595L367 595Z"  horiz-adv-x="583" vert-adv-y="1000"  />

      
      <glyph glyph-name="unie9" unicode="&#xe9;" d="M272-12Q174-12 112 48Q50 108 50 202Q50 325 137 423.50Q224 522 345 522Q437 522 487.50 466Q538 410 538 327Q538 278 524 238L105 238Q103 216 103 204Q103 127 150 80.50Q197 34 272 34Q363 34 446 102L475 67Q380-12 272-12M114 282L484 282Q488 300 488 324Q488 390 451.50 433.50Q415 477 344 477Q262 477 199.50 421Q137 365 114 282M310 595L434 728L496 698L361 595L310 595Z"  horiz-adv-x="583" vert-adv-y="1000"  />

      
      <glyph glyph-name="uniea" unicode="&#xea;" d="M272-12Q174-12 112 48Q50 108 50 202Q50 325 137 423.50Q224 522 345 522Q437 522 487.50 466Q538 410 538 327Q538 278 524 238L105 238Q103 216 103 204Q103 127 150 80.50Q197 34 272 34Q363 34 446 102L475 67Q380-12 272-12M114 282L484 282Q488 300 488 324Q488 390 451.50 433.50Q415 477 344 477Q262 477 199.50 421Q137 365 114 282M244 595L377 717L417 717L484 595L440 595L388 663L292 595L244 595Z"  horiz-adv-x="583" vert-adv-y="1000"  />

      
      <glyph glyph-name="unieb" unicode="&#xeb;" d="M272-12Q174-12 112 48Q50 108 50 202Q50 325 137 423.50Q224 522 345 522Q437 522 487.50 466Q538 410 538 327Q538 278 524 238L105 238Q103 216 103 204Q103 127 150 80.50Q197 34 272 34Q363 34 446 102L475 67Q380-12 272-12M114 282L484 282Q488 300 488 324Q488 390 451.50 433.50Q415 477 344 477Q262 477 199.50 421Q137 365 114 282M252 595L274 675L343 675L321 595L252 595M415 595L437 675L506 675L484 595L415 595Z"  horiz-adv-x="583" vert-adv-y="1000"  />

      
      <glyph glyph-name="uniec" unicode="&#xec;" d="M32 0L169 510L218 510L81 0L32 0M180 595L101 698L163 728L215 595L180 595Z"  horiz-adv-x="250" vert-adv-y="1000"  />

      
      <glyph glyph-name="unied" unicode="&#xed;" d="M32 0L169 510L218 510L81 0L32 0M181 595L305 728L367 698L232 595L181 595Z"  horiz-adv-x="250" vert-adv-y="1000"  />

      
      <glyph glyph-name="uniee" unicode="&#xee;" d="M32 0L169 510L218 510L81 0L32 0M87 595L220 717L260 717L327 595L283 595L231 663L135 595L87 595Z"  horiz-adv-x="250" vert-adv-y="1000"  />

      
      <glyph glyph-name="unief" unicode="&#xef;" d="M32 0L169 510L218 510L81 0L32 0M96 595L118 675L187 675L165 595L96 595M259 595L281 675L350 675L328 595L259 595Z"  horiz-adv-x="250" vert-adv-y="1000"  />

      
      <glyph glyph-name="unif0" unicode="&#xf0;" d="M271-11Q175-11 111 50.50Q47 112 47 202Q47 318 131.50 401.50Q216 485 327 485Q419 485 481 432L399 627L245 559L223 599L381 669L355 730L414 730L430 690L541 739L563 699L447 648L520 464Q567 346 567 274Q567 162 482 75.50Q397-11 271-11M276 35Q373 35 443.50 105Q514 175 514 272Q514 343 463.50 392Q413 441 328 441Q235 441 167.50 370.50Q100 300 100 205Q100 127 149 81Q198 35 276 35Z"  horiz-adv-x="616" vert-adv-y="1000"  />

      
      <glyph glyph-name="unif1" unicode="&#xf1;" d="M25 0L161 510L210 510L185 415Q274 522 378 522Q454 522 499.50 477.50Q545 433 545 360Q545 332 534 288L458 0L409 0L487 292Q495 322 495 355Q495 412 460 445Q425 478 364 478Q297 478 235 424Q173 370 151 288L74 0L25 0M278 593L240 608Q265 658 289 681Q313 704 344 704Q364 704 377.50 696Q391 688 411 669Q442 639 459 639Q474 639 486.50 653Q499 667 518 699L556 684Q531 634 507 611Q483 588 452 588Q432 588 418.50 596Q405 604 385 623Q354 653 337 653Q322 653 309.50 639Q297 625 278 593Z"  horiz-adv-x="611" vert-adv-y="1000"  />

      
      <glyph glyph-name="unif2" unicode="&#xf2;" d="M278-12Q177-12 114 51.50Q51 115 51 214Q51 336 142 429Q233 522 354 522Q455 522 518 458.50Q581 395 581 296Q581 172 489 80Q397-12 278-12M283 34Q378 34 453 112Q528 190 528 294Q528 379 479 427.50Q430 476 349 476Q252 476 178 397Q104 318 104 216Q104 131 153 82.50Q202 34 283 34M378 595L299 698L361 728L413 595L378 595Z"  horiz-adv-x="633" vert-adv-y="1000"  />

      
      <glyph glyph-name="unif3" unicode="&#xf3;" d="M278-12Q177-12 114 51.50Q51 115 51 214Q51 336 142 429Q233 522 354 522Q455 522 518 458.50Q581 395 581 296Q581 172 489 80Q397-12 278-12M283 34Q378 34 453 112Q528 190 528 294Q528 379 479 427.50Q430 476 349 476Q252 476 178 397Q104 318 104 216Q104 131 153 82.50Q202 34 283 34M322 595L446 728L508 698L373 595L322 595Z"  horiz-adv-x="633" vert-adv-y="1000"  />

      
      <glyph glyph-name="unif4" unicode="&#xf4;" d="M278-12Q177-12 114 51.50Q51 115 51 214Q51 336 142 429Q233 522 354 522Q455 522 518 458.50Q581 395 581 296Q581 172 489 80Q397-12 278-12M283 34Q378 34 453 112Q528 190 528 294Q528 379 479 427.50Q430 476 349 476Q252 476 178 397Q104 318 104 216Q104 131 153 82.50Q202 34 283 34M278 595L411 717L451 717L518 595L474 595L422 663L326 595L278 595Z"  horiz-adv-x="633" vert-adv-y="1000"  />

      
      <glyph glyph-name="unif5" unicode="&#xf5;" d="M278-12Q177-12 114 51.50Q51 115 51 214Q51 336 142 429Q233 522 354 522Q455 522 518 458.50Q581 395 581 296Q581 172 489 80Q397-12 278-12M283 34Q378 34 453 112Q528 190 528 294Q528 379 479 427.50Q430 476 349 476Q252 476 178 397Q104 318 104 216Q104 131 153 82.50Q202 34 283 34M282 593L244 608Q269 658 293 681Q317 704 348 704Q368 704 381.50 696Q395 688 415 669Q446 639 463 639Q478 639 490.50 653Q503 667 522 699L560 684Q535 634 511 611Q487 588 456 588Q436 588 422.50 596Q409 604 389 623Q358 653 341 653Q326 653 313.50 639Q301 625 282 593Z"  horiz-adv-x="633" vert-adv-y="1000"  />

      
      <glyph glyph-name="unif6" unicode="&#xf6;" d="M278-12Q177-12 114 51.50Q51 115 51 214Q51 336 142 429Q233 522 354 522Q455 522 518 458.50Q581 395 581 296Q581 172 489 80Q397-12 278-12M283 34Q378 34 453 112Q528 190 528 294Q528 379 479 427.50Q430 476 349 476Q252 476 178 397Q104 318 104 216Q104 131 153 82.50Q202 34 283 34M269 595L291 675L360 675L338 595L269 595M432 595L454 675L523 675L501 595L432 595Z"  horiz-adv-x="633" vert-adv-y="1000"  />

      
      <glyph glyph-name="unif7" unicode="&#xf7;" d="M123 328L137 379L591 379L577 328L123 328M264 129L287 214L353 214L330 129L264 129M362 493L384 578L450 578L428 493L362 493Z"  horiz-adv-x="640" vert-adv-y="1000"  />

      
      <glyph glyph-name="unif8" unicode="&#xf8;" d="M278-12Q174-12 109 58L32-5L-35-5L83 91Q51 144 51 214Q51 336 142 429Q233 522 354 522Q459 522 523 453L602 517L669 517L549 419Q581 366 581 296Q581 172 489 80Q397-12 278-12M283 34Q378 34 453 112Q528 190 528 294Q528 345 509 386L146 88Q194 34 283 34M123 124L486 422Q437 476 349 476Q252 476 178 397Q104 318 104 216Q104 165 123 124Z"  horiz-adv-x="633" vert-adv-y="1000"  />

      
      <glyph glyph-name="unif9" unicode="&#xf9;" d="M231-12Q155-12 109.50 32.50Q64 77 64 150Q64 178 75 222L151 510L200 510L122 218Q114 188 114 155Q114 98 149 65Q184 32 245 32Q312 32 374 86Q436 140 458 222L535 510L584 510L448 0L399 0L424 95Q335-12 231-12M370 595L291 698L353 728L405 595L370 595Z"  horiz-adv-x="609" vert-adv-y="1000"  />

      
      <glyph glyph-name="unifa" unicode="&#xfa;" d="M231-12Q155-12 109.50 32.50Q64 77 64 150Q64 178 75 222L151 510L200 510L122 218Q114 188 114 155Q114 98 149 65Q184 32 245 32Q312 32 374 86Q436 140 458 222L535 510L584 510L448 0L399 0L424 95Q335-12 231-12M330 595L454 728L516 698L381 595L330 595Z"  horiz-adv-x="609" vert-adv-y="1000"  />

      
      <glyph glyph-name="unifb" unicode="&#xfb;" d="M231-12Q155-12 109.50 32.50Q64 77 64 150Q64 178 75 222L151 510L200 510L122 218Q114 188 114 155Q114 98 149 65Q184 32 245 32Q312 32 374 86Q436 140 458 222L535 510L584 510L448 0L399 0L424 95Q335-12 231-12M263 595L396 717L436 717L503 595L459 595L407 663L311 595L263 595Z"  horiz-adv-x="609" vert-adv-y="1000"  />

      
      <glyph glyph-name="unifc" unicode="&#xfc;" d="M231-12Q155-12 109.50 32.50Q64 77 64 150Q64 178 75 222L151 510L200 510L122 218Q114 188 114 155Q114 98 149 65Q184 32 245 32Q312 32 374 86Q436 140 458 222L535 510L584 510L448 0L399 0L424 95Q335-12 231-12M268 595L290 675L359 675L337 595L268 595M431 595L453 675L522 675L500 595L431 595Z"  horiz-adv-x="609" vert-adv-y="1000"  />

      
      <glyph glyph-name="unifd" unicode="&#xfd;" d="M20-163Q-38-163-88-128L-61-88Q-25-117 26-117Q66-117 104.50-89.50Q143-62 189 3L85 510L137 510L226 54L533 510L592 510L229-18Q175-96 125.50-129.50Q76-163 20-163M295 595L419 728L481 698L346 595L295 595Z"  horiz-adv-x="568" vert-adv-y="1000"  />

      
      <glyph glyph-name="unife" unicode="&#xfe;" d="M-18-160L221 730L270 730L183 410Q277 522 395 522Q484 522 542 461.50Q600 401 600 307Q600 173 514 80Q428-13 312-13Q233-13 182 27.50Q131 68 109 130L31-160L-18-160M310 33Q411 33 479 113Q547 193 547 301Q547 379 503 427.50Q459 476 389 476Q293 476 213.50 394Q134 312 134 211Q134 136 183.50 84.50Q233 33 310 33Z"  horiz-adv-x="654" vert-adv-y="1000"  />

      
      <glyph glyph-name="uniff" unicode="&#xff;" d="M20-163Q-38-163-88-128L-61-88Q-25-117 26-117Q66-117 104.50-89.50Q143-62 189 3L85 510L137 510L226 54L533 510L592 510L229-18Q175-96 125.50-129.50Q76-163 20-163M242 595L264 675L333 675L311 595L242 595M405 595L427 675L496 675L474 595L405 595Z"  horiz-adv-x="568" vert-adv-y="1000"  />

      
      <glyph glyph-name="uni0131" unicode="&#x0131;" d="M32 0L169 510L218 510L81 0L32 0Z"  horiz-adv-x="250" vert-adv-y="1000"  />

      
      <glyph glyph-name="uni0141" unicode="&#x0141;" d="M86 0L171 316L91 293L103 341L184 364L274 700L326 700L240 380L483 449L470 401L227 332L151 48L562 48L549 0L86 0Z"  horiz-adv-x="650" vert-adv-y="1000"  />

      
      <glyph glyph-name="uni0142" unicode="&#x0142;" d="M62 0L152 335L71 312L84 362L165 385L258 730L307 730L218 400L302 424L288 374L205 350L111 0L62 0Z"  horiz-adv-x="309" vert-adv-y="1000"  />

      
      <glyph glyph-name="uni0152" unicode="&#x0152;" d="M441 0Q263 0 169 94Q92 171 92 294Q92 456 201 565Q265 629 357.50 664.50Q450 700 557 700L1206 700L1193 652L763 652L689 377L1074 377L1061 329L676 329L601 48L1036 48L1023 0L441 0M444 48L549 48L711 652L550 652Q360 652 240 532Q146 438 146 298Q146 192 211 127Q290 48 444 48Z"  horiz-adv-x="1154" vert-adv-y="1000"  />

      
      <glyph glyph-name="uni0153" unicode="&#x0153;" d="M275-12Q178-12 114.50 52Q51 116 51 214Q51 336 142 429Q233 522 354 522Q438 522 493 476Q548 430 564 359Q652 522 810 522Q902 522 952.50 466Q1003 410 1003 327Q1003 278 989 238L570 238Q568 216 568 204Q568 127 615 80.50Q662 34 737 34Q828 34 911 102L940 67Q845-12 740-12Q659-12 602 30.50Q545 73 529 143Q488 75 423 31.50Q358-12 275-12M283 34Q377 34 452.50 111Q528 188 528 289Q528 377 479 426.50Q430 476 349 476Q252 476 178 397Q104 318 104 216Q104 131 153 82.50Q202 34 283 34M579 282L949 282Q953 300 953 324Q953 390 916.50 433.50Q880 477 809 477Q727 477 664.50 421Q602 365 579 282Z"  horiz-adv-x="1046" vert-adv-y="1000"  />

      
      <glyph glyph-name="uni0160" unicode="&#x0160;" d="M299-10Q115-10 20 124L60 153Q106 94 164 65.50Q222 37 304 37Q390 37 448 80.50Q506 124 506 190Q506 236 472 267Q438 298 353 331Q242 374 197.50 414Q153 454 153 517Q153 598 223 654Q293 710 404 710Q480 710 543.50 680.50Q607 651 647 603L607 571Q527 663 399 663Q312 663 259 621Q206 579 206 521Q206 474 244 443.50Q282 413 373 378Q473 340 516 298.50Q559 257 559 194Q559 108 485 49Q411-10 299-10M420 765L353 887L397 887L449 819L545 887L593 887L460 765L420 765Z"  horiz-adv-x="638" vert-adv-y="1000"  />

      
      <glyph glyph-name="uni0161" unicode="&#x0161;" d="M217-11Q89-11 1 77L36 112Q117 34 223 34Q274 34 314.50 62.50Q355 91 355 135Q355 166 331.50 189Q308 212 244 236Q168 264 134.50 294.50Q101 325 101 373Q101 435 153.50 478Q206 521 290 521Q393 521 474 453L442 416Q369 476 285 476Q224 476 188.50 448Q153 420 153 381Q153 350 176 329Q199 308 268 281Q344 251 375.50 220Q407 189 407 143Q407 77 351 33Q295-11 217-11M308 595L241 717L285 717L337 649L433 717L481 717L348 595L308 595Z"  horiz-adv-x="495" vert-adv-y="1000"  />

      
      <glyph glyph-name="uni0178" unicode="&#x0178;" d="M234 0L310 284L127 700L184 700L345 324L709 700L779 700L358 271L286 0L234 0M343 765L365 845L434 845L412 765L343 765M506 765L528 845L597 845L575 765L506 765Z"  horiz-adv-x="668" vert-adv-y="1000"  />

      
      <glyph glyph-name="uni017D" unicode="&#x017D;" d="M-19 0L-11 29L625 653L173 653L186 700L719 700L711 671L75 47L547 47L534 0L-19 0M426 765L359 887L403 887L455 819L551 887L599 887L466 765L426 765Z"  horiz-adv-x="662" vert-adv-y="1000"  />

      
      <glyph glyph-name="uni017E" unicode="&#x017E;" d="M-17 0L-9 28L466 466L122 466L134 510L558 510L550 482L75 44L436 44L424 0L-17 0M330 595L263 717L307 717L359 649L455 717L503 717L370 595L330 595Z"  horiz-adv-x="546" vert-adv-y="1000"  />

      
      <glyph glyph-name="uni0192" unicode="&#x0192;" d="M33-10Q3-10-23-2L-10 41Q11 34 37 34Q72 34 98.50 59.50Q125 85 150 141L257 384L150 384L162 429L276 429L335 563Q399 710 513 710Q556 710 596 695L581 653Q544 666 511 666Q431 666 380 551L326 429L488 429L476 384L307 384L195 129Q162 53 123.50 21.50Q85-10 33-10Z"  horiz-adv-x="526" vert-adv-y="1000"  />

      
      <glyph glyph-name="uni02C6" unicode="&#x02C6;" d="M222 595L355 717L395 717L462 595L418 595L366 663L270 595L222 595Z"  horiz-adv-x="500" vert-adv-y="1000"  />

      
      <glyph glyph-name="uni02C7" unicode="&#x02C7;" d="M321 595L254 717L298 717L350 649L446 717L494 717L361 595L321 595Z"  horiz-adv-x="500" vert-adv-y="1000"  />

      
      <glyph glyph-name="uni02D8" unicode="&#x02D8;" d="M339 593Q291 593 263 617Q235 641 235 684Q235 700 239 717L279 717Q279 680 294.50 662Q310 644 350 644Q420 644 459 717L505 717Q486 659 440.50 626Q395 593 339 593Z"  horiz-adv-x="500" vert-adv-y="1000"  />

      
      <glyph glyph-name="uni02D9" unicode="&#x02D9;" d="M307 593L330 678L396 678L373 593L307 593Z"  horiz-adv-x="500" vert-adv-y="1000"  />

      
      <glyph glyph-name="uni02DA" unicode="&#x02DA;" d="M359 595Q317 595 290 618Q263 641 263 677Q263 719 294.50 749Q326 779 369 779Q411 779 438 756Q465 733 465 697Q465 655 433.50 625Q402 595 359 595M314.50 641Q314.50 641 322.25 634Q330 627 359 627Q388 627 408.50 647.50Q429 668 429 697Q429 719 413.50 733Q398 747 369 747Q340 747 319.50 726.50Q299 706 299 677Q299 655 314.50 641Z"  horiz-adv-x="500" vert-adv-y="1000"  />

      
      <glyph glyph-name="uni02DB" unicode="&#x02DB;" d="M226-164Q154-166 118-143.50Q82-121 82-82Q82-42 118 10L161 10Q136-38 136-72Q136-128 234-133L226-164Z"  horiz-adv-x="500" vert-adv-y="1000"  />

      
      <glyph glyph-name="uni02DC" unicode="&#x02DC;" d="M233 593L195 608Q220 658 244 681Q268 704 299 704Q319 704 332.50 696Q346 688 366 669Q397 639 414 639Q429 639 441.50 653Q454 667 473 699L511 684Q486 634 462 611Q438 588 407 588Q387 588 373.50 596Q360 604 340 623Q309 653 292 653Q277 653 264.50 639Q252 625 233 593Z"  horiz-adv-x="500" vert-adv-y="1000"  />

      
      <glyph glyph-name="uni02DD" unicode="&#x02DD;" d="M192 595L317 728L364 699L235 595L192 595M344 595L469 728L516 699L387 595L344 595Z"  horiz-adv-x="500" vert-adv-y="1000"  />

      
      <glyph glyph-name="uni03A9" unicode="&#x03A9;" d="M636 0L396 0L443 176Q553 194 626.50 273.50Q700 353 700 468Q700 551 640 604.50Q580 658 490 658Q360 658 263 573Q166 488 166 353Q166 285 201 234.50Q236 184 301 176L254 0L14 0L26 47L223 47L247 137Q183 156 147.50 217Q112 278 112 353Q112 457 168.50 540Q225 623 311.50 665Q398 707 495 707Q612 707 683.50 639Q755 571 755 469Q755 352 675.50 260Q596 168 475 137L451 47L648 47L636 0Z"  horiz-adv-x="792" vert-adv-y="1000"  />

      
      <glyph glyph-name="uni03C0" unicode="&#x03C0;" d="M0 0L0 700L500 700L500 0L0 0M81 49L420 49L250 304L81 49M49 96L220 350L49 604L49 96M450 96L450 604L279 350L450 96M250 395L420 650L81 650L250 395Z"  horiz-adv-x="500" vert-adv-y="1000"  />

      
      <glyph glyph-name="uni0401" unicode="&#x0401;" d="M36 0L224 700L717 700L704 652L263 652L189 377L585 377L572 329L176 329L101 48L547 48L534 0L36 0M365 765L387 845L456 845L434 765L365 765M528 765L550 845L619 845L597 765L528 765Z"  horiz-adv-x="649" vert-adv-y="1000"  />

      
      <glyph glyph-name="uni0402" unicode="&#x0402;" d="M492-12Q414-12 381 10L406 53Q440 35 494 35Q598 35 660 101Q722 167 722 266Q722 324 679.50 361.50Q637 399 573 399Q499 399 441.50 378Q384 357 313 306L231 0L179 0L354 652L140 652L153 700L693 700L680 652L406 652L328 362Q398 407 452.50 426.50Q507 446 577 446Q663 446 720 398Q777 350 777 268Q777 148 698 68Q619-12 492-12Z"  horiz-adv-x="832" vert-adv-y="1000"  />

      
      <glyph glyph-name="uni0403" unicode="&#x0403;" d="M36 0L223 700L660 700L648 652L263 652L88 0L36 0M382 765L506 898L568 868L433 765L382 765Z"  horiz-adv-x="582" vert-adv-y="1000"  />

      
      <glyph glyph-name="uni0404" unicode="&#x0404;" d="M378-13Q258-13 175 64.50Q92 142 92 271Q92 383 147.50 485Q203 587 300.50 649.50Q398 712 510 712Q595 712 657.50 676.50Q720 641 756 581L711 555Q639 665 507 665Q386 665 290 581.50Q194 498 160 377L531 377L518 329L150 329Q146 304 146 273Q146 164 212.50 99.50Q279 35 383 35Q457 35 512.50 61.50Q568 88 620 140L655 108Q539-13 378-13Z"  horiz-adv-x="738" vert-adv-y="1000"  />

      
      <glyph glyph-name="uni0405" unicode="&#x0405;" d="M299-10Q115-10 20 124L60 153Q106 94 164 65.50Q222 37 304 37Q390 37 448 80.50Q506 124 506 190Q506 236 472 267Q438 298 353 331Q242 374 197.50 414Q153 454 153 517Q153 598 223 654Q293 710 404 710Q480 710 543.50 680.50Q607 651 647 603L607 571Q527 663 399 663Q312 663 259 621Q206 579 206 521Q206 474 244 443.50Q282 413 373 378Q473 340 516 298.50Q559 257 559 194Q559 108 485 49Q411-10 299-10Z"  horiz-adv-x="638" vert-adv-y="1000"  />

      
      <glyph glyph-name="uni0406" unicode="&#x0406;" d="M43 0L231 700L283 700L95 0L43 0Z"  horiz-adv-x="274" vert-adv-y="1000"  />

      
      <glyph glyph-name="uni0407" unicode="&#x0407;" d="M43 0L231 700L283 700L95 0L43 0M153 765L175 845L244 845L222 765L153 765M316 765L338 845L407 845L385 765L316 765Z"  horiz-adv-x="274" vert-adv-y="1000"  />

      
      <glyph glyph-name="uni0408" unicode="&#x0408;" d="M196-10Q113-10 63.50 34Q14 78-5 151L41 167Q81 37 194 37Q269 37 321 89Q371 139 399 242L522 700L574 700L449 235Q418 118 356 56Q290-10 196-10Z"  horiz-adv-x="538" vert-adv-y="1000"  />

      
      <glyph glyph-name="uni0409" unicode="&#x0409;" d="M13-7Q-44-7-74 12L-48 53Q-26 41 15 41Q35 41 54 48Q73 55 104 85.50Q135 116 165 168.50Q195 221 233.50 323.50Q272 426 310 566L346 700L775 700L699 418L880 418Q1006 418 1066 358Q1111 313 1111 240Q1111 126 1021 63Q931 0 775 0L535 0L710 652L383 652L359 564Q320 417 280.50 310.50Q241 204 208 143.50Q175 83 139 48.50Q103 14 75 3.50Q47-7 13-7M600 48L777 48Q913 48 986 97Q1059 146 1059 238Q1059 291 1026 324Q980 370 879 370L686 370L600 48Z"  horiz-adv-x="1162" vert-adv-y="1000"  />

      
      <glyph glyph-name="uni040A" unicode="&#x040A;" d="M36 0L224 700L276 700L196 404L639 404L719 700L771 700L690 404L883 404Q1006 404 1064 346Q1107 303 1107 233Q1107 122 1019 61Q931 0 778 0L531 0L626 356L183 356L88 0L36 0M595 48L780 48Q913 48 984 95.50Q1055 143 1055 231Q1055 281 1024 312Q980 356 882 356L678 356L595 48Z"  horiz-adv-x="1158" vert-adv-y="1000"  />

      
      <glyph glyph-name="uni040B" unicode="&#x040B;" d="M179 0L354 652L140 652L153 700L693 700L680 652L406 652L331 373Q478 444 576 444Q664 444 716 407.50Q768 371 768 302Q768 273 760 245L695 0L643 0L710 250Q716 272 716 291Q716 342 679.50 370.50Q643 399 577 399Q468 399 318 324L231 0L179 0Z"  horiz-adv-x="848" vert-adv-y="1000"  />

      
      <glyph glyph-name="uni040C" unicode="&#x040C;" d="M36 0L224 700L276 700L154 245L714 700L791 700L402 387L614 0L554 0L359 357L135 175L88 0L36 0M414 765L538 898L600 868L465 765L414 765Z"  horiz-adv-x="714" vert-adv-y="1000"  />

      
      <glyph glyph-name="uni040E" unicode="&#x040E;" d="M119-12Q40-12 5 14L35 57Q71 37 121 37Q218 37 311 161L141 700L197 700L349 210L719 700L780 700L357 142Q241-12 119-12M558 796.50Q558 796.50 537 780.75Q516 765 464 765Q412 765 380 796.50Q348 828 346 878L388 887Q393 851 410.50 832.50Q428 814 465 814Q504 814 533 833.50Q562 853 576 887L616 878Q600 828 558 796.50Z"  horiz-adv-x="710" vert-adv-y="1000"  />

      
      <glyph glyph-name="uni040F" unicode="&#x040F;" d="M242-160L285 0L36 0L224 700L276 700L101 48L530 48L705 700L757 700L569 0L339 0L296-160L242-160Z"  horiz-adv-x="742" vert-adv-y="1000"  />

      
      <glyph glyph-name="uni0410" unicode="&#x0410;" d="M-34 0L481 705L531 705L668 0L615 0L579 196L166 196L24 0L-34 0M200 243L569 243L494 648L200 243Z"  horiz-adv-x="759" vert-adv-y="1000"  />

      
      <glyph glyph-name="uni0411" unicode="&#x0411;" d="M36 0L224 700L701 700L689 652L263 652L196 404L413 404Q536 404 594 346Q637 303 637 233Q637 122 549 61Q461 0 308 0L36 0M101 48L310 48Q443 48 514 95.50Q585 143 585 231Q585 281 554 312Q510 356 412 356L184 356L101 48Z"  horiz-adv-x="700" vert-adv-y="1000"  />

      
      <glyph glyph-name="uni0412" unicode="&#x0412;" d="M36 0L224 700L483 700Q579 700 636 657.50Q693 615 693 541Q693 467 641 417.50Q589 368 508 352Q568 336 605 300Q642 264 642 206Q642 115 563 57.50Q484 0 351 0L36 0M101 48L354 48Q463 48 526 90Q589 132 589 206Q589 265 538 297Q487 329 404 329L176 329L101 48M189 377L405 377Q511 377 575 421Q639 465 639 536Q639 593 596.50 622.50Q554 652 478 652L263 652L189 377Z"  horiz-adv-x="717" vert-adv-y="1000"  />

      
      <glyph glyph-name="uni0413" unicode="&#x0413;" d="M36 0L223 700L660 700L648 652L263 652L88 0L36 0Z"  horiz-adv-x="582" vert-adv-y="1000"  />

      
      <glyph glyph-name="uni0414" unicode="&#x0414;" d="M-100-160L-44 48L26 48Q180 206 271 533L317 700L746 700L571 48L666 48L600-160L556-160L599 0L-4 0L-56-160L-100-160M90 48L519 48L681 652L354 652L311 495Q273 353 215.50 236Q158 119 90 48Z"  horiz-adv-x="751" vert-adv-y="1000"  />

      
      <glyph glyph-name="uni0415" unicode="&#x0415;" d="M36 0L224 700L717 700L704 652L263 652L189 377L585 377L572 329L176 329L101 48L547 48L534 0L36 0Z"  horiz-adv-x="649" vert-adv-y="1000"  />

      
      <glyph glyph-name="uni0416" unicode="&#x0416;" d="M-43 0L359 404L169 700L229 700L511 254L630 700L682 700L565 260L1076 700L1149 700L791 397L979 0L920 0L750 362L545 189L495 0L443 0L494 195L386 362L27 0L-43 0Z"  horiz-adv-x="1072" vert-adv-y="1000"  />

      
      <glyph glyph-name="uni0417" unicode="&#x0417;" d="M260-12Q173-12 107.50 22.50Q42 57 7 114L52 141Q122 35 263 35Q352 35 408.50 79.50Q465 124 465 189Q465 258 409.50 294Q354 330 279 330L219 330L231 376L301 376Q404 376 470 419Q536 462 536 534Q536 593 490 628Q444 663 372 663Q270 663 182 594L150 629Q249 710 372 710Q464 710 527.50 663.50Q591 617 591 537Q591 460 535 412.50Q479 365 380 349Q442 331 481 291.50Q520 252 520 191Q520 105 444.50 46.50Q369-12 260-12Z"  horiz-adv-x="600" vert-adv-y="1000"  />

      
      <glyph glyph-name="uni0418" unicode="&#x0418;" d="M36 0L224 700L276 700L109 79L730 700L781 700L594 0L542 0L708 621L88 0L36 0Z"  horiz-adv-x="766" vert-adv-y="1000"  />

      
      <glyph glyph-name="uni0419" unicode="&#x0419;" d="M36 0L224 700L276 700L109 79L730 700L781 700L594 0L542 0L708 621L88 0L36 0M590 796.50Q590 796.50 569 780.75Q548 765 496 765Q444 765 412 796.50Q380 828 378 878L420 887Q425 851 442.50 832.50Q460 814 497 814Q536 814 565 833.50Q594 853 608 887L648 878Q632 828 590 796.50Z"  horiz-adv-x="766" vert-adv-y="1000"  />

      
      <glyph glyph-name="uni041A" unicode="&#x041A;" d="M36 0L224 700L276 700L154 245L714 700L791 700L402 387L614 0L554 0L359 357L135 175L88 0L36 0Z"  horiz-adv-x="714" vert-adv-y="1000"  />

      
      <glyph glyph-name="uni041B" unicode="&#x041B;" d="M13-7Q-44-7-74 12L-48 53Q-26 41 15 41Q35 41 54 48Q73 55 104 85.50Q135 116 165 168.50Q195 221 233.50 323.50Q272 426 310 566L346 700L775 700L587 0L535 0L710 652L383 652L359 564Q320 417 280.50 310.50Q241 204 208 143.50Q175 83 139 48.50Q103 14 75 3.50Q47-7 13-7Z"  horiz-adv-x="760" vert-adv-y="1000"  />

      
      <glyph glyph-name="uni041C" unicode="&#x041C;" d="M36 0L224 700L267 700L437 286L829 700L884 700L696 0L644 0L807 608L422 205L418 205L249 608L86 0L36 0Z"  horiz-adv-x="869" vert-adv-y="1000"  />

      
      <glyph glyph-name="uni041D" unicode="&#x041D;" d="M36 0L224 700L276 700L189 376L632 376L719 700L771 700L583 0L531 0L619 328L176 328L88 0L36 0Z"  horiz-adv-x="756" vert-adv-y="1000"  />

      
      <glyph glyph-name="uni041E" unicode="&#x041E;" d="M398-13Q267-13 181.50 73.50Q96 160 96 288Q96 396 149.50 494Q203 592 296.50 652Q390 712 499 712Q630 712 715.50 625.50Q801 539 801 411Q801 303 747.50 205Q694 107 600.50 47Q507-13 398-13M398 34Q494 34 575 88Q656 142 701.50 228.50Q747 315 747 411Q747 520 678 592.50Q609 665 499 665Q403 665 322 611Q241 557 195.50 470.50Q150 384 150 288Q150 179 219 106.50Q288 34 398 34Z"  horiz-adv-x="846" vert-adv-y="1000"  />

      
      <glyph glyph-name="uni041F" unicode="&#x041F;" d="M36 0L224 700L757 700L569 0L517 0L692 652L263 652L88 0L36 0Z"  horiz-adv-x="742" vert-adv-y="1000"  />

      
      <glyph glyph-name="uni0420" unicode="&#x0420;" d="M36 0L224 700L442 700Q572 700 635 637Q683 589 683 512Q683 394 590 328Q497 262 337 262L159 262L88 0L36 0M171 309L339 309Q480 309 555.50 361.50Q631 414 631 510Q631 567 595 603Q546 652 441 652L263 652L171 309Z"  horiz-adv-x="663" vert-adv-y="1000"  />

      
      <glyph glyph-name="uni0421" unicode="&#x0421;" d="M378-13Q258-13 175 64.50Q92 142 92 271Q92 383 147.50 485Q203 587 300.50 649.50Q398 712 510 712Q602 712 667.50 670.50Q733 629 767 561L722 537Q686 600 635.50 632.50Q585 665 507 665Q359 665 252.50 545Q146 425 146 273Q146 164 212.50 99.50Q279 35 383 35Q457 35 512.50 61.50Q568 88 620 140L655 108Q539-13 378-13Z"  horiz-adv-x="738" vert-adv-y="1000"  />

      
      <glyph glyph-name="uni0422" unicode="&#x0422;" d="M209 0L384 652L140 652L153 700L693 700L680 652L436 652L261 0L209 0Z"  horiz-adv-x="615" vert-adv-y="1000"  />

      
      <glyph glyph-name="uni0423" unicode="&#x0423;" d="M119-12Q40-12 5 14L35 57Q71 37 121 37Q218 37 311 161L141 700L197 700L349 210L719 700L780 700L357 142Q241-12 119-12Z"  horiz-adv-x="710" vert-adv-y="1000"  />

      
      <glyph glyph-name="uni0424" unicode="&#x0424;" d="M329-26L350 52Q218 53 144.50 128Q71 203 71 315Q71 452 177.50 551.50Q284 651 459 651L510 651L529 722L581 722L562 651Q694 650 767 574.50Q840 499 840 388Q840 251 733.50 151.50Q627 52 452 52L402 52L381-26L329-26M362 99L497 604L452 604Q302 604 213.50 522.50Q125 441 125 318Q125 221 187 160Q249 99 362 99M414 99L459 99Q609 99 697.50 180.50Q786 262 786 385Q786 482 724 543Q662 604 549 604L414 99Z"  horiz-adv-x="862" vert-adv-y="1000"  />

      
      <glyph glyph-name="uni0425" unicode="&#x0425;" d="M-23 0L343 362L157 700L213 700L380 392L690 700L757 700L405 353L597 0L541 0L368 323L44 0L-23 0Z"  horiz-adv-x="692" vert-adv-y="1000"  />

      
      <glyph glyph-name="uni0426" unicode="&#x0426;" d="M566-160L609 0L36 0L224 700L276 700L101 48L530 48L705 700L757 700L581 48L676 48L610-160L566-160Z"  horiz-adv-x="762" vert-adv-y="1000"  />

      
      <glyph glyph-name="uni0427" unicode="&#x0427;" d="M460 0L543 312Q396 241 308 241Q220 241 168 277.50Q116 314 116 383Q116 412 124 440L193 700L245 700L174 435Q168 412 168 394Q168 343 204.50 314.50Q241 286 307 286Q406 286 556 361L647 700L699 700L512 0L460 0Z"  horiz-adv-x="684" vert-adv-y="1000"  />

      
      <glyph glyph-name="uni0428" unicode="&#x0428;" d="M36 0L224 700L276 700L101 48L468 48L643 700L695 700L520 48L888 48L1064 700L1116 700L928 0L36 0Z"  horiz-adv-x="1101" vert-adv-y="1000"  />

      
      <glyph glyph-name="uni0429" unicode="&#x0429;" d="M926-160L969 0L36 0L224 700L276 700L101 48L468 48L643 700L695 700L520 48L888 48L1064 700L1116 700L941 48L1036 48L970-160L926-160Z"  horiz-adv-x="1121" vert-adv-y="1000"  />

      
      <glyph glyph-name="uni042A" unicode="&#x042A;" d="M156 0L331 652L140 652L153 700L396 700L320 418L501 418Q627 418 687 358Q732 313 732 240Q732 126 642 63Q552 0 396 0L156 0M221 48L398 48Q534 48 607 97Q680 146 680 238Q680 291 647 324Q601 370 500 370L307 370L221 48Z"  horiz-adv-x="783" vert-adv-y="1000"  />

      
      <glyph glyph-name="uni042B" unicode="&#x042B;" d="M36 0L224 700L276 700L200 418L381 418Q507 418 567 358Q612 313 612 240Q612 126 522 63Q432 0 276 0L36 0M101 48L278 48Q414 48 487 97Q560 146 560 238Q560 291 527 324Q481 370 380 370L187 370L101 48M646 0L833 700L885 700L698 0L646 0Z"  horiz-adv-x="870" vert-adv-y="1000"  />

      
      <glyph glyph-name="uni042C" unicode="&#x042C;" d="M36 0L224 700L276 700L200 418L381 418Q507 418 567 358Q612 313 612 240Q612 126 522 63Q432 0 276 0L36 0M101 48L278 48Q414 48 487 97Q560 146 560 238Q560 291 527 324Q481 370 380 370L187 370L101 48Z"  horiz-adv-x="663" vert-adv-y="1000"  />

      
      <glyph glyph-name="uni042D" unicode="&#x042D;" d="M285-13Q193-13 127.50 28.50Q62 70 28 138L73 162Q109 99 159.50 66.50Q210 34 288 34Q413 34 507 118.50Q601 203 629 329L266 329L279 377L637 377Q639 403 639 416Q639 526 572 595Q505 664 402 664Q328 664 272.50 637.50Q217 611 165 559L130 591Q246 712 407 712Q526 712 609.50 630Q693 548 693 418Q693 305 640 206.50Q587 108 492.50 47.50Q398-13 285-13Z"  horiz-adv-x="738" vert-adv-y="1000"  />

      
      <glyph glyph-name="uni042E" unicode="&#x042E;" d="M613-13Q488-13 411.50 69.50Q335 152 335 279Q335 302 338 328L176 328L88 0L36 0L224 700L276 700L188 376L345 376Q375 521 480.50 616.50Q586 712 718 712Q844 712 920 629.50Q996 547 996 420Q996 242 882 114.50Q768-13 613-13M613 34Q747 34 844 149Q941 264 941 420Q941 528 880 596.50Q819 665 718 665Q584 665 487 551Q390 437 390 280Q390 172 451 103Q512 34 613 34Z"  horiz-adv-x="1041" vert-adv-y="1000"  />

      
      <glyph glyph-name="uni042F" unicode="&#x042F;" d="M-9 0L287 286Q214 300 177 339Q132 384 132 458Q132 572 222.50 636Q313 700 469 700L728 700L541 0L489 0L564 279L346 279L60 0L-9 0M365 327L576 327L664 652L467 652Q331 652 257.50 602Q184 552 184 460Q184 406 217 373Q263 327 365 327Z"  horiz-adv-x="713" vert-adv-y="1000"  />

      
      <glyph glyph-name="uni0430" unicode="&#x0430;" d="M190-12Q121-12 72 25.50Q23 63 23 131Q23 215 87 265.50Q151 316 253 316Q343 316 449 287L453 301Q460 327 460 352Q460 410 420.50 441Q381 472 306 472Q236 472 158 445L149 489Q230 518 310 518Q403 518 455.50 475.50Q508 433 508 359Q508 330 498 292L420 0L372 0L395 88Q311-12 190-12M199 33Q274 33 340.50 80.50Q407 128 427 203L439 248Q343 272 246 272Q170 272 122.50 234.50Q75 197 75 137Q75 90 108.50 61.50Q142 33 199 33Z"  horiz-adv-x="571" vert-adv-y="1000"  />

      
      <glyph glyph-name="uni0431" unicode="&#x0431;" d="M361 506Q463 506 525.50 446Q588 386 588 289Q588 171 495.50 79.50Q403-12 292-12Q180-12 121.50 51Q63 114 63 214Q63 260 71 309.50Q79 359 99.50 414.50Q120 470 150 515.50Q180 561 228 596.50Q276 632 336 645L635 709L646 665L351 599Q268 580 220 534Q172 488 145 405L149 405Q236 506 361 506M354 462Q258 462 186.50 387.50Q115 313 115 211Q115 134 160.50 84Q206 34 292 34Q382 34 458 112.50Q534 191 534 291Q534 370 486.50 416Q439 462 354 462Z"  horiz-adv-x="642" vert-adv-y="1000"  />

      
      <glyph glyph-name="uni0432" unicode="&#x0432;" d="M25 0L162 510L377 510Q447 510 488.50 479Q530 448 530 394Q530 341 492.50 307Q455 273 395 261Q438 251 465.50 222Q493 193 493 150Q493 84 435.50 42Q378 0 280 0L25 0M85 44L276 44Q352 44 396.50 73Q441 102 441 153Q441 194 405 217Q369 240 312 240L138 240L85 44M149 282L313 282Q387 282 432 311.50Q477 341 477 390Q477 466 366 466L199 466L149 282Z"  horiz-adv-x="580" vert-adv-y="1000"  />

      
      <glyph glyph-name="uni0433" unicode="&#x0433;" d="M25 0L162 510L499 510L487 466L199 466L74 0L25 0Z"  horiz-adv-x="460" vert-adv-y="1000"  />

      
      <glyph glyph-name="uni0434" unicode="&#x0434;" d="M-87-144L-38 44L24 44Q133 168 195 402L224 510L566 510L441 44L523 44L463-144L423-144L462 0L2 0L-47-144L-87-144M78 44L392 44L506 466L260 466L235 374Q208 273 165.50 184Q123 95 78 44Z"  horiz-adv-x="608" vert-adv-y="1000"  />

      
      <glyph glyph-name="uni0435" unicode="&#x0435;" d="M272-12Q174-12 112 48Q50 108 50 202Q50 325 137 423.50Q224 522 345 522Q437 522 487.50 466Q538 410 538 327Q538 278 524 238L105 238Q103 216 103 204Q103 127 150 80.50Q197 34 272 34Q363 34 446 102L475 67Q380-12 272-12M114 282L484 282Q488 300 488 324Q488 390 451.50 433.50Q415 477 344 477Q262 477 199.50 421Q137 365 114 282Z"  horiz-adv-x="583" vert-adv-y="1000"  />

      
      <glyph glyph-name="uni0436" unicode="&#x0436;" d="M-43 0L254 293L113 510L169 510L375 185L462 510L511 510L425 188L799 510L865 510L602 287L740 0L685 0L564 255L408 123L375 0L326 0L361 130L279 256L22 0L-43 0Z"  horiz-adv-x="832" vert-adv-y="1000"  />

      
      <glyph glyph-name="uni0437" unicode="&#x0437;" d="M204-10Q83-10 4 66L41 106Q111 36 205 36Q266 36 314.50 71.50Q363 107 363 158Q363 196 330 217.50Q297 239 238 239L168 239L180 283L246 283Q305 283 348.50 314.50Q392 346 392 397Q392 432 362 452.50Q332 473 284 473Q190 473 116 421L94 460Q183 519 289 519Q360 519 403.50 484Q447 449 447 398Q447 306 342 265Q377 252 397 223Q417 194 417 157Q417 87 358 38.50Q299-10 204-10Z"  horiz-adv-x="500" vert-adv-y="1000"  />

      
      <glyph glyph-name="uni0438" unicode="&#x0438;" d="M25 0L162 510L211 510L93 71L549 510L598 510L461 0L412 0L531 441L74 0L25 0Z"  horiz-adv-x="623" vert-adv-y="1000"  />

      
      <glyph glyph-name="uni0439" unicode="&#x0439;" d="M25 0L162 510L211 510L93 71L549 510L598 510L461 0L412 0L531 441L74 0L25 0M482 626.50Q482 626.50 461 610.75Q440 595 388 595Q336 595 304 626.50Q272 658 270 708L312 717Q317 681 334.50 662.50Q352 644 389 644Q428 644 457 663.50Q486 683 500 717L540 708Q524 658 482 626.50Z"  horiz-adv-x="623" vert-adv-y="1000"  />

      
      <glyph glyph-name="uni043A" unicode="&#x043A;" d="M25 0L162 510L211 510L125 189L521 510L592 510L308 282L460 0L403 0L267 252L107 124L74 0L25 0Z"  horiz-adv-x="560" vert-adv-y="1000"  />

      
      <glyph glyph-name="uni043B" unicode="&#x043B;" d="M-3-8Q-45-8-63 1L-43 45Q-29 38-7 38Q23 38 44 50Q65 62 94 104Q123 146 156 239.50Q189 333 230 483L238 510L582 510L445 0L396 0L521 466L273 466L269 452Q235 328 205.50 242.50Q176 157 151.50 107.50Q127 58 100 32Q73 6 51-1Q29-8-3-8Z"  horiz-adv-x="607" vert-adv-y="1000"  />

      
      <glyph glyph-name="uni043C" unicode="&#x043C;" d="M25 0L162 510L201 510L329 214L619 510L666 510L529 0L480 0L594 425L314 143L188 427L74 0L25 0Z"  horiz-adv-x="690" vert-adv-y="1000"  />

      
      <glyph glyph-name="uni043D" unicode="&#x043D;" d="M25 0L162 510L211 510L150 283L481 283L542 510L591 510L454 0L405 0L469 239L138 239L74 0L25 0Z"  horiz-adv-x="616" vert-adv-y="1000"  />

      
      <glyph glyph-name="uni043E" unicode="&#x043E;" d="M278-12Q177-12 114 51.50Q51 115 51 214Q51 336 142 429Q233 522 354 522Q455 522 518 458.50Q581 395 581 296Q581 172 489 80Q397-12 278-12M283 34Q378 34 453 112Q528 190 528 294Q528 379 479 427.50Q430 476 349 476Q252 476 178 397Q104 318 104 216Q104 131 153 82.50Q202 34 283 34Z"  horiz-adv-x="633" vert-adv-y="1000"  />

      
      <glyph glyph-name="uni043F" unicode="&#x043F;" d="M25 0L162 510L578 510L441 0L392 0L517 466L199 466L74 0L25 0Z"  horiz-adv-x="603" vert-adv-y="1000"  />

      
      <glyph glyph-name="uni0440" unicode="&#x0440;" d="M312-13Q233-13 182 27.50Q131 68 109 130L31-160L-18-160L162 510L210 510L183 410Q277 522 395 522Q484 522 542 461.50Q600 401 600 307Q600 173 514 80Q428-13 312-13M310 33Q411 33 479 113Q547 193 547 301Q547 379 503 427.50Q459 476 389 476Q293 476 213.50 394Q134 312 134 211Q134 136 183.50 84.50Q233 33 310 33Z"  horiz-adv-x="654" vert-adv-y="1000"  />

      
      <glyph glyph-name="uni0441" unicode="&#x0441;" d="M272-12Q183-12 116.50 48Q50 108 50 208Q50 334 139.50 428Q229 522 350 522Q423 522 473.50 487Q524 452 550 399L509 376Q452 476 347 476Q250 476 176.50 396Q103 316 103 211Q103 129 153.50 81.50Q204 34 275 34Q362 34 440 107L473 75Q383-12 272-12Z"  horiz-adv-x="563" vert-adv-y="1000"  />

      
      <glyph glyph-name="uni0442" unicode="&#x0442;" d="M146 0L271 466L80 466L92 510L523 510L511 466L320 466L195 0L146 0Z"  horiz-adv-x="491" vert-adv-y="1000"  />

      
      <glyph glyph-name="uni0443" unicode="&#x0443;" d="M20-163Q-38-163-88-128L-61-88Q-25-117 26-117Q66-117 104.50-89.50Q143-62 189 3L85 510L137 510L226 54L533 510L592 510L229-18Q175-96 125.50-129.50Q76-163 20-163Z"  horiz-adv-x="568" vert-adv-y="1000"  />

      
      <glyph glyph-name="uni0444" unicode="&#x0444;" d="M292-160L347 46Q278-12 204-12Q130-12 87.50 32Q45 76 45 162Q45 243 74.50 323Q104 403 169.50 462.50Q235 522 322 522Q403 522 458 457L522 700L571 700L508 462Q535 483 551.50 493.50Q568 504 594.50 513Q621 522 651 522Q723 522 766.50 473.50Q810 425 810 341Q810 282 792 221Q774 160 741 107.50Q708 55 653.50 21.50Q599-12 533-12Q447-12 396 46L341-160L292-160M214 35Q285 35 362 100L446 414Q405 475 322 475Q251 475 197.50 424.50Q144 374 120.50 305Q97 236 97 164Q97 104 126 69.50Q155 35 214 35M533 35Q588 35 632 63Q676 91 702.50 136.50Q729 182 742.50 234.50Q756 287 756 341Q756 402 727 438.50Q698 475 641 475Q567 475 495 414L409 96Q450 35 533 35Z"  horiz-adv-x="855" vert-adv-y="1000"  />

      
      <glyph glyph-name="uni0445" unicode="&#x0445;" d="M-29 0L255 264L120 510L176 510L288 295L512 510L578 510L310 260L451 0L395 0L277 229L37 0L-29 0Z"  horiz-adv-x="559" vert-adv-y="1000"  />

      
      <glyph glyph-name="uni0446" unicode="&#x0446;" d="M434-144L473 0L25 0L162 510L211 510L86 44L404 44L529 510L578 510L453 44L535 44L474-144L434-144Z"  horiz-adv-x="620" vert-adv-y="1000"  />

      
      <glyph glyph-name="uni0447" unicode="&#x0447;" d="M345 0L405 223Q299 171 215 171Q153 171 117 200Q81 229 81 281Q81 304 88 328L137 510L186 510L135 318Q130 300 130 287Q130 254 154 235Q178 216 222 216Q321 216 418 272L482 510L531 510L394 0L345 0Z"  horiz-adv-x="556" vert-adv-y="1000"  />

      
      <glyph glyph-name="uni0448" unicode="&#x0448;" d="M25 0L162 510L211 510L86 44L364 44L489 510L538 510L413 44L691 44L816 510L865 510L728 0L25 0Z"  horiz-adv-x="890" vert-adv-y="1000"  />

      
      <glyph glyph-name="uni0449" unicode="&#x0449;" d="M721-144L760 0L25 0L162 510L211 510L86 44L364 44L489 510L538 510L413 44L691 44L816 510L865 510L740 44L822 44L761-144L721-144Z"  horiz-adv-x="907" vert-adv-y="1000"  />

      
      <glyph glyph-name="uni044A" unicode="&#x044A;" d="M115 0L240 466L80 466L92 510L301 510L246 305L392 305Q484 305 528 261Q561 228 561 175Q561 92 495.50 46Q430 0 316 0L115 0M176 44L312 44Q407 44 458 77.50Q509 111 509 173Q509 218 473.50 239.50Q438 261 387 261L234 261L176 44Z"  horiz-adv-x="619" vert-adv-y="1000"  />

      
      <glyph glyph-name="uni044B" unicode="&#x044B;" d="M25 0L162 510L211 510L156 305L301 305Q393 305 437 261Q470 228 470 175Q470 92 404.50 46Q339 0 225 0L25 0M86 44L221 44Q316 44 367 77.50Q418 111 418 173Q418 218 382.50 239.50Q347 261 296 261L144 261L86 44M522 0L659 510L708 510L571 0L522 0Z"  horiz-adv-x="733" vert-adv-y="1000"  />

      
      <glyph glyph-name="uni044C" unicode="&#x044C;" d="M25 0L162 510L211 510L156 305L302 305Q394 305 438 261Q471 228 471 175Q471 92 405.50 46Q340 0 226 0L25 0M86 44L222 44Q317 44 368 77.50Q419 111 419 173Q419 218 383.50 239.50Q348 261 297 261L144 261L86 44Z"  horiz-adv-x="529" vert-adv-y="1000"  />

      
      <glyph glyph-name="uni044D" unicode="&#x044D;" d="M210-12Q137-12 86.50 23Q36 58 10 111L51 134Q108 34 213 34Q295 34 362 93Q429 152 450 239L194 239L205 283L456 283Q457 288 457 299Q457 381 406.50 428.50Q356 476 285 476Q201 476 127 409L98 445Q184 522 288 522Q377 522 443.50 462Q510 402 510 302Q510 176 420.50 82Q331-12 210-12Z"  horiz-adv-x="562" vert-adv-y="1000"  />

      
      <glyph glyph-name="uni044E" unicode="&#x044E;" d="M471-12Q375-12 317.50 48.50Q260 109 260 203Q260 223 261 234L136 234L74 0L25 0L161 510L210 510L148 279L268 279Q291 382 369 452Q447 522 551 522Q648 522 705 461Q762 400 762 306Q762 178 677.50 83Q593-12 471-12M476 34Q573 34 641 114.50Q709 195 709 304Q709 383 665.50 429.50Q622 476 546 476Q448 476 380.50 395Q313 314 313 206Q313 127 356 80.50Q399 34 476 34Z"  horiz-adv-x="814" vert-adv-y="1000"  />

      
      <glyph glyph-name="uni044F" unicode="&#x044F;" d="M-10 0L202 204Q91 228 91 334Q91 417 157 463.50Q223 510 336 510L545 510L409 0L360 0L413 199L257 199L54 0L-10 0M260 243L425 243L485 466L335 466Q239 466 187.50 431.50Q136 397 136 333Q136 290 168 266.50Q200 243 260 243Z"  horiz-adv-x="570" vert-adv-y="1000"  />

      
      <glyph glyph-name="uni0451" unicode="&#x0451;" d="M272-12Q174-12 112 48Q50 108 50 202Q50 325 137 423.50Q224 522 345 522Q437 522 487.50 466Q538 410 538 327Q538 278 524 238L105 238Q103 216 103 204Q103 127 150 80.50Q197 34 272 34Q363 34 446 102L475 67Q380-12 272-12M114 282L484 282Q488 300 488 324Q488 390 451.50 433.50Q415 477 344 477Q262 477 199.50 421Q137 365 114 282M252 595L274 675L343 675L321 595L252 595M415 595L437 675L506 675L484 595L415 595Z"  horiz-adv-x="583" vert-adv-y="1000"  />

      
      <glyph glyph-name="uni0452" unicode="&#x0452;" d="M279-12Q216-12 178 11L203 53Q237 34 285 34Q415 34 457 185L487 292Q495 322 495 355Q495 412 460 445Q425 478 364 478Q297 478 235 424Q173 370 151 288L74 0L25 0L181 581L97 581L109 625L193 625L221 730L270 730L242 625L470 625L458 581L230 581L185 415Q274 522 378 522Q454 522 499.50 477.50Q545 433 545 360Q545 332 534 288L504 176Q478 81 425.50 34.50Q373-12 279-12Z"  horiz-adv-x="609" vert-adv-y="1000"  />

      
      <glyph glyph-name="uni0453" unicode="&#x0453;" d="M25 0L162 510L499 510L487 466L199 466L74 0L25 0M277 595L401 728L463 698L328 595L277 595Z"  horiz-adv-x="460" vert-adv-y="1000"  />

      
      <glyph glyph-name="uni0454" unicode="&#x0454;" d="M272-12Q183-12 116.50 48Q50 108 50 208Q50 334 139.50 428Q229 522 350 522Q479 522 542 414L500 390Q444 476 347 476Q268 476 202 420.50Q136 365 113 283L375 283L364 239L104 239Q103 229 103 211Q103 129 153.50 81.50Q204 34 275 34Q370 34 449 108L482 76Q390-12 272-12Z"  horiz-adv-x="563" vert-adv-y="1000"  />

      
      <glyph glyph-name="uni0455" unicode="&#x0455;" d="M217-11Q89-11 1 77L36 112Q117 34 223 34Q274 34 314.50 62.50Q355 91 355 135Q355 166 331.50 189Q308 212 244 236Q168 264 134.50 294.50Q101 325 101 373Q101 435 153.50 478Q206 521 290 521Q393 521 474 453L442 416Q369 476 285 476Q224 476 188.50 448Q153 420 153 381Q153 350 176 329Q199 308 268 281Q344 251 375.50 220Q407 189 407 143Q407 77 351 33Q295-11 217-11Z"  horiz-adv-x="495" vert-adv-y="1000"  />

      
      <glyph glyph-name="uni0456" unicode="&#x0456;" d="M32 0L169 510L218 510L81 0L32 0M199 643L217 710L278 710L260 643L199 643Z"  horiz-adv-x="250" vert-adv-y="1000"  />

      
      <glyph glyph-name="uni0457" unicode="&#x0457;" d="M92 595L114 675L183 675L161 595L92 595M255 595L277 675L346 675L324 595L255 595M32 0L169 510L218 510L81 0L32 0Z"  horiz-adv-x="250" vert-adv-y="1000"  />

      
      <glyph glyph-name="uni0458" unicode="&#x0458;" d="M-52-163Q-85-163-115-153L-103-109Q-75-117-56-117Q0-117 19-48L169 510L218 510L67-52Q53-105 22-134Q-9-163-52-163M199 643L217 710L278 710L260 643L199 643Z"  horiz-adv-x="249" vert-adv-y="1000"  />

      
      <glyph glyph-name="uni0459" unicode="&#x0459;" d="M-3-8Q-45-8-63 1L-43 45Q-29 38-7 38Q23 38 44 50Q65 62 94 104Q123 146 156 239.50Q189 333 230 483L238 510L582 510L527 305L673 305Q765 305 809 261Q842 228 842 175Q842 92 776.50 46Q711 0 597 0L396 0L521 466L273 466L269 452Q235 328 205.50 242.50Q176 157 151.50 107.50Q127 58 100 32Q73 6 51-1Q29-8-3-8M457 44L593 44Q688 44 739 77.50Q790 111 790 173Q790 218 754.50 239.50Q719 261 668 261L515 261L457 44Z"  horiz-adv-x="900" vert-adv-y="1000"  />

      
      <glyph glyph-name="uni045A" unicode="&#x045A;" d="M25 0L162 510L211 510L153 292L484 292L542 510L591 510L533 292L682 292Q760 292 805.50 259Q851 226 851 165Q851 89 785 44.50Q719 0 606 0L405 0L472 248L141 248L74 0L25 0M466 44L602 44Q696 44 747.50 76Q799 108 799 163Q799 206 763.50 227Q728 248 677 248L521 248L466 44Z"  horiz-adv-x="909" vert-adv-y="1000"  />

      
      <glyph glyph-name="uni045B" unicode="&#x045B;" d="M25 0L181 581L97 581L109 625L193 625L221 730L270 730L242 625L470 625L458 581L230 581L185 415Q274 522 378 522Q454 522 499.50 477.50Q545 433 545 360Q545 332 534 288L458 0L409 0L487 292Q495 322 495 355Q495 412 460 445Q425 478 364 478Q297 478 235 424Q173 370 151 288L74 0L25 0Z"  horiz-adv-x="609" vert-adv-y="1000"  />

      
      <glyph glyph-name="uni045C" unicode="&#x045C;" d="M25 0L162 510L211 510L125 189L521 510L592 510L308 282L460 0L403 0L267 252L107 124L74 0L25 0M297 595L421 728L483 698L348 595L297 595Z"  horiz-adv-x="560" vert-adv-y="1000"  />

      
      <glyph glyph-name="uni045E" unicode="&#x045E;" d="M20-163Q-38-163-88-128L-61-88Q-25-117 26-117Q66-117 104.50-89.50Q143-62 189 3L85 510L137 510L226 54L533 510L592 510L229-18Q175-96 125.50-129.50Q76-163 20-163M442 626.50Q442 626.50 421 610.75Q400 595 348 595Q296 595 264 626.50Q232 658 230 708L272 717Q277 681 294.50 662.50Q312 644 349 644Q388 644 417 663.50Q446 683 460 717L500 708Q484 658 442 626.50Z"  horiz-adv-x="568" vert-adv-y="1000"  />

      
      <glyph glyph-name="uni045F" unicode="&#x045F;" d="M174-144L213 0L26 0L162 510L211 510L87 44L405 44L529 510L578 510L442 0L263 0L224-144L174-144Z"  horiz-adv-x="603" vert-adv-y="1000"  />

      
      <glyph glyph-name="uni0490" unicode="&#x0490;" d="M36 0L224 700L607 700L650 860L694 860L648 652L263 652L88 0L36 0Z"  horiz-adv-x="582" vert-adv-y="1000"  />

      
      <glyph glyph-name="uni0491" unicode="&#x0491;" d="M25 0L162 510L448 510L487 654L527 654L487 466L199 466L74 0L25 0Z"  horiz-adv-x="460" vert-adv-y="1000"  />

      
      <glyph glyph-name="uni2013" unicode="&#x2013;" d="M74 271L88 323L476 323L462 271L74 271Z"  horiz-adv-x="528" vert-adv-y="1000"  />

      
      <glyph glyph-name="uni2014" unicode="&#x2014;" d="M74 271L88 323L846 323L832 271L74 271Z"  horiz-adv-x="898" vert-adv-y="1000"  />

      
      <glyph glyph-name="uni2018" unicode="&#x2018;" d="M147 513L167 587Q181 639 206.50 664.50Q232 690 282 704L289 680Q220 656 209 598L236 598L213 513L147 513Z"  horiz-adv-x="231" vert-adv-y="1000"  />

      
      <glyph glyph-name="uni2019" unicode="&#x2019;" d="M138 509L131 533Q200 557 211 615L184 615L207 700L273 700L253 626Q238 574 213 548.50Q188 523 138 509Z"  horiz-adv-x="231" vert-adv-y="1000"  />

      
      <glyph glyph-name="uni201A" unicode="&#x201A;" d="M-32-106L-39-82Q30-58 41 0L14 0L37 85L103 85L83 11Q68-41 43-66.50Q18-92-32-106Z"  horiz-adv-x="231" vert-adv-y="1000"  />

      
      </font>
</defs>
</svg>
