<svg  xmlns='http://www.w3.org/2000/svg' viewBox="0 0 1755 1024"><path fill="currentColor" d="M1682.286 585.143h-1433.6l316.952 316.952c29.257 29.257 29.257 73.143 0 102.4s-73.143 29.257-102.4 0l-429.105-429.105c-4.876-4.876-9.752-4.876-14.629-9.752-14.629-19.505-19.505-39.010-19.505-63.39 0-4.876 0-9.752 0-9.752s0-4.876 0-4.876c4.876-14.629 14.629-24.381 24.381-29.257l433.981-433.981c29.257-29.257 73.143-29.257 102.4 0s29.257 73.143 0 102.4l-312.076 312.076h1433.6c39.010 0 73.143 34.133 73.143 73.143v0c0 39.010-34.133 73.143-73.143 73.143z"/></svg>